<svg version="1.1" xmlns="http://www.w3.org/2000/svg" xmlns:xlink="http://www.w3.org/1999/xlink" width="676.57072" height="394.86038" viewBox="0,0,676.57072,394.86038"><defs><linearGradient x1="242.32057" y1="-11.80512" x2="242.32057" y2="283.99067" gradientUnits="userSpaceOnUse" id="color-1"><stop offset="0" stop-color="#3cafac"/><stop offset="1" stop-color="#64efea"/></linearGradient><radialGradient cx="386.46472" cy="108.99663" r="105.85586" gradientUnits="userSpaceOnUse" id="color-2"><stop offset="0" stop-color="#e5ffff"/><stop offset="1" stop-color="#e5ffff" stop-opacity="0"/></radialGradient><linearGradient x1="388.71696" y1="33.17081" x2="388.71696" y2="189.32698" gradientUnits="userSpaceOnUse" id="color-3"><stop offset="0" stop-color="#f9ffff"/><stop offset="1" stop-color="#e5ffff"/></linearGradient></defs><g transform="translate(44.08197,11.80513)"><g data-paper-data="{&quot;isPaintingLayer&quot;:true}" fill-rule="nonzero" stroke="none" stroke-width="0" stroke-linecap="butt" stroke-linejoin="miter" stroke-miterlimit="10" stroke-dasharray="" stroke-dashoffset="0" style="mix-blend-mode: normal"><path d="M-37.70946,283.99067v-295.7958h560.06006v295.7958z" fill="url(#color-1)"/><path d="M72.82385,126.93699l18.16857,-21.54515l1.76777,18.55211z" data-paper-data="{&quot;index&quot;:null}" fill="#7cefe9"/><path d="M94.00498,132.36599l-4.79132,-35.53562l2.86578,-0.3864l4.79132,35.53563z" fill="#7cefe9"/><path d="M121.37964,128.52372c0.37774,7.33802 -9.85358,13.8291 -22.8523,14.49824c-12.99871,0.66914 -23.84248,-4.73705 -24.22022,-12.07507c-0.05623,-1.09233 0.5107,-3.20428 0.5107,-3.20428c0,0 14.81463,0.07511 21.60524,-0.27907c7.95142,-0.41472 24.09893,-2.11601 24.09893,-2.11601c0,0 0.80063,2.06871 0.85765,3.17619z" fill="#99f7f3"/><path d="M121.37964,128.52371c0.30144,5.85564 -6.15279,11.17196 -15.37798,13.42096c2.12373,-3.74017 3.03746,-8.14868 2.31565,-13.55967c-0.08031,-0.60202 -0.14173,-1.21227 -0.19307,-1.82577c6.45218,-0.58528 12.39776,-1.2117 12.39776,-1.2117c0,0 0.80063,2.06871 0.85765,3.17619z" fill="#bdfffc"/><path d="M98.52734,143.02194c-12.99871,0.66914 -23.84248,-4.73705 -24.22022,-12.07507c-0.05623,-1.09233 0.5107,-3.20428 0.5107,-3.20428c0,0 9.36538,0.04748 16.61665,-0.11108c0.19607,0.53121 0.43866,1.03601 0.69905,1.494c2.41295,4.24411 3.37501,9.1036 8.03332,12.65639c0.46549,0.35502 0.98499,0.66859 1.53908,0.95549c-1.03742,0.13315 -2.09845,0.22895 -3.17858,0.28456z" fill="#7cefe9"/><path d="M94.83619,124.75053l-3.69053,-26.8485l32.90723,24.43014z" fill="#bdfffc"/><path d="M492.32058,108.99663c0,58.46257 -47.39328,105.85586 -105.85586,105.85586c-58.46258,0 -105.85585,-47.39328 -105.85585,-105.85586c0,-58.46257 47.39328,-105.85585 105.85585,-105.85585c58.46258,0 105.85586,47.39328 105.85586,105.85586z" fill="url(#color-2)"/><path d="" fill="#7cefe9"/><path d="M466.79504,111.24891c0,43.12133 -34.95675,78.07808 -78.07808,78.07808c-43.12133,0 -78.07807,-34.95674 -78.07807,-78.07808c0,-43.12133 34.95674,-78.07808 78.07807,-78.07808c43.12133,0 78.07808,34.95675 78.07808,78.07808z" fill="url(#color-3)"/><path d="M307.77981,168.75943l-7.20857,-30.59464c0,0 16.77044,-0.83034 27.54243,-1.8203c15.19034,-1.396 33.67786,-1.51957 38.89808,-1.66947c10.84071,0.56462 36.1922,2.45506 52.29753,1.94919c27.49728,-0.86369 28.78861,-10.26759 38.60015,-10.21254c10.43098,-0.30651 40.2476,10.36323 68.05595,9.81079c30.25756,-0.6011 40.933,-6.17546 48.11083,-6.12984c12.01121,0.07634 58.41255,9.66271 58.41255,9.66271l-0.85816,29.00408z" data-paper-data="{&quot;index&quot;:null}" fill="#71f1e0"/><path d="M-9.42862,169.05497l-0.85816,-29.00408c0,0 46.40133,-9.58638 58.41254,-9.66271c7.17784,-0.04562 17.85327,5.52874 48.11083,6.12984c27.80835,0.55244 41.10845,-6.14164 51.53944,-5.83511c9.81154,-0.05506 27.61938,5.37317 55.11666,6.23685c16.10533,0.50587 27.94331,-8.34202 38.78402,-8.90663c4.70831,0.1352 34.45597,5.12051 48.74004,6.41944c12.78366,1.1625 34.81827,4.62422 34.81827,4.62422l-10.81285,29.99817z" data-paper-data="{&quot;index&quot;:null}" fill="#71f1e0"/><path d="M243.39612,164.34742l-6.01158,-25.51438c0,0 13.9857,-0.69247 22.96899,-1.51804c12.66797,-1.1642 28.08563,-1.26724 32.43903,-1.39225c9.0406,0.47086 30.18245,2.04739 43.61348,1.62552c22.93133,-0.72027 24.00824,-8.56265 32.19057,-8.51673c8.69891,-0.25562 33.56446,8.64241 56.75522,8.1817c25.23327,-0.50128 34.13605,-5.15001 40.122,-5.11197c10.01675,0.06366 48.71311,8.05821 48.71311,8.05821l-0.71566,24.18793z" data-paper-data="{&quot;index&quot;:null}" fill="#55cbc7"/><path d="M-20.13965,165.91779l-0.71566,-24.18794c0,0 38.69636,-7.99455 48.71311,-8.05821c5.98595,-0.03805 14.88871,4.61068 40.12199,5.11197c23.19075,0.46071 34.28237,-5.12181 42.98128,-4.86619c8.18233,-0.04592 23.03317,4.48095 45.96451,5.20122c13.43103,0.42186 23.3033,-6.95682 32.3439,-7.42768c3.92649,0.11274 28.73454,4.27024 40.64673,5.35349c10.66093,0.96947 29.03667,3.85637 29.03667,3.85637l-9.01737,25.01696z" data-paper-data="{&quot;index&quot;:null}" fill="#55cbc7"/><path d="M-26.47479,169.26579l-0.71567,-24.18792c0,0 38.69636,-7.99456 48.71311,-8.05822c5.98595,-0.03805 14.88873,4.61069 40.122,5.11197c23.19075,0.46071 48.05631,-8.43732 56.75522,-8.1817c8.18233,-0.04592 9.25923,7.79647 32.19057,8.51674c13.43103,0.42186 34.57289,-1.15467 43.61349,-1.62553c4.3534,0.12501 19.77106,0.22806 32.43903,1.39226c8.98329,0.82557 22.96899,1.51803 22.96899,1.51803l-6.01158,25.51438z" fill="#3cafac"/><path d="M238.06097,169.51226l-9.01737,-25.01695c0,0 18.37574,-2.8869 29.03668,-3.85637c11.91219,-1.08325 36.72024,-5.24075 40.64673,-5.35349c9.0406,0.47086 18.91287,7.84955 32.34391,7.42768c22.93133,-0.72027 37.78217,-5.24714 45.9645,-5.20122c8.69891,-0.25563 19.79052,5.3269 42.98128,4.86619c25.23327,-0.50128 34.13604,-5.15002 40.12199,-5.11198c10.01675,0.06366 48.71311,8.05821 48.71311,8.05821l-0.71567,24.18793z" data-paper-data="{&quot;index&quot;:null}" fill="#3cafac"/><path d="M233.89123,175.62331l-6.01158,-25.51439c0,0 13.9857,-0.69246 22.96899,-1.51803c12.66797,-1.1642 28.08563,-1.26725 32.43903,-1.39226c9.0406,0.47086 30.18246,2.04739 43.61349,1.62553c22.93133,-0.72027 24.00824,-8.56266 32.19056,-8.51674c8.69891,-0.25562 33.56446,8.64242 56.75522,8.18171c25.23327,-0.50128 34.13605,-5.15002 40.122,-5.11198c10.01675,0.06366 48.7131,8.05821 48.7131,8.05821l-0.71567,24.18793z" data-paper-data="{&quot;index&quot;:null}" fill="#307e8d"/><path d="M-30.64454,175.86977l-0.71567,-24.18794c0,0 38.69636,-7.99455 48.71311,-8.05821c5.98595,-0.03805 14.88872,4.61068 40.122,5.11197c23.19076,0.46071 34.28237,-5.12181 42.98128,-4.86619c8.18233,-0.04592 23.03317,4.48095 45.9645,5.20122c13.43103,0.42186 23.3033,-6.95682 32.34391,-7.42768c3.92649,0.11274 28.73453,4.27024 40.64673,5.35349c10.66093,0.96947 29.03668,3.85637 29.03668,3.85637l-9.01737,25.01696z" data-paper-data="{&quot;index&quot;:null}" fill="#307e8d"/><path d="M-33.56211,185.29632l-0.71567,-24.18793c0,0 38.69636,-7.99455 48.71311,-8.05821c5.98595,-0.03805 14.88873,4.61069 40.122,5.11198c23.19075,0.4607 48.05631,-8.43732 56.75522,-8.1817c8.18233,-0.04591 9.25923,7.79647 32.19056,8.51674c13.43103,0.42186 34.57289,-1.15467 43.61349,-1.62553c4.3534,0.125 19.77106,0.22806 32.43903,1.39226c8.98329,0.82557 22.96899,1.51803 22.96899,1.51803l-6.01158,25.51438z" fill="#2e7487"/><path d="M230.97366,185.54277l-9.01738,-25.01696c0,0 18.37574,-2.8869 29.03668,-3.85636c11.9122,-1.08325 36.72024,-5.24075 40.64674,-5.35349c9.0406,0.47086 18.91287,7.84954 32.3439,7.42767c22.93133,-0.72027 37.78218,-5.24713 45.9645,-5.20122c8.69891,-0.25563 19.79053,5.3269 42.98128,4.86619c25.23327,-0.50128 34.13604,-5.15002 40.12199,-5.11198c10.01675,0.06366 48.7131,8.05821 48.7131,8.05821l-0.71567,24.18793z" data-paper-data="{&quot;index&quot;:null}" fill="#2e7487"/><path d="M-32.64458,208.45621l-0.79424,-26.84353c0,0 42.94485,-8.87228 54.06134,-8.94293c6.64315,-0.04222 16.52336,5.1169 44.52701,5.67322c25.73688,0.51129 43.05495,-12.31517 52.70891,-12.03148c9.08066,-0.05095 20.55329,11.60395 46.00226,12.4033c14.90563,0.46818 38.36866,-4.96096 48.40183,-5.48352c4.83136,0.13873 21.94173,3.93263 36.00053,5.22464c9.96957,0.91621 25.49076,1.6847 25.49076,1.6847l-6.67159,28.31562z" fill="#2e6a86"/><path d="M260.93467,208.72973l-10.0074,-27.76358c0,0 20.39322,-3.20386 32.22462,-4.27976c13.22004,-1.20218 34.50578,-9.68751 38.86336,-9.81263c10.03317,0.52256 27.23532,12.58273 42.14094,12.11455c25.44898,-0.79935 41.9303,-5.82321 51.01097,-5.77226c9.65397,-0.28369 21.96333,5.91174 47.70021,5.40045c28.00365,-0.55632 37.88385,-5.71544 44.527,-5.67322c11.11648,0.07065 54.06133,8.94293 54.06133,8.94293l-0.79424,26.84353z" data-paper-data="{&quot;index&quot;:null}" fill="#2e6a86"/><path d="M-29.66553,383.05525v-178.67868h588.58859v178.67868z" fill="#2e6a86"/><path d="M382.18687,233.91549c0,0 -0.88078,3.1964 -3.24627,5.17522c-2.36548,1.97883 -3.86001,2.32461 -4.52853,1.52546c-0.66852,-0.79916 -0.25789,-2.44062 2.1076,-4.41944c2.36548,-1.97883 5.66721,-2.28124 5.66721,-2.28124z" fill="#235c77"/><path d="M376.98137,246.23383c0,0 -0.88078,3.1964 -3.24627,5.17522c-2.36548,1.97883 -3.86002,2.32462 -4.52853,1.52546c-0.66852,-0.79916 -0.25789,-2.44062 2.1076,-4.41944c2.36548,-1.97883 5.66721,-2.28124 5.66721,-2.28124z" fill="#235c77"/><path d="M394.87694,228.81183c0,0 -0.88078,3.1964 -3.24627,5.17522c-2.36548,1.97883 -3.86001,2.32462 -4.52853,1.52546c-0.66852,-0.79916 -0.25789,-2.44062 2.1076,-4.41944c2.36548,-1.97883 5.66721,-2.28124 5.66721,-2.28124z" fill="#235c77"/><path d="M389.67143,241.13019c0,0 -0.88078,3.1964 -3.24627,5.17522c-2.36548,1.97883 -3.86001,2.32462 -4.52853,1.52546c-0.66852,-0.79916 -0.25789,-2.44062 2.1076,-4.41944c2.36548,-1.97883 5.66721,-2.28124 5.66721,-2.28124z" fill="#235c77"/><path d="M408.9456,225.51582c0,0 -0.88078,3.1964 -3.24627,5.17522c-2.36548,1.97883 -3.86001,2.32462 -4.52853,1.52546c-0.66852,-0.79916 -0.25789,-2.44062 2.1076,-4.41944c2.36548,-1.97883 5.66721,-2.28124 5.66721,-2.28124z" fill="#235c77"/><path d="M403.7401,237.83418c0,0 -0.88078,3.1964 -3.24627,5.17522c-2.36548,1.97883 -3.86001,2.32462 -4.52853,1.52546c-0.66852,-0.79916 -0.25789,-2.44062 2.1076,-4.41944c2.36548,-1.97883 5.66721,-2.28124 5.66721,-2.28124z" fill="#235c77"/><path d="M392.52561,219.13084c0,0 -0.88078,3.1964 -3.24627,5.17522c-2.36548,1.97883 -3.86001,2.32462 -4.52852,1.52546c-0.66852,-0.79916 -0.2579,-2.44062 2.10759,-4.41944c2.36548,-1.97883 5.66721,-2.28124 5.66721,-2.28124z" fill="#235c77"/><path d="M28.80378,257.40142c0,0 8.99328,0.82369 15.43641,6.21365c6.44315,5.38993 7.56164,9.86099 5.7407,12.03774c-1.82091,2.17675 -5.89173,1.23489 -12.33486,-4.15507c-6.44315,-5.38993 -8.84223,-14.09632 -8.84223,-14.09632z" data-paper-data="{&quot;index&quot;:null}" fill="#25607c"/><path d="M42.98259,290.95428c0,0 8.99328,0.82371 15.43641,6.21366c6.44315,5.38993 7.56164,9.86099 5.7407,12.03774c-1.82091,2.17675 -5.89173,1.23489 -12.33486,-4.15507c-6.44315,-5.38993 -8.84223,-14.09634 -8.84223,-14.09634z" data-paper-data="{&quot;index&quot;:null}" fill="#25607c"/><path d="M-5.76157,243.50005c0,0 8.99326,0.82371 15.4364,6.21367c6.44315,5.38994 7.56166,9.86098 5.74072,12.03773c-1.82091,2.17675 -5.89173,1.23488 -12.33486,-4.15508c-6.44315,-5.38994 -8.84223,-14.09633 -8.84223,-14.09633z" data-paper-data="{&quot;index&quot;:null}" fill="#25607c"/><path d="M8.41725,277.05291c0,0 8.99328,0.82371 15.43641,6.21367c6.44315,5.38993 7.56164,9.86098 5.7407,12.03773c-1.82091,2.17675 -5.89173,1.23488 -12.33486,-4.15508c-6.44315,-5.38993 -8.84223,-14.09632 -8.84223,-14.09632z" data-paper-data="{&quot;index&quot;:null}" fill="#25607c"/><path d="M-44.08196,234.52234c0,0 8.99327,0.82371 15.43641,6.21367c6.44315,5.38994 7.56164,9.86099 5.74071,12.03773c-1.82091,2.17675 -5.89173,1.23488 -12.33486,-4.15508c-6.44315,-5.38994 -8.84223,-14.09633 -8.84223,-14.09633z" data-paper-data="{&quot;index&quot;:null}" fill="#25607c"/><path d="M-29.90315,268.0752c0,0 8.99327,0.82371 15.4364,6.21367c6.44315,5.38993 7.56165,9.86098 5.74072,12.03773c-1.82091,2.17675 -5.89173,1.23489 -12.33486,-4.15506c-6.44315,-5.38993 -8.84223,-14.09634 -8.84223,-14.09634z" data-paper-data="{&quot;index&quot;:null}" fill="#25607c"/><path d="M0.64301,217.13084c0,0 8.99327,0.82371 15.43641,6.21367c6.44315,5.38994 7.56162,9.86099 5.74069,12.03773c-1.82091,2.17675 -5.89171,1.23489 -12.33484,-4.15507c-6.44315,-5.38994 -8.84223,-14.09634 -8.84223,-14.09634z" data-paper-data="{&quot;index&quot;:null}" fill="#25607c"/></g></g></svg>