<svg version="1.1" xmlns="http://www.w3.org/2000/svg" xmlns:xlink="http://www.w3.org/1999/xlink" width="38.80786" height="46.5478" viewBox="0,0,38.80786,46.5478"><g transform="translate(-220.59607,-156.7261)"><g data-paper-data="{&quot;isPaintingLayer&quot;:true}" fill="#ff0000" fill-rule="nonzero" stroke="#000000" stroke-width="0" stroke-linecap="square" stroke-linejoin="miter" stroke-miterlimit="10" stroke-dasharray="" stroke-dashoffset="0" style="mix-blend-mode: normal"><path d="M245.22302,203.27376h-10.44616c-0.82995,0 -1.4253,-0.1804 -1.78612,-0.54125c-0.36084,-0.36081 -0.54125,-0.95621 -0.54125,-1.78612v-31.71741h-9.52605c-0.79385,0 -1.38921,-0.1804 -1.78612,-0.54125c-0.36084,-0.39691 -0.54125,-0.99231 -0.54125,-1.78612v-7.84815c0,-0.79381 0.1804,-1.37116 0.54125,-1.732c0.39691,-0.39691 0.99231,-0.59536 1.78615,-0.59536h34.15306c0.82991,0 1.4253,0.19846 1.78615,0.5954c0.36081,0.36084 0.54125,0.93819 0.54125,1.732v7.84819c0,0.79385 -0.18044,1.38921 -0.54125,1.78615c-0.36084,0.36084 -0.95621,0.54125 -1.78612,0.54125h-9.52605v31.71741c0,0.82995 -0.18044,1.4253 -0.54125,1.78615c-0.36084,0.36084 -0.95621,0.54125 -1.78612,0.54125z"/></g></g></svg>