<svg version="1.1" xmlns="http://www.w3.org/2000/svg" xmlns:xlink="http://www.w3.org/1999/xlink" width="27.99786" height="47.24609" viewBox="0,0,27.99786,47.24609"><g transform="translate(-226.00107,-156.37695)"><g data-paper-data="{&quot;isPaintingLayer&quot;:true}" fill="#ff0000" fill-rule="nonzero" stroke="#000000" stroke-width="0" stroke-linecap="square" stroke-linejoin="miter" stroke-miterlimit="10" stroke-dasharray="" stroke-dashoffset="0" style="mix-blend-mode: normal"><path d="M239.99987,203.62286c-2.66643,0 -5.04956,-0.61662 -7.14939,-1.84983c-2.09982,-1.23324 -3.76634,-2.89976 -4.99958,-4.99958c-1.23324,-2.13317 -1.84983,-4.49962 -1.84983,-7.09941c0,-0.69994 0.21665,-1.26655 0.64996,-1.69986c0.43331,-0.43331 0.98325,-0.64993 1.64988,-0.64993c0.69994,0 1.26655,0.21665 1.69986,0.64996c0.43331,0.43331 0.64996,0.99992 0.64996,1.69986c0,1.76651 0.41664,3.38304 1.24991,4.84961c0.83327,1.43322 1.94985,2.58311 3.34974,3.44973c1.43322,0.83327 3.01642,1.24991 4.74962,1.24991c1.76651,0 3.34974,-0.43331 4.74962,-1.29989c1.43322,-0.86658 2.5498,-2.0165 3.34974,-3.44969c0.83327,-1.43322 1.24991,-3.03309 1.24991,-4.7996v-30.94739c0,-0.6666 0.21665,-1.21657 0.64996,-1.64985c0.43331,-0.46662 0.98325,-0.69994 1.64988,-0.69994c0.6666,0 1.21657,0.23332 1.64988,0.69994c0.46662,0.43331 0.69994,0.98325 0.69994,1.64988v30.94742c0,2.59978 -0.61662,4.96624 -1.84983,7.09941c-1.23324,2.09982 -2.91643,3.76634 -5.04956,4.99958c-2.09982,1.23324 -4.46628,1.84986 -7.09941,1.84986z"/></g></g></svg>