<svg version="1.1" xmlns="http://www.w3.org/2000/svg" xmlns:xlink="http://www.w3.org/1999/xlink" width="46.64614" height="46.64624" viewBox="0,0,46.64614,46.64624"><g transform="translate(-216.67693,-156.67688)"><g data-paper-data="{&quot;isPaintingLayer&quot;:true}" fill="#ff0000" fill-rule="nonzero" stroke="#000000" stroke-width="0" stroke-linecap="square" stroke-linejoin="miter" stroke-miterlimit="10" stroke-dasharray="" stroke-dashoffset="0" style="mix-blend-mode: normal"><path d="M219.02672,203.32293c-0.63329,0 -1.18323,-0.21665 -1.64985,-0.64993c-0.46662,-0.46662 -0.69994,-1.03326 -0.69994,-1.69986v-41.94647c0,-0.6666 0.23332,-1.21657 0.69994,-1.64985c0.46662,-0.46662 1.01659,-0.69994 1.64988,-0.69994c0.96658,0 1.66652,0.39997 2.09982,1.1999l20.09832,39.99665h-1.99983l19.74836,-39.99665c0.46662,-0.79993 1.16656,-1.1999 2.09982,-1.1999c0.63329,0 1.16656,0.23332 1.59987,0.69994c0.43331,0.43331 0.64996,0.98325 0.64996,1.64988v41.9465c0,0.6666 -0.21665,1.23324 -0.64993,1.69986c-0.43331,0.43331 -0.96658,0.64996 -1.59987,0.64996c-0.69994,0 -1.28322,-0.21665 -1.74984,-0.64993c-0.43331,-0.46662 -0.64993,-1.03326 -0.64993,-1.69986v-35.89699l0.99992,0.05001l-17.59853,35.99698c-0.43331,0.76659 -1.11658,1.14992 -2.04981,1.14992c-0.99992,0 -1.71653,-0.48329 -2.1498,-1.44986l-17.69852,-35.44701l1.1999,-0.29997v35.89699c0,0.6666 -0.23332,1.23324 -0.69994,1.69986c-0.46662,0.43331 -1.01659,0.64996 -1.64985,0.64996z"/></g></g></svg>