<svg version="1.1" xmlns="http://www.w3.org/2000/svg" xmlns:xlink="http://www.w3.org/1999/xlink" width="27.82144" height="32.64739" viewBox="0,0,27.82144,32.64739"><g transform="translate(-226.08928,-170.9263)"><g data-paper-data="{&quot;isPaintingLayer&quot;:true}" fill="#ff0000" fill-rule="nonzero" stroke="#000000" stroke-width="0" stroke-linecap="square" stroke-linejoin="miter" stroke-miterlimit="10" stroke-dasharray="" stroke-dashoffset="0" style="mix-blend-mode: normal"><path d="M251.88708,203.57355c-0.49996,0 -0.89992,-0.08332 -1.1999,-0.24996c-0.29997,-0.16664 -0.59995,-0.43331 -0.89992,-0.79993l-10.34912,-13.14888l-1.79985,-1.54985l-10.34912,-13.19889c-0.43331,-0.5333 -0.64993,-1.06657 -0.64993,-1.59987c0.03334,-0.56661 0.21665,-1.0499 0.54997,-1.44986c0.36663,-0.43331 0.88325,-0.64993 1.54989,-0.64993c0.69994,0 1.28322,0.23332 1.74987,0.69994l10.04917,12.84894l1.59987,1.29989l11.09907,14.19881c0.5333,0.63329 0.74995,1.23324 0.64996,1.79985c-0.06665,0.56661 -0.31665,1.01659 -0.74992,1.3499c-0.39997,0.29997 -0.8166,0.44998 -1.24988,0.44998zM228.23908,203.57355c-0.63329,0 -1.14989,-0.19998 -1.54985,-0.59995c-0.36663,-0.39997 -0.56661,-0.86658 -0.59995,-1.39988c0,-0.56661 0.21665,-1.11658 0.64996,-1.64985l10.99908,-13.69885l2.5498,3.39972l-10.44911,13.24891c-0.36663,0.46662 -0.89992,0.69994 -1.59987,0.69994zM242.1879,188.07484l-2.89976,-2.99975l10.29914,-13.0989c0.29997,-0.39997 0.61662,-0.6666 0.94994,-0.79993c0.33332,-0.16664 0.68327,-0.24996 1.04993,-0.24996c0.6666,0 1.16656,0.21665 1.49987,0.64996c0.36663,0.39997 0.5333,0.89992 0.49996,1.49987c0,0.56661 -0.19998,1.09991 -0.59995,1.59987z"/></g></g></svg>