<svg version="1.1" xmlns="http://www.w3.org/2000/svg" xmlns:xlink="http://www.w3.org/1999/xlink" width="33.50359" height="46.54785" viewBox="0,0,33.50359,46.54785"><g transform="translate(-223.2482,-156.72607)"><g data-paper-data="{&quot;isPaintingLayer&quot;:true}" fill="#ff0000" fill-rule="nonzero" stroke="#000000" stroke-width="0" stroke-linecap="square" stroke-linejoin="miter" stroke-miterlimit="10" stroke-dasharray="" stroke-dashoffset="0" style="mix-blend-mode: normal"><path d="M235.58874,203.27377h-10.01316c-0.79385,0 -1.38921,-0.1804 -1.78612,-0.54125c-0.36084,-0.36084 -0.54125,-0.95621 -0.54125,-1.78612v-41.89296c0,-0.79385 0.1804,-1.37116 0.54125,-1.732c0.39691,-0.39691 0.99231,-0.59536 1.78615,-0.59536h28.84879c0.82991,0 1.4253,0.19846 1.78615,0.5954c0.36081,0.36084 0.54125,0.93816 0.54125,1.732v7.68579c0,0.82991 -0.18044,1.4253 -0.54125,1.78615c-0.36084,0.36084 -0.95621,0.54125 -1.78612,0.54125h-16.50819v6.76568h11.25805c0.82991,0 1.4253,0.1804 1.78615,0.54125c0.36081,0.36084 0.54125,0.95621 0.54125,1.78615v7.73993c0,0.79385 -0.18044,1.38921 -0.54125,1.78615c-0.36084,0.36084 -0.95621,0.54125 -1.78612,0.54125h-11.25805v12.71945c0,0.82991 -0.18044,1.4253 -0.54125,1.78615c-0.36084,0.36084 -0.95621,0.54125 -1.78612,0.54125z"/></g></g></svg>