<svg version="1.1" xmlns="http://www.w3.org/2000/svg" xmlns:xlink="http://www.w3.org/1999/xlink" width="39.99862" height="46.54777" viewBox="0,0,39.99862,46.54777"><g transform="translate(-220.00069,-156.72612)"><g data-paper-data="{&quot;isPaintingLayer&quot;:true}" fill="#ff0000" fill-rule="nonzero" stroke="#000000" stroke-width="0" stroke-linecap="square" stroke-linejoin="miter" stroke-miterlimit="10" stroke-dasharray="" stroke-dashoffset="0" style="mix-blend-mode: normal"><path d="M244.14053,203.27381h-21.81247c-0.79385,0 -1.38921,-0.18044 -1.78612,-0.54125c-0.36084,-0.36084 -0.54125,-0.95621 -0.54125,-1.78612v-41.89296c0,-0.79385 0.1804,-1.37119 0.54125,-1.732c0.39691,-0.39694 0.99231,-0.59536 1.78615,-0.59536h21.8125c5.37643,0 9.36369,1.08251 11.9617,3.24752c2.59801,2.16501 3.89702,5.48468 3.89702,9.95905v20.1346c0,4.51043 -1.29901,7.84819 -3.89702,10.01319c-2.59801,2.12891 -6.58524,3.19341 -11.96166,3.19341zM234.66862,169.06663v21.97486h7.73993c1.01031,0 1.76807,-0.2526 2.27326,-0.75775c0.50516,-0.50519 0.75775,-1.29901 0.75775,-2.38151v-15.69633c0,-1.08251 -0.2526,-1.87636 -0.75775,-2.38151c-0.50519,-0.50519 -1.26295,-0.75775 -2.27326,-0.75775z"/></g></g></svg>