<svg version="1.1" xmlns="http://www.w3.org/2000/svg" xmlns:xlink="http://www.w3.org/1999/xlink" width="17.14857" height="59.29516" viewBox="0,0,17.14857,59.29516"><g transform="translate(-231.42572,-158.35242)"><g data-paper-data="{&quot;isPaintingLayer&quot;:true}" fill="#ff0000" fill-rule="nonzero" stroke="#000000" stroke-width="0" stroke-linecap="square" stroke-linejoin="miter" stroke-miterlimit="10" stroke-dasharray="" stroke-dashoffset="0" style="mix-blend-mode: normal"><path d="M233.72551,217.64741c-0.6666,0 -1.21657,-0.21665 -1.64985,-0.64993c-0.43331,-0.39997 -0.64993,-0.9499 -0.64993,-1.64985c0,-0.6666 0.21665,-1.23324 0.64996,-1.69986c0.43331,-0.43331 0.98325,-0.64993 1.64988,-0.64993c1.83319,0 3.44973,-0.39997 4.84961,-1.1999c1.39988,-0.76659 2.49979,-1.84983 3.29972,-3.24971c0.83327,-1.39988 1.24991,-3.01642 1.24991,-4.84958v-30.34744c0,-0.69994 0.19998,-1.24988 0.59995,-1.64985c0.43331,-0.43331 0.98325,-0.64993 1.64988,-0.64993c0.6666,0 1.21657,0.21665 1.64988,0.64996c0.46662,0.39997 0.69994,0.94994 0.69994,1.64988v30.34747c0,2.69977 -0.59995,5.09957 -1.79985,7.1994c-1.1999,2.13317 -2.84975,3.78301 -4.94957,4.9496c-2.09982,1.1999 -4.51629,1.79985 -7.24938,1.79985zM245.32454,164.85181c-0.89992,0 -1.66652,-0.31665 -2.29981,-0.9499c-0.63329,-0.6666 -0.9499,-1.44986 -0.9499,-2.34979c0,-0.99992 0.33332,-1.78318 0.99992,-2.34979c0.6666,-0.56661 1.43322,-0.84991 2.29981,-0.84991c0.83327,0 1.56652,0.2833 2.19982,0.84994c0.6666,0.56661 0.99992,1.3499 0.99992,2.34982c0,0.89992 -0.31665,1.68319 -0.9499,2.34982c-0.63329,0.63329 -1.39988,0.94994 -2.29981,0.94994z"/></g></g></svg>