<svg version="1.1" xmlns="http://www.w3.org/2000/svg" xmlns:xlink="http://www.w3.org/1999/xlink" width="20.21452" height="32.99733" viewBox="0,0,20.21452,32.99733"><g transform="translate(-229.89274,-170.25133)"><g data-paper-data="{&quot;isPaintingLayer&quot;:true}" fill="#ff0000" fill-rule="nonzero" stroke="#000000" stroke-width="0" stroke-linecap="square" stroke-linejoin="miter" stroke-miterlimit="10" stroke-dasharray="" stroke-dashoffset="0" style="mix-blend-mode: normal"><path d="M231.84256,183.15025c0.09999,-2.46645 0.73328,-4.66627 1.89984,-6.59945c1.1999,-1.96649 2.73312,-3.49971 4.59961,-4.59961c1.89984,-1.13325 3.99966,-1.69986 6.29947,-1.69986c1.83319,0 3.24974,0.26663 4.24966,0.79993c0.99992,0.49996 1.38321,1.24991 1.14992,2.24983c-0.16664,0.59995 -0.44995,0.99992 -0.84991,1.1999c-0.36663,0.16664 -0.8166,0.23332 -1.34987,0.19998c-0.5333,-0.03334 -1.13325,-0.06665 -1.79985,-0.09999c-2.23316,-0.19998 -4.21632,0.03334 -5.94949,0.69994c-1.7332,0.63329 -3.11641,1.63321 -4.14964,2.99975c-0.99992,1.36654 -1.49987,2.98308 -1.49987,4.84961zM232.19255,203.24857c-0.73328,0 -1.29989,-0.19998 -1.69986,-0.59995c-0.39997,-0.39997 -0.59995,-0.9499 -0.59995,-1.64985v-28.14763c0,-0.69994 0.19998,-1.24988 0.59995,-1.64985c0.39997,-0.39997 0.96658,-0.59995 1.69986,-0.59995c0.69994,0 1.24991,0.19998 1.64988,0.59995c0.39997,0.39997 0.59995,0.94994 0.59995,1.64988v28.14766c0,0.69994 -0.19998,1.24991 -0.59995,1.64988c-0.39997,0.39997 -0.9499,0.59995 -1.64985,0.59995z"/></g></g></svg>