<svg version="1.1" xmlns="http://www.w3.org/2000/svg" xmlns:xlink="http://www.w3.org/1999/xlink" width="28.46917" height="46.7203" viewBox="0,0,28.46917,46.7203"><g transform="translate(-225.76541,-156.63985)"><g data-paper-data="{&quot;isPaintingLayer&quot;:true}" fill="#ff0000" fill-rule="nonzero" stroke="#000000" stroke-width="0" stroke-linecap="square" stroke-linejoin="miter" stroke-miterlimit="10" stroke-dasharray="" stroke-dashoffset="0" style="mix-blend-mode: normal"><path d="M254.23459,202.97263c-0.73781,0.11067 -1.54936,0.20289 -2.4347,0.27669c-0.84848,0.0369 -1.67847,0.05535 -2.49002,0.05535c-0.81154,0 -1.60467,0 -2.37935,0c-0.77468,0 -1.42024,0.01845 -1.93668,0.05535h-0.05532c-0.22134,-1.43869 -0.36887,-2.93269 -0.44267,-4.48205c-0.0738,-1.58626 -0.12912,-3.15403 -0.16598,-4.70338c0,-1.54936 -0.03687,-3.08026 -0.11067,-4.59271c-0.03687,-1.54936 -0.12912,-3.04336 -0.27665,-4.48205l-0.05532,-0.05532c-1.29115,-0.22134 -2.58224,-0.332 -3.87339,-0.332c-1.25422,0 -2.52692,0.16602 -3.81804,0.49802c-0.14753,1.51245 -0.20289,3.02494 -0.16598,4.5374c0.03687,1.51245 0.0738,3.02494 0.11067,4.5374c0.03687,1.47559 0.03687,2.93273 0,4.37141c0,1.40179 -0.11067,2.82206 -0.332,4.26074c-0.51648,0.2951 -1.21735,0.44267 -2.1027,0.44267c-0.88535,0 -1.77069,-0.0369 -2.65604,-0.11067c-0.88535,-0.11067 -1.71534,-0.18444 -2.49002,-0.22134c-0.77468,-0.0369 -1.36488,0.05535 -1.77069,0.27669c-0.0738,-1.25425 -0.16598,-2.93269 -0.27665,-5.03539c-0.11067,-2.1396 -0.22134,-4.5374 -0.332,-7.19344c-0.0738,-2.69294 -0.14753,-5.53341 -0.22134,-8.52145c-0.03687,-2.98804 -0.09222,-5.99454 -0.16598,-9.01944c-0.03687,-3.02494 -0.03687,-5.93918 0,-8.74279c0.03687,-2.80361 0.0738,-5.31208 0.11067,-7.52544v-0.11067h0.05535h0.11067c0.66401,0.14757 1.36488,0.20289 2.1027,0.16602c0.73781,-0.0369 1.45714,-0.07377 2.15805,-0.11067c0.73781,-0.07377 1.45714,-0.11067 2.15805,-0.11067c0.70088,0 1.36488,0.09222 1.99203,0.27669c0.40581,3.02494 0.60869,5.97608 0.60869,8.85346c0,2.87737 0.2582,5.71785 0.77468,8.52145h0.05535c1.10668,0.25824 2.28717,0.332 3.54138,0.22134c1.29115,-0.11067 2.49005,-0.20289 3.59674,-0.27665h0.05535c0.29514,-3.06181 0.44267,-5.90232 0.44267,-8.52145c0.03687,-2.65604 -0.01845,-5.57031 -0.16598,-8.74279c0.51648,-0.18444 1.16203,-0.332 1.93671,-0.44267c0.77468,-0.14757 1.58622,-0.23979 2.4347,-0.27665c0.84848,-0.07377 1.67847,-0.09222 2.49005,-0.05532c0.81154,0 1.54936,0.01845 2.21336,0.05535z"/></g></g></svg>