<svg version="1.1" xmlns="http://www.w3.org/2000/svg" xmlns:xlink="http://www.w3.org/1999/xlink" width="29.10815" height="48.84667" viewBox="0,0,29.10815,48.84667"><g transform="translate(-225.44593,-155.57666)"><g data-paper-data="{&quot;isPaintingLayer&quot;:true}" fill="#ff0000" fill-rule="nonzero" stroke="#000000" stroke-width="0" stroke-linecap="square" stroke-linejoin="miter" stroke-miterlimit="10" stroke-dasharray="" stroke-dashoffset="0" style="mix-blend-mode: normal"><path d="M235.90386,168.17936c-0.0738,0.18444 -0.12912,0.31355 -0.16598,0.38736c-0.0738,0.14753 -0.14753,0.92221 -0.22134,2.32403c-0.0738,1.40179 -0.12912,3.08026 -0.16598,5.03542c-0.03687,1.91823 -0.05532,3.92874 -0.05532,6.03144c0,2.1027 0.0738,3.92874 0.22134,5.4781c0.11067,1.25422 0.44267,2.49005 0.99601,3.7074c0.55334,1.21735 1.47555,2.01048 2.76671,2.37938c0.95915,0.07377 1.86291,-0.0738 2.71139,-0.44267c0.84848,-0.36891 1.49404,-0.99601 1.93671,-1.88136c0.47954,-1.03292 0.68246,-2.1027 0.60869,-3.20938c-0.03687,-1.14358 0.05535,-2.25027 0.27669,-3.32005c0.62714,0.07377 1.30957,0.09222 2.04738,0.05535c0.77468,-0.0369 1.54936,-0.05532 2.32403,-0.05532c0.81154,0 1.60471,0.01845 2.37938,0.05535c0.77468,0.03687 1.47555,0.14753 2.1027,0.332c0.73781,2.28713 0.92221,4.57426 0.55334,6.86143c-0.332,2.25023 -1.08823,4.27916 -2.26868,6.08675c-1.18048,1.80756 -2.72984,3.3016 -4.64807,4.48208c-1.91823,1.14355 -4.09472,1.73379 -6.52943,1.77066c-1.58622,0.22134 -3.22783,0.22134 -4.92472,0c-1.66002,-0.18444 -3.22783,-0.60866 -4.70338,-1.27263c-1.43869,-0.70091 -2.65604,-1.66002 -3.65205,-2.87737c-0.95915,-1.25425 -1.5309,-2.80361 -1.71534,-4.64807c-0.0738,-1.58626 -0.14753,-3.22783 -0.22134,-4.92472c-0.03687,-1.73383 -0.0738,-3.6705 -0.11067,-5.81006c0,-2.1396 0,-4.55585 0,-7.24875c0.03687,-2.69294 0.0738,-5.82855 0.11067,-9.4068c-0.0738,-0.73781 -0.03687,-1.494 0.11067,-2.26868c0.14753,-0.77468 0.36887,-1.494 0.66401,-2.15801c0.36887,-1.14358 0.84848,-2.19491 1.43869,-3.15403c0.62714,-0.99601 1.34647,-1.86291 2.15805,-2.60069c0.47954,-0.36891 0.99601,-0.66401 1.54936,-0.88535c0.59021,-0.25824 1.1989,-0.47957 1.82604,-0.66401c2.02889,-0.62714 4.02092,-0.8669 5.97608,-0.71933c1.99203,0.11067 3.85494,0.55334 5.58876,1.32802c1.77069,0.77468 3.35691,1.80756 4.75873,3.09871c1.40182,1.25422 2.52692,2.71139 3.3754,4.37141c0.84848,1.62312 1.34647,3.41226 1.49404,5.36743c0.18447,1.91823 -0.0738,3.89184 -0.77468,5.92077c-1.62316,0.36887 -3.22783,0.49802 -4.81405,0.38736c-1.54936,-0.11067 -3.15403,-0.31355 -4.81405,-0.60866c-0.14753,-0.84848 -0.23979,-1.78914 -0.27665,-2.82202c0,-1.06982 -0.11067,-2.04734 -0.332,-2.93269c-0.22134,-0.92225 -0.62714,-1.66002 -1.21735,-2.21336c-0.59021,-0.59024 -1.5309,-0.8669 -2.82202,-0.82999c-0.55334,0.07377 -1.162,0.18444 -1.82601,0.332c-0.62714,0.11067 -1.12513,0.35046 -1.494,0.71936c-0.0738,0.07377 -0.14753,0.22134 -0.22134,0.44267z"/></g></g></svg>