<svg version="1.1" xmlns="http://www.w3.org/2000/svg" xmlns:xlink="http://www.w3.org/1999/xlink" width="30.5975" height="33.24747" viewBox="0,0,30.5975,33.24747"><g transform="translate(-224.70125,-170.37627)"><g data-paper-data="{&quot;isPaintingLayer&quot;:true}" fill="#ff0000" fill-rule="nonzero" stroke="#000000" stroke-width="0" stroke-linecap="square" stroke-linejoin="miter" stroke-miterlimit="10" stroke-dasharray="" stroke-dashoffset="0" style="mix-blend-mode: normal"><path d="M241.24984,203.62347c-3.23307,0 -6.09949,-0.69994 -8.59928,-2.09982c-2.46645,-1.43322 -4.4163,-3.39972 -5.84949,-5.89951c-1.39988,-2.49979 -2.09982,-5.36621 -2.09982,-8.59928c0,-3.26638 0.6666,-6.13283 1.99983,-8.59928c1.33323,-2.49979 3.16639,-4.46628 5.49954,-5.89951c2.36646,-1.43322 5.0829,-2.1498 8.14933,-2.1498c2.99975,0 5.6162,0.68327 7.84936,2.04984c2.26647,1.36654 4.01634,3.26638 5.24958,5.69952c1.23324,2.43314 1.84986,5.19956 1.84986,8.2993c0,0.63329 -0.19998,1.14992 -0.59995,1.54989c-0.39997,0.36663 -0.9166,0.54997 -1.54985,0.54997h-25.34786v-3.84966h25.84785l-2.54977,1.84986c0.03334,-2.29981 -0.39997,-4.36629 -1.29989,-6.19948c-0.86658,-1.83319 -2.09982,-3.26638 -3.69969,-4.29964c-1.59987,-1.03326 -3.51638,-1.54985 -5.7495,-1.54985c-2.26647,0 -4.2663,0.54997 -5.9995,1.64988c-1.69986,1.06657 -3.01642,2.5498 -3.94965,4.44964c-0.93327,1.8665 -1.39988,4.01634 -1.39988,6.44948c0,2.43314 0.51663,4.58294 1.54989,6.44948c1.06657,1.8665 2.51646,3.34974 4.34965,4.44964c1.83319,1.06657 3.94969,1.59987 6.34948,1.59987c1.43322,0 2.86642,-0.24996 4.29964,-0.74992c1.46653,-0.49996 2.63312,-1.13325 3.49971,-1.89984c0.43331,-0.36663 0.93327,-0.54994 1.49987,-0.54994c0.56661,-0.03334 1.03326,0.11666 1.39988,0.44998c0.5333,0.46662 0.79993,0.98325 0.79993,1.54989c0.03334,0.5333 -0.18331,0.99992 -0.64993,1.39988c-1.33323,1.13325 -3.01642,2.06648 -5.04956,2.79977c-1.99983,0.73328 -3.93301,1.09991 -5.79951,1.09991z"/></g></g></svg>