<svg version="1.1" xmlns="http://www.w3.org/2000/svg" xmlns:xlink="http://www.w3.org/1999/xlink" width="445" height="452" viewBox="0,0,445,452"><g transform="translate(2.30557,52.65973)"><g data-paper-data="{&quot;isPaintingLayer&quot;:true}" fill-rule="nonzero" stroke-linejoin="miter" stroke-miterlimit="10" stroke-dasharray="" stroke-dashoffset="0" style="mix-blend-mode: normal"><path d="M201.83333,155.11667h93.5" fill="none" stroke="#ffffff" stroke-width="25" stroke-linecap="round"/><path d="M172.25,204.37565h88.25" fill="none" stroke="#ffffff" stroke-width="25" stroke-linecap="round"/><path d="M208.61574,192.72338c0,0 5.59834,-0.3093 9.57098,-3.92195c1.20887,-1.09932 3.61769,-4.97674 3.62774,-9.07716c0.00899,-3.66824 -2.23459,-7.58151 -3.58742,-8.76652c-3.65508,-3.20166 -9.61129,-3.56771 -9.61129,-3.56771h46c0,0 -5.1703,0.18813 -8.70061,3.49721c-1.18349,1.10932 -3.76482,4.92398 -3.719,8.82735c0.04799,4.08823 2.78395,8.27378 4.2366,9.55036c3.2933,2.89412 8.18301,3.45841 8.18301,3.45841z" fill="#ffffff" stroke="none" stroke-width="0" stroke-linecap="butt"/><path d="M-2.30557,399.34027v-452h445v452z" fill="none" stroke="none" stroke-width="0" stroke-linecap="butt"/></g></g></svg>