<svg version="1.1" xmlns="http://www.w3.org/2000/svg" xmlns:xlink="http://www.w3.org/1999/xlink" width="39.5115" height="48.49611" viewBox="0,0,39.5115,48.49611"><g transform="translate(-220.24425,-155.75194)"><g data-paper-data="{&quot;isPaintingLayer&quot;:true}" fill="#ff0000" fill-rule="nonzero" stroke="#000000" stroke-width="0" stroke-linecap="square" stroke-linejoin="miter" stroke-miterlimit="10" stroke-dasharray="" stroke-dashoffset="0" style="mix-blend-mode: normal"><path d="M259.75568,191.04148c0,1.9846 -0.28866,3.78877 -0.86601,5.41252c-0.54125,1.62376 -1.5516,3.01297 -3.03102,4.16766c-1.44335,1.1186 -3.46402,2.00266 -6.06203,2.65215c-2.56191,0.64951 -5.80943,0.97425 -9.74255,0.97425c-3.96917,0 -7.23474,-0.32475 -9.79666,-0.97425c-2.56191,-0.64951 -4.58261,-1.53356 -6.06203,-2.65212c-1.47942,-1.15466 -2.50781,-2.54387 -3.08512,-4.16763c-0.57735,-1.62376 -0.86601,-3.42792 -0.86601,-5.41252v-22.02896c0,-1.9846 0.28866,-3.77072 0.86601,-5.35838c0.57735,-1.62376 1.60571,-3.01297 3.08516,-4.16763c1.47942,-1.19075 3.50012,-2.11087 6.06203,-2.76037c2.56191,-0.64951 5.82748,-0.97425 9.79669,-0.97425c3.93312,0 7.18063,0.32475 9.74255,0.97425c2.59801,0.64951 4.61868,1.56965 6.06203,2.76041c1.47942,1.15466 2.48977,2.54391 3.03102,4.16766c0.57735,1.58766 0.86601,3.37382 0.86601,5.35842zM234.85805,188.71408c0,0.86601 0.3067,1.5877 0.92015,2.16501c0.64951,0.57735 2.07481,0.86601 4.27591,0.86601c2.20111,0 3.60836,-0.28866 4.22177,-0.86601c0.61341,-0.57731 0.92015,-1.29901 0.92015,-2.16501v-17.3742c0,-0.82995 -0.3067,-1.53356 -0.92011,-2.11087c-0.61341,-0.57735 -2.02066,-0.86601 -4.22177,-0.86601c-2.20111,0 -3.62638,0.28866 -4.27588,0.86601c-0.61341,0.57731 -0.92011,1.28096 -0.92011,2.1109z"/></g></g></svg>