<svg version="1.1" xmlns="http://www.w3.org/2000/svg" xmlns:xlink="http://www.w3.org/1999/xlink" width="40.81051" height="46.5479" viewBox="0,0,40.81051,46.5479"><g transform="translate(-220.74344,-157.01648)"><g data-paper-data="{&quot;isPaintingLayer&quot;:true}" fill="#ff0000" fill-rule="nonzero" stroke="#000000" stroke-width="0" stroke-linecap="square" stroke-linejoin="miter" stroke-miterlimit="10" stroke-dasharray="" stroke-dashoffset="0" style="mix-blend-mode: normal"><path d="M235.35723,168.65339v8.28118h4.87128c1.11857,0 1.8583,-0.28866 2.21915,-0.86601c0.39691,-0.57735 0.5954,-1.29901 0.5954,-2.16501v-2.21912c0,-0.86601 -0.19846,-1.58766 -0.59536,-2.16501c-0.36084,-0.57735 -1.10055,-0.86601 -2.21912,-0.86601zM233.02986,203.56417h-9.95905c-0.79385,0 -1.38921,-0.1804 -1.78612,-0.54125c-0.36084,-0.36084 -0.54125,-0.95621 -0.54125,-1.78612v-41.89296c0,-0.79385 0.1804,-1.37116 0.54125,-1.732c0.39691,-0.39691 0.99231,-0.59536 1.78615,-0.59536h21.54185c4.83518,0 8.15485,1.01035 9.95905,3.03102c1.84026,1.9846 2.76041,4.58261 2.76041,7.79403v2.97691c0,1.80416 -0.27061,3.33772 -0.81187,4.60067c-0.54125,1.26291 -1.47945,2.18306 -2.81451,2.76041c2.34541,0.2526 4.23982,1.20881 5.68317,2.86865c1.44332,1.62376 2.16501,3.78877 2.16501,6.49503v13.69371c0,0.82991 -0.18044,1.4253 -0.54125,1.78615c-0.36084,0.36084 -0.95621,0.54125 -1.78612,0.54125h-10.01316c-0.82995,0 -1.4253,-0.1804 -1.78612,-0.54125c-0.36084,-0.36084 -0.54125,-0.95621 -0.54125,-1.78612v-9.9049c0,-0.93816 -0.19846,-1.62376 -0.59536,-2.05676c-0.36084,-0.4691 -0.99231,-0.70361 -1.89437,-0.70361h-9.0389v12.66531c0,0.82991 -0.18044,1.4253 -0.54125,1.78615c-0.36084,0.36084 -0.95621,0.54125 -1.78612,0.54125z"/></g></g></svg>