<svg version="1.1" xmlns="http://www.w3.org/2000/svg" xmlns:xlink="http://www.w3.org/1999/xlink" width="28.18805" height="47.48211" viewBox="0,0,28.18805,47.48211"><g transform="translate(-225.90597,-156.25894)"><g data-paper-data="{&quot;isPaintingLayer&quot;:true}" fill="#ff0000" fill-rule="nonzero" stroke="#000000" stroke-width="0" stroke-linecap="square" stroke-linejoin="miter" stroke-miterlimit="10" stroke-dasharray="" stroke-dashoffset="0" style="mix-blend-mode: normal"><path d="M251.37803,184.19698c0.62714,0.84844 1.16203,1.75224 1.60471,2.71139c0.47954,0.95911 0.81154,2.01048 0.99601,3.15406c0.18447,1.14355 0.14753,2.41625 -0.11067,3.81807c-0.36887,2.0658 -1.05133,3.74427 -2.04734,5.03542c-0.95915,1.29112 -2.15801,2.30558 -3.5967,3.04339c-1.40182,0.70088 -2.96959,1.18045 -4.70338,1.43869c-1.69689,0.22134 -3.46758,0.332 -5.31208,0.332c-1.80756,0.03687 -3.6336,-0.01845 -5.47806,-0.16598c-1.80756,-0.11067 -3.50452,-0.18447 -5.09074,-0.22134c-0.2582,0 -0.51648,0 -0.77468,0c-0.22134,0 -0.44267,-0.05532 -0.66401,-0.16598c-0.29514,-7.59924 -0.36887,-15.1431 -0.22134,-22.63164c0.14753,-7.52544 0.14753,-15.12468 0,-22.79766l0.05535,-0.05532c1.77069,-0.51644 3.6336,-0.9038 5.58876,-1.162c1.99203,-0.2582 3.94719,-0.332 5.86542,-0.22134c1.95516,0.0738 3.81807,0.35046 5.58876,0.83003c1.80756,0.47957 3.39385,1.2727 4.75873,2.37938c1.36488,1.06982 2.4347,2.45315 3.20938,4.15008c0.81154,1.69692 1.21735,3.76272 1.21735,6.19742c0,1.88136 -0.31355,3.7074 -0.94066,5.4781c-0.62714,1.73379 -1.38334,3.35691 -2.26868,4.8694c-0.18447,0.2951 -0.23979,0.53489 -0.16598,0.71936c0.11067,0.18444 0.27669,0.40577 0.49802,0.66401c0.70088,0.88535 1.36488,1.75224 1.99203,2.60072zM243.85259,190.17307c-0.03687,-0.92225 -0.20289,-1.75224 -0.49799,-2.49002c-0.2582,-0.55334 -0.66401,-1.03292 -1.21735,-1.43869c-0.51648,-0.40581 -1.05133,-0.68246 -1.60467,-0.82999c-0.84848,-0.22134 -1.71534,-0.332 -2.60069,-0.332c-0.88535,-0.0369 -1.73383,-0.11067 -2.54537,-0.22134c-0.18447,0.66401 -0.35046,1.42024 -0.49799,2.26872c-0.11067,0.84844 -0.18447,1.69689 -0.22134,2.54537c-0.03687,0.84844 0.01845,1.67847 0.16602,2.49005c0.14753,0.77468 0.38736,1.43869 0.71936,1.99203l0.11067,0.05535c0.62714,0 1.2727,0.01845 1.93671,0.05535c0.70088,0 1.38337,-0.0369 2.04738,-0.11067c0.70088,-0.0738 1.34647,-0.22134 1.93671,-0.44267c0.59021,-0.25824 1.10668,-0.64556 1.54936,-1.162c0.51648,-0.66401 0.75623,-1.45714 0.71936,-2.37935zM243.85259,171.85749c0.22134,-0.70088 0.16602,-1.40179 -0.16598,-2.1027c-0.36887,-0.70088 -0.82999,-1.2358 -1.38334,-1.60467c-0.51648,-0.36887 -1.14355,-0.64556 -1.88136,-0.82999c-0.84848,-0.18444 -1.77069,-0.27665 -2.76671,-0.27665c-0.99601,-0.03687 -1.82601,0.11067 -2.49002,0.44267c0.0738,1.03292 0.03687,2.28717 -0.11067,3.76272c-0.14753,1.43869 -0.01845,2.93273 0.38736,4.48208c0.66401,0.07377 1.36488,0.12912 2.1027,0.16602c0.73781,0.03687 1.45714,0.01845 2.15805,-0.05532c0.70088,-0.0738 1.34647,-0.27665 1.93671,-0.60866c0.62714,-0.332 1.10668,-0.82999 1.43869,-1.494c0.332,-0.55334 0.59021,-1.18048 0.77468,-1.88136z"/></g></g></svg>