<svg version="1.1" xmlns="http://www.w3.org/2000/svg" xmlns:xlink="http://www.w3.org/1999/xlink" width="40.16107" height="48.49611" viewBox="0,0,40.16107,48.49611"><g transform="translate(-219.91946,-155.75194)"><g data-paper-data="{&quot;isPaintingLayer&quot;:true}" fill="#ff0000" fill-rule="nonzero" stroke="#000000" stroke-width="0" stroke-linecap="square" stroke-linejoin="miter" stroke-miterlimit="10" stroke-dasharray="" stroke-dashoffset="0" style="mix-blend-mode: normal"><path d="M260.08031,191.04148c0,1.98457 -0.3067,3.78877 -0.92011,5.41252c-0.57735,1.62376 -1.60571,3.01297 -3.08512,4.16766c-1.47945,1.11857 -3.51812,2.00266 -6.11614,2.65215c-2.59801,0.64951 -5.89963,0.97425 -9.9049,0.97425c-4.00527,0 -7.32498,-0.32475 -9.95905,-0.97425c-2.63411,-0.64951 -4.70888,-1.53356 -6.22439,-2.65212c-1.47945,-1.15469 -2.50781,-2.54387 -3.08512,-4.16763c-0.57735,-1.62376 -0.86601,-3.42796 -0.86601,-5.41252v-22.02896c0,-1.9846 0.28866,-3.77072 0.86601,-5.35838c0.57731,-1.62376 1.60571,-3.01297 3.08516,-4.16763c1.51551,-1.19075 3.59032,-2.11087 6.22443,-2.76037c2.63407,-0.64951 5.95378,-0.97425 9.95905,-0.97425c4.00527,0 7.30693,0.32475 9.90494,0.97425c2.59801,0.64951 4.63673,1.56965 6.11617,2.76041c1.47942,1.15466 2.50781,2.54391 3.08516,4.16766c0.61341,1.58766 0.92015,3.37382 0.92015,5.35842zM234.58733,188.71407c0,0.86601 0.32475,1.58766 0.97425,2.16501c0.64951,0.57731 2.14696,0.86601 4.49241,0.86601c2.30933,0 3.78877,-0.2887 4.43827,-0.86601c0.64951,-0.57735 0.97425,-1.29901 0.97425,-2.16501v-17.3742c0,-0.82995 -0.32475,-1.53356 -0.97425,-2.11087c-0.64951,-0.57735 -2.12895,-0.86601 -4.43827,-0.86601c-2.34545,0 -3.84288,0.28866 -4.49238,0.86601c-0.64951,0.57731 -0.97425,1.28096 -0.97425,2.1109z"/></g></g></svg>