<svg version="1.1" xmlns="http://www.w3.org/2000/svg" xmlns:xlink="http://www.w3.org/1999/xlink" width="28.5681" height="47.38432" viewBox="0,0,28.5681,47.38432"><g transform="translate(-225.71595,-156.30784)"><g data-paper-data="{&quot;isPaintingLayer&quot;:true}" fill="#ff0000" fill-rule="nonzero" stroke="#000000" stroke-width="0" stroke-linecap="square" stroke-linejoin="miter" stroke-miterlimit="10" stroke-dasharray="" stroke-dashoffset="0" style="mix-blend-mode: normal"><path d="M242.81406,179.0526c1.29115,-0.0738 2.65604,-0.0738 4.09472,0c1.47555,0.03687 2.84051,0.11067 4.09472,0.22134c1.25422,0.11067 2.1027,0.16602 2.54537,0.16602h0.11067l0.05535,0.05535c0.29514,2.32403 0.47954,4.7956 0.55334,7.41477c0.0738,2.61914 -0.11067,5.1276 -0.55334,7.52544c-0.18447,2.25023 -0.8669,3.96561 -2.04734,5.14609c-1.14355,1.18045 -2.54537,2.08425 -4.20539,2.71139c-1.10668,0.2951 -2.25023,0.55334 -3.43072,0.77468c-1.18048,0.2582 -2.39784,0.44267 -3.65205,0.55334c-1.21735,0.11067 -2.41625,0.09222 -3.5967,-0.05532c-1.14355,-0.11067 -2.25023,-0.38732 -3.32005,-0.82999c-1.77069,-0.73781 -3.11716,-1.73383 -4.03937,-2.98804c-0.92221,-1.29115 -1.64157,-2.89582 -2.15801,-4.81405c-0.14753,-0.47957 -0.29514,-1.14358 -0.44267,-1.99203c-0.14753,-0.84848 -0.27665,-1.71534 -0.38732,-2.60069c-0.11067,-1.40182 -0.22134,-2.67449 -0.332,-3.81804c-0.0738,-1.18048 -0.14753,-2.32403 -0.22134,-3.43072c-0.0738,-1.10668 -0.12912,-2.28717 -0.16598,-3.54138c0,-1.29115 0.01845,-2.74826 0.05535,-4.37138c0.0738,-1.40182 0.14753,-2.84051 0.22134,-4.31606c0.0738,-1.47559 0.22134,-2.91428 0.44267,-4.31606c0.22134,-1.47559 0.60869,-2.89582 1.16203,-4.26071c0.55334,-1.36492 1.47555,-2.4716 2.76671,-3.32005c0.88535,-0.77468 1.86291,-1.32802 2.93273,-1.66002c1.10668,-0.36891 2.26872,-0.64556 3.48607,-0.82999c2.39784,-0.29514 4.70342,-0.20289 6.91678,0.27669c2.21336,0.44267 4.11318,1.2727 5.69943,2.49005c1.58622,1.18045 2.76671,2.74826 3.54138,4.70342c0.81154,1.95513 1.05137,4.27916 0.71936,6.9721l-0.05532,0.38736c-0.0738,0.11067 -0.27665,0.16602 -0.60866,0.16602c-0.29514,0 -0.79313,0.03687 -1.494,0.11067c-0.66401,0 -1.2358,0.01845 -1.71534,0.05535c-0.44267,0 -0.9038,0 -1.38334,0c-0.44267,0 -0.9038,-0.01845 -1.38334,-0.05532c-0.47954,-0.0738 -1.05133,-0.14757 -1.71534,-0.22134c-0.14753,-0.44267 -0.35046,-0.97756 -0.60866,-1.60467c-0.22134,-0.66401 -0.51648,-1.25425 -0.88535,-1.77069c-0.36887,-0.55334 -0.81154,-1.03292 -1.32802,-1.43869c-0.47954,-0.44267 -1.05133,-0.66401 -1.71534,-0.66401c-0.73781,-0.0369 -1.45714,-0.05532 -2.15801,-0.05532c-0.70088,0 -1.30957,0.2582 -1.82601,0.77468c-0.11067,0.07377 -0.23979,0.31355 -0.38732,0.71936c-0.14753,0.36887 -0.2582,0.71936 -0.332,1.05137c-0.332,1.06978 -0.60866,2.3609 -0.82999,3.87339c-0.18447,1.47555 -0.31355,3.06181 -0.38732,4.75873c-0.0738,1.69689 -0.09222,3.44917 -0.05532,5.25676c0.03687,1.80756 0.12912,3.52293 0.27669,5.14609c0.0738,0.95911 0.23979,2.02889 0.49802,3.20938c0.2582,1.14355 0.81154,2.02889 1.66002,2.65604c0.40581,0.2951 0.9038,0.49802 1.49404,0.60869c0.66401,0.11067 1.36488,0.09222 2.1027,-0.05532c0.73781,-0.14757 1.40182,-0.332 1.99203,-0.55334c0.51648,-0.22134 0.9407,-0.51648 1.2727,-0.88535c0.36887,-0.36891 0.62714,-0.8669 0.77468,-1.494c0.0738,-0.14757 0.12912,-0.42422 0.16602,-0.82999c0.0738,-0.44267 0.11067,-0.88535 0.11067,-1.32802c0.03687,-0.44267 0.03687,-0.82999 0,-1.162c0,-0.36891 -0.05532,-0.57179 -0.16598,-0.60866c-0.2582,-0.0369 -0.62714,-0.0369 -1.10668,0c-0.47954,0 -0.97756,0.01845 -1.494,0.05535c-0.47954,0 -0.94066,0 -1.38334,0c-0.40581,-0.0369 -0.71933,-0.11067 -0.94066,-0.22134c-0.0738,-0.70091 -0.12912,-1.30957 -0.16598,-1.82601c0,-0.51648 0,-1.03292 0,-1.54936c0.03687,-0.51648 0.05535,-1.03292 0.05535,-1.54936c0,-0.51648 -0.03687,-1.18048 -0.11067,-1.99203v-0.05532c0,-0.0369 0.01845,-0.05532 0.05535,-0.05532c0,0 0.03687,-0.0369 0.11067,-0.11067c0.59021,-0.332 1.5309,-0.53489 2.82206,-0.60866z"/></g></g></svg>