<svg version="1.1" xmlns="http://www.w3.org/2000/svg" xmlns:xlink="http://www.w3.org/1999/xlink" width="594.89453" height="212.43957" viewBox="0,0,594.89453,212.43957"><g transform="translate(36.29969,-304.73104)"><g data-paper-data="{&quot;isPaintingLayer&quot;:true}" fill-rule="nonzero" stroke="none" stroke-width="0" stroke-linecap="butt" stroke-linejoin="miter" stroke-miterlimit="10" stroke-dasharray="" stroke-dashoffset="0" style="mix-blend-mode: normal"><path d="" fill="#7cefe9"/><path d="M-35.50545,346.8804l-0.79424,-26.84353c0,0 42.94485,-8.87228 54.06134,-8.94293c6.64315,-0.04222 16.52336,5.1169 44.52701,5.67322c25.73688,0.51129 43.05495,-12.31517 52.70891,-12.03148c9.08066,-0.05095 20.55329,11.60395 46.00226,12.4033c14.90563,0.46818 38.36866,-4.96096 48.40183,-5.48352c4.83136,0.13873 21.94173,3.93263 36.00053,5.22464c9.96957,0.91621 25.49076,1.6847 25.49076,1.6847l-6.67159,28.31562z" fill="#2e6a86"/><path d="M258.07381,347.15392l-10.0074,-27.76358c0,0 20.39322,-3.20386 32.22462,-4.27976c13.22004,-1.20218 34.50578,-9.68751 38.86336,-9.81263c10.03317,0.52256 27.23532,12.58273 42.14094,12.11455c25.44898,-0.79935 41.9303,-5.82321 51.01097,-5.77226c9.65397,-0.28369 21.96333,5.91174 47.70021,5.40045c28.00365,-0.55632 37.88385,-5.71544 44.527,-5.67322c11.11648,0.07065 54.06133,8.94293 54.06133,8.94293l-0.79424,26.84353z" data-paper-data="{&quot;index&quot;:null}" fill="#2e6a86"/><path d="M-31.62787,517.17061v-178.67868h588.58859v178.67868z" fill="#2e6a86"/></g></g></svg>