<svg version="1.1" xmlns="http://www.w3.org/2000/svg" xmlns:xlink="http://www.w3.org/1999/xlink" width="37.40058" height="46.5478" viewBox="0,0,37.40058,46.5478"><g transform="translate(-221.29971,-156.7261)"><g data-paper-data="{&quot;isPaintingLayer&quot;:true}" fill="#ff0000" fill-rule="nonzero" stroke="#000000" stroke-width="0" stroke-linecap="square" stroke-linejoin="miter" stroke-miterlimit="10" stroke-dasharray="" stroke-dashoffset="0" style="mix-blend-mode: normal"><path d="M233.64024,203.27379h-10.01316c-0.79385,0 -1.38921,-0.1804 -1.78612,-0.54125c-0.36084,-0.36081 -0.54125,-0.95621 -0.54125,-1.78612v-41.89296c0,-0.79381 0.1804,-1.37116 0.54125,-1.732c0.39691,-0.39691 0.99231,-0.59536 1.78615,-0.59536h19.80985c5.84553,0 9.8508,1.17271 12.01581,3.51816c2.16501,2.30936 3.24752,5.34038 3.24752,9.09305v8.28118c0,3.7527 -1.08251,6.80174 -3.24752,9.14719c-2.16501,2.30936 -6.17028,3.46402 -12.01581,3.46402h-7.46929v10.7168c0,0.82995 -0.18044,1.4253 -0.54125,1.78615c-0.36084,0.36084 -0.95621,0.54125 -1.78612,0.54125zM235.8594,168.85012v9.74255h5.79142c1.26291,0 2.09282,-0.32475 2.48977,-0.97425c0.39691,-0.64951 0.5954,-1.38921 0.5954,-2.21912v-3.40988c0,-0.82991 -0.19846,-1.55156 -0.59536,-2.16501c-0.39694,-0.64951 -1.22685,-0.97425 -2.48977,-0.97425z"/></g></g></svg>