<svg version="1.1" xmlns="http://www.w3.org/2000/svg" xmlns:xlink="http://www.w3.org/1999/xlink" width="66.57143" height="52.42857" viewBox="0,0,66.57143,52.42857"><g transform="translate(-208.57143,-152.90179)"><g data-paper-data="{&quot;isPaintingLayer&quot;:true}" fill-rule="nonzero" stroke="none" stroke-width="0" stroke-linecap="butt" stroke-linejoin="miter" stroke-miterlimit="10" stroke-dasharray="" stroke-dashoffset="0" style="mix-blend-mode: normal"><path d="M208.57143,205.33037v-52.42857h66.57143v52.42857z" fill="none"/><path d="M220.48512,180.00001c0,-10.77777 8.73711,-19.51488 19.51488,-19.51488c10.77777,0 19.51488,8.73711 19.51488,19.51488c0,10.77777 -8.73711,19.51488 -19.51488,19.51488c-10.77777,0 -19.51488,-8.73711 -19.51488,-19.51488z" fill="#ffffff"/><path d="M222.74626,180.00001c0,-9.52898 7.72477,-17.25374 17.25374,-17.25374c9.52898,0 17.25374,7.72477 17.25374,17.25374c0,9.52898 -7.72477,17.25374 -17.25374,17.25374c-9.52898,0 -17.25374,-7.72477 -17.25374,-17.25374z" fill="#00ffc1"/><path d="M224.4951,180.00001c0,-8.56312 6.94178,-15.5049 15.5049,-15.5049c8.56312,0 15.5049,6.94178 15.5049,15.5049c0,8.56312 -6.94178,15.5049 -15.5049,15.5049c-8.56312,0 -15.5049,-6.94178 -15.5049,-15.5049z" fill="#000000"/><path d="M225.76699,180.00001c0,-7.86068 6.37234,-14.23301 14.23301,-14.23301c7.86068,0 14.23301,6.37234 14.23301,14.23301c0,7.86068 -6.37234,14.23301 -14.23301,14.23301c-7.86068,0 -14.23301,-6.37234 -14.23301,-14.23301z" fill="#25ffc9"/><path d="M227.10953,180.00001c0,-7.11921 5.77126,-12.89047 12.89047,-12.89047c7.11921,0 12.89047,5.77126 12.89047,12.89047c0,7.11921 -5.77126,12.89047 -12.89047,12.89047c-7.11921,0 -12.89047,-5.77126 -12.89047,-12.89047z" fill="#ffffff"/><path d="M234.65505,188.12371v-15.83832l14.12702,7.6637z" fill="#000000"/></g></g></svg>