<svg version="1.1" xmlns="http://www.w3.org/2000/svg" xmlns:xlink="http://www.w3.org/1999/xlink" width="30.17013" height="46.51893" viewBox="0,0,30.17013,46.51893"><g transform="translate(-224.91494,-156.74054)"><g data-paper-data="{&quot;isPaintingLayer&quot;:true}" fill="#ff0000" fill-rule="nonzero" stroke="#000000" stroke-width="0" stroke-linecap="square" stroke-linejoin="miter" stroke-miterlimit="10" stroke-dasharray="" stroke-dashoffset="0" style="mix-blend-mode: normal"><path d="M254.70292,171.60122c-1.54936,0.25824 -3.20938,0.42422 -4.98007,0.49802c-1.77069,0.07377 -3.41226,-0.11067 -4.92472,-0.55334c0.25824,-1.18045 0,-2.15801 -0.77468,-2.93269c-0.73778,-0.81158 -1.64157,-1.32802 -2.71135,-1.54936c-1.03288,-0.22134 -2.04734,-0.11067 -3.04336,0.332c-0.99601,0.44267 -1.58622,1.2727 -1.77069,2.49005c-0.07377,0.2951 -0.11067,0.59024 -0.11067,0.88535c0.0369,0.2951 0.0738,0.59024 0.11067,0.88535c0.36891,1.06978 0.9407,1.78914 1.71538,2.15805c0.81158,0.332 1.67847,0.57179 2.60072,0.71936c2.32403,0.25824 4.48208,1.01446 6.47411,2.26872c2.02893,1.21735 3.6705,2.76671 4.92475,4.64807c0.81158,0.99601 1.40182,2.08425 1.77069,3.26473c0.40581,1.18045 0.64556,2.3978 0.71936,3.65205c0.0738,1.21735 -0.01845,2.45315 -0.27665,3.7074c-0.22134,1.25425 -0.59021,2.45315 -1.10668,3.59674c-0.55334,1.36492 -1.27267,2.52692 -2.15801,3.48607c-0.88535,0.95911 -1.88136,1.75224 -2.98804,2.37938c-1.10668,0.62711 -2.32403,1.08823 -3.65205,1.38337c-1.29112,0.25824 -2.61914,0.36891 -3.98406,0.332c-1.91823,-0.0369 -3.83649,-0.36891 -5.75475,-0.99601c-1.91823,-0.66401 -3.6336,-1.56781 -5.14606,-2.71135c-1.47555,-1.14358 -2.65604,-2.52692 -3.54138,-4.15004c-0.88535,-1.66002 -1.27267,-3.55983 -1.162,-5.6994v-0.16598v-0.22134c1.54936,-0.22134 3.24624,-0.27665 5.09074,-0.16598c1.84446,0.11067 3.52293,0.14757 5.03542,0.11067c0.0738,1.40179 0.62714,2.45315 1.66002,3.15406c1.06982,0.70091 2.1765,1.05137 3.32005,1.05137c1.18048,-0.0369 2.19491,-0.42422 3.04339,-1.162c0.84848,-0.77468 1.14358,-1.91826 0.88535,-3.43072c-0.11067,-1.06978 -0.49799,-1.91826 -1.162,-2.54537c-0.66401,-0.66401 -1.45714,-1.18045 -2.37935,-1.54936c-0.88535,-0.40577 -1.86291,-0.70091 -2.93269,-0.88535c-1.03288,-0.22134 -2.02889,-0.42422 -2.98804,-0.60866c-0.84844,-0.14757 -1.66002,-0.42422 -2.4347,-0.82999c-0.73778,-0.40577 -1.42024,-0.8669 -2.04734,-1.38334c-2.02889,-1.95513 -3.3385,-4.09472 -3.9287,-6.41876c-0.59021,-2.32403 -0.62714,-4.59271 -0.11067,-6.80608c0.55334,-2.21336 1.56781,-4.22384 3.04339,-6.0314c1.47555,-1.80759 3.26473,-3.15403 5.36743,-4.03937c1.06982,-0.40577 2.23182,-0.68246 3.48607,-0.82999c1.29115,-0.18444 2.58227,-0.23979 3.87339,-0.16598c1.29115,0.07377 2.56382,0.25824 3.81807,0.55334c1.25425,0.2951 2.41625,0.70091 3.48607,1.21735c2.1027,1.06978 3.72585,2.69294 4.8694,4.8694c1.18048,2.1396 1.45714,4.8694 0.83003,8.18945z"/></g></g></svg>