<svg version="1.1" xmlns="http://www.w3.org/2000/svg" xmlns:xlink="http://www.w3.org/1999/xlink" width="27.07334" height="46.76662" viewBox="0,0,27.07334,46.76662"><g transform="translate(-226.46333,-156.4167)"><g data-paper-data="{&quot;isPaintingLayer&quot;:true}" fill="#ff0000" fill-rule="nonzero" stroke="#000000" stroke-width="0" stroke-linecap="square" stroke-linejoin="miter" stroke-miterlimit="10" stroke-dasharray="" stroke-dashoffset="0" style="mix-blend-mode: normal"><path d="M244.72341,156.72102c0,-0.0738 0.2951,-0.12912 0.88535,-0.16598c0.59024,-0.0738 1.30957,-0.11067 2.15805,-0.11067c0.84844,-0.0369 1.75224,-0.0369 2.71139,0c0.99601,0 1.84446,0.05535 2.54537,0.16602v4.37141c0,7.37787 0.11067,14.66356 0.332,21.85699c0.22134,7.15653 0.23979,13.9073 0.05535,20.25229c-1.36492,0 -2.85892,0.01845 -4.48205,0.05535c-1.62312,0.07377 -3.09871,0.03687 -4.42673,-0.11067c-0.0369,-0.11067 -0.05532,-0.27665 -0.05532,-0.49799c0,-0.44267 -0.01845,-0.79313 -0.05532,-1.05133c0,-0.25824 0,-0.62714 0,-1.10668c-0.11067,-0.22134 -0.22134,-0.38732 -0.332,-0.49799c-0.11067,-0.11067 -0.22134,-0.0369 -0.332,0.22134c-0.66401,1.32802 -1.54936,2.17646 -2.65604,2.54537c-1.10668,0.36887 -2.26868,0.46112 -3.48603,0.27669c-2.50847,-0.14757 -4.5005,-0.77468 -5.97608,-1.88136c-1.43869,-1.14358 -2.52692,-2.58227 -3.2647,-4.31606c-0.73781,-1.77069 -1.2358,-3.72585 -1.494,-5.86542c-0.22134,-2.1765 -0.35046,-4.35296 -0.38732,-6.52943c0,-1.54936 0.09222,-3.04336 0.27669,-4.48205c0.22134,-1.47559 0.53489,-2.82202 0.9407,-4.03937c0.44267,-1.21735 0.99601,-2.25027 1.66002,-3.09871c0.70088,-0.84848 1.5309,-1.45714 2.49005,-1.82601c1.18045,-0.44267 2.49005,-0.71933 3.92874,-0.82999c1.43869,-0.11067 2.78516,-0.11067 4.03941,0c1.29112,0.11067 2.37938,0.332 3.26473,0.66401c0.88535,0.2951 1.36492,0.64556 1.43869,1.05137c-0.0369,-2.06583 -0.05532,-3.74427 -0.05532,-5.03539c0,-1.29115 0,-2.30558 0,-3.04336c0,-0.77468 0,-1.36492 0,-1.77069c0.0369,-0.44267 0.05535,-0.84848 0.05535,-1.21735c0.0369,-0.36891 0.05535,-0.77468 0.05535,-1.21735c0.0369,-0.47957 0.09222,-1.162 0.16602,-2.04734zM234.04394,184.27742c-0.0369,0.62711 -0.05532,1.25422 -0.05532,1.88136c0,1.10668 0.12912,2.17646 0.38736,3.20938c0.2951,1.03288 0.70091,1.95513 1.21735,2.76671c0.51644,0.81154 1.14358,1.47555 1.88136,1.99203c0.77468,0.47954 1.62312,0.71936 2.54537,0.71936c1.10668,0 1.97358,-0.23979 2.60072,-0.71933c0.62711,-0.51648 1.10668,-1.18048 1.43869,-1.99203c0.332,-0.84848 0.53489,-1.84449 0.60869,-2.98804c0.07377,-1.18048 0.11067,-2.49002 0.11067,-3.9287c0,-1.69692 -0.0369,-3.04336 -0.11067,-4.03937c-0.07377,-0.99601 -0.23979,-1.75224 -0.49799,-2.26868c-0.25824,-0.55334 -0.66401,-0.9038 -1.21735,-1.05133c-0.55334,-0.14757 -1.29112,-0.22134 -2.21336,-0.22134c-1.80759,0 -3.24628,0.40577 -4.31606,1.21735c-1.06978,0.77468 -1.71534,1.93671 -1.93668,3.48607c-0.22134,0.62711 -0.36891,1.2727 -0.44267,1.93671z"/></g></g></svg>