<svg version="1.1" xmlns="http://www.w3.org/2000/svg" xmlns:xlink="http://www.w3.org/1999/xlink" width="136.02015" height="143.97558" viewBox="0,0,136.02015,143.97558"><g transform="translate(-186.90242,-95.58311)"><g data-paper-data="{&quot;isPaintingLayer&quot;:true}" fill-rule="nonzero" stroke-linejoin="miter" stroke-miterlimit="10" stroke-dasharray="" stroke-dashoffset="0" style="mix-blend-mode: normal"><path d="M243.96803,120.05847c1.78621,11.20196 -11.68847,13.35058 -13.47468,2.14861c-1.78621,-11.20196 3.16146,-25.33872 3.15351,-25.37396c-0.03354,-0.14865 8.53495,12.02339 10.32117,23.22535z" fill="#ffffff" stroke="#000000" stroke-width="2.5" stroke-linecap="butt"/><path d="M282.47122,138.4586c-7.36548,12.32137 -24.41951,2.187 -17.05403,-10.13437c7.36548,-12.32138 24.81322,-21.35676 24.83375,-21.39763c0.08661,-0.1724 -0.41424,19.21062 -7.77972,31.532z" fill="#ffffff" stroke="#000000" stroke-width="2.5" stroke-linecap="butt"/><path d="M291.14286,170.04465c0,0 4.86616,1.70904 12.39933,0.76633c7.78377,-0.97407 18.24102,-6.15744 18.12949,-3.62843c-0.74896,16.98225 -30.81453,17.00496 -30.81453,17.00496" fill="#ffffff" stroke="#000000" stroke-width="2.5" stroke-linecap="round"/><path d="M285.27868,224.29618c-22.78536,8.14652 -22.18585,3.13536 -22.18585,3.13536c0,0 2.14457,-8.19204 17.91375,-13.84553c20.50038,-7.3497 27.59025,-4.16536 27.59025,-4.16536c0,0 1.86767,5.87078 -23.31815,14.87553z" fill="#afb0ae" stroke="#000000" stroke-width="2.5" stroke-linecap="butt"/><path d="M224.3125,221.53907c-24.1944,-0.41134 -24.5625,-4.5625 -24.5625,-4.5625c0,0 7.6877,-8.33268 24.4375,-8.0625c21.77522,0.35124 25.8125,8.8125 25.8125,8.8125c0,0 1.0558,4.26718 -25.6875,3.8125z" fill="#afb0ae" stroke="#000000" stroke-width="2.5" stroke-linecap="butt"/><path d="M212.93292,216.01053c0.00492,-1.83276 -0.85236,-14.98348 -0.85236,-14.98348l13.36633,7.80303c0,0 -2.22848,6.47654 -2.72231,9.37088c-0.48085,2.81836 -0.20276,7.7733 -0.20276,7.7733c0,0 10.53161,7.36127 -5.36964,7.062c-25.20108,-0.4743 -6.69815,-7.78066 -6.69815,-7.78066c0,0 2.47297,-7.03688 2.47889,-9.24507z" data-paper-data="{&quot;index&quot;:null}" fill="#ffffff" stroke="#000000" stroke-width="2.5" stroke-linecap="butt"/><path d="M277.57143,229.68753c0,0 19.32625,4.71565 -5.57488,8.62117c-15.712,2.46428 -6.28226,-6.26403 -6.28226,-6.26403l-1.14285,-8.35715l11.28571,-6.21428c0,0 0.15879,3.4528 0.41352,5.26778c0.30692,2.18677 1.30077,6.94651 1.30077,6.94651z" fill="#ffffff" stroke="#000000" stroke-width="2.5" stroke-linecap="butt"/><path d="M282.88281,134.61665c5.80358,-5.07596 9.28603,3.57983 9.28603,3.57983c0,0 3.96581,-6.00204 8.09066,1.01962c4.21638,7.17745 -3.27825,8.91966 -3.27825,8.91966c0,0 4.30435,4.98859 -1.41911,8.9488c-4.60411,3.18572 -6.60756,-6.51365 -6.60756,-6.51365c0,0 -4.62321,5.66727 -7.57169,-0.48114c-2.80903,-5.85761 3.94682,-7.49742 3.94682,-7.49742c0,0 -6.20476,-5.33176 -2.44691,-7.9757z" fill="#ffffff" stroke="#000000" stroke-width="2.5" stroke-linecap="butt"/><path d="M290.60593,143.33754c3.84251,12.71747 3.04542,43.94455 3.04542,43.94455l-94.03483,-4.07402c0,0 -1.86268,-18.46304 2.01059,-34.15624c3.36554,-13.63603 24.28342,-34.72767 46.13227,-34.72767c21.84885,0 38.7344,15.40349 42.84655,29.01339z" fill="#ffffff" stroke="#000000" stroke-width="2.5" stroke-linecap="butt"/><path d="M299.12028,188.87478l-1.4019,5.45009c0,0 2.97031,2.94944 4.44181,5.02157c1.95294,2.75006 6.2458,10.02835 6.2458,10.02835c0,0 -16.44298,2.47966 -24.28394,5.43329c-7.36444,2.77413 -21.42198,11.78378 -21.42198,11.78378c0,0 -2.19416,-4.11945 -3.1952,-6.35517c-1.06763,-2.38442 -3.02368,-7.53402 -3.02368,-7.53402l10.8223,-4.84587l-10.89277,4.83786c0,0 -3.13562,-0.27907 -4.53489,-0.67672c-1.28074,-0.36397 -3.53666,-1.61709 -3.53666,-1.61709l-2.8677,-6.18848l2.9133,6.14923c0,0 0.56099,1.70436 0.61779,2.74173c0.04651,0.8496 -0.30165,3.03242 -0.30165,3.03242c0,0 -2.90995,-3.66271 -8.27496,-4.04277c-4.5215,-0.3203 -16.62158,-0.11934 -25.49221,0.90271c-9.32183,1.07404 -15.31577,2.98029 -15.31577,2.98029c0,0 -1.51368,-9.74063 -1.26017,-16.17452c0.1814,-4.60353 1.60246,-9.41229 1.533,-11.87296c-0.08714,-3.08711 -1.77053,-8.33943 -1.77053,-8.33943c0,0 16.38572,-12.94994 49.14286,-12.21428c30.20446,0.67833 51.85714,21.5 51.85714,21.5z" fill="#ffffff" stroke="#000000" stroke-width="2.5" stroke-linecap="butt"/><path d="M292.406,184.08907c0,0 -0.16154,1.47525 -0.47784,2.26601c-0.34743,0.86859 -1.52216,2.73399 -1.52216,2.73399" fill="none" stroke="#000000" stroke-width="1" stroke-linecap="round"/><path d="M280.12027,177.23194c0,0 -0.07595,2.21991 -0.31939,3.29105c-0.23221,1.02177 -1.10917,2.99466 -1.10917,2.99466" fill="none" stroke="#000000" stroke-width="1" stroke-linecap="round"/><path d="M250.26314,169.23194c0,0 0.20991,3.23919 0.13078,4.97997c-0.05244,1.15361 -0.55935,4.4486 -0.55935,4.4486" fill="none" stroke="#000000" stroke-width="1" stroke-linecap="round"/><path d="M237.54885,168.80334c0,0 0.14286,4.35143 0.14286,6.14286c0,1.393 -0.14286,3.71429 -0.14286,3.71429" fill="none" stroke="#000000" stroke-width="1" stroke-linecap="round"/><path d="M224.12028,179.80334c0,0 -0.8012,-1.72619 -0.9307,-3.02121c-0.15245,-1.52452 0.07355,-5.55022 0.07355,-5.55022" fill="none" stroke="#000000" stroke-width="1" stroke-linecap="round"/><path d="M209.83457,181.66051c0,0 -0.86641,-2.43891 -1.12109,-3.50858c-0.21462,-0.90138 -0.30748,-2.49142 -0.30748,-2.49142" fill="none" stroke="#000000" stroke-width="1" stroke-linecap="round"/><path d="M316.10651,146.67377c3.75797,7.07575 -4.36272,8.70479 -4.36272,8.70479c0,0 4.81434,5.40166 -1.93962,8.05373c-6.90379,2.71091 -7.48935,-5.3503 -7.48935,-5.3503c0,0 -4.97424,3.29042 -7.75315,-3.45379c-2.23545,-5.42524 6.62128,-5.30699 6.62128,-5.30699c0,0 -4.43335,-5.99974 1.39575,-7.64291c5.55339,-1.56545 6.1427,5.71661 6.1427,5.71661c0,0 5.52175,-5.15897 7.38513,-0.72114z" fill="#afb0ae" stroke="#000000" stroke-width="2.5" stroke-linecap="butt"/><path d="M283.87532,136.98172c0.01603,-0.00819 -1.92414,-0.66512 -3.03674,0.55646c-2.85876,3.1388 -7.55455,10.16209 -13.68551,9.31617c-2.78318,-0.384 -8.50674,-1.83176 -10.79061,-5.77021c-1.50041,-2.5874 -0.77677,-5.72267 -0.73218,-8.1289c0.03107,-1.67661 -0.77043,-3.1669 -0.77043,-3.1669c0,0 -3.46972,-1.31347 -5.13951,-1.69108c-1.99938,-0.45214 -5.17826,-0.83868 -5.17826,-0.83868c0,0 -1.2523,-7.73817 -15.23943,-7.32742c-7.1194,0.20907 -11.84741,2.93198 -11.84367,2.98513c0.00556,0.07881 2.23237,-2.0919 2.99259,12.87081c0.05165,1.01644 3.53431,2.5159 8.03458,2.54932c4.35387,0.03233 9.72278,-1.33535 10.19624,-4.21246c1.27162,-7.72723 5.60739,-6.59063 5.60739,-6.59063c0,0 3.44709,-0.10095 5.34113,0.3151c1.76831,0.38842 5.23743,1.99542 5.23743,1.99542c0,0 0.13282,-5.02611 17.82463,-2.0419c6.51427,1.09881 10.97421,9.28611 11.18235,9.17978z" fill="#000000" stroke="#000000" stroke-width="2.5" stroke-linecap="butt"/><path d="M257.91937,139.58819c0,0 5.23288,-3.58159 10.38367,-4.83016c5.46739,-1.32531 10.4354,-1.30215 10.37028,-1.39543" fill="none" stroke="#ffffff" stroke-width="2.5" stroke-linecap="round"/><path d="M222.08062,133.72366c0,0 3.83928,-3.63017 8.21828,-5.47367c4.60318,-1.93787 9.75714,-2.09534 9.75123,-2.16191" fill="none" stroke="#ffffff" stroke-width="2.5" stroke-linecap="round"/><path d="M247.38496,147.10861c0,0 -0.5144,2.09227 -2.03299,3.79332c-1.35008,1.51229 -3.67597,2.66983 -4.36322,2.46718c-0.68055,-0.20068 -1.63512,-2.29872 -1.9844,-4.44662c-0.34645,-2.13047 0.01823,-4.85475 0.01823,-4.85475" fill="none" stroke="#000000" stroke-width="2.5" stroke-linecap="round"/><path d="M256.18174,144.50217c0,0 -2.74446,3.59953 -6.53854,3.10753c-3.75692,-0.48718 -3.68068,-6.51071 -4.72472,-6.74991c-0.63019,-0.14438 -6.06679,3.54022 -7.49276,2.95878c-4.66053,-1.90032 -0.7924,-4.96372 -0.7924,-4.96372" fill="none" stroke="#000000" stroke-width="2.5" stroke-linecap="round"/><path d="M249.55701,138.31183c0,0 -2.73903,2.40132 -4.35403,1.87243c-1.85178,-0.60643 -1.94491,-4.26168 -1.94491,-4.26168" fill="none" stroke="#000000" stroke-width="2.5" stroke-linecap="round"/><path d="M220.92898,122.25833c0,0 5.5012,-0.91722 8.02612,-0.68058c6.21852,0.58282 11.33735,4.13854 11.35522,4.33964" fill="none" stroke="#ffffff" stroke-width="1.5" stroke-linecap="round"/><path d="M259.12196,128.92161c0,0 4.8263,-0.98246 9.75226,0.00177c4.88624,0.9763 9.87228,3.9191 9.91567,3.98126" fill="none" stroke="#ffffff" stroke-width="1.5" stroke-linecap="round"/><path d="M200.35997,169.09004c0,0 -8.85413,-5.6178 -11.24163,-18.44074c-2.61183,-14.02776 0.78433,-24.84134 1.84781,-24.6321c5.33442,1.04954 3.4996,7.76312 6.10588,13.54269c2.98952,6.62944 6.73507,11.4327 6.73507,11.4327" fill="#ffffff" stroke="#000000" stroke-width="2.5" stroke-linecap="round"/><path d="M218.9078,138.24823c0.8525,7.09032 -7.10113,5.29661 -7.10113,5.29661c0,0 2.41528,6.15454 -4.66829,5.69991c-7.24073,-0.46472 -4.85998,-7.1334 -4.85998,-7.1334c0,0 -5.70001,0.73435 -5.78428,-5.71759c-0.0678,-5.19014 7.92224,-1.71874 7.92224,-1.71874c0,0 -1.85371,-6.48748 4.02661,-5.57881c5.6022,0.86569 3.50629,6.91285 3.50629,6.91285c0,0 6.87154,-2.01961 6.95854,2.23917z" fill="#ffffff" stroke="#000000" stroke-width="2.5" stroke-linecap="butt"/><path d="M307.57961,155.82025c2.70755,6.60822 -5.43667,6.99448 -5.43667,6.99448c0,0 3.96517,5.2905 -2.98419,6.7362c-7.10354,1.47779 -6.58215,-5.58391 -6.58215,-5.58391c0,0 -5.29941,2.22389 -7.09662,-3.97325c-1.44574,-4.98517 7.17979,-3.76386 7.17979,-3.76386c0,0 -3.51238,-5.7608 2.39783,-6.44881c5.63067,-0.65546 5.21856,5.73133 5.21856,5.73133c0,0 6.08691,-3.77444 7.30345,0.30781z" fill="#ffffff" stroke="#000000" stroke-width="2.5" stroke-linecap="butt"/><path d="M231.84644,151.94713c0.09035,7.14751 -8.11092,4.3981 -8.11092,4.3981c0,0 1.84909,6.40798 -5.58571,5.09469c-7.59974,-1.34242 -4.32102,-7.67779 -4.32102,-7.67779c0,0 -6.10843,0.03618 -5.45982,-6.3837c0.52175,-5.16435 8.56969,-0.74381 8.56969,-0.74381c0,0 -1.21748,-6.67043 4.89367,-5.05243c5.8221,1.54147 2.9155,7.29402 2.9155,7.29402c0,0 7.49358,-1.17052 7.09862,3.07092z" fill="#afb0ae" stroke="#000000" stroke-width="2.5" stroke-linecap="butt"/><path d="M232,186.53907c0,-2.41625 1.70875,-4.375 4.125,-4.375c0.47411,0 1.17578,0.08022 1.59558,0.22744c1.71968,0.60308 2.90442,2.33042 2.90442,4.27256c0,2.41625 -1.83375,4.25 -4.25,4.25c-2.41625,0 -4.375,-1.95875 -4.375,-4.375z" fill="#93948f" stroke="none" stroke-width="0" stroke-linecap="butt"/><path d="M264.875,203.53907c0,2.34721 -2.62481,4.5 -4.9375,4.5c-2.31269,0 -3.4375,-2.15279 -3.4375,-4.5c0,-2.34721 2.87481,-4.375 5.1875,-4.375c2.31269,0 3.1875,2.02779 3.1875,4.375z" fill="#93948f" stroke="none" stroke-width="0" stroke-linecap="butt"/><path d="M250.625,190.53907c0,-2.34721 2.15279,-4.25 4.5,-4.25c2.34721,0 4,1.90279 4,4.25c0,2.34721 -1.90279,4.25 -4.25,4.25c-2.34721,0 -4.25,-1.90279 -4.25,-4.25z" fill="#93948f" stroke="none" stroke-width="0" stroke-linecap="butt"/><path d="M271.5,196.22657c0,-2.31269 1.87481,-4.1875 4.1875,-4.1875c0.28111,0 0.80576,0.0277 1.07135,0.08052c1.91942,0.38172 3.11615,2.0754 3.11615,4.10698c0,2.31269 -2.62481,4.1875 -4.9375,4.1875c-2.31269,0 -3.4375,-1.87481 -3.4375,-4.1875z" fill="#93948f" stroke="none" stroke-width="0" stroke-linecap="butt"/><path d="M286.25,210.53907c0,2.14011 -1.84683,3.875 -4.125,3.875c-2.27817,0 -4.125,-1.73489 -4.125,-3.875c0,-2.14011 1.72183,-4.25 4,-4.25c0.10087,0 0.7009,0.0034 0.79995,0.01009c2.13815,0.14434 3.45005,2.19456 3.45005,4.23991z" fill="#93948f" stroke="none" stroke-width="0" stroke-linecap="butt"/><path d="M297,193.47657c0,2.24365 -2.10989,4.0625 -4.25,4.0625c-2.14011,0 -3.5,-1.81885 -3.5,-4.0625c0,-2.24365 2.23489,-4.0625 4.375,-4.0625c2.14011,0 3.375,1.81885 3.375,4.0625z" fill="#93948f" stroke="none" stroke-width="0" stroke-linecap="butt"/><path d="M268,221.53907c0,2.27818 -4.4375,4.375 -4.4375,4.375c0,0 -3.1875,-2.09682 -3.1875,-4.375c0,-2.27818 1.70691,-4.125 3.8125,-4.125c2.10559,0 3.8125,1.84682 3.8125,4.125z" fill="#93948f" stroke="none" stroke-width="0" stroke-linecap="butt"/><path d="M219.875,191.53907c0,2.41625 -1.40279,4.375 -3.75,4.375c-2.34721,0 -4.75,-1.95875 -4.75,-4.375c0,-2.41625 1.15279,-4.375 3.5,-4.375c2.34721,0 5,1.95875 5,4.375z" fill="#93948f" stroke="none" stroke-width="0" stroke-linecap="butt"/><path d="M207.75,201.10157c0,2.24365 -2.06885,3.9375 -4.3125,3.9375c-1.71431,0 -3.68062,-0.93685 -4.27708,-2.43871c-0.18418,-0.46374 -0.03542,-2.34444 -0.03542,-2.87379c0,-2.24365 2.69385,-2.5625 4.9375,-2.5625c2.24365,0 3.6875,1.69385 3.6875,3.9375z" fill="#93948f" stroke="none" stroke-width="0" stroke-linecap="butt"/><path d="M226.125,210.28907c0,2.39011 -7.50552,1.35976 -7.5,1.25c-0.45491,-3.62556 0.77213,-5.22819 2.67655,-5.4652c0.18875,-0.02349 0.75547,0.0902 0.94845,0.0902c2.14011,0 3.875,1.98489 3.875,4.125z" fill="#93948f" stroke="none" stroke-width="0" stroke-linecap="butt"/><path d="M243.75,206.53907c0,1.72589 -0.817,3.125 -2.75,3.125c-1.933,0 -4.25,-1.39911 -4.25,-3.125c0,-1.72589 1.067,-3.125 3,-3.125c1.933,0 4,1.39911 4,3.125z" fill="#93948f" stroke="none" stroke-width="0" stroke-linecap="butt"/><path d="M232,199.16407c0,0.83562 -1.09868,1.35031 -1.67622,1.93973c-0.71074,0.72535 -1.01809,1.43527 -2.19878,1.43527c-2.14011,0 -3.875,-1.51104 -3.875,-3.375c0,-1.86396 1.73489,-3.375 3.875,-3.375c2.14011,0 3.875,1.51104 3.875,3.375z" fill="#93948f" stroke="none" stroke-width="0" stroke-linecap="butt"/><path d="M302,209.97657c0,2.03655 -5.75,2.03655 -5.75,0c0,-2.03655 2.53718,-3.6875 4.125,-3.6875c1.58782,0 1.625,1.65095 1.625,3.6875z" fill="#93948f" stroke="none" stroke-width="0" stroke-linecap="butt"/><path d="M222.125,175.97657c0,2.24365 -1.93077,4.0625 -4.3125,4.0625c-2.38173,0 -4.3125,-1.81885 -4.3125,-4.0625c0,-2.24365 1.93077,-4.0625 4.3125,-4.0625c2.38173,0 4.3125,1.81885 4.3125,4.0625z" fill="#93948f" stroke="none" stroke-width="0" stroke-linecap="butt"/><path d="M204.5,182.14081c0,2.36005 -1.37113,4.27326 -3.0625,4.27326c-1.69137,0 -3.0625,-1.9132 -3.0625,-4.27326c0,-2.36005 1.37113,-4.27326 3.0625,-4.27326c1.69137,0 3.0625,1.9132 3.0625,4.27326z" fill="#93948f" stroke="none" stroke-width="0" stroke-linecap="butt"/><path d="M275.625,179.41407c0,2.14011 -1.79086,3.875 -4,3.875c-2.20914,0 -4,-1.73489 -4,-3.875c0,-2.14011 1.79086,-3.875 4,-3.875c2.20914,0 4,1.73489 4,3.875z" fill="#93948f" stroke="none" stroke-width="0" stroke-linecap="butt"/><path d="M205.97742,184.94622c0,0 20.62527,-7.09435 43.40639,-5.29221c32.22383,2.54913 42.87933,12.14935 42.87933,12.14935" fill="none" stroke="#000000" stroke-width="1" stroke-linecap="round"/><path d="M204.26314,185.37478c0,0 -1.21949,1.9611 -1.5856,1.29349c-0.43235,-0.78841 -0.84297,-5.72206 -0.84297,-5.72206" fill="none" stroke="#000000" stroke-width="1" stroke-linecap="round"/><path d="M299.24528,188.87478l-1.4019,5.45009c0,0 2.97031,2.94944 4.44181,5.02157c1.95294,2.75006 6.2458,10.02835 6.2458,10.02835c0,0 -16.44298,2.47966 -24.28394,5.43329c-7.36444,2.77413 -21.42198,11.78378 -21.42198,11.78378c0,0 -2.19416,-4.11945 -3.1952,-6.35517c-1.06763,-2.38442 -3.02368,-7.53402 -3.02368,-7.53402l10.8223,-4.84587l-10.89277,4.83786c0,0 -3.13562,-0.27907 -4.53489,-0.67672c-1.28074,-0.36397 -3.53666,-1.61709 -3.53666,-1.61709l-2.8677,-6.18848l2.9133,6.14923c0,0 0.56099,1.70436 0.61779,2.74173c0.04651,0.8496 -0.30165,3.03242 -0.30165,3.03242c0,0 -2.90995,-3.66271 -8.27496,-4.04277c-4.5215,-0.3203 -16.62158,-0.11934 -25.49221,0.90271c-9.32183,1.07404 -15.31577,2.98029 -15.31577,2.98029c0,0 -1.51368,-9.74063 -1.26017,-16.17452c0.1814,-4.60353 1.60246,-9.41229 1.533,-11.87296c-0.08714,-3.08711 -1.77053,-8.33943 -1.77053,-8.33943c0,0 16.38572,-12.94994 49.14286,-12.21428c30.20446,0.67833 51.85714,21.5 51.85714,21.5z" fill="none" stroke="#000000" stroke-width="2.5" stroke-linecap="butt"/><path d="M266.11375,160.32732c5.97398,3.92514 -0.89431,9.18317 -0.89431,9.18317c0,0 6.34535,2.05374 1.09618,7.48026c-5.36563,5.54692 -8.78108,-0.71579 -8.78108,-0.71579c0,0 -3.38852,5.08253 -8.34593,0.9522c-3.9879,-3.32256 4.1795,-7.51829 4.1795,-7.51829c0,0 -6.20938,-2.72404 -1.44846,-6.88309c4.53574,-3.96234 7.67645,1.66583 7.67645,1.66583c0,0 3.22365,-6.86528 6.51764,-4.16429z" fill="#ffffff" stroke="#000000" stroke-width="2.5" stroke-linecap="butt"/><path d="M249.13645,167.88419c-4.51556,6.55444 -8.71154,3.03964 -8.71154,3.03964c0,0 -0.92392,6.47611 -8.05165,3.98685c-7.28587,-2.54449 -1.31223,-8.12611 -1.31223,-8.12611c0,0 -5.37701,-1.8022 -3.70669,-8.03482c1.34366,-5.01371 7.91994,1.49867 7.91994,1.49867c0,0 0.15993,-6.48537 5.93228,-3.90775c5.49932,2.4557 1.41601,7.37335 1.41601,7.37335c0,0 9.21884,0.24386 6.51389,4.17016z" fill="#ffffff" stroke="#000000" stroke-width="2.5" stroke-linecap="butt"/><path d="M293.25341,175.49039c-2.14051,7.40292 -9.07731,2.21325 -9.07731,2.21325c0,0 -0.23892,7.14401 -6.89472,3.65639c-6.80346,-3.56499 -1.71448,-9.1635 -1.71448,-9.1635c0,0 -5.81576,-1.71445 -3.19971,-8.15445c2.10442,-5.18054 8.37498,1.68994 8.37498,1.68994c0,0 0.92086,-7.23376 6.22395,-3.81124c5.05226,3.26064 0.49844,8.36433 0.49844,8.36433c0,0 7.48533,0.94093 5.78886,5.20528z" fill="#afb0ae" stroke="#000000" stroke-width="2.5" stroke-linecap="butt"/></g></g></svg>