<svg version="1.1" xmlns="http://www.w3.org/2000/svg" xmlns:xlink="http://www.w3.org/1999/xlink" width="29.65919" height="11.01151" viewBox="0,0,29.65919,11.01151"><g transform="translate(-225.17041,-174.49424)"><g data-paper-data="{&quot;isPaintingLayer&quot;:true}" fill="#ff0000" fill-rule="nonzero" stroke="#000000" stroke-width="0" stroke-linecap="square" stroke-linejoin="miter" stroke-miterlimit="10" stroke-dasharray="" stroke-dashoffset="0" style="mix-blend-mode: normal"><path d="M225.17041,182.62831c0.0369,-1.10668 0.05535,-2.23182 0.05535,-3.37536c0.0369,-1.18048 0.0738,-2.23182 0.11067,-3.15403c0.0369,-0.95915 0.05535,-1.494 0.05535,-1.60467c0.0369,0 0.70091,0 1.99203,0c1.32802,0 2.98804,0 4.98007,0c2.02893,0 4.22384,0 6.58478,0c2.39784,0 4.66652,0 6.80611,0c2.13956,0 4.02092,0 5.64408,0c1.62312,0 2.71139,0 3.26473,0c0.03687,1.84446 0,3.68892 -0.11067,5.53341c-0.11067,1.84446 -0.01845,3.6705 0.27669,5.4781h-0.05532c-0.22134,0 -1.08823,0 -2.60069,0c-1.47559,0 -3.28318,-0.01845 -5.42274,-0.05532c-2.1027,-0.0369 -4.37138,-0.0738 -6.80611,-0.11067c-2.3978,-0.0738 -4.66652,-0.11067 -6.80608,-0.11067c-2.1027,-0.0369 -3.91025,-0.0738 -5.42274,-0.11067c-1.47555,-0.0369 -2.32403,-0.05532 -2.54537,-0.05532c0,-0.55334 0,-1.36492 0,-2.4347z"/></g></g></svg>