<svg version="1.1" xmlns="http://www.w3.org/2000/svg" xmlns:xlink="http://www.w3.org/1999/xlink" width="27.17612" height="46.37009" viewBox="0,0,27.17612,46.37009"><g transform="translate(-226.41194,-170.21495)"><g data-paper-data="{&quot;isPaintingLayer&quot;:true}" fill="#ff0000" fill-rule="nonzero" stroke="#000000" stroke-width="0" stroke-linecap="square" stroke-linejoin="miter" stroke-miterlimit="10" stroke-dasharray="" stroke-dashoffset="0" style="mix-blend-mode: normal"><path d="M233.88185,188.23506c0,2.25027 0.66401,4.16853 1.99203,5.75475c0.81158,0.95915 1.86291,1.54936 3.15406,1.77069c1.32802,0.18447 2.56382,0.09222 3.7074,-0.27665c0.40581,-0.11067 0.71936,-0.31355 0.9407,-0.60866c0.22134,-0.2951 0.38736,-0.62711 0.49802,-0.99601c0.14757,-0.36887 0.25824,-0.75623 0.332,-1.162c0.0738,-0.44267 0.12912,-0.8669 0.16602,-1.27267c0,-1.73379 -0.03687,-3.52293 -0.11067,-5.36739c-0.07377,-1.84446 -0.332,-3.5967 -0.77468,-5.25672c-0.2582,-0.66401 -0.68246,-1.18045 -1.27267,-1.54936c-0.59021,-0.36887 -1.2358,-0.59021 -1.93668,-0.66401c-0.70088,-0.11067 -1.40179,-0.05532 -2.1027,0.16602c-0.66401,0.18447 -1.27267,0.49802 -1.82601,0.9407c-0.66401,0.73781 -1.2358,1.56781 -1.71534,2.49005c-0.44267,0.88535 -0.73778,1.82604 -0.88535,2.82206c-0.11067,0.44267 -0.16598,0.88535 -0.16598,1.32802c0,0.40581 0,0.83003 0,1.2727zM242.95665,216.56613c-1.14355,-0.0369 -2.61914,-0.05532 -4.42673,-0.05532c-2.0658,0 -3.9287,-0.44267 -5.58873,-1.32802c-1.62312,-0.88535 -2.93269,-2.08425 -3.9287,-3.5967c-0.18444,-0.29514 -0.35046,-0.70091 -0.49799,-1.21735c-0.14753,-0.47957 -0.27665,-0.99601 -0.38732,-1.54936c-0.11067,-0.51648 -0.18444,-1.01446 -0.22134,-1.494c0,-0.47957 0.01845,-0.9038 0.05535,-1.27267c0.44267,-0.18447 1.03292,-0.31355 1.77069,-0.38732c0.73781,-0.0369 1.51249,-0.05532 2.32403,-0.05532c0.81158,0.03687 1.60471,0.09222 2.37938,0.16602c0.77468,0.07377 1.43869,0.14753 1.99203,0.22134c0,1.14355 0.35046,2.04738 1.05137,2.71139c0.73781,0.70088 1.54936,1.08823 2.4347,1.16203c0.92225,0.11067 1.80759,-0.11067 2.65604,-0.66401c0.84848,-0.51648 1.42024,-1.38334 1.71538,-2.60069c0.0369,-0.44267 0.0738,-0.9038 0.11067,-1.38334c0.0369,-0.44267 0.0369,-0.84848 0,-1.21735c-0.07377,-0.73778 -0.07377,-1.51245 0,-2.32403c-0.44267,0.47957 -0.95911,0.83003 -1.54936,1.05137c-0.59021,0.22134 -1.2358,0.38736 -1.93668,0.49802c-0.66401,0.0738 -1.34647,0.11067 -2.04734,0.11067c-0.70088,0 -1.36488,0.01845 -1.99203,0.05535c-0.84844,0 -1.69689,-0.05532 -2.54537,-0.16598c-0.84844,-0.14753 -1.66002,-0.36887 -2.4347,-0.66401c-0.77468,-0.2951 -1.47555,-0.70088 -2.1027,-1.21735c-0.62711,-0.55334 -1.12513,-1.25422 -1.494,-2.1027c-0.62711,-1.18045 -1.06978,-2.41625 -1.32802,-3.70737c-0.2582,-1.32802 -0.44267,-2.67449 -0.55334,-4.03937c0,-2.0658 0.0369,-4.27916 0.11067,-6.64009c0.11067,-2.3978 0.49802,-4.62962 1.16203,-6.69541c0.70091,-2.1027 1.78914,-3.87339 3.26473,-5.31208c1.51249,-1.43869 3.68895,-2.23182 6.52943,-2.37935c1.40182,-0.11067 2.71139,0.0738 3.92874,0.55334c1.21735,0.44267 2.08425,1.29115 2.60072,2.54537c0.18447,0.0738 0.27669,0 0.27669,-0.22134c0.0369,-0.2582 0.0369,-0.57179 0,-0.94066c0,-0.36887 -0.01845,-0.73778 -0.05532,-1.10668c-0.03687,-0.40577 0.01845,-0.71933 0.16602,-0.94066c1.43869,-0.14753 2.91428,-0.18444 4.42673,-0.11067c1.51249,0.0369 3.00649,0.05535 4.48208,0.05535c0.18444,5.49655 0.27669,11.25129 0.27669,17.26425c0.03687,6.01299 -0.0738,12.19196 -0.332,18.53695c-0.0369,1.06978 -0.0369,2.12115 0,3.15406c0.03687,1.03288 -0.16598,1.89981 -0.60869,2.60072c-0.59021,0.95911 -1.21735,1.73379 -1.88136,2.32403c-0.62711,0.59021 -1.25422,1.03288 -1.88136,1.32802c-0.59021,0.332 -1.1989,0.57179 -1.82601,0.71936c-0.62711,0.14753 -1.1989,0.23979 -1.71534,0.27669c-0.44267,0.07377 -1.2358,0.09222 -2.37935,0.05535z"/></g></g></svg>