<svg version="1.1" xmlns="http://www.w3.org/2000/svg" xmlns:xlink="http://www.w3.org/1999/xlink" width="39.94454" height="47.52189" viewBox="0,0,39.94454,47.52189"><g transform="translate(-220.02773,-156.23905)"><g data-paper-data="{&quot;isPaintingLayer&quot;:true}" fill="#ff0000" fill-rule="nonzero" stroke="#000000" stroke-width="0" stroke-linecap="square" stroke-linejoin="miter" stroke-miterlimit="10" stroke-dasharray="" stroke-dashoffset="0" style="mix-blend-mode: normal"><path d="M259.9721,190.55436c0,1.98457 -0.2887,3.78877 -0.86601,5.41252c-0.57735,1.62376 -1.60571,3.01297 -3.08512,4.16766c-1.47945,1.11857 -3.51812,2.00266 -6.11614,2.65215c-2.59801,0.64951 -5.89963,0.97425 -9.9049,0.97425c-4.00527,0 -7.30689,-0.32475 -9.9049,-0.97425c-2.56195,-0.64951 -4.58261,-1.53356 -6.06203,-2.65212c-1.47945,-1.15469 -2.52585,-2.54387 -3.13926,-4.16763c-0.57735,-1.62376 -0.86601,-3.42796 -0.86601,-5.41252v-31.98801c0,-0.79385 0.1804,-1.37119 0.54125,-1.732c0.39691,-0.39694 0.99231,-0.59536 1.78615,-0.59536h10.17555c0.82991,0 1.4253,0.19846 1.78615,0.5954c0.36081,0.36081 0.54125,0.93816 0.54125,1.732v29.49828c0,0.86601 0.32475,1.58766 0.97425,2.16501c0.64951,0.57731 2.09282,0.86601 4.33003,0.86601c2.27326,0 3.73466,-0.2887 4.38417,-0.86601c0.64951,-0.57735 0.97425,-1.29901 0.97425,-2.16501v-29.49825c0,-0.79385 0.1804,-1.37119 0.54125,-1.732c0.36081,-0.39694 0.95621,-0.59536 1.78615,-0.59536h9.79669c0.82991,0 1.4253,0.19846 1.78615,0.5954c0.36081,0.36081 0.54125,0.93816 0.54125,1.732z"/></g></g></svg>