<svg version="1.1" xmlns="http://www.w3.org/2000/svg" xmlns:xlink="http://www.w3.org/1999/xlink" width="36.10172" height="46.54788" viewBox="0,0,36.10172,46.54788"><g transform="translate(-221.94914,-156.72606)"><g data-paper-data="{&quot;isPaintingLayer&quot;:true}" fill="#ff0000" fill-rule="nonzero" stroke="#000000" stroke-width="0" stroke-linecap="square" stroke-linejoin="miter" stroke-miterlimit="10" stroke-dasharray="" stroke-dashoffset="0" style="mix-blend-mode: normal"><path d="M244.68172,203.27363h-20.40521c-0.82995,0 -1.4253,-0.1804 -1.78612,-0.54125c-0.36084,-0.36084 -0.54125,-0.95621 -0.54125,-1.78612v-7.57753c0,-0.79385 0.1804,-1.37116 0.54125,-1.732c0.36081,-0.39691 0.95621,-0.59536 1.78615,-0.59536h17.37422c0.57731,0 0.99231,-0.1804 1.2449,-0.54125c0.28866,-0.36084 0.433,-0.79385 0.433,-1.29901c0,-0.75775 -0.14434,-1.29901 -0.433,-1.62376c-0.2526,-0.36084 -0.66755,-0.5593 -1.24486,-0.59536l-9.68841,-1.35312c-3.03102,-0.433 -5.46663,-1.4253 -7.30689,-2.97687c-1.8042,-1.5516 -2.70627,-4.13157 -2.70627,-7.73989v-6.81978c0,-3.64442 1.17271,-6.44089 3.51816,-8.3894c2.38151,-1.9846 5.66509,-2.97687 9.8508,-2.97687h18.07783c0.82991,0 1.4253,0.19846 1.78615,0.5954c0.36081,0.36084 0.54125,0.93816 0.54125,1.732v7.68579c0,0.82991 -0.18044,1.4253 -0.54125,1.78615c-0.36084,0.36084 -0.95621,0.54125 -1.78612,0.54125h-15.04682c-0.54125,0 -0.97425,0.19846 -1.29901,0.5954c-0.2887,0.36084 -0.433,0.81189 -0.433,1.35315c0,0.57735 0.14431,1.06446 0.433,1.4614c0.32475,0.36084 0.75775,0.5593 1.29901,0.5954l9.63429,1.29901c3.03102,0.433 5.46667,1.4253 7.30693,2.97691c1.84026,1.5516 2.76041,4.13157 2.76041,7.73993v6.81978c0,3.64442 -1.19075,6.45894 -3.57226,8.44354c-2.38151,1.94851 -5.64708,2.92277 -9.79666,2.92277z"/></g></g></svg>