<svg version="1.1" xmlns="http://www.w3.org/2000/svg" xmlns:xlink="http://www.w3.org/1999/xlink" width="38.44686" height="46.64626" viewBox="0,0,38.44686,46.64626"><g transform="translate(-220.77657,-156.67687)"><g data-paper-data="{&quot;isPaintingLayer&quot;:true}" fill="#ff0000" fill-rule="nonzero" stroke="#000000" stroke-width="0" stroke-linecap="square" stroke-linejoin="miter" stroke-miterlimit="10" stroke-dasharray="" stroke-dashoffset="0" style="mix-blend-mode: normal"><path d="M223.12636,203.32292c-0.6666,0 -1.23324,-0.21665 -1.69986,-0.64993c-0.43331,-0.43331 -0.64993,-0.99992 -0.64993,-1.69986v-41.94647c0,-0.6666 0.21665,-1.21657 0.64996,-1.64985c0.46662,-0.46662 1.03326,-0.69994 1.69986,-0.69994c0.6666,0 1.21657,0.23332 1.64988,0.69994c0.46662,0.43331 0.69994,0.98325 0.69994,1.64988v18.64845h29.09756v-18.64842c0,-0.6666 0.21665,-1.21657 0.64996,-1.64985c0.43331,-0.46662 0.99992,-0.69994 1.69986,-0.69994c0.6666,0 1.21657,0.23332 1.64988,0.69994c0.43331,0.43331 0.64996,0.98325 0.64996,1.64988v41.9465c0,0.69994 -0.21665,1.26655 -0.64993,1.69986c-0.43331,0.43331 -0.98325,0.64996 -1.64985,0.64996c-0.69994,0 -1.26655,-0.21665 -1.69986,-0.64993c-0.43331,-0.43331 -0.64993,-0.99992 -0.64993,-1.69986v-19.14838h-29.09756v19.14841c0,0.69994 -0.23332,1.26655 -0.69994,1.69986c-0.43331,0.43331 -0.98325,0.64996 -1.64985,0.64996z"/></g></g></svg>