<svg version="1.1" xmlns="http://www.w3.org/2000/svg" xmlns:xlink="http://www.w3.org/1999/xlink" width="11.69911" height="46.64618" viewBox="0,0,11.69911,46.64618"><g transform="translate(-234.15044,-156.67691)"><g data-paper-data="{&quot;isPaintingLayer&quot;:true}" fill="#ff0000" fill-rule="nonzero" stroke="#000000" stroke-width="0" stroke-linecap="square" stroke-linejoin="miter" stroke-miterlimit="10" stroke-dasharray="" stroke-dashoffset="0" style="mix-blend-mode: normal"><path d="M242.34973,203.32296c-1.56652,0 -2.98308,-0.43331 -4.24963,-1.29989c-1.26655,-0.89992 -2.2498,-2.11649 -2.94974,-3.64968c-0.6666,-1.56652 -0.99992,-3.36637 -0.99992,-5.39955v-33.99715c0,-0.6666 0.19998,-1.21657 0.59995,-1.64985c0.43331,-0.43331 0.98325,-0.64993 1.64988,-0.64993c0.6666,0 1.1999,0.21665 1.59987,0.64996c0.43331,0.43331 0.64996,0.98325 0.64996,1.64988v33.99715c0,1.7332 0.34999,3.13308 1.04993,4.19965c0.69994,1.06657 1.5832,1.59987 2.64979,1.59987h1.49987c0.59995,0 1.08324,0.21665 1.44989,0.64996c0.36663,0.39997 0.54997,0.94994 0.54997,1.64988c0,0.6666 -0.24996,1.21657 -0.74992,1.64988c-0.49996,0.39997 -1.14989,0.59995 -1.94982,0.59995z"/></g></g></svg>