<svg version="1.1" xmlns="http://www.w3.org/2000/svg" xmlns:xlink="http://www.w3.org/1999/xlink" width="26.44982" height="34.71093" viewBox="0,0,26.44982,34.71093"><g transform="translate(-226.77509,-168.24453)"><g data-paper-data="{&quot;isPaintingLayer&quot;:true}" fill="#ff0000" fill-rule="nonzero" stroke="#000000" stroke-width="0" stroke-linecap="square" stroke-linejoin="miter" stroke-miterlimit="10" stroke-dasharray="" stroke-dashoffset="0" style="mix-blend-mode: normal"><path d="M253.11398,189.42625c-0.11067,1.14355 -0.20289,2.26872 -0.27665,3.3754c-0.07377,1.06978 -0.18444,2.08425 -0.332,3.04339c-0.14757,0.95911 -0.31355,1.78914 -0.49799,2.49005c-0.18444,0.66401 -0.44267,1.14355 -0.77468,1.43869c-0.73778,1.06978 -1.71534,1.82604 -2.93269,2.26872c-1.21735,0.44267 -2.52692,0.71929 -3.9287,0.82996c-1.40179,0.11067 -2.85892,0.11067 -4.37138,0c-1.47559,-0.11067 -2.84047,-0.16598 -4.09472,-0.16598c-2.25027,-0.40577 -4.13163,-1.3833 -5.64408,-2.93266c-1.21735,-1.03292 -2.04734,-2.34248 -2.49002,-3.9287c-0.44267,-1.58626 -0.70091,-3.24628 -0.77468,-4.98007c-0.0738,-1.77069 -0.09222,-3.52293 -0.05532,-5.25672c0.07377,-1.77069 0.01845,-3.39385 -0.16598,-4.8694c0,-1.58626 0.14753,-3.17251 0.44267,-4.75873c0.03687,-0.47957 0.18444,-1.12513 0.44267,-1.93668c0.2582,-0.84848 0.46112,-1.494 0.60869,-1.93668c0.2951,-0.66401 0.77468,-1.2358 1.43869,-1.71534c0.70088,-0.47957 1.49404,-0.88535 2.37938,-1.21735c0.92225,-0.332 1.89981,-0.55334 2.93273,-0.66401c1.03292,-0.14757 2.08425,-0.22134 3.15406,-0.22134c0.88535,0.07377 1.73379,0.07377 2.54537,0c0.81158,-0.0738 1.67847,-0.05532 2.60072,0.05535c1.40179,0.07377 2.7298,0.332 3.98406,0.77468c1.29112,0.44267 2.3978,1.10668 3.32005,1.99203c0.62711,0.44267 1.10668,1.05137 1.43869,1.82604c0.332,0.73778 0.59024,1.60471 0.77468,2.60072c0.18444,0.99601 0.27669,2.13956 0.27669,3.43072c0.0369,1.25422 0.07377,2.60072 0.11067,4.03941c-0.55334,0.14753 -1.1989,0.22134 -1.93668,0.22134c-0.73778,0 -1.494,-0.01845 -2.26868,-0.05532c-0.77468,-0.0738 -1.5309,-0.14757 -2.26868,-0.22134c-0.70091,-0.11067 -1.34647,-0.20289 -1.93668,-0.27665c-0.22134,-1.54936 -0.8669,-2.74826 -1.93668,-3.5967c-1.03292,-0.84848 -2.3978,-1.05133 -4.09472,-0.60866c-0.92225,0.2582 -1.67847,0.73778 -2.26868,1.43869c-0.25824,0.18444 -0.46112,0.62711 -0.60866,1.32802c-0.18444,1.36488 -0.27665,2.74826 -0.27665,4.15008c0,1.40179 -0.0369,2.87737 -0.11067,4.42673c-0.07377,0.99601 0.18444,1.78914 0.77468,2.37938c0.59024,0.55334 1.29112,0.9407 2.1027,1.16203c0.84844,0.18444 1.71538,0.22134 2.60072,0.11067c0.88535,-0.11067 1.58626,-0.332 2.1027,-0.66401c0.44267,-0.332 0.77468,-0.84848 0.99601,-1.54936c0.25824,-0.73781 0.46112,-1.40182 0.60869,-1.99203c0.44267,0.07377 1.03292,0.09222 1.77069,0.05535c0.77468,-0.0369 1.56781,-0.0738 2.37938,-0.11067c0.84844,-0.0369 1.64157,-0.0369 2.37938,0c0.77468,0 1.40179,0.07377 1.88136,0.22134z"/></g></g></svg>