<svg version="1.1" xmlns="http://www.w3.org/2000/svg" xmlns:xlink="http://www.w3.org/1999/xlink" width="38.49693" height="47.79618" viewBox="0,0,38.49693,47.79618"><g transform="translate(-220.75153,-156.10191)"><g data-paper-data="{&quot;isPaintingLayer&quot;:true}" fill="#ff0000" fill-rule="nonzero" stroke="#000000" stroke-width="0" stroke-linecap="square" stroke-linejoin="miter" stroke-miterlimit="10" stroke-dasharray="" stroke-dashoffset="0" style="mix-blend-mode: normal"><path d="M243.94957,203.89783c-3.19973,0 -6.21615,-0.61662 -9.04923,-1.84983c-2.79977,-1.23324 -5.26621,-2.94974 -7.39938,-5.14955c-2.09982,-2.23316 -3.74967,-4.78293 -4.94957,-7.64934c-1.1999,-2.89976 -1.79985,-5.9995 -1.79985,-9.29922c0,-3.26638 0.58328,-6.33281 1.74987,-9.19923c1.16656,-2.89976 2.81644,-5.43289 4.9496,-7.59936c2.13317,-2.19982 4.59961,-3.91634 7.39938,-5.14955c2.83311,-1.26655 5.86616,-1.89984 9.09924,-1.89984c2.86642,0 5.4662,0.41664 7.79935,1.24991c2.36646,0.83327 4.64963,2.16647 6.84944,3.99966c0.36663,0.26663 0.56661,0.59995 0.59995,0.99992c0.06665,0.36663 0.01667,0.71661 -0.14997,1.04993c-0.13333,0.33332 -0.36663,0.58328 -0.69994,0.74995c-0.06665,0.29997 -0.26663,0.5333 -0.59995,0.69994c-0.29997,0.16664 -0.6666,0.23332 -1.09991,0.19998c-0.39997,-0.06665 -0.79993,-0.24996 -1.1999,-0.54994c-1.56652,-1.36654 -3.26638,-2.36646 -5.09957,-2.99975c-1.83319,-0.6666 -3.96632,-0.99992 -6.39946,-0.99992c-2.56644,0 -4.98291,0.51663 -7.24938,1.54989c-2.23316,1.03326 -4.21632,2.44981 -5.94949,4.24966c-1.69986,1.76651 -3.03309,3.83302 -3.99966,6.19948c-0.96658,2.33315 -1.44986,4.81627 -1.44986,7.44939c0,2.69977 0.48329,5.23291 1.44989,7.59936c0.96658,2.33315 2.29981,4.39963 3.99966,6.19948c1.7332,1.79985 3.71636,3.2164 5.94952,4.24966c2.26647,0.99992 4.68294,1.49987 7.24941,1.49987c2.19982,0 4.2663,-0.34995 6.19948,-1.0499c1.96649,-0.73328 3.83302,-1.78318 5.59953,-3.14972c0.46662,-0.39997 0.96658,-0.54994 1.49987,-0.44995c0.5333,0.06665 0.99992,0.29997 1.39988,0.69994c0.39997,0.39997 0.59995,0.9166 0.59995,1.54989c0,0.29997 -0.04998,0.58328 -0.14997,0.84994c-0.06665,0.26663 -0.23332,0.5333 -0.49996,0.79993c-2.03317,1.8665 -4.29964,3.19973 -6.79943,3.99966c-2.49979,0.76659 -5.11624,1.14992 -7.84933,1.14992zM259.24829,197.0984l-4.5496,-0.9499v-11.99899h-9.29922c-0.6666,0 -1.21657,-0.19998 -1.64985,-0.59995c-0.43331,-0.39997 -0.64993,-0.89992 -0.64993,-1.49987c0,-0.59995 0.21665,-1.08324 0.64996,-1.44986c0.43331,-0.39997 0.98325,-0.59995 1.64988,-0.59995h11.54905c0.6666,0 1.21657,0.21665 1.64988,0.64996c0.43331,0.39997 0.64996,0.94994 0.64996,1.64988z"/></g></g></svg>