<svg version="1.1" xmlns="http://www.w3.org/2000/svg" xmlns:xlink="http://www.w3.org/1999/xlink" width="28.36973" height="46.85628" viewBox="0,0,28.36973,46.85628"><g transform="translate(-225.81513,-156.57186)"><g data-paper-data="{&quot;isPaintingLayer&quot;:true}" fill="#ff0000" fill-rule="nonzero" stroke="#000000" stroke-width="0" stroke-linecap="square" stroke-linejoin="miter" stroke-miterlimit="10" stroke-dasharray="" stroke-dashoffset="0" style="mix-blend-mode: normal"><path d="M227.27359,198.38429c-0.36887,-0.81154 -0.60866,-1.66002 -0.71933,-2.54537c-0.18444,-1.03288 -0.2951,-2.08425 -0.332,-3.15403c0,-1.06978 -0.09222,-2.28713 -0.27665,-3.65205c0,-0.03687 0.0369,-0.05532 0.11067,-0.05532h0.05535c1.32802,0.0738 2.67449,-0.03687 4.03941,-0.332c1.40182,-0.2951 2.91428,-0.38732 4.5374,-0.27665h0.05535l0.05535,0.05535c0.29514,0.77468 0.79313,1.5309 1.49404,2.26872c0.70091,0.70091 1.49404,1.21735 2.37938,1.54936c0.88535,0.332 1.77069,0.42422 2.65604,0.27669c0.92225,-0.14753 1.69692,-0.68246 2.32403,-1.60467c0.55334,-0.88535 0.73781,-1.88136 0.55334,-2.98804c-0.14753,-1.10668 -0.68246,-2.02889 -1.60467,-2.76671c-0.95911,-0.70088 -2.13956,-1.06978 -3.54138,-1.10668c-1.36488,-0.03687 -2.60069,0.05535 -3.70737,0.27669c-0.2582,-0.59021 -0.42422,-1.27267 -0.49799,-2.04734c-0.03687,-0.81154 -0.03687,-1.62312 0,-2.4347c0.0738,-0.84844 0.12912,-1.67847 0.16602,-2.49002c0.0738,-0.81154 0.0738,-1.5309 0,-2.15801v-0.05532c0.73781,-0.2582 1.64157,-0.36887 2.71139,-0.332c1.10668,0 2.15805,-0.05532 3.15406,-0.16598c0.99601,-0.14753 1.80759,-0.47954 2.4347,-0.99601c0.66401,-0.55334 0.95915,-1.5309 0.88535,-2.93269c-0.03687,-1.51245 -0.49799,-2.50847 -1.38334,-2.98804c-0.84844,-0.47954 -1.82601,-0.62711 -2.93269,-0.44267c-1.06978,0.18447 -2.12115,0.64556 -3.15403,1.38337c-0.99601,0.70091 -1.67847,1.51249 -2.04734,2.4347c-0.36887,0.0369 -1.01446,0.05535 -1.93668,0.05535c-0.92221,0 -1.88136,0 -2.87737,0c-0.95911,0 -1.82601,0.01845 -2.60069,0.05535c-0.77468,0.0369 -1.21735,0.05535 -1.32802,0.05535v-0.16598c0,-0.88535 -0.03687,-1.88136 -0.11067,-2.98804c-0.07377,-1.14355 0.05535,-2.19491 0.38736,-3.15403c0.55334,-1.77069 1.49404,-3.24624 2.82206,-4.42673c1.32802,-1.18045 2.85892,-2.1027 4.59275,-2.76671c1.77069,-0.66401 3.6336,-1.05133 5.58876,-1.162c1.95516,-0.11067 3.83652,0.0369 5.64408,0.44267c1.84449,0.40581 3.50452,1.05137 4.98007,1.93671c1.47559,0.84848 2.58227,1.93671 3.32005,3.26473c0.44267,0.70091 0.71936,1.45714 0.83003,2.26872c0.11067,0.81158 0.14757,1.64157 0.11067,2.49005c0.0738,3.76272 0.09222,7.47012 0.05535,11.12218c0,3.61519 -0.05532,7.19344 -0.16598,10.73482c-0.11067,1.29115 -0.18444,2.60072 -0.22134,3.92874c-0.03687,1.32802 -0.35046,2.58227 -0.94066,3.76272c-0.59021,1.43869 -1.43869,2.69294 -2.54537,3.76272c-1.06978,1.06982 -2.41625,1.86291 -4.03937,2.37938c-1.62312,0.47957 -3.41226,0.71936 -5.36739,0.71936c-1.91823,0.0369 -3.72582,-0.05532 -5.42274,-0.27665c-0.59021,-0.07377 -1.1989,-0.20289 -1.82601,-0.38732c-0.59021,-0.18444 -1.18045,-0.35046 -1.77069,-0.49799c-0.92221,-0.2951 -1.66002,-0.62711 -2.21336,-0.99601c-0.51644,-0.40577 -0.81154,-0.66401 -0.88535,-0.77468c-0.62711,-0.59021 -1.12513,-1.29112 -1.494,-2.1027z"/></g></g></svg>