<svg version="1.1" xmlns="http://www.w3.org/2000/svg" xmlns:xlink="http://www.w3.org/1999/xlink" width="39.78214" height="46.5479" viewBox="0,0,39.78214,46.5479"><g transform="translate(-220.10893,-156.72605)"><g data-paper-data="{&quot;isPaintingLayer&quot;:true}" fill="#ff0000" fill-rule="nonzero" stroke="#000000" stroke-width="0" stroke-linecap="square" stroke-linejoin="miter" stroke-miterlimit="10" stroke-dasharray="" stroke-dashoffset="0" style="mix-blend-mode: normal"><path d="M232.12471,203.27374h-9.68841c-0.79385,0 -1.38921,-0.18044 -1.78612,-0.54125c-0.36084,-0.36084 -0.54125,-0.95621 -0.54125,-1.78612v-41.89296c0,-0.79385 0.1804,-1.37119 0.54125,-1.732c0.39691,-0.39694 0.99231,-0.59536 1.78615,-0.59536h6.76568c0.79381,0 1.47942,0.14431 2.05676,0.433c0.57731,0.25256 1.15466,0.70365 1.732,1.35315l12.55706,14.34321v-13.80192c0,-0.79385 0.1804,-1.37119 0.54125,-1.732c0.36081,-0.39694 0.95621,-0.59536 1.78615,-0.59536h9.68844c0.79381,0 1.37116,0.19846 1.732,0.5954c0.39691,0.36081 0.5954,0.93816 0.5954,1.732v41.89296c0,0.82991 -0.19846,1.4253 -0.59536,1.78615c-0.36084,0.36081 -0.93819,0.54125 -1.732,0.54125h-9.68841c-0.82995,0 -1.4253,-0.18044 -1.78612,-0.54125c-0.36084,-0.36084 -0.54125,-0.95621 -0.54125,-1.78612v-7.9564l-11.09567,-13.36892v21.32535c0,0.82991 -0.18044,1.4253 -0.54125,1.78615c-0.36084,0.36081 -0.95621,0.54125 -1.78612,0.54125z"/></g></g></svg>