<svg version="1.1" xmlns="http://www.w3.org/2000/svg" xmlns:xlink="http://www.w3.org/1999/xlink" width="28.99529" height="46.2039" viewBox="0,0,28.99529,46.2039"><g transform="translate(-225.50235,-156.89805)"><g data-paper-data="{&quot;isPaintingLayer&quot;:true}" fill="#ff0000" fill-rule="nonzero" stroke="#000000" stroke-width="0" stroke-linecap="square" stroke-linejoin="miter" stroke-miterlimit="10" stroke-dasharray="" stroke-dashoffset="0" style="mix-blend-mode: normal"><path d="M254.49739,157.28524c-1.21735,3.94716 -2.67449,7.82054 -4.37138,11.62016c-1.66002,3.79959 -3.39381,7.58079 -5.20141,11.34351c-1.80756,3.76272 -3.57825,7.52544 -5.31208,11.28816c-1.69689,3.76272 -3.20938,7.58079 -4.5374,11.45418c-0.2582,-0.0369 -0.51644,-0.05532 -0.77468,-0.05532c-0.2582,0 -0.55334,0 -0.88535,0c-0.92221,0 -1.93668,0.01845 -3.04336,0.05535c-1.06982,0.07377 -2.12115,0.11067 -3.15403,0.11067c-0.2582,0 -0.51648,0 -0.77468,0c-0.2582,0 -0.51648,-0.01845 -0.77468,-0.05532h-0.16598c1.14355,-3.57828 2.49005,-7.3041 4.03941,-11.17749c1.54936,-3.91029 3.09871,-7.80209 4.64807,-11.67548v-0.11067c-0.51644,-1.95516 -1.14355,-3.89184 -1.88136,-5.81006c-0.73778,-1.91826 -1.51249,-3.81804 -2.32403,-5.6994c-0.81154,-1.88136 -1.60467,-3.76272 -2.37935,-5.64408c-0.73781,-1.91826 -1.32802,-3.79962 -1.77069,-5.64408c0.88535,0 1.80756,-0.05532 2.76671,-0.16598c0.99601,-0.14757 1.97358,-0.22134 2.93273,-0.22134c0.51644,0 1.03292,0.03687 1.54936,0.11067c0.55334,0.03687 1.06982,0.16602 1.54936,0.38736c0.22134,0.95911 0.53489,2.1027 0.9407,3.43072c0.44267,1.32802 0.88535,2.67449 1.32802,4.03941c0.47957,1.36488 0.95915,2.67449 1.43869,3.92874c0.51648,1.21735 0.97756,2.25023 1.38337,3.09871c0.44267,-0.81158 0.88535,-1.84449 1.32802,-3.09871c0.47957,-1.25425 0.9407,-2.56382 1.38337,-3.9287c0.47957,-1.36492 0.9407,-2.71135 1.38337,-4.03937c0.44267,-1.32802 0.8669,-2.41625 1.2727,-3.2647c0.77468,-0.18447 1.82604,-0.31355 3.15406,-0.38732c1.36492,-0.0738 2.61917,-0.11067 3.76272,-0.11067c0.51648,0 0.99601,0.01845 1.43869,0.05535c0.44267,0 0.79313,0.03687 1.05137,0.11067z"/></g></g></svg>