<svg version="1.1" xmlns="http://www.w3.org/2000/svg" xmlns:xlink="http://www.w3.org/1999/xlink" width="37.29692" height="46.64611" viewBox="0,0,37.29692,46.64611"><g transform="translate(-221.35154,-156.67694)"><g data-paper-data="{&quot;isPaintingLayer&quot;:true}" fill="#ff0000" fill-rule="nonzero" stroke="#000000" stroke-width="0" stroke-linecap="square" stroke-linejoin="miter" stroke-miterlimit="10" stroke-dasharray="" stroke-dashoffset="0" style="mix-blend-mode: normal"><path d="M239.94995,203.32303c-0.63329,0 -1.18323,-0.21665 -1.64985,-0.64993c-0.43331,-0.46662 -0.64993,-1.03326 -0.64993,-1.69986v-44.29629h4.64963v44.29629c0,0.6666 -0.21665,1.23324 -0.64993,1.69986c-0.43331,0.43331 -0.99992,0.64996 -1.69986,0.64996zM223.50134,160.92657c-0.63329,0 -1.14989,-0.19998 -1.54985,-0.59995c-0.39997,-0.39997 -0.59995,-0.89992 -0.59995,-1.49987c0,-0.63329 0.19998,-1.14989 0.59995,-1.54985c0.39997,-0.39997 0.9166,-0.59995 1.54989,-0.59995h32.99724c0.63329,0 1.14992,0.19998 1.54989,0.59995c0.39997,0.39997 0.59995,0.9166 0.59995,1.54989c0,0.59995 -0.19998,1.09991 -0.59995,1.49987c-0.39997,0.39997 -0.9166,0.59995 -1.54985,0.59995z"/></g></g></svg>