<svg version="1.1" xmlns="http://www.w3.org/2000/svg" xmlns:xlink="http://www.w3.org/1999/xlink" width="28.93982" height="47.75316" viewBox="0,0,28.93982,47.75316"><g transform="translate(-225.53009,-156.12342)"><g data-paper-data="{&quot;isPaintingLayer&quot;:true}" fill="#ff0000" fill-rule="nonzero" stroke="#000000" stroke-width="0" stroke-linecap="square" stroke-linejoin="miter" stroke-miterlimit="10" stroke-dasharray="" stroke-dashoffset="0" style="mix-blend-mode: normal"><path d="M253.30767,194.13774c-0.2582,1.06978 -0.75623,2.41625 -1.494,4.03941c0.29514,0.332 0.57179,0.66401 0.83003,0.99601c0.29514,0.332 0.44267,0.66401 0.44267,0.99601c0,0.59024 -0.18447,1.06978 -0.55334,1.43869c-0.332,0.36891 -0.75623,0.71936 -1.27267,1.05137c-0.332,0.22134 -0.77468,0.47957 -1.32802,0.77468c-0.51648,0.2951 -1.01446,0.44267 -1.494,0.44267c-0.2582,0 -0.66401,-0.25824 -1.21735,-0.77468c-0.55334,-0.55334 -0.95915,-1.01446 -1.21735,-1.38334c-0.2582,0.332 -0.66401,0.62711 -1.21735,0.88535c-0.51648,0.25824 -1.10668,0.47957 -1.77069,0.66401c-0.66401,0.18444 -1.36488,0.31355 -2.1027,0.38736c-0.73781,0.07377 -1.43869,0.09222 -2.1027,0.05535c-1.10668,-0.07377 -2.1027,-0.20289 -2.98804,-0.38732c-0.84848,-0.22134 -1.64157,-0.49799 -2.37935,-0.82999c-0.70088,-0.332 -1.38334,-0.71933 -2.04734,-1.162c-0.62714,-0.44267 -1.27267,-0.95911 -1.93668,-1.54936c-1.06982,-1.06978 -1.88136,-2.23182 -2.4347,-3.48603c-0.55334,-1.25425 -0.94066,-2.60069 -1.162,-4.03937c-0.22134,-1.43869 -0.332,-2.91428 -0.332,-4.42673c0,-1.54936 0,-3.15403 0,-4.81405c0,-1.51249 0,-3.13561 0,-4.8694c0,-1.77069 0.01845,-3.54138 0.05535,-5.31208c0.0738,-1.77069 0.20289,-3.54138 0.38736,-5.31208c0.22134,-1.77069 0.55334,-3.44917 0.99601,-5.03539c0.29514,-0.92225 0.83003,-1.77069 1.60471,-2.54537c0.81154,-0.77468 1.80756,-1.43869 2.98804,-1.99203c1.18048,-0.59024 2.49005,-1.03292 3.92874,-1.32802c1.47555,-0.332 3.06184,-0.49799 4.75873,-0.49799c1.54936,0 2.91424,0.05535 4.09472,0.16602c1.18048,0.11067 2.25023,0.42422 3.20938,0.9407c0.99601,0.47954 1.88136,1.21735 2.65604,2.21336c0.81154,0.95911 1.58622,2.32403 2.32403,4.09472c0.73781,2.3978 1.2358,4.92475 1.49404,7.58079c0.29514,2.61914 0.44267,5.25676 0.44267,7.9128c0,1.36488 -0.01845,2.52692 -0.05532,3.48607c0,0.92221 -0.05532,2.04738 -0.16598,3.3754c-0.0738,1.10668 -0.12912,2.21336 -0.16598,3.32005c0,1.06978 -0.14753,2.1396 -0.44267,3.20938c-0.03687,0.51644 -0.14753,1.08823 -0.332,1.71538zM243.67953,188.38299c0.22134,0.22134 0.42422,0.49802 0.60869,0.83003c0.22134,0.332 0.42422,0.70091 0.60869,1.10668c0.22134,0.40577 0.46112,0.73778 0.71936,0.99601c0.03687,-0.22134 0.0738,-0.51644 0.11067,-0.88535c0.03687,-0.40577 0.0738,-0.81158 0.11067,-1.21735c0.0738,-0.40577 0.12912,-0.79313 0.16602,-1.162c0.03687,-0.40577 0.0738,-0.71933 0.11067,-0.94066c0.0738,-0.47957 0.11067,-1.03292 0.11067,-1.66002c0.03687,-0.66401 0.05535,-1.36492 0.05535,-2.1027c0,-0.73781 -0.01845,-1.43869 -0.05532,-2.1027c0,-0.70091 0,-1.29115 0,-1.77069c0,-1.54936 -0.03687,-2.89582 -0.11067,-4.03937c-0.0738,-1.14358 -0.20289,-2.5085 -0.38732,-4.09472c-0.11067,-1.58626 -0.57179,-2.87737 -1.38334,-3.87339c-0.77468,-0.99601 -2.19491,-1.494 -4.26071,-1.494c-1.29115,0 -2.30558,0.05535 -3.04336,0.16602c-0.73781,0.11067 -1.30957,0.35046 -1.71534,0.71936c-0.40581,0.332 -0.70088,0.84844 -0.88535,1.54936c-0.14753,0.66401 -0.2582,1.54936 -0.332,2.65604c-0.0738,0.92221 -0.14753,1.77069 -0.22134,2.54537c-0.0738,0.77468 -0.12912,1.5309 -0.16598,2.26872c0,0.73778 -0.01845,1.49404 -0.05532,2.26872c0,0.73778 0,1.56781 0,2.49005c0,0.62711 -0.01845,1.45714 -0.05532,2.49005c-0.03687,0.99601 -0.05532,2.04738 -0.05532,3.15406c0,1.10668 0.03687,2.17646 0.11067,3.20938c0.11067,1.03292 0.27669,1.88136 0.49802,2.54537c0.47954,1.32802 1.25422,2.28713 2.32403,2.87737c1.10668,0.55334 2.32403,0.83003 3.65205,0.83003c0.22134,0 0.40581,0 0.55334,0c0.18447,0 0.38736,-0.0369 0.60869,-0.11067c-0.51648,-0.51644 -0.99601,-1.01446 -1.43869,-1.494c-0.36887,-0.44267 -0.70088,-0.88535 -0.99601,-1.32802c-0.2582,-0.47957 -0.38732,-0.92225 -0.38732,-1.32802c0,-0.59024 0.23979,-0.99601 0.71936,-1.21735c0.47954,-0.22134 0.95915,-0.51644 1.43869,-0.88535c0.36887,-0.22134 0.71936,-0.49799 1.05137,-0.82999c0.36887,-0.36891 0.79313,-0.55334 1.2727,-0.55334c0.2582,0 0.49802,0.12912 0.71936,0.38736z"/></g></g></svg>