<svg version="1.1" xmlns="http://www.w3.org/2000/svg" xmlns:xlink="http://www.w3.org/1999/xlink" width="32.0608" height="47.79616" viewBox="0,0,32.0608,47.79616"><g transform="translate(-223.9696,-156.10192)"><g data-paper-data="{&quot;isPaintingLayer&quot;:true}" fill="#ff0000" fill-rule="nonzero" stroke="#000000" stroke-width="0" stroke-linecap="square" stroke-linejoin="miter" stroke-miterlimit="10" stroke-dasharray="" stroke-dashoffset="0" style="mix-blend-mode: normal"><path d="M240.58135,203.89779c-2.53313,0 -4.89959,-0.36663 -7.09941,-1.09991c-2.16647,-0.73328 -4.04964,-1.76651 -5.64951,-3.09974c-1.56652,-1.36654 -2.76642,-2.94974 -3.5997,-4.74959c-0.33332,-0.63329 -0.34995,-1.21657 -0.04998,-1.74984c0.29997,-0.56661 0.8166,-0.93327 1.54989,-1.09991c0.5333,-0.16664 1.06657,-0.11666 1.59987,0.15c0.56661,0.26663 0.98325,0.68327 1.24991,1.24991c0.59995,1.16656 1.46653,2.21649 2.59978,3.14975c1.16656,0.89992 2.5498,1.59987 4.14967,2.09982c1.59987,0.49996 3.34974,0.74995 5.24958,0.74995c2.09982,0 3.96632,-0.34995 5.59953,-1.0499c1.63321,-0.69994 2.91643,-1.71653 3.84969,-3.04973c0.93327,-1.33323 1.39988,-2.96641 1.39988,-4.89959c0,-2.3998 -0.89992,-4.46628 -2.69977,-6.19948c-1.76651,-1.76651 -4.56627,-2.89976 -8.3993,-3.39972c-4.66627,-0.5333 -8.31598,-1.96649 -10.94907,-4.29964c-2.59978,-2.33315 -3.89967,-5.19956 -3.89967,-8.59928c0,-2.3998 0.63329,-4.49962 1.89984,-6.29947c1.29989,-1.79985 3.08307,-3.18306 5.34957,-4.14964c2.29981,-0.96658 4.91626,-1.44986 7.84936,-1.44986c2.19982,0 4.18298,0.34999 5.94952,1.04993c1.79985,0.6666 3.36637,1.56652 4.69961,2.69977c1.33323,1.13325 2.41647,2.38313 3.24974,3.7497c0.39997,0.63329 0.5333,1.24991 0.39997,1.84986c-0.13333,0.59995 -0.48329,1.04993 -1.0499,1.3499c-0.59995,0.29997 -1.21657,0.34999 -1.84983,0.15c-0.59995,-0.19998 -1.0499,-0.58328 -1.34987,-1.14989c-0.59995,-0.89992 -1.34987,-1.74984 -2.2498,-2.54977c-0.89992,-0.83327 -1.99983,-1.4832 -3.29972,-1.94982c-1.26655,-0.49996 -2.78309,-0.76659 -4.5496,-0.79993c-3.16639,0 -5.69952,0.6666 -7.59936,1.99983c-1.89984,1.33323 -2.84975,3.26638 -2.84975,5.79951c0,1.36654 0.34999,2.61645 1.04993,3.7497c0.73328,1.13325 1.91651,2.11649 3.54972,2.94977c1.66652,0.79993 3.883,1.39988 6.64946,1.79985c4.99958,0.69994 8.69927,2.21649 11.09907,4.54963c2.3998,2.33315 3.5997,5.36621 3.5997,9.09924c0,2.16647 -0.3833,4.08299 -1.14989,5.74953c-0.76659,1.66652 -1.8665,3.0664 -3.29972,4.19965c-1.39988,1.13325 -3.04973,1.99983 -4.94957,2.59978c-1.89984,0.59995 -3.91634,0.89992 -6.04948,0.89992z"/></g></g></svg>