<svg version="1.1" xmlns="http://www.w3.org/2000/svg" xmlns:xlink="http://www.w3.org/1999/xlink" width="32.20464" height="46.54776" viewBox="0,0,32.20464,46.54776"><g transform="translate(-223.89768,-156.72612)"><g data-paper-data="{&quot;isPaintingLayer&quot;:true}" fill="#ff0000" fill-rule="nonzero" stroke="#000000" stroke-width="0" stroke-linecap="square" stroke-linejoin="miter" stroke-miterlimit="10" stroke-dasharray="" stroke-dashoffset="0" style="mix-blend-mode: normal"><path d="M226.22505,203.27371c-0.79385,0 -1.38921,-0.18044 -1.78612,-0.54125c-0.36084,-0.36084 -0.54125,-0.95621 -0.54125,-1.78612v-7.68579c0,-0.82995 0.1804,-1.4253 0.54125,-1.78612c0.39691,-0.36084 0.99231,-0.54125 1.78615,-0.54125h6.38678v-21.70418h-6.38678c-0.79385,0 -1.38921,-0.1804 -1.78612,-0.54125c-0.36084,-0.39691 -0.54125,-0.99231 -0.54125,-1.78612v-7.84815c0,-0.79381 0.1804,-1.37116 0.54125,-1.732c0.39691,-0.39691 0.99231,-0.59536 1.78615,-0.59536h27.54978c0.82991,0 1.4253,0.19846 1.78615,0.5954c0.36081,0.36084 0.54125,0.93819 0.54125,1.732v7.84819c0,0.79385 -0.18044,1.38921 -0.54125,1.78615c-0.36084,0.36084 -0.95621,0.54125 -1.78612,0.54125h-6.27853v21.70418h6.27853c0.82991,0 1.4253,0.1804 1.78615,0.54125c0.36081,0.36081 0.54125,0.95621 0.54125,1.78615v7.68579c0,0.82991 -0.18044,1.4253 -0.54125,1.78615c-0.36084,0.36081 -0.95621,0.54125 -1.78612,0.54125z"/></g></g></svg>