<svg version="1.1" xmlns="http://www.w3.org/2000/svg" xmlns:xlink="http://www.w3.org/1999/xlink" width="33.23301" height="46.54778" viewBox="0,0,33.23301,46.54778"><g transform="translate(-223.38349,-156.72611)"><g data-paper-data="{&quot;isPaintingLayer&quot;:true}" fill="#ff0000" fill-rule="nonzero" stroke="#000000" stroke-width="0" stroke-linecap="square" stroke-linejoin="miter" stroke-miterlimit="10" stroke-dasharray="" stroke-dashoffset="0" style="mix-blend-mode: normal"><path d="M254.289,203.27373h-28.57814c-0.79385,0 -1.38921,-0.1804 -1.78612,-0.54125c-0.36084,-0.36081 -0.54125,-0.95621 -0.54125,-1.78612v-7.79403c0,-0.82991 0.1804,-1.4253 0.54125,-1.78612c0.39691,-0.36081 0.99231,-0.54125 1.78615,-0.54125h7.25279v-21.59597h-5.95378c-0.82991,0 -1.4253,-0.1804 -1.78612,-0.54125c-0.36084,-0.39691 -0.54125,-0.99231 -0.54125,-1.78612v-7.84815c0,-0.79381 0.1804,-1.37116 0.54125,-1.732c0.36084,-0.39691 0.95621,-0.59536 1.78615,-0.59536h18.72734c0.82991,0 1.4253,0.19846 1.78615,0.5954c0.36084,0.36084 0.54125,0.93819 0.54125,1.732v31.77155h6.22443c0.82991,0 1.4253,0.18044 1.78615,0.54125c0.36084,0.36084 0.54125,0.95621 0.54125,1.78615v7.79403c0,0.82995 -0.1804,1.4253 -0.54125,1.78615c-0.36084,0.36084 -0.95621,0.54125 -1.78612,0.54125z"/></g></g></svg>