<svg version="1.1" xmlns="http://www.w3.org/2000/svg" xmlns:xlink="http://www.w3.org/1999/xlink" width="40.38684" height="46.64613" viewBox="0,0,40.38684,46.64613"><g transform="translate(-219.80658,-156.67693)"><g data-paper-data="{&quot;isPaintingLayer&quot;:true}" fill="#ff0000" fill-rule="nonzero" stroke="#000000" stroke-width="0" stroke-linecap="square" stroke-linejoin="miter" stroke-miterlimit="10" stroke-dasharray="" stroke-dashoffset="0" style="mix-blend-mode: normal"><path d="M240.05693,203.32301c-0.99992,0 -1.71653,-0.49996 -2.1498,-1.49987l-17.7485,-41.49652c-0.43331,-1.09991 -0.46662,-1.98316 -0.09999,-2.64976c0.39997,-0.6666 1.06657,-0.99992 1.99983,-0.99992c0.99992,0 1.71653,0.49996 2.14984,1.49987l16.49862,39.3967h-1.29989l16.39863,-39.2467c0.23332,-0.59995 0.5333,-1.01659 0.89992,-1.24988c0.36663,-0.26663 0.83327,-0.39997 1.39988,-0.39997c0.93327,0 1.54989,0.34999 1.84986,1.04993c0.33332,0.69994 0.31665,1.49987 -0.04998,2.3998l-17.79851,41.69651c-0.23332,0.56661 -0.5333,0.96658 -0.89992,1.1999c-0.33332,0.19998 -0.71661,0.29997 -1.14989,0.29997z"/></g></g></svg>