<svg version="1.1" xmlns="http://www.w3.org/2000/svg" xmlns:xlink="http://www.w3.org/1999/xlink" width="34.7483" height="46.54776" viewBox="0,0,34.7483,46.54776"><g transform="translate(-222.62585,-156.72612)"><g data-paper-data="{&quot;isPaintingLayer&quot;:true}" fill="#ff0000" fill-rule="nonzero" stroke="#000000" stroke-width="0" stroke-linecap="square" stroke-linejoin="miter" stroke-miterlimit="10" stroke-dasharray="" stroke-dashoffset="0" style="mix-blend-mode: normal"><path d="M255.04675,156.72612c0.79385,0 1.37116,0.19846 1.732,0.5954c0.39691,0.36081 0.5954,0.93816 0.5954,1.732v16.34583c0,2.05676 -0.2165,3.78877 -0.64951,5.19602c-0.39691,1.40726 -1.01035,2.59801 -1.84026,3.57226c-0.82991,0.93816 -1.87636,1.71396 -3.13926,2.3274c-1.26291,0.61341 -2.76037,1.19075 -4.49238,1.732l-4.76302,1.40726v11.31219c0,0.82991 -0.1804,1.4253 -0.54125,1.78615c-0.36084,0.36081 -0.95621,0.54125 -1.78612,0.54125h-10.44616c-0.82991,0 -1.4253,-0.18044 -1.78612,-0.54125c-0.36084,-0.36084 -0.54125,-0.95621 -0.54125,-1.78612v-11.69106c0,-2.0207 0.19846,-3.73463 0.5954,-5.14188c0.39691,-1.44335 1.01035,-2.63411 1.84026,-3.57226c0.82991,-0.97425 1.87636,-1.7681 3.13926,-2.38151c1.26291,-0.61344 2.76041,-1.19075 4.49241,-1.732l5.25016,-1.40726v-5.79139h-17.75309c-0.79385,0 -1.38921,-0.18044 -1.78612,-0.54125c-0.36084,-0.39694 -0.54125,-0.99231 -0.54125,-1.78612v-7.84815c0,-0.79385 0.1804,-1.37119 0.54125,-1.732c0.39691,-0.39694 0.99231,-0.59536 1.78615,-0.59536z"/></g></g></svg>