<svg version="1.1" xmlns="http://www.w3.org/2000/svg" xmlns:xlink="http://www.w3.org/1999/xlink" width="40.16107" height="53.31354" viewBox="0,0,40.16107,53.31354"><g transform="translate(-219.91946,-153.34323)"><g data-paper-data="{&quot;isPaintingLayer&quot;:true}" fill="#ff0000" fill-rule="nonzero" stroke="#000000" stroke-width="0" stroke-linecap="square" stroke-linejoin="miter" stroke-miterlimit="10" stroke-dasharray="" stroke-dashoffset="0" style="mix-blend-mode: normal"><path d="M244.9253,206.65648h-9.95905c-0.79385,0 -1.38921,-0.1804 -1.78612,-0.54125c-0.36084,-0.36084 -0.54125,-0.95621 -0.54125,-1.78612v-3.51812c-4.97952,-0.72165 -8.35334,-2.21912 -10.1214,-4.49238c-1.732,-2.27326 -2.59801,-5.01562 -2.59801,-8.22704v-21.48771c0,-1.9846 0.28866,-3.77072 0.86601,-5.35838c0.57731,-1.62376 1.60571,-3.01297 3.08516,-4.16763c1.51551,-1.19075 3.59032,-2.11087 6.22443,-2.76037c2.63407,-0.64951 5.95378,-0.97425 9.95905,-0.97425c4.00527,0 7.30693,0.32475 9.90494,0.97425c2.59801,0.64951 4.63673,1.56965 6.11617,2.76041c1.47942,1.15466 2.50781,2.54391 3.08516,4.16766c0.61341,1.58766 0.92015,3.37382 0.92015,5.35842v21.48775c0,1.62376 -0.19846,3.13926 -0.59536,4.54652c-0.39694,1.40726 -1.06446,2.65215 -2.00262,3.73466c-0.93819,1.04641 -2.2372,1.96656 -3.89702,2.76041c-1.65986,0.75775 -3.77072,1.31705 -6.33264,1.6779v3.51816c0,0.82991 -0.18044,1.4253 -0.54125,1.78615c-0.36084,0.36084 -0.95621,0.54125 -1.78612,0.54125zM234.58739,186.63013c0,0.86601 0.32475,1.58766 0.97425,2.16501c0.64951,0.57735 2.14696,0.86601 4.49241,0.86601c2.30933,0 3.78877,-0.28866 4.43827,-0.86601c0.64951,-0.57735 0.97425,-1.29901 0.97425,-2.16501v-17.64484c0,-0.79385 -0.32475,-1.47945 -0.97425,-2.05676c-0.64951,-0.61344 -2.12895,-0.92011 -4.43827,-0.92011c-2.34545,0 -3.84288,0.3067 -4.49238,0.92015c-0.64951,0.57731 -0.97425,1.26291 -0.97425,2.05676z"/></g></g></svg>