<svg version="1.1" xmlns="http://www.w3.org/2000/svg" xmlns:xlink="http://www.w3.org/1999/xlink" width="27.07231" height="46.76649" viewBox="0,0,27.07231,46.76649"><g transform="translate(-226.46384,-169.81676)"><g data-paper-data="{&quot;isPaintingLayer&quot;:true}" fill="#ff0000" fill-rule="nonzero" stroke="#000000" stroke-width="0" stroke-linecap="square" stroke-linejoin="miter" stroke-miterlimit="10" stroke-dasharray="" stroke-dashoffset="0" style="mix-blend-mode: normal"><path d="M235.27576,216.27888c0,0.0738 -0.2951,0.12912 -0.88535,0.16602c-0.59024,0.0738 -1.30957,0.11067 -2.15801,0.11067c-0.84844,0.0369 -1.77069,0.0369 -2.76671,0c-0.95915,0 -1.78914,-0.05532 -2.49002,-0.16598v-4.37138c0,-3.65205 -0.05532,-7.3041 -0.16598,-10.95616c-0.0738,-3.68892 -0.14757,-7.3041 -0.22134,-10.84549c-0.0369,-3.54138 -0.0738,-7.00896 -0.11067,-10.40281c-0.0369,-3.43072 0,-6.73231 0.11067,-9.90479c1.36488,0 2.85892,-0.01845 4.48208,-0.05532c1.62312,-0.07377 3.09871,-0.03687 4.42673,0.11067c0.0369,0.11067 0.05535,0.27669 0.05535,0.49802c0,0.44267 0,0.79313 0,1.05137c0.0369,0.25824 0.05535,0.62714 0.05535,1.10668c0.11067,0.22134 0.22134,0.38736 0.332,0.49802c0.11067,0.11067 0.22134,0.0369 0.332,-0.22134c0.66401,-1.32802 1.54936,-2.17646 2.65604,-2.54537c1.10668,-0.36887 2.26872,-0.46112 3.48607,-0.27665c2.50847,0.14757 4.48208,0.79313 5.92077,1.93671c1.47559,1.10668 2.58227,2.54537 3.32005,4.31606c0.73778,1.73383 1.21735,3.68895 1.43869,5.86542c0.22134,2.1396 0.36891,4.29761 0.44267,6.47411c0,1.54936 -0.11067,3.06184 -0.332,4.5374c-0.18444,1.43869 -0.47957,2.76671 -0.88535,3.98406c-0.40577,1.21735 -0.95911,2.25027 -1.66002,3.09871c-0.70091,0.84848 -1.5309,1.45714 -2.49002,1.82604c-1.18045,0.44267 -2.49002,0.71936 -3.9287,0.83003c-1.43869,0.11067 -2.80361,0.11067 -4.09472,0c-1.25425,-0.11067 -2.32403,-0.31355 -3.20938,-0.60866c-0.88535,-0.332 -1.36492,-0.70088 -1.43869,-1.10668c0.0369,2.06583 0.05535,3.74427 0.05535,5.03542c0,1.29115 0,2.30558 0,3.04336c0,0.77468 -0.01845,1.36492 -0.05532,1.77069c0,0.44267 -0.01845,0.84848 -0.05532,1.21735c0,0.36891 -0.01845,0.77468 -0.05532,1.21735c0,0.47957 -0.0369,1.16203 -0.11067,2.04738zM245.89992,188.77784c0.07377,-0.66401 0.11067,-1.30957 0.11067,-1.93668c0,-1.10668 -0.14757,-2.17646 -0.44267,-3.20938c-0.25824,-1.03288 -0.64556,-1.95513 -1.162,-2.76671c-0.51644,-0.81154 -1.162,-1.45714 -1.93668,-1.93668c-0.73778,-0.51644 -1.56781,-0.77468 -2.49002,-0.77468c-1.14358,0 -2.02893,0.25824 -2.65604,0.77468c-0.59024,0.47957 -1.05133,1.14358 -1.38334,1.99203c-0.332,0.81158 -0.53489,1.82604 -0.60866,3.04339c-0.07377,1.18048 -0.11067,2.45315 -0.11067,3.81807c0,1.69692 0.0369,3.04339 0.11067,4.03941c0.07377,0.99601 0.23979,1.77069 0.49802,2.32403c0.25824,0.51648 0.66401,0.84848 1.21735,0.99601c0.55334,0.14757 1.29112,0.22134 2.21336,0.22134c1.80759,0 3.24628,-0.38732 4.31606,-1.162c1.06978,-0.81154 1.71538,-1.99203 1.93671,-3.54138c0.22134,-0.62711 0.35046,-1.25422 0.38736,-1.88136z"/></g></g></svg>