<svg version="1.1" xmlns="http://www.w3.org/2000/svg" xmlns:xlink="http://www.w3.org/1999/xlink" width="37.56302" height="46.54782" viewBox="0,0,37.56302,46.54782"><g transform="translate(-221.21849,-156.72609)"><g data-paper-data="{&quot;isPaintingLayer&quot;:true}" fill="#ff0000" fill-rule="nonzero" stroke="#000000" stroke-width="0" stroke-linecap="square" stroke-linejoin="miter" stroke-miterlimit="10" stroke-dasharray="" stroke-dashoffset="0" style="mix-blend-mode: normal"><path d="M256.45402,203.27378h-32.90816c-0.79385,0 -1.38921,-0.1804 -1.78612,-0.54125c-0.36084,-0.36081 -0.54125,-0.95621 -0.54125,-1.78612v-41.89296c0,-0.79381 0.1804,-1.37116 0.54125,-1.732c0.39691,-0.39691 0.99231,-0.59536 1.78615,-0.59536h10.01319c0.82991,0 1.4253,0.19846 1.78615,0.5954c0.36081,0.36084 0.54125,0.93819 0.54125,1.732v31.98805h8.87654v-10.44616c0,-0.82991 0.1804,-1.4253 0.54125,-1.78612c0.36081,-0.36081 0.95621,-0.54125 1.78615,-0.54125h9.36369c0.82991,0 1.4253,0.18044 1.78615,0.54125c0.36081,0.36084 0.54125,0.95621 0.54125,1.78615v20.3511c0,0.82995 -0.18044,1.4253 -0.54125,1.78615c-0.36084,0.36084 -0.95621,0.54125 -1.78612,0.54125z"/></g></g></svg>