<svg version="1.1" xmlns="http://www.w3.org/2000/svg" xmlns:xlink="http://www.w3.org/1999/xlink" width="12.12265" height="47.163" viewBox="0,0,12.12265,47.163"><g transform="translate(-233.93868,-156.4185)"><g data-paper-data="{&quot;isPaintingLayer&quot;:true}" fill="#ff0000" fill-rule="nonzero" stroke="#000000" stroke-width="0" stroke-linecap="square" stroke-linejoin="miter" stroke-miterlimit="10" stroke-dasharray="" stroke-dashoffset="0" style="mix-blend-mode: normal"><path d="M246.06132,156.80569v0.22134c0,3.79962 -0.05532,7.61766 -0.16598,11.45418c-0.11067,3.83652 -0.20289,7.69146 -0.27665,11.56485c-0.03687,3.83649 -0.03687,7.67294 0,11.50946c0.03687,3.83649 0.16602,7.61766 0.38736,11.34351c-0.36887,0.36887 -1.12513,0.57179 -2.26868,0.60869c-1.10668,0.07377 -2.30558,0.09222 -3.5967,0.05535c-1.29115,-0.0369 -2.52692,-0.09222 -3.70737,-0.16598c-1.18048,-0.0738 -1.99203,-0.0369 -2.4347,0.11067c0.29514,-3.98406 0.42422,-7.96811 0.38736,-11.95217c-0.03687,-4.02096 -0.11067,-8.00498 -0.22134,-11.95213c-0.11067,-3.94716 -0.18447,-7.83899 -0.22134,-11.67548c-0.03687,-3.87339 0.14753,-7.65456 0.55334,-11.34348v-0.11067c0.22134,-0.07377 0.64556,-0.07377 1.2727,0c0.66401,0.0738 1.14355,0.11067 1.43869,0.11067c0.81154,0.0369 1.73383,0.09222 2.76671,0.16602c1.03288,0.0738 2.52692,0.09222 4.48208,0.05535z"/></g></g></svg>