<svg version="1.1" xmlns="http://www.w3.org/2000/svg" xmlns:xlink="http://www.w3.org/1999/xlink" width="35.39811" height="46.54787" viewBox="0,0,35.39811,46.54787"><g transform="translate(-222.30094,-156.72606)"><g data-paper-data="{&quot;isPaintingLayer&quot;:true}" fill="#ff0000" fill-rule="nonzero" stroke="#000000" stroke-width="0" stroke-linecap="square" stroke-linejoin="miter" stroke-miterlimit="10" stroke-dasharray="" stroke-dashoffset="0" style="mix-blend-mode: normal"><path d="M255.37147,203.27367h-30.74315c-0.82991,0 -1.4253,-0.18044 -1.78612,-0.54125c-0.36084,-0.36084 -0.54125,-0.95621 -0.54125,-1.78612v-11.09567c0,-2.52585 0.23455,-4.58261 0.70365,-6.17028c0.50516,-1.62376 1.20881,-2.94081 2.1109,-3.95113c0.9021,-1.04645 1.9846,-1.87636 3.24752,-2.48977c1.26291,-0.61344 2.61607,-1.13661 4.05941,-1.56962l8.66004,-2.70627c0.6856,-0.18044 1.13665,-0.433 1.35315,-0.75775c0.2526,-0.36084 0.3789,-0.88405 0.3789,-1.56962c0,-0.64951 -0.1263,-1.08251 -0.37886,-1.29901c-0.2526,-0.2526 -0.70361,-0.37886 -1.35312,-0.37886h-14.01843c-0.82991,0 -1.4253,-0.18044 -1.78612,-0.54125c-0.36084,-0.36084 -0.54125,-0.95621 -0.54125,-1.78612v-7.57753c0,-0.79385 0.1804,-1.37119 0.54125,-1.732c0.36084,-0.39694 0.95621,-0.59536 1.78615,-0.59536h19.0521c3.68052,0 6.49503,0.92015 8.44354,2.76041c1.94851,1.84026 2.92277,4.51043 2.92277,8.01054v6.06203c0,3.21142 -0.9021,5.68317 -2.70627,7.41518c-1.80416,1.732 -4.25787,3.06708 -7.36104,4.00527l-8.7683,2.76041c-0.64951,0.1804 -1.10055,0.3789 -1.35312,0.5954c-0.2165,0.2165 -0.32475,0.66755 -0.32475,1.35315v1.35315h18.40259c0.82991,0 1.4253,0.19846 1.78615,0.5954c0.36084,0.36081 0.54125,0.93816 0.54125,1.732v7.57753c0,0.82991 -0.1804,1.4253 -0.54125,1.78615c-0.36084,0.36081 -0.95621,0.54125 -1.78612,0.54125z"/></g></g></svg>