<svg version="1.1" xmlns="http://www.w3.org/2000/svg" xmlns:xlink="http://www.w3.org/1999/xlink" width="28.82366" height="46.05065" viewBox="0,0,28.82366,46.05065"><g transform="translate(-225.58817,-156.97467)"><g data-paper-data="{&quot;isPaintingLayer&quot;:true}" fill="#ff0000" fill-rule="nonzero" stroke="#000000" stroke-width="0" stroke-linecap="square" stroke-linejoin="miter" stroke-miterlimit="10" stroke-dasharray="" stroke-dashoffset="0" style="mix-blend-mode: normal"><path d="M254.36191,174.90279c-0.0738,5.75475 -0.40581,11.47263 -0.99601,17.15358c-0.36887,2.91428 -1.47555,5.38588 -3.32005,7.41477c-1.84449,1.99203 -4.35293,3.15406 -7.52544,3.48607c-1.84449,0.14757 -3.76272,0.05535 -5.75475,-0.27665c-1.99203,-0.2951 -3.79959,-0.8669 -5.42274,-1.71534c-1.58622,-0.88535 -2.91424,-2.04734 -3.98406,-3.48603c-1.06982,-1.43869 -1.66002,-3.17248 -1.77069,-5.20141c0,-5.79161 0.05535,-11.63862 0.16602,-17.5409c0.14753,-5.90228 0.18447,-11.7677 0.11067,-17.59625l-0.05532,-0.05532h0.05535c0.66401,0 1.40182,-0.01845 2.21336,-0.05532c0.81154,-0.03687 1.62316,-0.05532 2.4347,-0.05532c0.84848,0 1.66002,0.0369 2.4347,0.11067c0.81154,0.0369 1.54936,0.14757 2.21336,0.332v0.05535c-0.47954,10.66105 -0.27665,21.46964 0.60869,32.42579c0.29514,1.06982 0.84848,1.84449 1.66002,2.32403c0.84848,0.47957 1.69689,0.70091 2.54537,0.66401c0.88535,-0.03687 1.69689,-0.332 2.4347,-0.88535c0.77468,-0.59021 1.2727,-1.38334 1.49404,-2.37935c0.22134,-5.31208 0.332,-10.69792 0.332,-16.15756c0.03687,-5.45961 0.12912,-10.73482 0.27669,-15.82556c0.55334,-0.07377 1.2727,-0.16598 2.15805,-0.27665c0.92221,-0.11067 1.84449,-0.18444 2.76671,-0.22134c0.92221,-0.03687 1.80756,0 2.65604,0.11067c0.84848,0.0738 1.5309,0.25824 2.04738,0.55334c0.2582,5.64408 0.332,11.34351 0.22134,17.09826z"/></g></g></svg>