<svg version="1.1" xmlns="http://www.w3.org/2000/svg" xmlns:xlink="http://www.w3.org/1999/xlink" width="37.34695" height="46.64623" viewBox="0,0,37.34695,46.64623"><g transform="translate(-221.32652,-156.67689)"><g data-paper-data="{&quot;isPaintingLayer&quot;:true}" fill="#ff0000" fill-rule="nonzero" stroke="#000000" stroke-width="0" stroke-linecap="square" stroke-linejoin="miter" stroke-miterlimit="10" stroke-dasharray="" stroke-dashoffset="0" style="mix-blend-mode: normal"><path d="M223.67632,203.32294c-0.6666,0 -1.23324,-0.21665 -1.69986,-0.64993c-0.43331,-0.43331 -0.64993,-0.99992 -0.64993,-1.69986v-41.94647c0,-0.6666 0.21665,-1.21657 0.64996,-1.64985c0.46662,-0.46662 1.03326,-0.69994 1.69986,-0.69994c0.69994,0 1.29989,0.2833 1.79985,0.84994l28.54762,37.49686v-35.99698c0,-0.6666 0.21665,-1.21657 0.64996,-1.64985c0.43331,-0.46662 0.98325,-0.69994 1.64988,-0.69994c0.63329,0 1.18323,0.23332 1.64988,0.69994c0.46662,0.43331 0.69994,0.98325 0.69994,1.64988v41.9465c0,0.69994 -0.23332,1.26655 -0.69994,1.69986c-0.46662,0.43331 -1.01659,0.64996 -1.64985,0.64996c-0.29997,0 -0.61662,-0.04998 -0.9499,-0.14997c-0.33332,-0.13333 -0.59995,-0.34995 -0.79993,-0.64993l-28.54759,-37.44685v35.89699c0,0.69994 -0.23332,1.26655 -0.69994,1.69986c-0.46662,0.43331 -1.01659,0.64996 -1.64985,0.64996z"/></g></g></svg>