<svg version="1.1" xmlns="http://www.w3.org/2000/svg" xmlns:xlink="http://www.w3.org/1999/xlink" width="27.07214" height="46.76645" viewBox="0,0,27.07214,46.76645"><g transform="translate(-226.46393,-156.21678)"><g data-paper-data="{&quot;isPaintingLayer&quot;:true}" fill="#ff0000" fill-rule="nonzero" stroke="#000000" stroke-width="0" stroke-linecap="square" stroke-linejoin="miter" stroke-miterlimit="10" stroke-dasharray="" stroke-dashoffset="0" style="mix-blend-mode: normal"><path d="M235.27572,157.24017c0.07377,0.88535 0.11067,1.56781 0.11067,2.04738c0.0369,0.44267 0.05535,0.84848 0.05535,1.21735c0.0369,0.36891 0.05535,0.77468 0.05535,1.21735c0.0369,0.40581 0.05535,0.99601 0.05535,1.77069c0,0.73781 0,1.75224 0,3.04339c0,1.29115 -0.01845,2.96959 -0.05532,5.03542c0.07377,-0.40577 0.55334,-0.75623 1.43869,-1.05133c0.88535,-0.332 1.95513,-0.55334 3.20938,-0.66401c1.29112,-0.11067 2.65604,-0.11067 4.09472,0c1.43869,0.11067 2.74826,0.38736 3.92874,0.83003c0.95911,0.36891 1.78914,0.97756 2.49005,1.82604c0.70091,0.84848 1.25425,1.88136 1.66002,3.09871c0.40577,1.21735 0.70091,2.56382 0.88535,4.03941c0.22134,1.43869 0.332,2.93273 0.332,4.48208c-0.07377,2.17646 -0.22134,4.35293 -0.44267,6.52943c-0.22134,2.13956 -0.70091,4.09472 -1.43869,5.86542c-0.73778,1.73379 -1.84446,3.17248 -3.32005,4.31606c-1.43869,1.10668 -3.41226,1.73379 -5.92073,1.88136c-1.21735,0.18444 -2.37935,0.09222 -3.48603,-0.27665c-1.10668,-0.36891 -1.99203,-1.21735 -2.65604,-2.54537c-0.11067,-0.25824 -0.22134,-0.332 -0.332,-0.22134c-0.11067,0.11067 -0.22134,0.27669 -0.332,0.49802c0,0.47954 -0.01845,0.84844 -0.05532,1.10668c0,0.2582 0,0.60869 0,1.05137c0,0.22134 -0.01845,0.38736 -0.05532,0.49802c-1.32802,0.14753 -2.80361,0.18444 -4.42673,0.11067c-1.62316,-0.0369 -3.11716,-0.05532 -4.48205,-0.05532c-0.11067,-3.17251 -0.14757,-6.45566 -0.11067,-9.84947c0.03687,-3.43072 0.07377,-6.91675 0.11067,-10.45813c0.07377,-3.54138 0.14753,-7.13808 0.22134,-10.79017c0.11067,-3.68892 0.16602,-7.35942 0.16602,-11.01147v-4.37138c0.70088,-0.11067 1.5309,-0.16598 2.49005,-0.16598c0.99601,-0.03687 1.91826,-0.03687 2.76671,0c0.84844,0 1.56781,0.0369 2.15805,0.11067c0.59024,0.0369 0.88535,0.09222 0.88535,0.16602zM243.57585,178.65449c-1.06978,-0.81158 -2.50847,-1.21735 -4.31606,-1.21735c-0.92225,0 -1.66002,0.07377 -2.21336,0.22134c-0.55334,0.14753 -0.95911,0.49802 -1.21735,1.05137c-0.25824,0.51644 -0.42422,1.2727 -0.49799,2.26872c-0.07377,0.99601 -0.11067,2.34248 -0.11067,4.03941c0,1.43869 0.0369,2.74826 0.11067,3.92874c0.07377,1.14355 0.27669,2.13956 0.60869,2.98804c0.332,0.81154 0.79313,1.47555 1.38337,1.99203c0.62711,0.47954 1.51245,0.71936 2.65604,0.71936c0.92225,0 1.75224,-0.23979 2.49005,-0.71933c0.77468,-0.51648 1.42024,-1.18048 1.93671,-1.99203c0.51644,-0.81158 0.9038,-1.73383 1.16203,-2.76671c0.2951,-1.03292 0.44267,-2.1027 0.44267,-3.20938c0,-0.62714 -0.0369,-1.25425 -0.11067,-1.88136c-0.0369,-0.66401 -0.16598,-1.30957 -0.38732,-1.93668c-0.22134,-1.54936 -0.8669,-2.71135 -1.93668,-3.48603z"/></g></g></svg>