<svg version="1.1" xmlns="http://www.w3.org/2000/svg" xmlns:xlink="http://www.w3.org/1999/xlink" width="26.54781" height="32.64724" viewBox="0,0,26.54781,32.64724"><g transform="translate(-226.7261,-170.67638)"><g data-paper-data="{&quot;isPaintingLayer&quot;:true}" fill="#ff0000" fill-rule="nonzero" stroke="#000000" stroke-width="0" stroke-linecap="square" stroke-linejoin="miter" stroke-miterlimit="10" stroke-dasharray="" stroke-dashoffset="0" style="mix-blend-mode: normal"><path d="M231.12574,201.77377l-3.74967,-2.04981l22.19814,-28.19764l3.09974,2.59978zM229.02591,203.32362c-1.36654,0 -2.04981,-0.69994 -2.04981,-2.09982c0,-1.39988 0.68327,-2.09982 2.04984,-2.09982h22.14816c1.39988,0 2.09982,0.69994 2.09982,2.09982c0,1.39988 -0.69994,2.09982 -2.09982,2.09982zM228.82593,174.82601c-1.39988,0 -2.09982,-0.68327 -2.09982,-2.04981c0,-1.39988 0.69994,-2.09982 2.09982,-2.09982h22.14816c1.36654,0 2.04984,0.69994 2.04984,2.09982c0,1.36654 -0.68327,2.04984 -2.04981,2.04984z"/></g></g></svg>