<svg version="1.1" xmlns="http://www.w3.org/2000/svg" xmlns:xlink="http://www.w3.org/1999/xlink" width="39.83644" height="46.54804" viewBox="0,0,39.83644,46.54804"><g transform="translate(-220.08178,-156.72598)"><g data-paper-data="{&quot;isPaintingLayer&quot;:true}" fill="#ff0000" fill-rule="nonzero" stroke="#000000" stroke-width="0" stroke-linecap="square" stroke-linejoin="miter" stroke-miterlimit="10" stroke-dasharray="" stroke-dashoffset="0" style="mix-blend-mode: normal"><path d="M234.53318,200.94622c0,0.82995 -0.18044,1.4253 -0.54125,1.78615c-0.36084,0.36084 -0.95621,0.54125 -1.78612,0.54125h-9.79666c-0.82995,0 -1.4253,-0.1804 -1.78612,-0.54125c-0.36084,-0.36081 -0.54125,-0.95621 -0.54125,-1.78612v-6.92804c0,-1.98457 0.1624,-3.46402 0.48714,-4.43827c0.36081,-1.01031 1.01031,-2.18306 1.94851,-3.51812l5.25016,-7.03628l-5.25014,-7.03628c-0.97425,-1.33506 -1.62376,-2.48977 -1.94851,-3.46402c-0.32475,-1.01031 -0.48711,-2.50781 -0.48711,-4.49238v-4.97952c0,-0.79381 0.1804,-1.37116 0.54125,-1.732c0.36081,-0.39691 0.95621,-0.59536 1.78615,-0.59536h9.95905c0.79381,0 1.37116,0.19846 1.732,0.5954c0.36081,0.36084 0.54125,0.93819 0.54125,1.732v4.49241c0,0.433 0.01804,0.88405 0.05414,1.35315c0.07216,0.4691 0.25256,0.92015 0.54125,1.35315l2.86865,4.05941c0.2165,0.36084 0.433,0.63145 0.64951,0.81189c0.25256,0.18044 0.54125,0.27064 0.86601,0.27064h0.81189c0.32475,0 0.5954,-0.0902 0.81189,-0.27061c0.2165,-0.1804 0.45105,-0.45105 0.70365,-0.81187l2.92277,-4.05937c0.28866,-0.433 0.45105,-0.88405 0.48714,-1.35312c0.07216,-0.46907 0.10825,-0.92011 0.10825,-1.35312v-4.49238c0,-0.79381 0.1804,-1.37116 0.54125,-1.732c0.36081,-0.39691 0.95621,-0.59536 1.78615,-0.59536h9.79669c0.82991,0 1.4253,0.19846 1.78615,0.5954c0.36081,0.36084 0.54125,0.93819 0.54125,1.732v4.97952c0,1.9846 -0.18044,3.48206 -0.54125,4.49241c-0.32475,0.97425 -0.95621,2.12895 -1.89437,3.46402l-5.25014,7.09042l5.25016,6.98218c0.97425,1.3351 1.62376,2.50781 1.94851,3.51816c0.32475,0.97425 0.48714,2.4537 0.48714,4.43827v6.92804c0,0.82995 -0.18044,1.4253 -0.54125,1.78615c-0.36084,0.36084 -0.95621,0.54125 -1.78612,0.54125h-9.79666c-0.82995,0 -1.4253,-0.1804 -1.78612,-0.54125c-0.36084,-0.36081 -0.54125,-0.95621 -0.54125,-1.78612v-6.38678c0,-0.433 -0.0361,-0.88405 -0.10825,-1.35312c-0.0361,-0.46907 -0.19846,-0.92011 -0.48711,-1.35312l-2.81451,-4.11352c-0.2887,-0.36081 -0.54125,-0.63145 -0.75775,-0.81187c-0.2165,-0.1804 -0.48711,-0.27061 -0.81187,-0.27061h-0.92011c-0.32475,0 -0.59536,0.0902 -0.81187,0.27064c-0.2165,0.18044 -0.45105,0.45105 -0.70361,0.81189l-2.92277,4.11352c-0.32475,0.433 -0.50519,0.88405 -0.54125,1.35315c-0.0361,0.4691 -0.05411,0.92015 -0.05411,1.35315z"/></g></g></svg>