<svg version="1.1" xmlns="http://www.w3.org/2000/svg" xmlns:xlink="http://www.w3.org/1999/xlink" width="36.39702" height="46.64617" viewBox="0,0,36.39702,46.64617"><g transform="translate(-221.80149,-156.67692)"><g data-paper-data="{&quot;isPaintingLayer&quot;:true}" fill="#ff0000" fill-rule="nonzero" stroke="#000000" stroke-width="0" stroke-linecap="square" stroke-linejoin="miter" stroke-miterlimit="10" stroke-dasharray="" stroke-dashoffset="0" style="mix-blend-mode: normal"><path d="M224.15128,203.32296c-0.6666,0 -1.23324,-0.21665 -1.69986,-0.64993c-0.43331,-0.43331 -0.64993,-0.99992 -0.64993,-1.69986v-41.94647c0,-0.6666 0.21665,-1.21657 0.64996,-1.64985c0.46662,-0.46662 1.03326,-0.69994 1.69986,-0.69994h10.74912c3.43306,0 6.56611,0.58328 9.39921,1.74987c2.83311,1.13325 5.28289,2.74979 7.3494,4.84961c2.06648,2.06648 3.66635,4.51629 4.7996,7.3494c1.16656,2.79977 1.74987,5.91618 1.74987,9.34923c0,3.43306 -0.58328,6.58278 -1.74984,9.44922c-1.13325,2.83311 -2.73312,5.29956 -4.7996,7.39938c-2.06648,2.06648 -4.51629,3.66635 -7.34937,4.7996c-2.83311,1.13325 -5.96616,1.69986 -9.39921,1.69986zM226.5011,199.12332h8.3993c3.66635,0 6.89942,-0.8166 9.69919,-2.44978c2.79977,-1.66652 4.99958,-3.93301 6.59945,-6.79943c1.59987,-2.89976 2.3998,-6.19948 2.3998,-9.89917c0,-3.69969 -0.79993,-6.98274 -2.3998,-9.84916c-1.59987,-2.89976 -3.79968,-5.16622 -6.59945,-6.79943c-2.79977,-1.63321 -6.03284,-2.44978 -9.69919,-2.44978h-8.3993z"/></g></g></svg>