<svg version="1.1" xmlns="http://www.w3.org/2000/svg" xmlns:xlink="http://www.w3.org/1999/xlink" width="28.29472" height="33.24733" viewBox="0,0,28.29472,33.24733"><g transform="translate(-225.85264,-170.37635)"><g data-paper-data="{&quot;isPaintingLayer&quot;:true}" fill="#ff0000" fill-rule="nonzero" stroke="#000000" stroke-width="0" stroke-linecap="square" stroke-linejoin="miter" stroke-miterlimit="10" stroke-dasharray="" stroke-dashoffset="0" style="mix-blend-mode: normal"><path d="M242.15127,203.62354c-3.16639,0 -5.96616,-0.71661 -8.3993,-2.1498c-2.43314,-1.46653 -4.36629,-3.44969 -5.79951,-5.94949c-1.39988,-2.53313 -2.09982,-5.36621 -2.09982,-8.49929c0,-3.16639 0.6666,-5.9995 1.99983,-8.49929c1.36654,-2.53313 3.2164,-4.51629 5.54955,-5.94949c2.36646,-1.46653 5.0829,-2.19982 8.14933,-2.19982c2.43314,0 4.66627,0.48329 6.69944,1.44989c2.06648,0.93327 3.86633,2.36646 5.39955,4.29964c0.43331,0.46662 0.58328,0.96658 0.44998,1.49987c-0.09999,0.5333 -0.43331,0.99992 -0.99992,1.39988c-0.43331,0.33332 -0.9166,0.44998 -1.44986,0.34999c-0.5333,-0.09999 -0.99992,-0.39997 -1.39988,-0.89992c-2.29981,-2.63312 -5.19956,-3.94965 -8.69927,-3.94965c-2.23316,0 -4.19965,0.54997 -5.89951,1.64988c-1.66652,1.06657 -2.98308,2.53313 -3.94965,4.39963c-0.93327,1.8665 -1.39988,4.01634 -1.39988,6.44948c0,2.3998 0.49996,4.53296 1.49987,6.39946c0.99992,1.8665 2.3998,3.33306 4.19965,4.39963c1.79985,1.06657 3.84969,1.59987 6.1495,1.59987c1.53322,0 2.94977,-0.19998 4.24966,-0.59995c1.29989,-0.43331 2.44981,-1.08324 3.44973,-1.94982c0.46662,-0.39997 0.94994,-0.61662 1.44989,-0.64993c0.5333,-0.03334 1.01659,0.11666 1.44989,0.44998c0.49996,0.46662 0.76659,0.98325 0.79993,1.54989c0.06665,0.5333 -0.11666,0.99992 -0.54994,1.39988c-2.89976,2.66643 -6.51613,3.99963 -10.84908,3.99963z"/></g></g></svg>