<svg version="1.1" xmlns="http://www.w3.org/2000/svg" xmlns:xlink="http://www.w3.org/1999/xlink" width="626.961" height="375.70144" viewBox="0,0,626.961,375.70144"><defs><linearGradient x1="229.56972" y1="318.06251" x2="229.56972" y2="336.06251" gradientUnits="userSpaceOnUse" id="color-1"><stop offset="0" stop-color="#2e7487"/><stop offset="1" stop-color="#2e6a86"/></linearGradient></defs><g transform="translate(111.68294,11.63894)"><g data-paper-data="{&quot;isPaintingLayer&quot;:true}" fill-rule="nonzero" stroke="none" stroke-width="0" stroke-linecap="butt" stroke-linejoin="miter" stroke-miterlimit="10" stroke-dasharray="" stroke-dashoffset="0" style="mix-blend-mode: normal"><path d="M-35.93028,364.06251v-29h531v29z" fill="#2e6a86"/><path d="M285.91896,301.68363l-7.20857,-30.59464c0,0 16.77044,-0.83034 27.54243,-1.8203c15.19034,-1.396 33.67786,-1.51957 38.89808,-1.66947c10.84071,0.56462 36.1922,2.45506 52.29753,1.94919c27.49728,-0.86369 45.45528,-5.60092 55.26682,-5.54587c2.79769,-0.08221 50.81639,1.25937 58.12703,5.7062c2.04453,1.24362 4.43579,0.72884 4.43579,0.72884l-1.92532,23.9127z" data-paper-data="{&quot;index&quot;:null}" fill="#71f1e0"/><path d="" fill="#7cefe9"/><path d="M-12.28948,307.47917l-8.91031,-8.28915l0.71882,-28.04827c0,0 53.73466,-2.25305 65.74587,-2.32938c7.17784,-0.04562 17.85327,5.52874 48.11083,6.12984c27.80835,0.55244 41.10845,-6.14164 51.53944,-5.83511c9.81154,-0.05506 27.61938,5.37317 55.11666,6.23685c16.10533,0.50587 27.94331,-8.34202 38.78402,-8.90663c4.70831,0.1352 34.45597,5.12051 48.74004,6.41944c12.78366,1.1625 34.81827,4.62422 34.81827,4.62422l-10.81285,29.99817z" data-paper-data="{&quot;index&quot;:null}" fill="#71f1e0"/><path d="M240.53527,302.77162l-6.01158,-25.51438c0,0 13.9857,-0.69247 22.96899,-1.51804c12.66797,-1.1642 28.08563,-1.26724 32.43903,-1.39225c9.0406,0.47086 30.18245,2.04739 43.61348,1.62552c22.93133,-0.72027 24.00824,-8.56265 32.19057,-8.51673c8.69891,-0.25562 33.56446,8.64241 56.75522,8.1817c25.23327,-0.50128 34.13605,-5.15001 40.122,-5.11197c10.01675,0.06366 48.71311,8.05821 48.71311,8.05821l-0.71566,24.18793z" data-paper-data="{&quot;index&quot;:null}" fill="#55cbc7"/><path d="M-23.00051,304.34199l-0.71566,-24.18794c0,0 38.69636,-7.99455 48.71311,-8.05821c5.98595,-0.03805 14.88871,4.61068 40.12199,5.11197c23.19075,0.46071 34.28237,-5.12181 42.98128,-4.86619c8.18233,-0.04592 23.03317,4.48095 45.96451,5.20122c13.43103,0.42186 23.3033,-6.95682 32.3439,-7.42768c3.92649,0.11274 28.73454,4.27024 40.64673,5.35349c10.66093,0.96947 29.03667,3.85637 29.03667,3.85637l-9.01737,25.01696z" data-paper-data="{&quot;index&quot;:null}" fill="#55cbc7"/><path d="M-29.33564,307.68998l-0.71567,-24.18792c0,0 38.69636,-7.99456 48.71311,-8.05822c5.98595,-0.03805 14.88873,4.61069 40.122,5.11197c23.19075,0.46071 48.05631,-8.43732 56.75522,-8.1817c8.18233,-0.04592 9.25923,7.79647 32.19057,8.51674c13.43103,0.42186 34.57289,-1.15467 43.61349,-1.62553c4.3534,0.12501 19.77106,0.22806 32.43903,1.39226c8.98329,0.82557 22.96899,1.51803 22.96899,1.51803l-6.01158,25.51438z" fill="#3cafac"/><path d="M235.20012,307.93646l-9.01737,-25.01695c0,0 18.37574,-2.8869 29.03668,-3.85637c11.91219,-1.08325 36.72024,-5.24075 40.64673,-5.35349c9.0406,0.47086 18.91287,7.84955 32.34391,7.42768c22.93133,-0.72027 37.78217,-5.24714 45.9645,-5.20122c8.69891,-0.25563 19.79052,5.3269 42.98128,4.86619c25.23327,-0.50128 34.13604,-5.15002 40.12199,-5.11198c10.01675,0.06366 48.71311,8.05821 48.71311,8.05821l-0.71567,24.18793z" data-paper-data="{&quot;index&quot;:null}" fill="#3cafac"/><path d="M231.03038,314.04751l-6.01158,-25.51439c0,0 13.9857,-0.69246 22.96899,-1.51803c12.66797,-1.1642 28.08563,-1.26725 32.43903,-1.39226c9.0406,0.47086 30.18246,2.04739 43.61349,1.62553c22.93133,-0.72027 24.00824,-8.56266 32.19056,-8.51674c8.69891,-0.25562 33.56446,8.64242 56.75522,8.18171c25.23327,-0.50128 34.13605,-5.15002 40.122,-5.11198c10.01675,0.06366 48.7131,8.05821 48.7131,8.05821l-0.71567,24.18793z" data-paper-data="{&quot;index&quot;:null}" fill="#307e8d"/><path d="M-33.50539,314.29397l-0.71567,-24.18794c0,0 38.69636,-7.99455 48.71311,-8.05821c5.98595,-0.03805 14.88872,4.61068 40.122,5.11197c23.19076,0.46071 34.28237,-5.12181 42.98128,-4.86619c8.18233,-0.04592 23.03317,4.48095 45.9645,5.20122c13.43103,0.42186 23.3033,-6.95682 32.34391,-7.42768c3.92649,0.11274 28.73453,4.27024 40.64673,5.35349c10.66093,0.96947 29.03668,3.85637 29.03668,3.85637l-9.01737,25.01696z" data-paper-data="{&quot;index&quot;:null}" fill="#307e8d"/><path d="M-34.15389,328.2587l-0.71567,-24.18793c0,0 38.69636,-7.99455 48.71311,-8.05821c5.98595,-0.03805 14.88873,4.61069 40.122,5.11198c23.19075,0.4607 48.05631,-8.43732 56.75522,-8.1817c8.18233,-0.04591 9.25923,7.79647 32.19056,8.51674c13.43103,0.42186 34.57289,-1.15467 43.61349,-1.62553c4.3534,0.125 19.77106,0.22806 32.43903,1.39226c8.98329,0.82557 22.96899,1.51803 22.96899,1.51803l-6.01158,25.51438z" fill="#2e7487"/><path d="M228.11281,323.96697l-9.01738,-25.01696c0,0 18.37574,-2.8869 29.03668,-3.85636c11.9122,-1.08325 36.72024,-5.24075 40.64674,-5.35349c9.0406,0.47086 18.91287,7.84954 32.3439,7.42767c22.93133,-0.72027 37.78218,-5.24713 45.9645,-5.20122c8.69891,-0.25563 19.79053,5.3269 42.98128,4.86619c25.23327,-0.50128 34.13604,-5.15002 40.12199,-5.11198c10.01675,0.06366 48.7131,8.05821 48.7131,8.05821l-0.71567,24.18793z" data-paper-data="{&quot;index&quot;:null}" fill="#2e7487"/><path d="M-111.68293,77.36107v-89h593v89z" fill="none"/><path d="M-35.93028,336.06251v-18h531v18z" fill="url(#color-1)"/></g></g></svg>