<svg version="1.1" xmlns="http://www.w3.org/2000/svg" xmlns:xlink="http://www.w3.org/1999/xlink" width="28.94781" height="47.19619" viewBox="0,0,28.94781,47.19619"><g transform="translate(-225.52609,-156.40191)"><g data-paper-data="{&quot;isPaintingLayer&quot;:true}" fill="#ff0000" fill-rule="nonzero" stroke="#000000" stroke-width="0" stroke-linecap="square" stroke-linejoin="miter" stroke-miterlimit="10" stroke-dasharray="" stroke-dashoffset="0" style="mix-blend-mode: normal"><path d="M240.12486,203.5977c-2.76642,0 -5.26621,-0.59995 -7.49937,-1.79985c-2.19982,-1.23324 -3.93301,-2.89976 -5.19956,-4.99958c-1.26655,-2.09982 -1.89984,-4.48295 -1.89984,-7.14939c0,-0.69994 0.19998,-1.28322 0.59995,-1.74984c0.39997,-0.46662 0.93327,-0.69994 1.59987,-0.69994c0.6666,0 1.1999,0.23332 1.59987,0.69994c0.39997,0.46662 0.59995,1.04993 0.59995,1.74987c0,1.79985 0.43331,3.43306 1.29989,4.89959c0.89992,1.46653 2.11649,2.63312 3.64971,3.49971c1.53322,0.83327 3.23307,1.24991 5.09957,1.24991c3.09974,0 5.51621,-0.86658 7.24941,-2.59978c1.76651,-1.7332 2.64979,-3.96632 2.64979,-6.69944c0,-1.96649 -0.41664,-3.66635 -1.24988,-5.09957c-0.83327,-1.46653 -1.96649,-2.59978 -3.39972,-3.39972c-1.43322,-0.83327 -3.04973,-1.24988 -4.84958,-1.24988c-0.63329,0 -1.16656,-0.21665 -1.59987,-0.64993c-0.43331,-0.43331 -0.64993,-0.98325 -0.64993,-1.64985c0,-0.6666 0.21665,-1.21657 0.64996,-1.64985c0.43331,-0.43331 0.96658,-0.64993 1.59987,-0.64993c1.39988,0 2.6831,-0.34995 3.84969,-1.0499c1.16656,-0.69994 2.09982,-1.61654 2.79977,-2.74975c0.73328,-1.16656 1.09991,-2.44978 1.09991,-3.84966c0,-2.09982 -0.71661,-3.84966 -2.1498,-5.24954c-1.43322,-1.43322 -3.33306,-2.1498 -5.69952,-2.1498c-1.69986,0 -3.19973,0.33332 -4.49962,0.99992c-1.29989,0.6666 -2.33315,1.54989 -3.09974,2.64979c-0.73328,1.06657 -1.09991,2.29981 -1.09991,3.69969c0,0.6666 -0.21665,1.23324 -0.64993,1.69986c-0.39997,0.46662 -0.9166,0.69994 -1.54985,0.69994c-0.6666,0 -1.1999,-0.23332 -1.59987,-0.69994c-0.39997,-0.46662 -0.59995,-1.01659 -0.59995,-1.64985c0,-2.16647 0.56661,-4.133 1.69986,-5.89951c1.13325,-1.79985 2.66643,-3.19973 4.59961,-4.19965c1.96649,-0.99992 4.23299,-1.49987 6.79943,-1.49987c2.29981,0 4.36629,0.49996 6.19948,1.49987c1.8665,0.99992 3.34974,2.3998 4.44964,4.19965c1.09991,1.76651 1.64988,3.73303 1.64988,5.89951c0,1.36654 -0.33332,2.6831 -0.99992,3.94969c-0.6666,1.26655 -1.53322,2.41647 -2.59978,3.44973c-1.06657,0.99992 -2.2498,1.78318 -3.54969,2.34982c2.03317,0.59995 3.73303,1.51654 5.09957,2.74979c1.36654,1.23324 2.36646,2.6831 2.99975,4.34965c0.63329,1.63321 0.94994,3.34974 0.94994,5.14958c0,2.63312 -0.63329,4.98291 -1.89984,7.04943c-1.23324,2.03317 -2.94974,3.63304 -5.14955,4.7996c-2.19982,1.16656 -4.63296,1.74987 -7.29939,1.74987z"/></g></g></svg>