<svg version="1.1" xmlns="http://www.w3.org/2000/svg" xmlns:xlink="http://www.w3.org/1999/xlink" width="677.43027" height="659.67061" viewBox="0,0,677.43027,659.67061"><defs><linearGradient x1="225.00001" y1="-10.6875" x2="225.00001" y2="329.3125" gradientUnits="userSpaceOnUse" id="color-1"><stop offset="0" stop-color="#5362ff"/><stop offset="1" stop-color="#5362ff" stop-opacity="0"/></linearGradient><linearGradient x1="229.56973" y1="318.0625" x2="229.56973" y2="336.0625" gradientUnits="userSpaceOnUse" id="color-2"><stop offset="0" stop-color="#2e7487"/><stop offset="1" stop-color="#2e6a86"/></linearGradient><linearGradient x1="229.56973" y1="318.0625" x2="229.56973" y2="336.0625" gradientUnits="userSpaceOnUse" id="color-3"><stop offset="0" stop-color="#2e7487"/><stop offset="1" stop-color="#2e6a86"/></linearGradient><radialGradient cx="481.00003" cy="2" r="144.5" gradientUnits="userSpaceOnUse" id="color-4"><stop offset="0" stop-color="#ff996f"/><stop offset="1" stop-color="#ff996f" stop-opacity="0"/></radialGradient><linearGradient x1="347.71242" y1="227.08621" x2="347.71242" y2="323.56702" gradientUnits="userSpaceOnUse" id="color-5"><stop offset="0" stop-color="#49a1ab"/><stop offset="1" stop-color="#0f4e6a"/></linearGradient><linearGradient x1="13.47164" y1="30.37722" x2="97.71702" y2="36.89768" gradientTransform="translate(-11.77938,-37.6323) rotate(0.42687) scale(0.75274,0.75274)" gradientUnits="userSpaceOnUse" id="color-6"><stop offset="0" stop-color="#4a4a4a"/><stop offset="1" stop-color="#6f6f6f"/></linearGradient><linearGradient x1="68.81213" y1="3.49825" x2="69.2689" y2="64.80234" gradientTransform="translate(-11.77938,-37.6323) rotate(0.42687) scale(0.75274,0.75274)" gradientUnits="userSpaceOnUse" id="color-7"><stop offset="0" stop-color="#3a3a3a"/><stop offset="1" stop-color="#808080"/></linearGradient><linearGradient x1="52.53803" y1="-4.22815" x2="47.11683" y2="65.81457" gradientTransform="translate(-7.45452,-35.45906) rotate(0.42687) scale(0.75274,0.75274)" gradientUnits="userSpaceOnUse" id="color-8"><stop offset="0" stop-color="#ff7323"/><stop offset="1" stop-color="#ffb8aa"/></linearGradient><linearGradient x1="52.53803" y1="-4.22815" x2="47.11683" y2="65.81457" gradientTransform="translate(-7.45452,-35.45906) rotate(0.42687) scale(0.75274,0.75274)" gradientUnits="userSpaceOnUse" id="color-9"><stop offset="0" stop-color="#ff741d"/><stop offset="1" stop-color="#ffb3b3"/></linearGradient><linearGradient x1="104.711" y1="29.02568" x2="188.95684" y2="35.54617" gradientTransform="translate(-80.46566,-37.12652) rotate(0.42687) scale(0.75274,0.75274)" gradientUnits="userSpaceOnUse" id="color-10"><stop offset="0" stop-color="#4a4a4a"/><stop offset="1" stop-color="#6f6f6f"/></linearGradient><linearGradient x1="160.05179" y1="2.14656" x2="160.50856" y2="63.45098" gradientTransform="translate(-80.46566,-37.12652) rotate(0.42687) scale(0.75274,0.75274)" gradientUnits="userSpaceOnUse" id="color-11"><stop offset="0" stop-color="#3a3a3a"/><stop offset="1" stop-color="#808080"/></linearGradient><linearGradient x1="143.77762" y1="-5.57987" x2="138.3564" y2="64.46323" gradientTransform="translate(-76.14079,-34.9533) rotate(0.42687) scale(0.75274,0.75274)" gradientUnits="userSpaceOnUse" id="color-12"><stop offset="0" stop-color="#ff7323"/><stop offset="1" stop-color="#ffb8aa"/></linearGradient><linearGradient x1="143.77762" y1="-5.57987" x2="138.3564" y2="64.46323" gradientTransform="translate(-76.14079,-34.9533) rotate(0.42687) scale(0.75274,0.75274)" gradientUnits="userSpaceOnUse" id="color-13"><stop offset="0" stop-color="#ff741d"/><stop offset="1" stop-color="#ffb3b3"/></linearGradient><linearGradient x1="71.73243" y1="61.69754" x2="71.95581" y2="136.39602" gradientTransform="translate(-4.20379,-72.8624) rotate(0.17139) scale(0.61779,0.61779)" gradientUnits="userSpaceOnUse" id="color-14"><stop offset="0" stop-color="#3a3a3a"/><stop offset="1" stop-color="#808080"/></linearGradient><linearGradient x1="66.60603" y1="56.60168" x2="66.82939" y2="131.30016" gradientTransform="translate(-1.04607,-69.70468) rotate(0.17139) scale(0.61779,0.61779)" gradientUnits="userSpaceOnUse" id="color-15"><stop offset="0" stop-color="#37ff1c"/><stop offset="1" stop-color="#fffdb3"/></linearGradient><linearGradient x1="194.88271" y1="73.66545" x2="195.12106" y2="131.33569" gradientTransform="translate(-115.70707,-94.206) rotate(0.23695) scale(0.80026,0.80026)" gradientUnits="userSpaceOnUse" id="color-16"><stop offset="0" stop-color="#3a3a3a"/><stop offset="1" stop-color="#808080"/></linearGradient><linearGradient x1="219.83132" y1="59.85894" x2="212.35085" y2="134.67998" gradientTransform="translate(-112.60096,-90.55295) rotate(0.23695) scale(0.80026,0.80026)" gradientUnits="userSpaceOnUse" id="color-17"><stop offset="0" stop-color="#ffdd1d"/><stop offset="1" stop-color="#eff796"/></linearGradient><linearGradient x1="190.98238" y1="69.11658" x2="191.22072" y2="126.7868" gradientTransform="translate(-112.60096,-90.55295) rotate(0.23695) scale(0.80026,0.80026)" gradientUnits="userSpaceOnUse" id="color-18"><stop offset="0" stop-color="#ffd61c"/><stop offset="1" stop-color="#ebffb3"/></linearGradient></defs><g transform="translate(51.93026,142.5)"><g data-paper-data="{&quot;isPaintingLayer&quot;:true}" fill-rule="nonzero" stroke-linejoin="miter" stroke-miterlimit="10" stroke-dasharray="" stroke-dashoffset="0" style="mix-blend-mode: normal"><path d="M-6.5,367.80001v-377h507v377z" fill="#66c6ff" stroke="none" stroke-width="2.5" stroke-linecap="butt"/><g stroke-width="20" stroke-linecap="round"><g fill="none"><path d="M119.6105,224.70087l6.15781,-43.79996" stroke="#948200"/><path d="M145.55064,174.55555l-36.52882,-5.13557" stroke="#44aa00"/><path d="M149.91289,139.05465l-36.52882,-5.13556" stroke="#44aa00"/><path d="M159.28344,157.2429l-61.28533,-8.61606" stroke="#3f9d00"/></g><g fill="none"><path d="M63.15141,208.98417l8.2575,43.19968" stroke="#948200"/><path d="M76.74835,196.14957l-30.13987,7.90284" stroke="#44aa00"/><path d="M39.42316,169.25695l30.13987,-7.90285" stroke="#44aa00"/><path d="M82.33272,175.14076l-50.56641,13.25881" stroke="#3f9d00"/></g><path d="M52.72902,297.27178c0,0 13.70282,-38.13699 47.32192,-38.59862c33.747,-0.46339 43.55037,35.98869 43.55037,35.98869" fill="#6f3600" stroke="#6f3600"/><path d="M37.68749,297.18724c0,0 -0.48858,-47.82285 64.89964,-49.06535c56.27004,-1.06924 56.92103,46.25426 56.92103,46.25426" fill="none" stroke="#2e7100"/><path d="M17.54527,297.52945c0,0 -0.6374,-62.38986 84.66832,-64.01085c73.41012,-1.39494 74.25941,60.34348 74.25941,60.34348" fill="none" stroke="#3d9700"/></g><path d="M-28.99999,329.3125v-340h508v340z" fill="url(#color-1)" stroke="none" stroke-width="15" stroke-linecap="butt"/><g fill="none" stroke="#ffffff" stroke-width="25" stroke-linecap="round"><path d="M365.50001,35h-55"/><path d="M285.50001,55h127"/></g><path d="M-35.93025,364.0625v-29h531v29z" fill="#2e6a86" stroke="none" stroke-width="0" stroke-linecap="butt"/><path d="M-35.93025,336.0625v-18h531v18z" fill="url(#color-2)" stroke="none" stroke-width="0" stroke-linecap="butt"/><path d="M-35.93026,364.0625v-29h531v29z" fill="#2e6a86" stroke="none" stroke-width="0" stroke-linecap="butt"/><path d="M285.91898,301.68362l-7.20857,-30.59464c0,0 16.77044,-0.83034 27.54243,-1.8203c15.19034,-1.396 33.67786,-1.51957 38.89808,-1.66947c10.84071,0.56462 36.1922,2.45506 52.29753,1.94919c27.49728,-0.86369 45.45528,-5.60092 55.26682,-5.54587c2.79769,-0.08221 50.81639,1.25937 58.12703,5.7062c2.04453,1.24362 4.43579,0.72884 4.43579,0.72884l-1.92532,23.9127z" data-paper-data="{&quot;index&quot;:null}" fill="#71f1e0" stroke="none" stroke-width="0" stroke-linecap="butt"/><path d="M-12.28946,307.47916l-8.91031,-8.28915l0.71882,-28.04827c0,0 53.73466,-2.25305 65.74587,-2.32938c7.17784,-0.04562 17.85327,5.52874 48.11083,6.12984c27.80835,0.55244 41.10845,-6.14164 51.53944,-5.83511c9.81154,-0.05506 27.61938,5.37317 55.11666,6.23685c16.10533,0.50587 27.94331,-8.34202 38.78402,-8.90663c4.70831,0.1352 34.45597,5.12051 48.74004,6.41944c12.78366,1.1625 34.81827,4.62422 34.81827,4.62422l-10.81285,29.99817z" data-paper-data="{&quot;index&quot;:null}" fill="#71f1e0" stroke="none" stroke-width="0" stroke-linecap="butt"/><path d="M240.53528,302.77161l-6.01158,-25.51438c0,0 13.9857,-0.69247 22.96899,-1.51804c12.66797,-1.1642 28.08563,-1.26724 32.43903,-1.39225c9.0406,0.47086 30.18245,2.04739 43.61348,1.62552c22.93133,-0.72027 24.00824,-8.56265 32.19057,-8.51673c8.69891,-0.25562 33.56446,8.64241 56.75522,8.1817c25.23327,-0.50128 34.13605,-5.15001 40.122,-5.11197c10.01675,0.06366 48.71311,8.05821 48.71311,8.05821l-0.71566,24.18793z" data-paper-data="{&quot;index&quot;:null}" fill="#55cbc7" stroke="none" stroke-width="0" stroke-linecap="butt"/><path d="M-23.00049,304.34198l-0.71566,-24.18794c0,0 38.69636,-7.99455 48.71311,-8.05821c5.98595,-0.03805 14.88871,4.61068 40.12199,5.11197c23.19075,0.46071 34.28237,-5.12181 42.98128,-4.86619c8.18233,-0.04592 23.03317,4.48095 45.96451,5.20122c13.43103,0.42186 23.3033,-6.95682 32.3439,-7.42768c3.92649,0.11274 28.73454,4.27024 40.64673,5.35349c10.66093,0.96947 29.03667,3.85637 29.03667,3.85637l-9.01737,25.01696z" data-paper-data="{&quot;index&quot;:null}" fill="#55cbc7" stroke="none" stroke-width="0" stroke-linecap="butt"/><path d="M-29.33562,307.68998l-0.71567,-24.18792c0,0 38.69636,-7.99456 48.71311,-8.05822c5.98595,-0.03805 14.88873,4.61069 40.122,5.11197c23.19075,0.46071 48.05631,-8.43732 56.75522,-8.1817c8.18233,-0.04592 9.25923,7.79647 32.19057,8.51674c13.43103,0.42186 34.57289,-1.15467 43.61349,-1.62553c4.3534,0.12501 19.77106,0.22806 32.43903,1.39226c8.98329,0.82557 22.96899,1.51803 22.96899,1.51803l-6.01158,25.51438z" fill="#3cafac" stroke="none" stroke-width="0" stroke-linecap="butt"/><path d="M235.20014,307.93645l-9.01737,-25.01695c0,0 18.37574,-2.8869 29.03668,-3.85637c11.91219,-1.08325 36.72024,-5.24075 40.64673,-5.35349c9.0406,0.47086 18.91287,7.84955 32.34391,7.42768c22.93133,-0.72027 37.78217,-5.24714 45.9645,-5.20122c8.69891,-0.25563 19.79052,5.3269 42.98128,4.86619c25.23327,-0.50128 34.13604,-5.15002 40.12199,-5.11198c10.01675,0.06366 48.71311,8.05821 48.71311,8.05821l-0.71567,24.18793z" data-paper-data="{&quot;index&quot;:null}" fill="#3cafac" stroke="none" stroke-width="0" stroke-linecap="butt"/><path d="M231.0304,314.0475l-6.01158,-25.51439c0,0 13.9857,-0.69246 22.96899,-1.51803c12.66797,-1.1642 28.08563,-1.26725 32.43903,-1.39226c9.0406,0.47086 30.18246,2.04739 43.61349,1.62553c22.93133,-0.72027 24.00824,-8.56266 32.19056,-8.51674c8.69891,-0.25562 33.56446,8.64242 56.75522,8.18171c25.23327,-0.50128 34.13605,-5.15002 40.122,-5.11198c10.01675,0.06366 48.7131,8.05821 48.7131,8.05821l-0.71567,24.18793z" data-paper-data="{&quot;index&quot;:null}" fill="#307e8d" stroke="none" stroke-width="0" stroke-linecap="butt"/><path d="M-33.50538,314.29396l-0.71567,-24.18794c0,0 38.69636,-7.99455 48.71311,-8.05821c5.98595,-0.03805 14.88872,4.61068 40.122,5.11197c23.19076,0.46071 34.28237,-5.12181 42.98128,-4.86619c8.18233,-0.04592 23.03317,4.48095 45.9645,5.20122c13.43103,0.42186 23.3033,-6.95682 32.34391,-7.42768c3.92649,0.11274 28.73453,4.27024 40.64673,5.35349c10.66093,0.96947 29.03668,3.85637 29.03668,3.85637l-9.01737,25.01696z" data-paper-data="{&quot;index&quot;:null}" fill="#307e8d" stroke="none" stroke-width="0" stroke-linecap="butt"/><path d="M-36.42295,323.72051l-0.71567,-24.18793c0,0 38.69636,-7.99455 48.71311,-8.05821c5.98595,-0.03805 14.88873,4.61069 40.122,5.11198c23.19075,0.4607 48.05631,-8.43732 56.75522,-8.1817c8.18233,-0.04591 9.25923,7.79647 32.19056,8.51674c13.43103,0.42186 34.57289,-1.15467 43.61349,-1.62553c4.3534,0.125 19.77106,0.22806 32.43903,1.39226c8.98329,0.82557 22.96899,1.51803 22.96899,1.51803l-6.01158,25.51438z" fill="#2e7487" stroke="none" stroke-width="0" stroke-linecap="butt"/><path d="M228.11282,323.96696l-9.01738,-25.01696c0,0 18.37574,-2.8869 29.03668,-3.85636c11.9122,-1.08325 36.72024,-5.24075 40.64674,-5.35349c9.0406,0.47086 18.91287,7.84954 32.3439,7.42767c22.93133,-0.72027 37.78218,-5.24713 45.9645,-5.20122c8.69891,-0.25563 19.79053,5.3269 42.98128,4.86619c25.23327,-0.50128 34.13604,-5.15002 40.12199,-5.11198c10.01675,0.06366 48.7131,8.05821 48.7131,8.05821l-0.71567,24.18793z" data-paper-data="{&quot;index&quot;:null}" fill="#2e7487" stroke="none" stroke-width="0" stroke-linecap="butt"/><path d="M-51.93026,339.0625v-89h593v89z" fill="none" stroke="none" stroke-width="0" stroke-linecap="butt"/><path d="M-35.93026,336.0625v-18h531v18z" fill="url(#color-3)" stroke="none" stroke-width="0" stroke-linecap="butt"/><path d="M-35.50543,346.8804l-0.79424,-26.84353c0,0 42.94485,-8.87228 54.06134,-8.94293c6.64315,-0.04222 16.52336,5.1169 44.52701,5.67322c25.73688,0.51129 43.05495,-12.31517 52.70891,-12.03148c9.08066,-0.05095 20.55329,11.60395 46.00226,12.4033c14.90563,0.46818 38.36866,-4.96096 48.40183,-5.48352c4.83136,0.13873 21.94173,3.93263 36.00053,5.22464c9.96957,0.91621 25.49076,1.6847 25.49076,1.6847l-6.67159,28.31562z" fill="#2e6a86" stroke="none" stroke-width="0" stroke-linecap="butt"/><path d="M258.07383,347.15392l-10.0074,-27.76358c0,0 20.39322,-3.20386 32.22462,-4.27976c13.22004,-1.20218 34.50578,-9.68751 38.86336,-9.81263c10.03317,0.52256 27.23532,12.58273 42.14094,12.11455c25.44898,-0.79935 41.9303,-5.82321 51.01097,-5.77226c9.65397,-0.28369 21.96333,5.91174 47.70021,5.40045c28.00365,-0.55632 37.88385,-5.71544 44.527,-5.67322c11.11648,0.07065 54.06133,8.94293 54.06133,8.94293l-0.79424,26.84353z" data-paper-data="{&quot;index&quot;:null}" fill="#2e6a86" stroke="none" stroke-width="0" stroke-linecap="butt"/><path d="M-31.62785,517.17061v-178.67868h588.58859v178.67868z" fill="#2e6a86" stroke="none" stroke-width="0" stroke-linecap="butt"/><g fill="none" stroke="#ffffff" stroke-width="25" stroke-linecap="round"><path d="M88.50002,55h-55"/><path d="M8.50002,75h127"/></g><g fill="none" stroke="#ffffff" stroke-width="25" stroke-linecap="round"><path d="M454.50001,94h-55"/><path d="M374.50002,114h127"/></g><g stroke="none" stroke-width="0" stroke-linecap="butt"><path d="M336.50001,2c0,-79.80515 64.69485,-144.5 144.5,-144.5c79.80515,0 144.5,64.69485 144.5,144.5c0,79.80515 -64.69485,144.5 -144.5,144.5c-79.80515,0 -144.5,-64.69485 -144.5,-144.5z" fill="url(#color-4)"/><path d="M431.16234,2c0,-27.52458 22.31309,-49.83768 49.83768,-49.83768c27.52458,0 49.83768,22.31309 49.83768,49.83768c0,27.52458 -22.31309,49.83768 -49.83768,49.83768c-27.52458,0 -49.83768,-22.31309 -49.83768,-49.83768z" fill="#fffc70"/></g><g stroke="none" stroke-width="0" stroke-linecap="butt"><path d="M263.11071,323.56702l-35.09358,-5.15375l8.82672,-19.87439l-8.57308,-12.83561c0,0 6.74769,-8.13855 6.84502,-11.92819c0.08861,-3.45018 -6.28474,-9.88698 -6.28474,-9.88698c0,0 10.37411,-9.34199 11.5799,-13.40481c0.77983,-2.62757 -5.04833,-8.60287 -5.04833,-8.60287c0,0 8.02704,-1.94537 13.21688,-5.84602c3.62659,-2.72571 4.97554,-7.84746 5.01702,-7.81312c8.31079,6.88383 21.95527,-6.01714 29.75672,1.06306c7.20879,6.54233 16.97564,8.43098 24.51807,16.55894c8.56067,9.22524 10.25242,16.33062 19.29009,23.32416c10.56581,8.17604 29.49156,17.54622 31.09093,17.95476c4.35588,1.11264 20.38296,8.4979 20.38296,8.4979z" fill="url(#color-5)"/><path d="M261.44779,324.56702l-35.09357,-5.15375c0,0 7.8194,-14.15559 8.82672,-19.87439c3.27787,-18.60913 142.91129,-3.97534 142.91129,-3.97534c0,0 11.06965,11.64912 16.86371,14.5052c20.60444,10.15659 76.01979,14.49826 76.01979,14.49826z" fill="#2e6a86"/></g><g stroke-width="3.5"><path d="M438.77265,167.19494c0,0 4.55544,4.25455 13.35022,6.86958c9.08736,2.70203 23.17762,2.04393 21.82603,4.78862c-9.07596,18.43059 -42.36064,3.85498 -42.36064,3.85498" fill="#ffffff" stroke="#000000" stroke-linecap="round"/><path d="M410.69836,89.2859c-3.4632,13.26468 -19.41911,9.09886 -15.9559,-4.16583c3.4632,-13.26468 15.80403,-26.50713 15.81235,-26.55c0.03507,-0.1808 3.60674,17.45115 0.14354,30.71582z" fill="#ffffff" stroke="#000000" stroke-linecap="butt"/><path d="M444.3743,128.34765c-14.13502,10.0592 -28.08721,-9.43848 -13.95219,-19.49768c14.13503,-10.05921 37.83234,-11.58555 37.87491,-11.6208c0.17957,-0.14874 -9.78769,21.05928 -23.92272,31.11849z" fill="#ffffff" stroke="#000000" stroke-linecap="butt"/><path d="M446.69559,124.29567c8.88787,-2.79919 8.53841,8.47138 8.53841,8.47138c0,0 7.30374,-4.71656 8.4588,5.05748c1.18069,9.9909 -7.9597,8.2794 -7.9597,8.2794c0,0 2.34102,7.61121 -5.91633,9.2145c-6.64247,1.28975 -4.14939,-10.4175 -4.14939,-10.4175c0,0 -7.86871,4.02681 -8.14595,-4.20952c-0.26413,-7.84678 8.00893,-6.38073 8.00893,-6.38073c0,0 -4.27756,-8.91389 1.16523,-10.01503z" fill="#ffffff" stroke="#000000" stroke-linecap="butt"/><path d="M405.79603,224.70775c-29.17281,-2.04948 -26.07576,-7.3042 -26.07576,-7.3042c0,0 6.3517,-8.02469 26.549,-6.62343c26.25706,1.82166 32.55702,8.78883 32.55702,8.78883c0,0 -0.78407,7.40421 -33.03026,5.13881z" fill="#afb0ae" stroke="#000000" stroke-linecap="butt"/><path d="M339.66352,192.04948c-26.57625,-12.20475 -24.96769,-16.97762 -24.96769,-16.97762c0,0 12.5546,-5.48843 30.96044,2.94478c23.92812,10.96342 24.28715,22.28813 24.28715,22.28813c0,0 -0.90381,5.23523 -30.27989,-8.25531z" fill="#afb0ae" stroke="#000000" stroke-linecap="butt"/><path d="M329.75453,180.40476c0.89548,-2.02593 6.33311,-16.99619 6.33311,-16.99619l11.00317,15.12672c0,0 -5.61146,6.08539 -7.56357,9.04875c-1.90084,2.88557 -3.99934,8.50427 -3.99934,8.50427c0,0 8.08051,13.2612 -9.37211,5.20788c-27.65977,-12.7633 -3.63434,-11.8637 -3.63434,-11.8637c0,0 6.15416,-6.58679 7.23307,-9.02772z" data-paper-data="{&quot;index&quot;:null}" fill="#ffffff" stroke="#000000" stroke-linecap="butt"/><path d="M394.64819,226.93151c0,0 19.09835,14.60423 -10.35643,6.83375c-18.58524,-4.90299 -3.91059,-9.98327 -3.91059,-9.98327l2.79368,-9.80389l15.50777,-1.39668c0,0 -1.50105,3.89833 -2.10055,6.03069c-0.72229,2.56915 -1.93386,8.31941 -1.93386,8.31941z" fill="#ffffff" stroke="#000000" stroke-linecap="butt"/><path d="M451.00765,137.69767c-1.92347,15.9405 -17.97041,50.1125 -17.97041,50.1125l-102.09014,-50.17484c0,0 6.90477,-21.33767 18.81241,-36.82441c10.34671,-13.45663 43.73931,-26.64046 67.91949,-16.03c24.18018,10.61045 35.38707,35.85766 33.32863,52.91676z" fill="#ffffff" stroke="#000000" stroke-linecap="butt"/><path d="M434.11802,197.57954c0,0 1.85491,4.70662 2.47714,7.71446c0.82581,3.9919 2.04218,14.13155 2.04218,14.13155c0,0 -19.40168,-5.24095 -29.51367,-5.77997c-9.49744,-0.50625 -29.43032,2.63799 -29.43032,2.63799c0,0 -0.42776,-5.62455 -0.44987,-8.58497c-0.0236,-3.15732 0.31243,-9.80631 0.31243,-9.80631l14.33037,-0.10731l-14.40447,0.06422c0,0 -3.33468,-1.8316 -4.69014,-2.9512c-1.24064,-1.02477 -3.12872,-3.50714 -3.12872,-3.50714l-0.16838,-8.24145l0.23791,8.22016c0,0 -0.20684,2.15866 -0.64776,3.3343c-0.36111,0.96284 -1.80647,3.20949 -1.80647,3.20949c0,0 -1.44173,-5.46669 -7.19463,-8.49272c-4.84841,-2.55025 -18.33719,-8.20401 -28.65068,-11.38074c-10.83808,-3.33831 -18.39733,-4.1395 -18.39733,-4.1395c0,0 3.05514,-11.51507 6.4602,-18.51236c2.43637,-5.00664 6.34433,-9.6384 7.46244,-12.39537c1.40275,-3.45883 2.09043,-10.0891 2.09043,-10.0891c0,0 24.423,-6.37434 60.31815,10.34765c33.09794,15.41889 46.9494,48.97748 46.9494,48.97748z" fill="#ffffff" stroke="#000000" stroke-linecap="butt"/><path d="M433.20963,183.67168c0,0 -0.8952,1.55421 -1.62927,2.27574c-0.80631,0.79255 -3.01229,2.28651 -3.01229,2.28651" fill="none" stroke="#000000" stroke-linecap="round"/><path d="M422.943,170.11657c0,0 -1.16211,2.41989 -1.9517,3.48711c-0.75319,1.01803 -2.68181,2.77555 -2.68181,2.77555" fill="none" stroke="#000000" stroke-linecap="round"/><path d="M393.78507,146.76343c0,0 -1.34074,3.68676 -2.27369,5.57486c-0.61826,1.25123 -2.77941,4.65164 -2.77941,4.65164" fill="none" stroke="#000000" stroke-linecap="round"/><path d="M379.92227,140.11466c0,0 -1.95508,4.88512 -2.82506,6.8677c-0.67648,1.54163 -1.96187,4.04124 -1.96187,4.04124" fill="none" stroke="#000000" stroke-linecap="round"/><path d="M359.71891,145.76708c0,0 -0.0484,-2.29947 0.43718,-3.79555c0.57163,-1.76122 2.77675,-6.10672 2.77675,-6.10672" fill="none" stroke="#000000" stroke-linecap="round"/><path d="M343.00698,140.88483c0,0 0.22555,-3.11991 0.46316,-4.42739c0.20022,-1.10179 0.86961,-2.90658 0.86961,-2.90658" fill="none" stroke="#000000" stroke-linecap="round"/><path d="M446.64544,127.39508c0.02172,-0.00128 -1.80645,-1.67051 -3.631,-0.85889c-4.6881,2.08542 -13.29566,7.5777 -19.67,3.66414c-2.89367,-1.77657 -8.52487,-6.15834 -9.13981,-11.62614c-0.40399,-3.59213 1.91944,-6.71052 3.13733,-9.35184c0.8486,-1.84042 0.6853,-3.87896 0.6853,-3.87896c0,0 -3.20209,-3.13862 -4.86667,-4.36742c-1.99315,-1.47134 -5.3235,-3.44289 -5.3235,-3.44289c0,0 2.37196,-9.17201 -13.30711,-15.50999c-7.98059,-3.22601 -14.53542,-2.50862 -14.55709,-2.44799c-0.03212,0.08992 3.48646,-1.23101 -2.93854,15.69745c-0.43646,1.14998 2.68963,4.50072 7.65387,6.72317c4.80274,2.15015 11.40871,3.24384 13.3299,0.28966c5.15988,-7.93421 9.40632,-4.57076 9.40632,-4.57076c0,0 3.86393,1.56228 5.75802,2.94253c1.76837,1.28861 4.82724,4.75179 4.82724,4.75179c0,0 2.58782,-5.4979 20.71818,6.39639c6.67575,4.37958 7.63557,15.60637 7.91756,15.58977z" fill="#000000" stroke="#000000" stroke-linecap="butt"/><path d="M416.65413,117.67468c0,0 7.53057,-1.42251 13.83731,-0.30293c6.69439,1.1884 12.18124,3.62665 12.15448,3.49179" fill="none" stroke="#ffffff" stroke-linecap="round"/><path d="M379.83928,93.78003c0,0 6.01186,-2.15305 11.75337,-2.06669c6.03544,0.09079 11.81582,2.41944 11.8416,2.3429" fill="none" stroke="#ffffff" stroke-linecap="round"/><path d="M401.34354,120.88173c0,0 -1.58536,2.06571 -4.09206,3.21079c-2.22855,1.01802 -5.36476,1.16955 -6.02692,0.61152c-0.65571,-0.55258 -0.69327,-3.33806 -0.03673,-5.88477c0.6512,-2.52604 2.37779,-5.36391 2.37779,-5.36391" fill="none" stroke="#000000" stroke-linecap="round"/><path d="M412.3447,122.26919c0,0 -4.78534,2.65082 -8.74533,0.2638c-3.9212,-2.36364 -0.91162,-8.99287 -1.95091,-9.76461c-0.62732,-0.46582 -8.43337,0.97176 -9.72913,-0.36421c-4.23497,-4.36638 1.53358,-5.87817 1.53358,-5.87817" fill="none" stroke="#000000" stroke-linecap="round"/><path d="M408.01933,112.20112c0,0 -4.19744,1.3274 -5.72792,-0.04222c-1.75487,-1.57041 -0.08284,-5.66091 -0.08284,-5.66091" fill="none" stroke="#000000" stroke-linecap="round"/><path d="M384.13266,80.53208c0,0 6.53362,1.65645 9.21304,3.14452c6.59902,3.66491 10.53727,10.08589 10.45939,10.31713" fill="none" stroke="#ffffff" stroke-linecap="round"/><path d="M423.16505,106.45397c0,0 5.81839,1.2565 10.79199,4.73795c4.9335,3.45338 9.02244,9.13155 9.04028,9.22142" fill="none" stroke="#ffffff" stroke-linecap="round"/><path d="M338.62602,122.37191c0,0 -7.07072,-10.51706 -3.48577,-25.86769c3.92178,-16.79295 12.93172,-27.11109 14.00706,-26.36306c5.39393,3.75209 0.10301,10.29098 0.18066,17.95293c0.08905,8.78862 1.90166,15.92335 1.90166,15.92335" fill="#ffffff" stroke="#000000" stroke-linecap="round"/><path d="M374.13064,97.24661c-2.4998,8.26088 -10.43103,2.41326 -10.43103,2.41326c0,0 -0.31584,7.98418 -7.93446,4.04104c-7.78765,-4.03062 -1.91437,-10.25471 -1.91437,-10.25471c0,0 -6.66484,-1.95539 -3.62485,-9.13669c2.44546,-5.77686 9.60223,1.94515 9.60223,1.94515c0,0 1.099,-8.07993 7.16549,-4.21864c5.77957,3.67866 0.52334,9.35323 0.52334,9.35323c0,0 8.58554,1.10192 6.61363,5.85737z" fill="#ffffff" stroke="#000000" stroke-linecap="butt"/><path d="M381.79728,118.69058c-3.37105,7.95405 -11.11223,0.92849 -11.11223,0.92849c0,0 -1.06551,7.9897 -8.65585,2.92572c-7.75873,-5.17632 -1.05352,-10.59545 -1.05352,-10.59545c0,0 -6.77779,-2.92639 -2.94228,-9.7163c3.08538,-5.46202 9.84532,3.33852 9.84532,3.33852c0,0 1.89197,-7.97342 7.86944,-3.21503c5.69475,4.53333 -0.3156,9.48817 -0.3156,9.48817c0,0 8.8616,2.34368 6.36473,6.8459z" fill="#afb0ae" stroke="#000000" stroke-linecap="butt"/><path d="M365.16834,157.04816c1.1734,-2.67407 4.01571,-4.01201 6.68978,-2.8386c0.52469,0.23024 1.26229,0.65977 1.65538,1.02657c1.6103,1.50256 2.08261,3.98955 1.13945,6.13893c-1.1734,2.67407 -4.09334,3.81296 -6.76741,2.63956c-2.67407,-1.1734 -3.8906,-4.29238 -2.7172,-6.96646z" fill="#93948f" stroke="none" stroke-linecap="butt"/><path d="M393.29549,191.82718c-1.13987,2.59766 -5.09022,3.70548 -7.64968,2.58236c-2.55947,-1.12311 -2.75883,-4.05185 -1.61896,-6.64951c1.13987,-2.59766 5.30619,-3.44573 7.86565,-2.32262c2.55947,1.12311 2.54286,3.79211 1.40299,6.38977z" fill="#93948f" stroke="none" stroke-linecap="butt"/><path d="M383.83816,170.51983c1.13987,-2.59766 4.44643,-3.65802 7.04409,-2.51815c2.59766,1.13987 3.50276,4.04834 2.36289,6.646c-1.13987,2.59766 -4.16975,3.77943 -6.76741,2.63956c-2.59766,-1.13987 -3.77943,-4.16975 -2.63956,-6.76741z" fill="#93948f" stroke="none" stroke-linecap="butt"/><path d="M404.17856,186.95172c1.12311,-2.55947 4.10843,-3.72385 6.6679,-2.60075c0.31111,0.13652 0.87828,0.42195 1.14657,0.60939c1.93885,1.35458 2.44077,3.81015 1.45418,6.05851c-1.12311,2.55947 -4.93846,3.35963 -7.49793,2.23652c-2.55947,-1.12311 -2.89382,-3.74421 -1.77072,-6.30367z" fill="#93948f" stroke="none" stroke-linecap="butt"/><path d="M413.55185,209.95444c-1.0393,2.36847 -3.92571,3.3916 -6.44697,2.28525c-2.52126,-1.10635 -3.72263,-3.92323 -2.68333,-6.29169c1.0393,-2.36847 3.96949,-3.86731 6.49073,-2.76097c0.11163,0.04899 0.77403,0.34414 0.8804,0.39964c2.2962,1.19809 2.75244,4.10417 1.75915,6.36777z" fill="#93948f" stroke="none" stroke-linecap="butt"/><path d="M433.73497,196.29184c-1.08959,2.48305 -4.30789,3.47136 -6.67635,2.43205c-2.36847,-1.0393 -2.99018,-3.71263 -1.90059,-6.19568c1.08959,-2.48305 4.44623,-3.41065 6.8147,-2.37135c2.36847,1.0393 2.85183,3.65193 1.76225,6.13498z" fill="#93948f" stroke="none" stroke-linecap="butt"/><path d="M388.0126,213.26543c-1.10635,2.52127 -7.03563,2.68684 -7.03563,2.68684c0,0 -2.50934,-3.8685 -1.40299,-6.38977c1.10635,-2.52127 3.89227,-3.73622 6.22253,-2.71369c2.33026,1.02253 3.32244,3.89534 2.21608,6.41661z" fill="#93948f" stroke="none" stroke-linecap="butt"/><path d="M349.32143,156.69341c-1.1734,2.67407 -3.6771,4.16059 -6.27477,3.02071c-2.59766,-1.13987 -4.30561,-4.47449 -3.13221,-7.14857c1.1734,-2.67407 3.40042,-4.282 5.99809,-3.14212c2.59766,1.13987 4.58228,4.5959 3.40888,7.26998z" fill="#93948f" stroke="none" stroke-linecap="butt"/><path d="M331.25882,161.388c-1.08959,2.48305 -4.20177,3.35295 -6.68483,2.26336c-1.89723,-0.83252 -3.61839,-2.82423 -3.54914,-4.77601c0.02137,-0.60266 1.09933,-2.6118 1.3564,-3.19764c1.08959,-2.48305 4.22572,-1.52771 6.70877,-0.43813c2.48305,1.08959 3.25838,3.66535 2.1688,6.1484z" fill="#93948f" stroke="none" stroke-linecap="butt"/><path d="M347.13275,180.47927c-1.16071,2.64514 -8.96671,-2.14006 -8.90731,-2.25884c1.25723,-4.23333 3.39348,-5.41108 5.61621,-4.74854c0.22029,0.06567 0.79228,0.4667 1.00585,0.56042c2.36847,1.0393 3.32455,4.0785 2.28525,6.44697z" fill="#93948f" stroke="none" stroke-linecap="butt"/><path d="M368.45951,184.88837c-0.83814,1.91005 -2.42177,3.06169 -4.56103,2.12297c-2.13925,-0.93872 -4.02403,-3.61233 -3.1859,-5.52237c0.83814,-1.91005 2.69844,-2.94028 4.83771,-2.00156c2.13925,0.93872 3.74736,3.49092 2.90922,5.40096z" fill="#93948f" stroke="none" stroke-linecap="butt"/><path d="M359.03727,171.02028c-0.4058,0.92478 -1.87166,0.96084 -2.79706,1.33268c-1.13883,0.45759 -1.82373,1.09401 -3.1304,0.52062c-2.36847,-1.0393 -3.55467,-3.55408 -2.64948,-5.61694c0.9052,-2.06285 3.55901,-2.89261 5.92747,-1.85331c2.36847,1.0393 3.55467,3.55408 2.64948,5.61694z" fill="#93948f" stroke="none" stroke-linecap="butt"/><path d="M431.25559,216.98059c-0.989,2.25385 -7.35255,-0.53851 -6.36354,-2.79237c0.989,-2.25385 4.59866,-2.84883 6.35591,-2.07774c1.75724,0.77109 0.99665,2.61626 0.00763,4.87011z" fill="#93948f" stroke="none" stroke-linecap="butt"/><path d="M359.36911,140.56301c-1.08959,2.48305 -4.10966,3.55834 -6.74553,2.4017c-2.63587,-1.15664 -3.88937,-4.10721 -2.79978,-6.59026c1.08959,-2.48305 4.10966,-3.55834 6.74553,-2.4017c2.63587,1.15664 3.88937,4.10721 2.79978,6.59026z" fill="#93948f" stroke="none" stroke-linecap="butt"/><path d="M336.86996,138.82576c-1.14611,2.61188 -3.59265,4.06337 -5.4645,3.24199c-1.87185,-0.82138 -2.46017,-3.60459 -1.31405,-6.21647c1.14611,-2.61188 3.59265,-4.06337 5.4645,-3.24199c1.87185,0.82138 2.46017,3.60459 1.31405,6.21647z" fill="#93948f" stroke="none" stroke-linecap="butt"/><path d="M416.90836,170.3485c-1.0393,2.36847 -3.86377,3.41878 -6.30862,2.34595c-2.44486,-1.07282 -3.5843,-3.86252 -2.545,-6.23099c1.0393,-2.36847 3.86377,-3.41878 6.30862,-2.34595c2.44486,1.07282 3.5843,3.86252 2.545,6.23099z" fill="#93948f" stroke="none" stroke-linecap="butt"/><path d="M337.14262,142.64801c0,0 26.27127,2.16491 50.60803,15.22253c34.42426,18.46998 41.55459,34.2692 41.55459,34.2692" fill="none" stroke="#000000" stroke-linecap="round"/><path d="M335.03731,142.28977c0,0 -2.30198,1.57813 -2.38294,0.6615c-0.0956,-1.0825 1.84588,-6.74199 1.84588,-6.74199" fill="none" stroke="#000000" stroke-linecap="round"/><path d="M434.25636,197.64024c0,0 1.85491,4.70662 2.47714,7.71446c0.82581,3.9919 2.04218,14.13155 2.04218,14.13155c0,0 -19.40168,-5.24095 -29.51367,-5.77997c-9.49744,-0.50625 -29.43032,2.63799 -29.43032,2.63799c0,0 -0.42776,-5.62455 -0.44987,-8.58497c-0.0236,-3.15732 0.31243,-9.80631 0.31243,-9.80631l14.33037,-0.10731l-14.40447,0.06422c0,0 -3.33468,-1.8316 -4.69014,-2.9512c-1.24064,-1.02477 -3.12872,-3.50714 -3.12872,-3.50714l-0.16838,-8.24145l0.23791,8.22016c0,0 -0.20684,2.15866 -0.64776,3.3343c-0.36111,0.96284 -1.80647,3.20949 -1.80647,3.20949c0,0 -1.44173,-5.46669 -7.19463,-8.49272c-4.84841,-2.55025 -18.33719,-8.20401 -28.65068,-11.38074c-10.83808,-3.33831 -18.39733,-4.1395 -18.39733,-4.1395c0,0 3.05514,-11.51507 6.4602,-18.51236c2.43637,-5.00664 6.34433,-9.6384 7.46244,-12.39537c1.40275,-3.45883 2.09043,-10.0891 2.09043,-10.0891c0,0 24.423,-6.37434 60.31815,10.34765c33.09794,15.41889 46.9494,48.97748 46.9494,48.97748z" fill="none" stroke="#000000" stroke-linecap="butt"/><path d="M415.65134,144.60617c4.70525,7.2451 -5.44936,9.72874 -5.44936,9.72874c0,0 6.02506,5.35437 -2.41949,8.81076c-8.63191,3.53309 -9.37044,-5.05652 -9.37044,-5.05652c0,0 -6.21831,3.97929 -9.69888,-2.99923c-2.79988,-5.61373 8.27657,-6.29082 8.27657,-6.29082c0,0 -5.54906,-6.03017 1.73962,-8.32095c6.94394,-2.18245 7.68658,5.57149 7.68658,5.57149c0,0 6.90161,-6.03233 9.23539,-1.44347z" fill="#ffffff" stroke="#000000" stroke-linecap="butt"/><path d="M393.19267,144.7247c-8.18041,5.06093 -11.11722,-0.86661 -11.11722,-0.86661c0,0 -4.1675,6.71845 -10.84692,0.50213c-6.82761,-6.35423 2.49403,-9.63045 2.49403,-9.63045c0,0 -5.07554,-4.60574 -0.20026,-10.69224c3.92184,-4.89617 8.03722,5.50474 8.03722,5.50474c0,0 3.32649,-7.09971 8.46299,-1.44383c4.89355,5.38836 -2.01362,8.84777 -2.01362,8.84777c0,0 10.08409,4.74682 5.18379,7.77847z" fill="#ffffff" stroke="#000000" stroke-linecap="butt"/><path d="M477.60903,153.77372c0.72276,9.65574 -9.05554,7.51495 -9.05554,7.51495c0,0 2.70484,8.31602 -6.05772,7.97115c-8.95694,-0.35251 -5.69022,-9.55824 -5.69022,-9.55824c0,0 -7.10293,1.22588 -6.90317,-7.58748c0.16068,-7.08973 9.90502,-2.65777 9.90502,-2.65777c0,0 -1.99275,-8.79289 5.2563,-7.78062c6.90618,0.9644 4.02199,9.30967 4.02199,9.30967c0,0 8.61629,-3.02792 8.52335,2.78835z" fill="#afb0ae" stroke="#000000" stroke-linecap="butt"/><path d="M463.73048,159.75525c-0.2127,8.6282 -9.4135,5.1006 -9.4135,5.1006c0,0 1.81904,7.78061 -6.57391,6.00576c-8.57917,-1.81421 -4.57277,-9.37622 -4.57277,-9.37622c0,0 -6.94486,-0.11236 -5.92432,-7.84354c0.82094,-6.2192 9.77373,-0.67875 9.77373,-0.67875c0,0 -1.08954,-8.0812 5.78542,-5.97246c6.54979,2.00902 2.99209,8.87717 2.99209,8.87717c0,0 8.56938,-1.2212 7.93327,3.88742z" fill="#ffffff" stroke="#000000" stroke-linecap="butt"/><path d="M438.32325,174.56705c-5.96399,7.15334 -11.1207,-1.9588 -11.1207,-1.9588c0,0 -3.73376,7.79027 -9.40606,0.69826c-5.79814,-7.24934 2.55264,-10.97387 2.55264,-10.97387c0,0 -5.60373,-4.72169 0.41892,-10.57842c4.84479,-4.71135 8.44793,5.9374 8.44793,5.9374c0,0 4.53205,-7.55842 8.73892,-1.19537c4.00788,6.06208 -3.51034,9.49889 -3.51034,9.49889c0,0 7.82709,4.67643 3.87871,8.57194z" fill="#afb0ae" stroke="#000000" stroke-linecap="butt"/><path d="M427.07859,272.50345c0,0 -79.27299,-19.76539 -130.58705,-59.82999c-23.68658,-18.49383 -39.21999,-70.86949 -38.8646,-70.45292c0.41564,0.48719 30.61645,12.02114 56.84227,27.74507c88.72607,53.19649 112.60941,102.53785 112.60941,102.53785z" fill="#ffffff" stroke="#000000" stroke-linecap="butt"/><path d="M415.08202,266.23904c0,0 -38.31771,-20.165 -72.75152,-48.83937c-25.73623,-21.43157 -50.39452,-52.3554 -50.39452,-52.3554c0,0 38.89494,18.08386 64.48668,40.29668c13.84314,12.01541 26.82493,23.4798 36.26361,33.52022c14.80761,15.75162 22.39576,27.37786 22.39576,27.37786z" fill="#bebebe" stroke="none" stroke-linecap="butt"/><path d="M271.4743,177.62861c0,0 21.99174,7.29093 56.42555,35.96531c25.73623,21.43157 50.3365,42.56412 50.3365,42.56412c0,0 -59.53474,-24.7858 -85.12649,-46.99861c-13.84314,-12.01541 -21.63554,-31.53081 -21.63554,-31.53081z" data-paper-data="{&quot;index&quot;:null}" fill="#bebebe" stroke="none" stroke-linecap="butt"/><path d="M427.69367,272.86184c0,0 -79.273,-19.76538 -130.58705,-59.82999c-23.68658,-18.49382 -39.21998,-70.86947 -38.8646,-70.45291c0.41564,0.48719 30.61644,12.02114 56.84227,27.74507c88.72607,53.19649 112.60941,102.53784 112.60941,102.53784z" fill="none" stroke="#000000" stroke-linecap="butt"/><path d="M259.80379,150.02248c0,0 6.86987,2.02005 20.51854,8.59297c23.39073,11.26449 60.14167,32.04224 90.18879,58.7971c32.27672,28.74018 44.29408,47.70507 44.29408,47.70507" fill="none" stroke="#000000" stroke-linecap="round"/></g><g stroke-linecap="butt" font-family="Sans Serif" font-weight="normal" font-size="40" text-anchor="start"><text transform="translate(16.0207,49.87578) rotate(-0.42687) scale(1.32848,1.32848)" font-size="40" xml:space="preserve" fill="url(#color-6)" fill-rule="nonzero" stroke="url(#color-7)" stroke-width="4" stroke-linecap="butt" stroke-linejoin="miter" stroke-miterlimit="10" stroke-dasharray="" stroke-dashoffset="0" font-family="Sans Serif" font-weight="normal" text-anchor="start" style="mix-blend-mode: normal"><tspan x="0" dy="0">ɢᴏ!</tspan></text><text transform="translate(10.25386,47.03157) rotate(-0.42687) scale(1.32848,1.32848)" font-size="40" xml:space="preserve" fill="url(#color-8)" fill-rule="nonzero" stroke="url(#color-9)" stroke-width="3" stroke-linecap="butt" stroke-linejoin="miter" stroke-miterlimit="10" stroke-dasharray="" stroke-dashoffset="0" font-family="Sans Serif" font-weight="normal" text-anchor="start" style="mix-blend-mode: normal"><tspan x="0" dy="0">ɢᴏ!</tspan></text><text transform="translate(107.26152,48.52406) rotate(-0.42687) scale(1.32848,1.32848)" font-size="40" xml:space="preserve" fill="url(#color-10)" fill-rule="nonzero" stroke="url(#color-11)" stroke-width="4" stroke-linecap="butt" stroke-linejoin="miter" stroke-miterlimit="10" stroke-dasharray="" stroke-dashoffset="0" font-family="Sans Serif" font-weight="normal" text-anchor="start" style="mix-blend-mode: normal"><tspan x="0" dy="0">ɢᴏ!</tspan></text><text transform="translate(101.49467,45.67987) rotate(-0.42687) scale(1.32848,1.32848)" font-size="40" xml:space="preserve" fill="url(#color-12)" fill-rule="nonzero" stroke="url(#color-13)" stroke-width="3" stroke-linecap="butt" stroke-linejoin="miter" stroke-miterlimit="10" stroke-dasharray="" stroke-dashoffset="0" font-family="Sans Serif" font-weight="normal" text-anchor="start" style="mix-blend-mode: normal"><tspan x="0" dy="0">ɢᴏ!</tspan></text><text transform="translate(7.15728,117.91857) rotate(-0.17139) scale(1.61866,1.61866)" font-size="40" xml:space="preserve" fill="#9966ff" fill-rule="nonzero" stroke="url(#color-14)" stroke-width="5" stroke-linecap="butt" stroke-linejoin="miter" stroke-miterlimit="10" stroke-dasharray="" stroke-dashoffset="0" font-family="Sans Serif" font-weight="normal" text-anchor="start" style="mix-blend-mode: normal"><tspan x="0" dy="0">ねこ</tspan></text><text transform="translate(2.03073,112.82261) rotate(-0.17139) scale(1.61866,1.61866)" font-size="40" xml:space="preserve" fill="#9966ff" fill-rule="nonzero" stroke="url(#color-15)" stroke-width="5" stroke-linecap="butt" stroke-linejoin="miter" stroke-miterlimit="10" stroke-dasharray="" stroke-dashoffset="0" font-family="Sans Serif" font-weight="normal" text-anchor="start" style="mix-blend-mode: normal"><tspan x="0" dy="0">ねこ</tspan></text><text transform="translate(145.072,117.11992) rotate(-0.23695) scale(1.24959,1.24959)" font-size="40" xml:space="preserve" fill="#9966ff" fill-rule="nonzero" stroke="url(#color-16)" stroke-width="5" stroke-linecap="butt" stroke-linejoin="miter" stroke-miterlimit="10" stroke-dasharray="" stroke-dashoffset="0" font-family="Sans Serif" font-weight="normal" text-anchor="start" style="mix-blend-mode: normal"><tspan x="0" dy="0">サ-ファ-</tspan></text><text transform="translate(141.17179,112.5712) rotate(-0.23695) scale(1.24959,1.24959)" font-size="40" xml:space="preserve" fill="url(#color-17)" fill-rule="nonzero" stroke="url(#color-18)" stroke-width="5" stroke-linecap="butt" stroke-linejoin="miter" stroke-miterlimit="10" stroke-dasharray="" stroke-dashoffset="0" font-family="Sans Serif" font-weight="normal" text-anchor="start" style="mix-blend-mode: normal"><tspan x="0" dy="0">サ-ファ-</tspan></text></g><text transform="translate(227,279.8125) scale(0.97671,0.97671)" font-size="40" xml:space="preserve" fill="#ffffff" fill-rule="nonzero" stroke="#ffffff" stroke-width="1" stroke-linecap="butt" stroke-linejoin="miter" stroke-miterlimit="10" stroke-dasharray="" stroke-dashoffset="0" font-family="Sans Serif" font-weight="normal" text-anchor="start" style="mix-blend-mode: normal"><tspan x="0" dy="0">波乗り</tspan></text><text transform="translate(281.485,309.58229) scale(1.08333,1.08333)" font-size="40" xml:space="preserve" fill="#ffffff" fill-rule="nonzero" stroke="#ffffff" stroke-width="2" stroke-linecap="butt" stroke-linejoin="miter" stroke-miterlimit="10" stroke-dasharray="" stroke-dashoffset="0" font-family="Handwriting" font-weight="normal" text-anchor="start" style="mix-blend-mode: normal"><tspan x="0" dy="0">x</tspan></text><text transform="translate(230,340.92504) scale(0.88028,0.88028)" font-size="40" xml:space="preserve" fill="#ffffff" fill-rule="nonzero" stroke="#ffffff" stroke-width="1.5" stroke-linecap="butt" stroke-linejoin="miter" stroke-miterlimit="10" stroke-dasharray="" stroke-dashoffset="0" font-family="Sans Serif" font-weight="normal" text-anchor="start" style="mix-blend-mode: normal"><tspan x="0" dy="0">にゃんこ大戦争</tspan></text></g></g></svg>