<svg version="1.1" xmlns="http://www.w3.org/2000/svg" xmlns:xlink="http://www.w3.org/1999/xlink" width="40.16103" height="46.54789" viewBox="0,0,40.16103,46.54789"><g transform="translate(-219.91948,-156.72605)"><g data-paper-data="{&quot;isPaintingLayer&quot;:true}" fill="#ff0000" fill-rule="nonzero" stroke="#000000" stroke-width="0" stroke-linecap="square" stroke-linejoin="miter" stroke-miterlimit="10" stroke-dasharray="" stroke-dashoffset="0" style="mix-blend-mode: normal"><path d="M232.26002,203.27374h-10.01316c-0.79385,0 -1.38921,-0.18044 -1.78612,-0.54125c-0.36084,-0.36084 -0.54125,-0.95621 -0.54125,-1.78612v-41.89296c0,-0.79385 0.1804,-1.37119 0.54125,-1.732c0.39691,-0.39694 0.99231,-0.59536 1.78615,-0.59536h10.01319c0.82991,0 1.4253,0.19846 1.78615,0.5954c0.36081,0.36081 0.54125,0.93816 0.54125,1.732v14.01846h10.82505v-14.01843c0,-0.79385 0.1804,-1.37119 0.54125,-1.732c0.36081,-0.39694 0.95621,-0.59536 1.78615,-0.59536h10.01319c0.82991,0 1.4253,0.19846 1.78615,0.5954c0.36081,0.36081 0.54125,0.93816 0.54125,1.732v41.89296c0,0.82991 -0.18044,1.4253 -0.54125,1.78615c-0.36084,0.36081 -0.95621,0.54125 -1.78612,0.54125h-10.01316c-0.82995,0 -1.4253,-0.18044 -1.78612,-0.54125c-0.36084,-0.36084 -0.54125,-0.95621 -0.54125,-1.78612v-14.34318h-10.82505v14.34321c0,0.82991 -0.18044,1.4253 -0.54125,1.78615c-0.36084,0.36081 -0.95621,0.54125 -1.78612,0.54125z"/></g></g></svg>