<svg version="1.1" xmlns="http://www.w3.org/2000/svg" xmlns:xlink="http://www.w3.org/1999/xlink" width="38.59142" height="46.54785" viewBox="0,0,38.59142,46.54785"><g transform="translate(-220.70429,-156.72607)"><g data-paper-data="{&quot;isPaintingLayer&quot;:true}" fill="#ff0000" fill-rule="nonzero" stroke="#000000" stroke-width="0" stroke-linecap="square" stroke-linejoin="miter" stroke-miterlimit="10" stroke-dasharray="" stroke-dashoffset="0" style="mix-blend-mode: normal"><path d="M256.96822,203.27378h-20.3511c-5.37646,0 -9.38174,-1.06446 -12.01581,-3.19338c-2.59801,-2.16501 -3.89702,-5.50273 -3.89702,-10.01316v-20.1346c0,-4.47437 1.29901,-7.79403 3.89702,-9.95905c2.63407,-2.16501 6.63934,-3.24752 12.01581,-3.24752h16.12933c0.82991,0 1.4253,0.19846 1.78615,0.5954c0.36081,0.36081 0.54125,0.93816 0.54125,1.732v7.84819c0,0.79381 -0.18044,1.38921 -0.54125,1.78615c-0.36084,0.36081 -0.95621,0.54125 -1.78612,0.54125h-13.42307c-1.3351,0 -2.32737,0.27064 -2.97687,0.81189c-0.64951,0.54125 -0.97425,1.33506 -0.97425,2.38151v15.47982c0,1.08251 0.25256,1.87632 0.75775,2.38151c0.50516,0.50516 1.2449,0.75775 2.21915,0.75775h6.27853v-10.0673c0,-0.82995 0.1804,-1.4253 0.54125,-1.78612c0.36081,-0.36084 0.95621,-0.54125 1.78615,-0.54125h10.01319c0.82991,0 1.4253,0.1804 1.78615,0.54125c0.36081,0.36081 0.54125,0.95621 0.54125,1.78615v19.97225c0,0.82991 -0.18044,1.4253 -0.54125,1.78615c-0.36084,0.36081 -0.95621,0.54125 -1.78612,0.54125z"/></g></g></svg>