<svg version="1.1" xmlns="http://www.w3.org/2000/svg" xmlns:xlink="http://www.w3.org/1999/xlink" width="211.71171" height="211.71171" viewBox="0,0,211.71171,211.71171"><defs><radialGradient cx="240" cy="180" r="105.85586" gradientUnits="userSpaceOnUse" id="color-1"><stop offset="0" stop-color="#e5ffff"/><stop offset="1" stop-color="#e5ffff" stop-opacity="0"/></radialGradient><linearGradient x1="242.25223" y1="104.17418" x2="242.25223" y2="260.33034" gradientUnits="userSpaceOnUse" id="color-2"><stop offset="0" stop-color="#f9ffff"/><stop offset="1" stop-color="#e5ffff"/></linearGradient></defs><g transform="translate(-134.14414,-74.14415)"><g data-paper-data="{&quot;isPaintingLayer&quot;:true}" fill-rule="nonzero" stroke="none" stroke-width="0" stroke-linecap="butt" stroke-linejoin="miter" stroke-miterlimit="10" stroke-dasharray="" stroke-dashoffset="0" style="mix-blend-mode: normal"><path d="M345.85586,180c0,58.46257 -47.39328,105.85586 -105.85586,105.85586c-58.46258,0 -105.85585,-47.39328 -105.85585,-105.85586c0,-58.46257 47.39328,-105.85585 105.85585,-105.85585c58.46258,0 105.85586,47.39328 105.85586,105.85586z" fill="url(#color-1)"/><path d="M320.33032,182.25228c0,43.12133 -34.95675,78.07808 -78.07808,78.07808c-43.12133,0 -78.07807,-34.95674 -78.07807,-78.07808c0,-43.12133 34.95674,-78.07808 78.07807,-78.07808c43.12133,0 78.07808,34.95675 78.07808,78.07808z" fill="url(#color-2)"/></g></g></svg>