<svg version="1.1" xmlns="http://www.w3.org/2000/svg" xmlns:xlink="http://www.w3.org/1999/xlink" width="27.9436" height="46.32839" viewBox="0,0,27.9436,46.32839"><g transform="translate(-226.0282,-156.8358)"><g data-paper-data="{&quot;isPaintingLayer&quot;:true}" fill="#ff0000" fill-rule="nonzero" stroke="#000000" stroke-width="0" stroke-linecap="square" stroke-linejoin="miter" stroke-miterlimit="10" stroke-dasharray="" stroke-dashoffset="0" style="mix-blend-mode: normal"><path d="M251.81374,167.14154c0.62714,1.58626 1.14358,3.26473 1.54936,5.03542c0.22134,0.70091 0.35046,1.40182 0.38736,2.1027c0.0738,0.66401 0.14757,1.34647 0.22134,2.04738c-0.11067,2.06583 -0.20289,4.15008 -0.27665,6.25277c-0.03687,2.1027 -0.2582,4.16853 -0.66401,6.19742c0,0.0369 -0.01845,0.05535 -0.05532,0.05535c0,0 0,0.01845 0,0.05535c-0.88535,2.58227 -2.1027,5.05387 -3.65205,7.41477c-1.51245,2.32403 -3.09871,4.51895 -4.75873,6.58478c-2.91424,0.0738 -5.84697,0.12912 -8.79811,0.16602c-2.95114,0.0369 -5.81006,0.05535 -8.57677,0.05535c0,0 -0.01845,0.01845 -0.05532,0.05535c-0.47954,-3.50448 -0.79313,-7.10122 -0.94066,-10.79014c-0.11067,-3.72582 -0.16598,-7.50699 -0.16598,-11.34348c0,-3.83649 0.01845,-7.69142 0.05535,-11.56481c0.0738,-3.91025 0.0738,-7.78364 0,-11.62016c0.03687,-0.03687 0.05535,-0.07377 0.05535,-0.11067c0.03687,-0.07377 0.0738,-0.12912 0.11067,-0.16598c1.25422,-0.2951 2.54537,-0.49799 3.87339,-0.60866c1.36492,-0.11067 2.72984,-0.14753 4.09472,-0.11067c1.36492,0 2.71139,0.01845 4.03941,0.05535c1.32802,0.0369 2.63759,0.0369 3.92874,0c1.40182,0.36891 2.74826,1.06982 4.03941,2.1027c1.32802,1.03292 2.37938,2.1765 3.15406,3.43072c0.99601,1.51249 1.80759,3.08026 2.4347,4.70342zM244.95231,182.69044c0.332,-1.36488 0.31355,-2.87737 -0.05532,-4.5374c-0.14753,-0.62711 -0.31355,-1.30957 -0.49799,-2.04734c-0.14753,-0.73778 -0.38732,-1.43869 -0.71933,-2.1027c-0.332,-0.66401 -0.73778,-1.2358 -1.21735,-1.71534c-0.47954,-0.51644 -1.10668,-0.9038 -1.88136,-1.162c-0.73778,-0.11067 -1.54936,-0.16598 -2.4347,-0.16598c-0.88535,-0.03687 -1.71534,0.0369 -2.49002,0.22134h-0.11067h-0.11067v0.27669c0.11067,1.18048 0.16602,2.45315 0.16602,3.81807c0,1.36492 -0.03687,2.78516 -0.11067,4.26074c-0.03687,1.47559 -0.05532,2.96959 -0.05532,4.48208c0,1.51249 0.05535,3.02494 0.16602,4.5374c0.47957,0.44267 1.14358,0.64556 1.99203,0.60869c0.84848,-0.07377 1.67847,-0.14753 2.49005,-0.22134c0.22134,0.0369 0.40581,0 0.55334,-0.11067c0.18447,-0.11067 0.38736,-0.20289 0.60869,-0.27665c0.44267,-0.2582 0.83003,-0.57179 1.16203,-0.94066c0.332,-0.40577 0.62714,-0.79313 0.88535,-1.162c0.77468,-1.14355 1.32802,-2.3978 1.66002,-3.76272z"/></g></g></svg>