<svg version="1.1" xmlns="http://www.w3.org/2000/svg" xmlns:xlink="http://www.w3.org/1999/xlink" width="30.29762" height="32.99729" viewBox="0,0,30.29762,32.99729"><g transform="translate(-224.85119,-170.75135)"><g data-paper-data="{&quot;isPaintingLayer&quot;:true}" fill="#ff0000" fill-rule="nonzero" stroke="#000000" stroke-width="0" stroke-linecap="square" stroke-linejoin="miter" stroke-miterlimit="10" stroke-dasharray="" stroke-dashoffset="0" style="mix-blend-mode: normal"><path d="M252.84885,203.74851c-0.6666,0 -1.21657,-0.21665 -1.64985,-0.64993c-0.43331,-0.43331 -0.64993,-0.96658 -0.64993,-1.59987v-15.54868c0,-2.46645 -0.46662,-4.48295 -1.39988,-6.04948c-0.93327,-1.59987 -2.21649,-2.79977 -3.84966,-3.5997c-1.59987,-0.79993 -3.41639,-1.1999 -5.44953,-1.1999c-1.93318,0 -3.69969,0.3833 -5.29956,1.14992c-1.56652,0.73328 -2.81644,1.76651 -3.74967,3.09974c-0.89992,1.29989 -1.34987,2.78309 -1.34987,4.44964h-3.24971c0.06665,-2.49979 0.73328,-4.73295 1.99983,-6.69944c1.29989,-1.96649 2.99975,-3.51638 5.09957,-4.64959c2.09982,-1.13325 4.44964,-1.69986 7.04943,-1.69986c2.79977,0 5.31623,0.58328 7.54938,1.74987c2.23316,1.16656 3.99966,2.88309 5.29956,5.14958c1.29989,2.26647 1.94985,5.03292 1.94985,8.2993v15.54871c0,0.63329 -0.21665,1.16656 -0.64993,1.59987c-0.43331,0.43331 -0.98325,0.64996 -1.64985,0.64996zM227.20098,203.74851c-0.69994,0 -1.26655,-0.19998 -1.69986,-0.59995c-0.43331,-0.43331 -0.64993,-0.98325 -0.64993,-1.64985v-28.09765c0,-0.69994 0.21665,-1.24988 0.64996,-1.64985c0.43331,-0.43331 0.99992,-0.64993 1.69986,-0.64993c0.6666,0 1.1999,0.21665 1.59987,0.64996c0.43331,0.39997 0.64996,0.94994 0.64996,1.64988v28.09765c0,0.6666 -0.21665,1.21657 -0.64993,1.64988c-0.39997,0.39997 -0.93327,0.59995 -1.59987,0.59995z"/></g></g></svg>