<svg version="1.1" xmlns="http://www.w3.org/2000/svg" xmlns:xlink="http://www.w3.org/1999/xlink" width="27.07234" height="46.76664" viewBox="0,0,27.07234,46.76664"><g transform="translate(-226.46383,-169.81668)"><g data-paper-data="{&quot;isPaintingLayer&quot;:true}" fill="#ff0000" fill-rule="nonzero" stroke="#000000" stroke-width="0" stroke-linecap="square" stroke-linejoin="miter" stroke-miterlimit="10" stroke-dasharray="" stroke-dashoffset="0" style="mix-blend-mode: normal"><path d="M244.72391,215.55935c-0.07377,-0.88535 -0.12912,-1.56781 -0.16598,-2.04734c0,-0.44267 -0.01845,-0.84844 -0.05532,-1.21735c0,-0.36891 -0.01845,-0.77468 -0.05532,-1.21735c0,-0.40577 0,-0.99601 0,-1.77069c0,-0.73778 0,-1.75224 0,-3.04336c0,-1.29112 0.01845,-2.96959 0.05535,-5.03539c-0.07377,0.40577 -0.55334,0.77468 -1.43869,1.10668c-0.88535,0.2951 -1.97358,0.49802 -3.2647,0.60869c-1.25425,0.11067 -2.60069,0.11067 -4.03937,0c-1.43869,-0.11067 -2.74826,-0.38732 -3.9287,-0.82999c-0.95915,-0.36891 -1.78914,-0.97756 -2.49002,-1.82601c-0.66401,-0.84844 -1.21735,-1.88136 -1.66002,-3.09871c-0.40581,-1.21735 -0.71933,-2.54537 -0.94066,-3.98406c-0.18447,-1.47559 -0.27665,-2.98804 -0.27665,-4.5374c0.03687,-2.17646 0.16602,-4.33451 0.38736,-6.47407c0.2582,-2.1765 0.75623,-4.13163 1.49404,-5.86542c0.73778,-1.77069 1.82604,-3.20938 3.26473,-4.31606c1.47559,-1.14358 3.46762,-1.78914 5.97608,-1.93668c1.21735,-0.18447 2.37938,-0.09222 3.48607,0.27669c1.10668,0.36887 1.99203,1.21735 2.65604,2.54537c0.11067,0.2582 0.22134,0.332 0.332,0.22134c0.11067,-0.11067 0.22134,-0.27665 0.332,-0.49799c0,-0.47957 0,-0.84848 0,-1.10668c0.0369,-0.25824 0.05535,-0.60866 0.05535,-1.05133c0,-0.22134 0.01845,-0.38732 0.05535,-0.49799c1.32802,-0.14757 2.80361,-0.18447 4.42673,-0.11067c1.62312,0.03687 3.11716,0.05535 4.48208,0.05535c0.11067,3.17248 0.14757,6.47411 0.11067,9.90482c-0.0369,3.39381 -0.09222,6.86143 -0.16598,10.40281c-0.0369,3.54138 -0.11067,7.15653 -0.22134,10.84549c-0.07377,3.65205 -0.11067,7.3041 -0.11067,10.95616v4.37141c-0.70091,0.11067 -1.54936,0.16602 -2.54537,0.16602c-0.95911,0.0369 -1.86291,0.0369 -2.71135,0c-0.84844,0 -1.56781,-0.0369 -2.15801,-0.11067c-0.59024,-0.0369 -0.88535,-0.09222 -0.88535,-0.16598zM236.42378,194.20038c1.06978,0.77468 2.50847,1.16203 4.31606,1.16203c0.92225,0 1.66002,-0.07377 2.21336,-0.22134c0.55334,-0.14757 0.95911,-0.47957 1.21735,-0.99601c0.25824,-0.55334 0.42422,-1.32802 0.49802,-2.32403c0.07377,-0.99601 0.11067,-2.34248 0.11067,-4.03937c0,-1.36492 -0.0369,-2.63759 -0.11067,-3.81804c-0.07377,-1.21735 -0.27665,-2.23182 -0.60866,-3.04336c-0.332,-0.84848 -0.81158,-1.51249 -1.43869,-1.99203c-0.62711,-0.51648 -1.494,-0.77468 -2.60069,-0.77468c-0.92225,0 -1.77069,0.2582 -2.54537,0.77468c-0.73778,0.47954 -1.36492,1.12513 -1.88136,1.93671c-0.51644,0.81154 -0.92225,1.73379 -1.21735,2.76671c-0.25824,1.03292 -0.38732,2.1027 -0.38732,3.20938c0,0.62711 0.01845,1.2727 0.05535,1.93671c0.07377,0.62711 0.22134,1.25425 0.44267,1.88136c0.22134,1.54936 0.8669,2.7298 1.93671,3.54138z"/></g></g></svg>