<svg version="1.1" xmlns="http://www.w3.org/2000/svg" xmlns:xlink="http://www.w3.org/1999/xlink" width="24.47622" height="45.51874" viewBox="0,0,24.47622,45.51874"><g transform="translate(-227.76189,-157.64063)"><g data-paper-data="{&quot;isPaintingLayer&quot;:true}" fill="#ff0000" fill-rule="nonzero" stroke="#000000" stroke-width="0" stroke-linecap="square" stroke-linejoin="miter" stroke-miterlimit="10" stroke-dasharray="" stroke-dashoffset="0" style="mix-blend-mode: normal"><path d="M241.31863,194.01074v8.85346c-0.73781,-0.07377 -1.494,-0.09222 -2.26868,-0.05532c-0.73781,0.0369 -1.494,0.09222 -2.26868,0.16602c-0.73781,0.0738 -1.45714,0.12912 -2.15801,0.16602c-0.66401,0.0369 -1.27267,0.01845 -1.82601,-0.05532c-0.11067,-0.55334 -0.18447,-1.42024 -0.22134,-2.60069c0,-1.21735 -0.01845,-2.58224 -0.05532,-4.09472c0,-1.54936 0,-3.15403 0,-4.81405c0,-1.66002 0,-3.2647 0,-4.81405c0.03687,-1.58622 0.05535,-2.98804 0.05535,-4.20539c0.03687,-1.25422 0.05535,-2.21336 0.05535,-2.87737c-0.70091,0 -1.43869,0 -2.21336,0c-0.73781,0 -1.54936,0.01845 -2.4347,0.05535l-0.22134,-8.02343c0.92221,0 1.77069,0 2.54537,0c0.77468,0 1.51245,0.01845 2.21336,0.05535c-0.0738,-1.10668 -0.05532,-2.28713 0.05535,-3.54138c0.14753,-1.29112 0.46112,-2.54537 0.9407,-3.76272c0.51644,-1.21735 1.2358,-2.32403 2.15805,-3.32005c0.92221,-0.99601 2.13956,-1.73379 3.65205,-2.21336c1.84446,-0.62711 3.85494,-1.01446 6.03144,-1.162c2.17646,-0.14753 4.31606,-0.16598 6.41876,-0.05532c0.22134,0.62714 0.35046,1.34647 0.38736,2.15805c0.07377,0.77468 0.09222,1.56781 0.05535,2.37938c-0.0369,0.77468 -0.11067,1.54936 -0.22134,2.32403c-0.0738,0.73781 -0.14757,1.42024 -0.22134,2.04738c-0.55334,-0.03687 -1.18048,-0.03687 -1.88136,0c-0.66401,0.0369 -1.36492,0.11067 -2.1027,0.22134c-0.73781,0.0738 -1.494,0.16602 -2.26868,0.27669c-0.73781,0.11067 -1.42024,0.20289 -2.04734,0.27669c-0.99601,0.18447 -1.62316,0.70091 -1.88136,1.54936c-0.22134,0.84848 -0.22134,1.82604 0,2.93273h10.07081c-0.0738,0.47957 -0.09222,0.95915 -0.05532,1.43869c0.03687,0.44267 0.03687,0.97756 0,1.60471c0,0.47957 0,0.8669 0,1.16203c0,0.29514 -0.01845,0.60869 -0.05532,0.9407c0,0.29514 -0.01845,0.68246 -0.05532,1.16203c-0.0369,0.47957 -0.11067,1.12513 -0.22134,1.93671c-2.25027,-0.11067 -4.13163,-0.20289 -5.64408,-0.27665c-1.51249,-0.11067 -2.95118,-0.18444 -4.31606,-0.22134z"/></g></g></svg>