<svg version="1.1" xmlns="http://www.w3.org/2000/svg" xmlns:xlink="http://www.w3.org/1999/xlink" width="38.09223" height="46.64616" viewBox="0,0,38.09223,46.64616"><g transform="translate(-220.95389,-156.67692)"><g data-paper-data="{&quot;isPaintingLayer&quot;:true}" fill="#ff0000" fill-rule="nonzero" stroke="#000000" stroke-width="0" stroke-linecap="square" stroke-linejoin="miter" stroke-miterlimit="10" stroke-dasharray="" stroke-dashoffset="0" style="mix-blend-mode: normal"><path d="M239.98226,203.32297c-0.63329,0 -1.18323,-0.21665 -1.64985,-0.64993c-0.46662,-0.46662 -0.69994,-1.03326 -0.69994,-1.69986v-14.89875l-16.19864,-25.74783c-0.39997,-0.59995 -0.54994,-1.16656 -0.44995,-1.69986c0.09999,-0.56661 0.33332,-1.03326 0.69994,-1.39988c0.39997,-0.36663 0.89992,-0.54994 1.49987,-0.54994c0.49996,0 0.89992,0.09999 1.1999,0.29997c0.29997,0.19998 0.56661,0.48329 0.79993,0.84994l16.09865,25.99782h-2.49979l16.04867,-25.84782c0.29997,-0.46662 0.61662,-0.79993 0.94994,-0.99992c0.33332,-0.19998 0.73328,-0.29997 1.1999,-0.29997c0.56661,0 1.03326,0.19998 1.39988,0.59995c0.39997,0.36663 0.61662,0.83327 0.64996,1.39988c0.06665,0.56661 -0.08332,1.11658 -0.44995,1.64988l-16.29863,25.74786v14.89875c0,0.6666 -0.23332,1.23324 -0.69994,1.69986c-0.43331,0.43331 -0.96658,0.64996 -1.59987,0.64996z"/></g></g></svg>