<svg version="1.1" xmlns="http://www.w3.org/2000/svg" xmlns:xlink="http://www.w3.org/1999/xlink" width="30.34751" height="46.64615" viewBox="0,0,30.34751,46.64615"><g transform="translate(-224.82624,-156.67692)"><g data-paper-data="{&quot;isPaintingLayer&quot;:true}" fill="#ff0000" fill-rule="nonzero" stroke="#000000" stroke-width="0" stroke-linecap="square" stroke-linejoin="miter" stroke-miterlimit="10" stroke-dasharray="" stroke-dashoffset="0" style="mix-blend-mode: normal"><path d="M227.17604,203.32297c-0.63329,0 -1.18323,-0.21665 -1.64985,-0.64993c-0.46662,-0.43331 -0.69994,-0.99992 -0.69994,-1.69986v-41.94647c0,-0.63329 0.23332,-1.18323 0.69994,-1.64985c0.46662,-0.46662 1.01659,-0.69994 1.64988,-0.69994c0.63329,0 1.18323,0.23332 1.64988,0.69994c0.46662,0.46662 0.69994,1.01659 0.69994,1.64988v39.89666h23.29805c0.63329,0 1.18323,0.21665 1.64988,0.64996c0.46662,0.39997 0.69994,0.9166 0.69994,1.54989c0,0.63329 -0.23332,1.16656 -0.69994,1.59987c-0.46662,0.39997 -1.01659,0.59995 -1.64985,0.59995z"/></g></g></svg>