<svg version="1.1" xmlns="http://www.w3.org/2000/svg" xmlns:xlink="http://www.w3.org/1999/xlink" width="32.24739" height="46.64617" viewBox="0,0,32.24739,46.64617"><g transform="translate(-223.8763,-156.67691)"><g data-paper-data="{&quot;isPaintingLayer&quot;:true}" fill="#ff0000" fill-rule="nonzero" stroke="#000000" stroke-width="0" stroke-linecap="square" stroke-linejoin="miter" stroke-miterlimit="10" stroke-dasharray="" stroke-dashoffset="0" style="mix-blend-mode: normal"><path d="M226.52607,203.32297c-0.76659,0 -1.39988,-0.19998 -1.89984,-0.59995c-0.49996,-0.43331 -0.74992,-1.01659 -0.74992,-1.74984v-41.94647c0,-0.6666 0.21665,-1.21657 0.64996,-1.64985c0.46662,-0.46662 1.03326,-0.69994 1.69986,-0.69994h14.49879c2.3998,0 4.56627,0.51663 6.49946,1.54989c1.93318,0.99992 3.46637,2.38313 4.59961,4.14967c1.13325,1.7332 1.69986,3.76634 1.69986,6.09949c0,2.13317 -0.58328,4.03301 -1.74984,5.69952c-1.16656,1.66652 -2.6831,2.94977 -4.5496,3.84969c2.66643,0.69994 4.81627,2.03317 6.44948,3.99966c1.63321,1.96649 2.44981,4.46628 2.44981,7.49937c0,2.69977 -0.61662,5.09957 -1.84983,7.1994c-1.23324,2.06648 -2.9331,3.68302 -5.09957,4.84961c-2.16647,1.16656 -4.64959,1.74987 -7.44936,1.74987zM228.57592,198.82335h13.14891c1.93318,0 3.63304,-0.36663 5.09957,-1.09991c1.46653,-0.76659 2.61645,-1.84983 3.44973,-3.24971c0.83327,-1.39988 1.24991,-3.04973 1.24991,-4.94957c0,-1.79985 -0.41664,-3.36637 -1.24988,-4.69961c-0.83327,-1.33323 -1.98316,-2.36646 -3.44969,-3.09974c-1.46653,-0.73328 -3.16639,-1.09991 -5.09957,-1.09991h-13.14888zM228.57592,176.17526h12.149c2.3998,0 4.36629,-0.6666 5.89951,-1.99983c1.56652,-1.36654 2.34982,-3.26638 2.34982,-5.69952c0,-2.3998 -0.78326,-4.21632 -2.34979,-5.44953c-1.53322,-1.23324 -3.49971,-1.84983 -5.89951,-1.84983h-12.14897z"/></g></g></svg>