<svg version="1.1" xmlns="http://www.w3.org/2000/svg" xmlns:xlink="http://www.w3.org/1999/xlink" width="347.66667" height="183" viewBox="0,0,347.66667,183"><g transform="translate(-28.89814,-3.78009)"><g data-paper-data="{&quot;isPaintingLayer&quot;:true}" fill="none" fill-rule="nonzero" stroke-linejoin="miter" stroke-miterlimit="10" stroke-dasharray="" stroke-dashoffset="0" style="mix-blend-mode: normal"><g stroke="#a8d9ff" stroke-width="32.5" stroke-linecap="round"><path d="M99.17887,46.84398c0,0 -5.55518,-8.26118 -20.41361,-8.52264c-19.52857,-0.34364 -20.83019,6.51663 -22.817,9.46076c-1.90722,2.8262 -2.14096,14.77533 3.0891,22.47735c5.44801,8.02299 16.41011,11.75064 16.41011,11.75064c0,0 11.72271,1.85166 16.6543,9.57089c6.3808,9.98762 6.17024,26.69709 4.14511,29.69802c-2.21355,3.28011 -7.64431,11.85499 -22.28086,11.72474c-17.74995,-0.15795 -25.28547,-11.32937 -25.28547,-11.32937"/><path d="M150.01053,83.30685c0,0 0.36755,51.4939 -18.05204,51.4939c-17.90279,0 -15.50387,-51.82723 -15.50387,-51.82723"/><path d="M208.14895,83.85945c0,0 -27.4941,2.63867 -36.16615,15.89645c-4.94363,7.55781 -4.19993,21.73546 -2.56555,29.58507c1.04844,5.03545 3.24544,5.90274 1.96538,5.90274c-5.96707,0 -1.77188,-51.38426 -1.77188,-51.38426"/><path d="M294.50552,134.80076c0,0 -18.49597,-0.56531 -28.34188,-8.42648c-4.85888,-3.87943 -3.92518,-14.89707 -4.85295,-17.98329c-1.98425,-6.60059 5.70074,-22.18232 13.71424,-22.52779c3.6011,-0.15524 30.46393,-0.05581 21.15013,21.67653c-1.97776,4.61479 -21.95541,3.01109 -35.38626,-4.42245c-3.8104,-2.10894 -13.8392,-9.67976 -13.8392,-9.67976"/><path d="M353.31945,85.18837c0,0 -27.49409,2.63867 -36.16614,15.89645c-4.94363,7.5578 -4.19993,21.73545 -2.56556,29.58506c1.04843,5.03545 3.24544,5.90275 1.96538,5.90275c-5.96707,0 -1.77187,-51.38427 -1.77187,-51.38427"/><g><path d="M208.55204,83.97352c0,0 12.18656,-0.6711 16.9557,-0.6711c6.49924,0 22.14839,11.00443 22.14839,11.00443"/><path d="M225.94185,137.69112c0,0 -2.33715,-71.01907 1.23818,-83.49298c2.947,-10.28175 18.69537,13.94703 18.69537,13.94703"/></g></g><g stroke="#000000" stroke-width="20" stroke-linecap="round"><path d="M99.17887,46.84398c0,0 -5.55518,-8.26118 -20.4136,-8.52264c-19.52857,-0.34364 -20.8302,6.51663 -22.817,9.46076c-1.90722,2.8262 -2.14096,14.77532 3.0891,22.47735c5.44801,8.02299 16.41011,11.75064 16.41011,11.75064c0,0 11.72271,1.85167 16.65429,9.57089c6.3808,9.98762 6.17024,26.69709 4.14511,29.69801c-2.21355,3.28011 -7.64431,11.855 -22.28086,11.72475c-17.74995,-0.15795 -25.28547,-11.32937 -25.28547,-11.32937"/><path d="M150.01053,83.30685c0,0 0.36754,51.4939 -18.05204,51.4939c-17.90279,0 -15.50387,-51.82723 -15.50387,-51.82723"/><path d="M208.14894,83.85945c0,0 -27.4941,2.63868 -36.16615,15.89646c-4.94363,7.5578 -4.19992,21.73545 -2.56555,29.58506c1.04844,5.03544 3.24544,5.90274 1.96538,5.90274c-5.96707,0 -1.77187,-51.38426 -1.77187,-51.38426"/><path d="M294.50552,134.80075c0,0 -18.49596,-0.56532 -28.34188,-8.42648c-4.85888,-3.87943 -3.92518,-14.89707 -4.85295,-17.98329c-1.98425,-6.60058 5.70074,-22.18232 13.71424,-22.52779c3.6011,-0.15524 30.46393,-0.05581 21.15013,21.67653c-1.97775,4.61478 -21.95541,3.01109 -35.38626,-4.42245c-3.8104,-2.10893 -13.8392,-9.67975 -13.8392,-9.67975"/><path d="M353.31945,85.18836c0,0 -27.49409,2.63867 -36.16614,15.89645c-4.94363,7.5578 -4.19993,21.73545 -2.56556,29.58506c1.04844,5.03545 3.24544,5.90275 1.96538,5.90275c-5.96707,0 -1.77187,-51.38426 -1.77187,-51.38426"/><g><path d="M208.55204,83.97352c0,0 12.18656,-0.6711 16.9557,-0.6711c6.49924,0 22.14839,11.00443 22.14839,11.00443"/><path d="M225.94185,137.69111c0,0 -2.33715,-71.01907 1.23818,-83.49298c2.94701,-10.28175 18.69537,13.94704 18.69537,13.94704"/></g></g><g stroke="#ffffff" stroke-width="15" stroke-linecap="round"><path d="M99.17888,46.84398c0,0 -5.55518,-8.26118 -20.41361,-8.52264c-19.52857,-0.34364 -20.83019,6.51664 -22.817,9.46077c-1.90722,2.8262 -2.14096,14.77532 3.0891,22.47734c5.44801,8.02299 16.41011,11.75064 16.41011,11.75064c0,0 11.72271,1.85166 16.65429,9.57089c6.3808,9.98762 6.17025,26.69709 4.14511,29.69801c-2.21355,3.28011 -7.64432,11.855 -22.28087,11.72475c-17.74995,-0.15795 -25.28547,-11.32937 -25.28547,-11.32937"/><path d="M150.01054,83.30685c0,0 0.36755,51.4939 -18.05204,51.4939c-17.90279,0 -15.50388,-51.82723 -15.50388,-51.82723"/><path d="M208.14895,83.85946c0,0 -27.4941,2.63868 -36.16615,15.89646c-4.94363,7.5578 -4.19993,21.73545 -2.56555,29.58506c1.04843,5.03544 3.24543,5.90274 1.96537,5.90274c-5.96707,0 -1.77187,-51.38427 -1.77187,-51.38427"/><path d="M294.50551,134.80075c0,0 -18.49597,-0.56531 -28.34188,-8.42648c-4.85888,-3.87943 -3.92518,-14.89707 -4.85295,-17.98329c-1.98425,-6.60058 5.70074,-22.18232 13.71424,-22.52779c3.6011,-0.15524 30.46393,-0.05581 21.15013,21.67653c-1.97775,4.61479 -21.95541,3.0111 -35.38626,-4.42244c-3.8104,-2.10894 -13.8392,-9.67976 -13.8392,-9.67976"/><path d="M353.31946,85.18838c0,0 -27.49409,2.63866 -36.16614,15.89644c-4.94363,7.5578 -4.19993,21.73545 -2.56556,29.58506c1.04843,5.03545 3.24543,5.90275 1.96537,5.90275c-5.96707,0 -1.77187,-51.38426 -1.77187,-51.38426"/><g><path d="M208.55205,83.97352c0,0 12.18656,-0.67109 16.9557,-0.67109c6.49924,0 22.14839,11.00443 22.14839,11.00443"/><path d="M225.94184,137.69112c0,0 -2.33714,-71.01907 1.23819,-83.49298c2.94701,-10.28175 18.69537,13.94703 18.69537,13.94703"/></g></g><g stroke="#6193ff" stroke-width="12.5" stroke-linecap="round"><path d="M99.17887,46.84398c0,0 -5.55518,-8.26118 -20.41361,-8.52264c-19.52857,-0.34364 -20.83019,6.51664 -22.817,9.46077c-1.90722,2.8262 -2.14096,14.77532 3.0891,22.47734c5.44801,8.02299 16.41011,11.75064 16.41011,11.75064c0,0 11.72271,1.85166 16.65429,9.57089c6.3808,9.98762 6.17025,26.69709 4.14511,29.69801c-2.21355,3.28011 -7.64432,11.855 -22.28087,11.72475c-17.74995,-0.15795 -25.28547,-11.32937 -25.28547,-11.32937"/><path d="M150.01053,83.30685c0,0 0.36755,51.4939 -18.05204,51.4939c-17.90279,0 -15.50388,-51.82723 -15.50388,-51.82723"/><path d="M208.14895,83.85946c0,0 -27.4941,2.63868 -36.16615,15.89646c-4.94363,7.5578 -4.19993,21.73545 -2.56555,29.58506c1.04843,5.03544 3.24543,5.90274 1.96537,5.90274c-5.96707,0 -1.77187,-51.38427 -1.77187,-51.38427"/><path d="M294.50552,134.80075c0,0 -18.49597,-0.56531 -28.34188,-8.42648c-4.85888,-3.87943 -3.92518,-14.89707 -4.85295,-17.98329c-1.98425,-6.60058 5.70074,-22.18232 13.71424,-22.52779c3.6011,-0.15524 30.46393,-0.05581 21.15013,21.67653c-1.97775,4.61479 -21.95541,3.0111 -35.38626,-4.42244c-3.8104,-2.10894 -13.8392,-9.67976 -13.8392,-9.67976"/><path d="M353.31946,85.18838c0,0 -27.49409,2.63866 -36.16614,15.89644c-4.94363,7.5578 -4.19993,21.73545 -2.56556,29.58506c1.04843,5.03545 3.24543,5.90275 1.96537,5.90275c-5.96707,0 -1.77187,-51.38426 -1.77187,-51.38426"/><g><path d="M208.55204,83.97352c0,0 12.18656,-0.67109 16.9557,-0.67109c6.49924,0 22.14839,11.00443 22.14839,11.00443"/><path d="M225.94185,137.69112c0,0 -2.33715,-71.01907 1.23818,-83.49298c2.94701,-10.28175 18.69537,13.94703 18.69537,13.94703"/></g></g><g stroke="#296dff" stroke-width="7.5" stroke-linecap="round"><path d="M99.17888,46.84398c0,0 -5.55518,-8.26118 -20.41361,-8.52264c-19.52857,-0.34364 -20.83019,6.51664 -22.817,9.46077c-1.90722,2.8262 -2.14096,14.77532 3.0891,22.47734c5.44801,8.02299 16.41011,11.75064 16.41011,11.75064c0,0 11.72271,1.85166 16.65429,9.57089c6.3808,9.98762 6.17025,26.69709 4.14511,29.69801c-2.21355,3.28011 -7.64432,11.855 -22.28087,11.72475c-17.74995,-0.15795 -25.28547,-11.32937 -25.28547,-11.32937"/><path d="M150.01054,83.30685c0,0 0.36755,51.4939 -18.05204,51.4939c-17.90279,0 -15.50388,-51.82723 -15.50388,-51.82723"/><path d="M208.14895,83.85946c0,0 -27.4941,2.63868 -36.16615,15.89646c-4.94363,7.5578 -4.19993,21.73545 -2.56555,29.58506c1.04843,5.03544 3.24543,5.90274 1.96537,5.90274c-5.96707,0 -1.77187,-51.38427 -1.77187,-51.38427"/><path d="M294.50551,134.80075c0,0 -18.49597,-0.56531 -28.34188,-8.42648c-4.85888,-3.87943 -3.92518,-14.89707 -4.85295,-17.98329c-1.98425,-6.60058 5.70074,-22.18232 13.71424,-22.52779c3.6011,-0.15524 30.46393,-0.05581 21.15013,21.67653c-1.97775,4.61479 -21.95541,3.0111 -35.38626,-4.42244c-3.8104,-2.10894 -13.8392,-9.67976 -13.8392,-9.67976"/><path d="M353.31946,85.18838c0,0 -27.49409,2.63866 -36.16614,15.89644c-4.94363,7.5578 -4.19993,21.73545 -2.56556,29.58506c1.04843,5.03545 3.24543,5.90275 1.96537,5.90275c-5.96707,0 -1.77187,-51.38426 -1.77187,-51.38426"/><g><path d="M208.55205,83.97352c0,0 12.18656,-0.67109 16.9557,-0.67109c6.49924,0 22.14839,11.00443 22.14839,11.00443"/><path d="M225.94184,137.69112c0,0 -2.33714,-71.01907 1.23819,-83.49298c2.94701,-10.28175 18.69537,13.94703 18.69537,13.94703"/></g></g><path d="M28.89814,186.78009v-183h347.66667v183z" stroke="none" stroke-width="0" stroke-linecap="butt"/></g></g></svg>