<svg version="1.1" xmlns="http://www.w3.org/2000/svg" xmlns:xlink="http://www.w3.org/1999/xlink" width="21.30373" height="47.1998" viewBox="0,0,21.30373,47.1998"><g transform="translate(-229.34813,-156.4001)"><g data-paper-data="{&quot;isPaintingLayer&quot;:true}" fill="#ff0000" fill-rule="nonzero" stroke="#000000" stroke-width="0" stroke-linecap="square" stroke-linejoin="miter" stroke-miterlimit="10" stroke-dasharray="" stroke-dashoffset="0" style="mix-blend-mode: normal"><path d="M249.60028,203.04652c-0.25824,0.14753 -0.59024,0.27669 -0.99601,0.38736c-0.40581,0.07377 -0.84848,0.12912 -1.32802,0.16602c-0.47957,0 -0.92225,0 -1.32802,0c-1.10668,0 -2.25023,-0.05532 -3.43072,-0.16598c-1.14355,-0.11067 -2.15801,-0.20289 -3.04336,-0.27665v-0.11067v-6.36341c0,-4.2792 0.12912,-8.503 0.38736,-12.6715c0.25824,-4.20539 0.38736,-8.44769 0.38736,-12.72685c0,-0.22134 0,-0.40577 0,-0.55334c0,-0.18444 -0.01845,-0.38732 -0.05532,-0.60866c-0.22134,-0.07377 -0.42422,0.09222 -0.60866,0.49802c-0.14753,0.36891 -0.332,0.79313 -0.55334,1.2727c-0.22134,0.44267 -0.47954,0.8669 -0.77468,1.2727c-0.2582,0.36891 -0.55334,0.55334 -0.88535,0.55334c-0.22134,0 -0.75623,-0.0738 -1.60467,-0.22134c-0.81154,-0.18444 -1.71534,-0.40577 -2.71135,-0.66401c-0.95911,-0.2951 -1.82601,-0.57179 -2.60069,-0.82999c-0.73778,-0.2582 -1.10668,-0.49799 -1.10668,-0.71933c0.0738,-0.51644 0.29514,-1.21735 0.66401,-2.1027c0.40581,-0.88535 0.88535,-1.84446 1.43869,-2.87737c0.55334,-1.06978 1.16203,-2.15801 1.82604,-3.2647c0.66401,-1.10668 1.2727,-2.12115 1.82604,-3.04336c0.59024,-0.92221 1.08823,-1.69689 1.49404,-2.32403c0.40581,-0.66401 0.66401,-1.03288 0.77468,-1.10668c0.99601,-0.03687 1.99203,-0.07377 2.98804,-0.11067c0.99601,-0.03687 2.01048,-0.05532 3.04339,-0.05532c1.14358,0 2.28717,0.0369 3.43072,0.11067c1.14355,0.0369 2.30558,0.09222 3.48607,0.16602c0.11067,1.91826 0.18444,3.79962 0.22134,5.64408c0.07377,1.80759 0.11067,3.6336 0.11067,5.4781c0,5.05387 -0.12912,10.05236 -0.38732,14.99556c-0.22134,4.94317 -0.332,9.94169 -0.332,14.99556c0,0.73778 0,1.51245 0,2.32403c0,0.77468 0.01845,1.54936 0.05535,2.32403c0,0.2582 -0.12912,0.46112 -0.38732,0.60869z"/></g></g></svg>