<svg version="1.1" xmlns="http://www.w3.org/2000/svg" xmlns:xlink="http://www.w3.org/1999/xlink" width="39.89046" height="48.49611" viewBox="0,0,39.89046,48.49611"><g transform="translate(-220.05477,-155.75194)"><g data-paper-data="{&quot;isPaintingLayer&quot;:true}" fill="#ff0000" fill-rule="nonzero" stroke="#000000" stroke-width="0" stroke-linecap="square" stroke-linejoin="miter" stroke-miterlimit="10" stroke-dasharray="" stroke-dashoffset="0" style="mix-blend-mode: normal"><path d="M259.94502,186.71144v6.27853c0,1.69592 -0.32475,3.22947 -0.97425,4.60067c-0.61341,1.37116 -1.67786,2.56191 -3.19338,3.57226c-1.47942,0.97425 -3.50012,1.732 -6.06203,2.27326c-2.56191,0.54125 -5.79139,0.81189 -9.68841,0.81189c-3.86093,0 -7.09039,-0.27061 -9.68841,-0.81187c-2.59801,-0.54125 -4.65477,-1.29901 -6.17028,-2.27326c-1.47942,-1.01035 -2.54387,-2.20111 -3.19338,-3.57226c-0.61341,-1.37119 -0.92011,-2.90472 -0.92011,-4.60063v-6.27853c0,-2.99495 0.64951,-5.30428 1.94851,-6.928c1.3351,-1.65982 2.97691,-2.68821 4.92542,-3.08512c-1.44335,-0.57731 -2.45367,-1.46136 -3.03102,-2.65212c-0.54125,-1.22682 -0.81187,-2.67017 -0.81187,-4.33003v-3.73463c0,-1.58766 0.27064,-2.99492 0.81189,-4.22177c0.57735,-1.26291 1.51551,-2.32737 2.81451,-3.19338c1.29901,-0.90207 3.04906,-1.58766 5.25016,-2.05676c2.20111,-0.50516 4.90737,-0.75775 8.11879,-0.75775c3.24752,0 5.95378,0.2526 8.11879,0.75775c2.16501,0.4691 3.87897,1.15469 5.14192,2.05676c1.29901,0.86601 2.21915,1.93046 2.76041,3.19341c0.54125,1.22685 0.81189,2.63411 0.81189,4.22177v3.73466c0,1.65986 -0.28866,3.10321 -0.86601,4.33003c-0.54125,1.19075 -1.53356,2.07481 -2.97687,2.65215c1.94851,0.39694 3.57226,1.4253 4.87128,3.08516c1.3351,1.62372 2.00266,3.93305 2.00266,6.928zM235.96754,172.26005c0,0.6856 0.2165,1.26295 0.64951,1.732c0.4691,0.433 1.60571,0.64951 3.40991,0.64951c1.84026,0 2.95886,-0.2165 3.35576,-0.64951c0.433,-0.46907 0.64951,-1.04641 0.64951,-1.732v-2.86862c0,-0.64951 -0.2165,-1.19075 -0.64951,-1.62376c-0.39691,-0.46907 -1.51551,-0.70361 -3.35576,-0.70361c-1.80416,0 -2.94081,0.23455 -3.40988,0.70365c-0.433,0.433 -0.64951,0.97425 -0.64951,1.62376zM234.34378,190.55433c0,0.68557 0.36084,1.26291 1.08251,1.732c0.75775,0.433 2.29131,0.64951 4.60067,0.64951c2.34541,0 3.86093,-0.2165 4.54652,-0.64951c0.72165,-0.4691 1.08251,-1.04645 1.08251,-1.732v-3.46402c0,-0.61344 -0.36084,-1.13661 -1.08251,-1.56962c-0.6856,-0.4691 -2.20111,-0.70361 -4.54652,-0.70361c-2.30936,0 -3.84288,0.23455 -4.60063,0.70365c-0.72165,0.433 -1.08251,0.95621 -1.08251,1.56965z"/></g></g></svg>