<svg version="1.1" xmlns="http://www.w3.org/2000/svg" xmlns:xlink="http://www.w3.org/1999/xlink" width="259" height="188" viewBox="0,0,259,188"><g transform="translate(-119.69442,-93.34027)"><g data-paper-data="{&quot;isPaintingLayer&quot;:true}" fill-rule="nonzero" stroke="none" stroke-linecap="butt" stroke-linejoin="miter" stroke-miterlimit="10" stroke-dasharray="" stroke-dashoffset="0" style="mix-blend-mode: normal"><g data-paper-data="{&quot;index&quot;:null}" stroke-width="1"><path d="M242.24521,155.7662c0.72758,1.72396 1.10846,3.57424 1.12096,5.44546c0.01244,1.87109 -0.34374,3.72635 -1.04827,5.45988c-0.70456,1.73351 -1.74363,3.31122 -3.05788,4.64312c-1.31436,1.33195 -2.87805,2.39189 -4.60201,3.11947l-5.54037,-13.12756z" fill="#ff9a9a"/><path d="M236.69669,142.7653c1.72393,-0.72757 3.57426,-1.10844 5.44546,-1.12096c1.87109,-0.01244 3.72635,0.34374 5.45988,1.0483c1.7335,0.70454 3.31122,1.74363 4.64312,3.05788c1.33193,1.31433 2.39189,2.87805 3.11947,4.60199l-13.12757,5.54037z" fill="#fecf99"/><path d="M223.62142,148.28361c3.4817,-1.46942 7.40439,-1.49555 10.90535,-0.07266c3.50094,1.42287 6.29318,4.17818 7.76259,7.65985l-13.12757,5.54037z" fill="#ff9a9a"/><path d="M229.21409,161.38909c-0.72757,-1.72393 -1.10847,-3.57425 -1.12095,-5.44544c-0.01245,-1.87111 0.34374,-3.72637 1.04828,-5.45987c0.70456,-1.73353 1.74364,-3.31122 3.05786,-4.64314c1.31437,-1.33193 2.87805,-2.3919 4.60201,-3.11948l5.54037,13.12757z" fill="#ffb19a"/></g><path d="M235.55577,181.84546l-12.97592,-33.42698l2.69573,-1.04644l12.97592,33.42698z" data-paper-data="{&quot;index&quot;:null}" fill="#7cefe9" stroke-width="0"/><path d="M258.17624,180.24295c0.37774,7.33802 -9.85358,13.8291 -22.8523,14.49824c-12.99871,0.66914 -23.84248,-4.73705 -24.22022,-12.07507c-0.05623,-1.09233 0.5107,-3.20428 0.5107,-3.20428c0,0 14.81463,0.07511 21.60524,-0.27907c7.95142,-0.41472 24.09893,-2.11601 24.09893,-2.11601c0,0 0.80063,2.06871 0.85765,3.17619z" fill="#99f7f3" stroke-width="0"/><path d="M258.17624,180.24294c0.30144,5.85564 -6.15279,11.17196 -15.37798,13.42096c2.12373,-3.74017 3.03746,-8.14868 2.31565,-13.55967c-0.08031,-0.60202 -0.14173,-1.21227 -0.19307,-1.82577c6.45218,-0.58528 12.39776,-1.2117 12.39776,-1.2117c0,0 0.80063,2.06871 0.85765,3.17619z" fill="#bdfffc" stroke-width="0"/><path d="M235.32394,194.74117c-12.99871,0.66914 -23.84248,-4.73705 -24.22022,-12.07507c-0.05623,-1.09233 0.5107,-3.20428 0.5107,-3.20428c0,0 9.36538,0.04748 16.61665,-0.11108c0.19607,0.53121 0.43866,1.03601 0.69905,1.494c2.41295,4.24411 3.37501,9.1036 8.03332,12.65639c0.46549,0.35502 0.98499,0.66859 1.53908,0.95549c-1.03742,0.13315 -2.09845,0.22895 -3.17858,0.28456z" fill="#7cefe9" stroke-width="0"/><path d="M119.69443,281.34027v-188h259v188z" fill="none" stroke-width="0"/></g></g></svg>