<svg version="1.1" xmlns="http://www.w3.org/2000/svg" xmlns:xlink="http://www.w3.org/1999/xlink" width="40.91681" height="33.45859" viewBox="0,0,40.91681,33.45859"><g transform="translate(-219.5416,-170.07071)"><g data-paper-data="{&quot;isPaintingLayer&quot;:true}" fill="#ff0000" fill-rule="nonzero" stroke="#000000" stroke-width="0" stroke-linecap="square" stroke-linejoin="miter" stroke-miterlimit="10" stroke-dasharray="" stroke-dashoffset="0" style="mix-blend-mode: normal"><path d="M229.23144,173.35321c0.332,-0.18447 0.60869,-0.35046 0.83003,-0.49799c0.95915,-0.66401 2.01048,-1.1989 3.15406,-1.60467c1.14358,-0.40581 2.30558,-0.62714 3.48607,-0.66401c1.21735,-0.0369 2.39784,0.09222 3.54138,0.38736c1.14358,0.2951 2.1765,0.84844 3.09871,1.66002c0.22134,0.22134 0.44267,0.59021 0.66401,1.10668c0.22134,-0.11067 0.47957,-0.23979 0.77468,-0.38732c0.332,-0.18447 0.60869,-0.35046 0.83003,-0.49799c0.92221,-0.66401 1.95513,-1.1989 3.09871,-1.60467c1.14355,-0.40581 2.32403,-0.62714 3.54138,-0.66401c1.21735,-0.0369 2.3978,0.09222 3.54138,0.38736c1.14355,0.2951 2.17646,0.84844 3.09871,1.66002c0.44267,0.40577 0.77468,1.2358 0.99601,2.49005c0.2582,1.25422 0.42422,2.76671 0.49802,4.5374c0.07377,1.73379 0.09222,3.65205 0.05535,5.75475c-0.0369,2.1027 -0.0738,4.22384 -0.11067,6.36344c-0.0369,2.13956 -0.0738,4.20539 -0.11067,6.19742c-0.0369,1.95513 -0.01845,3.68892 0.05535,5.20141c-1.54936,0.22134 -2.93269,0.31355 -4.15004,0.27669c-1.18048,-0.0369 -2.54537,-0.05532 -4.09472,-0.05532c-0.11067,-0.99601 -0.16598,-2.12115 -0.16598,-3.37536c0,-1.29115 0.01845,-2.61917 0.05535,-3.98406c0.03687,-1.36492 0.03687,-2.72984 0,-4.09472c-0.0369,-1.36492 -0.09222,-2.65604 -0.16598,-3.87339c-0.0369,-0.51648 -0.09222,-1.08823 -0.16598,-1.71534c-0.0369,-0.66401 -0.11067,-1.29115 -0.22134,-1.88136c-0.0738,-0.62714 -0.22134,-1.18048 -0.44267,-1.66002c-0.18447,-0.47957 -0.46112,-0.84848 -0.82999,-1.10668c-0.0369,-0.0738 -0.0738,-0.11067 -0.11067,-0.11067c-0.0369,0 -0.09222,-0.01845 -0.16598,-0.05532c-0.25824,-0.11067 -0.59024,-0.20289 -0.99601,-0.27665c-0.36891,-0.11067 -0.79313,-0.16598 -1.27267,-0.16598c-0.44267,0 -0.9038,0.07377 -1.38334,0.22134c-0.44267,0.14753 -0.8669,0.38736 -1.2727,0.71936c0.0369,1.69689 0.0369,3.50448 0,5.42274c-0.03687,1.91823 -0.09222,3.81807 -0.16598,5.69943c-0.03687,1.84446 -0.07377,3.65205 -0.11067,5.42274c0,1.73379 0.05535,3.26473 0.16602,4.59275c-1.54936,0.22134 -2.93269,0.31355 -4.15004,0.27669c-1.21735,-0.0369 -2.60069,-0.05532 -4.15004,-0.05532c-0.07377,-0.99601 -0.11067,-2.12115 -0.11067,-3.37536c0,-1.29115 0,-2.61917 0,-3.98406c0.0369,-1.36492 0.0369,-2.72984 0,-4.09472c0,-1.36492 -0.05532,-2.65604 -0.16598,-3.87339c-0.03687,-0.51648 -0.07377,-1.08823 -0.11067,-1.71534c-0.03687,-0.66401 -0.11067,-1.29115 -0.22134,-1.88136c-0.11067,-0.62714 -0.27665,-1.18048 -0.49799,-1.66002c-0.18444,-0.47957 -0.44267,-0.84848 -0.77468,-1.10668c-0.07377,-0.0738 -0.12912,-0.11067 -0.16598,-0.11067c-0.03687,0 -0.07377,-0.01845 -0.11067,-0.05532c-0.36887,-0.18447 -0.9038,-0.332 -1.60467,-0.44267c-0.66401,-0.11067 -1.32802,-0.05532 -1.99203,0.16602c-0.66401,0.18444 -1.25422,0.57179 -1.77069,1.16203c-0.51644,0.59021 -0.82999,1.49404 -0.94066,2.71139c-0.07377,1.51245 -0.09222,3.00649 -0.05532,4.48208c0.0369,1.47555 0.09222,2.95114 0.16602,4.42673c0.0738,1.47555 0.11067,2.95114 0.11067,4.42673c0,1.43869 -0.09222,2.89582 -0.27665,4.37141v0.22134c-0.73778,0.22134 -1.38334,0.35046 -1.93668,0.38736c-0.55334,0.07377 -1.12513,0.09222 -1.71534,0.05535c-0.55334,0 -1.18045,-0.0369 -1.88136,-0.11067c-0.70088,-0.0369 -1.58622,0 -2.65604,0.11067c0,-5.42274 -0.05532,-10.84549 -0.16598,-16.26823c-0.11067,-5.42274 -0.07377,-11.04837 0.11067,-16.87689c0.51648,0.07377 0.9407,0.12912 1.2727,0.16602c0.36891,0 0.70091,0 0.99601,0c0.332,0 0.66401,0 0.99601,0c0.36891,-0.0369 0.83003,-0.09222 1.38337,-0.16598c0.14757,0 0.44267,-0.01845 0.88535,-0.05532c0.44267,-0.0738 0.88535,-0.12912 1.32802,-0.16598c0.44267,-0.0738 0.83003,-0.09222 1.16203,-0.05532c0.36891,0.03687 0.55334,0.11067 0.55334,0.22134c0.11067,0.73778 0.14757,1.36488 0.11067,1.88136c-0.03687,0.47954 -0.01845,1.01446 0.05535,1.60471c0.22134,-0.11067 0.47957,-0.25824 0.77468,-0.44267z"/></g></g></svg>