<svg version="1.1" xmlns="http://www.w3.org/2000/svg" xmlns:xlink="http://www.w3.org/1999/xlink" width="30.43176" height="46.84568" viewBox="0,0,30.43176,46.84568"><g transform="translate(-224.78412,-156.57716)"><g data-paper-data="{&quot;isPaintingLayer&quot;:true}" fill="#ff0000" fill-rule="nonzero" stroke="#000000" stroke-width="0" stroke-linecap="square" stroke-linejoin="miter" stroke-miterlimit="10" stroke-dasharray="" stroke-dashoffset="0" style="mix-blend-mode: normal"><path d="M228.9985,161.84311c1.32802,-1.51249 2.80361,-2.72984 4.42673,-3.65205c1.62316,-0.95915 3.55983,-1.494 5.8101,-1.60467c2.25027,-0.0738 4.24229,0.2951 5.97608,1.10668c1.77069,0.77468 3.3016,1.84446 4.59275,3.20938c1.29115,1.32802 2.32403,2.87737 3.09871,4.64807c0.81158,1.73379 1.38337,3.52293 1.71538,5.36743c0.22134,1.43869 0.38736,2.80361 0.49802,4.09472c0.11067,1.29115 0.12912,2.58227 0.05535,3.87339c0.0738,1.69692 0.01845,3.50452 -0.16598,5.42274c-0.14753,1.91826 -0.47954,3.81807 -0.99601,5.69943c-0.51644,1.88136 -1.21735,3.65205 -2.1027,5.31208c-0.84844,1.62316 -1.88136,3.06184 -3.09871,4.31606c-1.18045,1.25425 -2.60069,2.23182 -4.26071,2.93273c-1.62312,0.66401 -3.46758,0.9407 -5.53341,0.83003c-1.73379,-0.11067 -3.2647,-0.40577 -4.59271,-0.88535c-2.25023,-0.84844 -4.00251,-1.97358 -5.25672,-3.37536c-1.21735,-1.43869 -2.12115,-3.04336 -2.71135,-4.81405c-0.59021,-1.80756 -0.97756,-3.68892 -1.162,-5.64408c-0.14753,-1.99203 -0.23979,-3.98406 -0.27665,-5.97608c-0.07377,-1.66002 -0.14753,-3.35691 -0.22134,-5.09074c-0.03687,-1.77069 0.0369,-3.50448 0.22134,-5.20141c0.22134,-1.73383 0.59024,-3.41226 1.10668,-5.03539c0.51648,-1.62316 1.25425,-3.19093 2.21336,-4.70338c0.18447,-0.29514 0.40581,-0.57179 0.66401,-0.82999zM239.40132,192.60888c0.44267,0.0369 0.84848,0 1.21735,-0.11067c0.88535,-0.2951 1.49404,-0.71933 1.82604,-1.27267c0.36891,-0.59021 0.66401,-1.2358 0.88535,-1.93668c0.332,-1.10668 0.51648,-2.15801 0.55334,-3.15403c0.0738,-0.99601 0.14757,-2.08425 0.22134,-3.2647c0.0369,-1.14355 0.0738,-2.3978 0.11067,-3.76272c0.0369,-1.40179 0,-2.76671 -0.11067,-4.09472c-0.11067,-1.36488 -0.31355,-2.61917 -0.60866,-3.76272c-0.2951,-1.18048 -0.70088,-2.1396 -1.21735,-2.87737c-0.95911,-1.29115 -2.30558,-1.64157 -4.03937,-1.05133c-0.44267,0.07377 -0.88535,0.2951 -1.32802,0.66401c-0.40577,0.332 -0.71933,0.70088 -0.94066,1.10668c-0.22134,0.332 -0.40577,0.9407 -0.55334,1.82604c-0.14753,0.88535 -0.27665,1.88136 -0.38732,2.98804c-0.22134,2.76671 -0.332,5.27521 -0.332,7.52544c0,2.25027 0.29514,4.5374 0.88535,6.86143c0.14757,0.40581 0.25824,0.83003 0.332,1.2727c0.11067,0.40581 0.23979,0.81158 0.38736,1.21735c0.18447,0.36891 0.42422,0.70091 0.71936,0.99601c0.29514,0.29514 0.68246,0.47957 1.16203,0.55334c0.40581,0.14757 0.81158,0.23979 1.21735,0.27669z"/></g></g></svg>