<svg version="1.1" xmlns="http://www.w3.org/2000/svg" xmlns:xlink="http://www.w3.org/1999/xlink" width="25.2122" height="46.90937" viewBox="0,0,25.2122,46.90937"><g transform="translate(-227.3939,-156.79532)"><g data-paper-data="{&quot;isPaintingLayer&quot;:true}" fill="#ff0000" fill-rule="nonzero" stroke="#000000" stroke-width="0" stroke-linecap="square" stroke-linejoin="miter" stroke-miterlimit="10" stroke-dasharray="" stroke-dashoffset="0" style="mix-blend-mode: normal"><path d="M231.19356,192.49227l-2.79977,-2.99975l20.39829,-18.44844c0.46662,-0.43331 0.94994,-0.63329 1.44989,-0.59995c0.5333,0 1.01659,0.23332 1.44989,0.69994c0.46662,0.46662 0.68327,0.98325 0.64996,1.54989c-0.03334,0.5333 -0.2833,0.99992 -0.74992,1.39988zM229.69368,203.44137c-0.6666,0 -1.21657,-0.19998 -1.64985,-0.59995c-0.43331,-0.43331 -0.64993,-0.98325 -0.64993,-1.64985v-42.09647c0,-0.6666 0.21665,-1.21657 0.64996,-1.64985c0.43331,-0.43331 0.98325,-0.64993 1.64988,-0.64993c0.6666,0 1.1999,0.21665 1.59987,0.64996c0.43331,0.43331 0.64996,0.98325 0.64996,1.64988v42.09647c0,0.6666 -0.21665,1.21657 -0.64993,1.64988c-0.39997,0.39997 -0.93327,0.59995 -1.59987,0.59995zM251.79183,203.14139c-0.5333,0.43331 -1.08324,0.61662 -1.64985,0.54997c-0.5333,-0.03334 -0.99992,-0.31665 -1.39988,-0.84991l-13.34887,-16.34861l3.24974,-2.84975l13.44889,16.49862c0.39997,0.49996 0.56661,1.01659 0.49996,1.54989c-0.03334,0.5333 -0.29997,1.01659 -0.79993,1.44989z"/></g></g></svg>