<svg version="1.1" xmlns="http://www.w3.org/2000/svg" xmlns:xlink="http://www.w3.org/1999/xlink" width="27.16923" height="33.20028" viewBox="0,0,27.16923,33.20028"><g transform="translate(-226.41539,-169.99986)"><g data-paper-data="{&quot;isPaintingLayer&quot;:true}" fill="#ff0000" fill-rule="nonzero" stroke="#000000" stroke-width="0" stroke-linecap="square" stroke-linejoin="miter" stroke-miterlimit="10" stroke-dasharray="" stroke-dashoffset="0" style="mix-blend-mode: normal"><path d="M250.48542,178.3549c-1.10668,2.80357 -1.89981,5.62563 -2.37935,8.46614c0.47954,2.65604 1.21735,5.40429 2.21336,8.2448c1.03288,2.80357 1.86291,5.4781 2.49005,8.02346c-0.22134,-0.0369 -0.42422,-0.05532 -0.60866,-0.05532c-0.18447,0 -0.38732,0 -0.60866,0c-0.47957,0 -1.01446,0.01845 -1.60467,0.05535c-0.55334,0 -1.08823,0 -1.60467,0c-0.18447,0 -0.53489,0 -1.05133,0c-0.47957,0 -0.99601,0 -1.54936,0c-0.55334,-0.0369 -1.08823,-0.05532 -1.60467,-0.05532c-0.51648,-0.0369 -0.82999,-0.09222 -0.94066,-0.16598h-0.11067c-0.332,-0.73781 -0.62714,-1.54936 -0.88535,-2.4347c-0.22134,-0.92225 -0.44267,-1.84449 -0.66401,-2.76671c-0.22134,-0.92225 -0.46112,-1.82601 -0.71933,-2.71135c-0.22134,-0.92225 -0.51648,-1.75224 -0.88535,-2.49002v-0.05532c-0.77468,1.73379 -1.36492,3.55983 -1.77069,5.4781c-0.40581,1.91823 -0.97756,3.6705 -1.71534,5.25676c-0.18447,0 -0.49799,0 -0.94066,0c-0.44267,0 -0.92225,0 -1.43869,0c-0.51648,0.03687 -1.01446,0.05535 -1.494,0.05535c-0.47957,0 -0.79313,0 -0.94066,0c-0.70091,0 -1.5309,-0.01845 -2.49002,-0.05532c-0.95915,0 -1.71534,-0.11067 -2.26868,-0.332c0.2951,-1.14358 0.66401,-2.37935 1.10668,-3.70737c0.47954,-1.36492 0.95911,-2.72984 1.43869,-4.09472c0.47954,-1.40182 0.9407,-2.80361 1.38337,-4.20539c0.44267,-1.40182 0.83003,-2.74826 1.16203,-4.03937c-0.55334,-2.72984 -1.36492,-5.49655 -2.4347,-8.30012c-1.06982,-2.84051 -2.12115,-5.57031 -3.15403,-8.18945c1.99203,-0.14757 3.54138,-0.22134 4.64807,-0.22134c0.40577,0 0.92221,0 1.54936,0c0.62711,0 1.2358,0 1.82604,0c0.62711,0 1.14355,0.01845 1.54936,0.05535c0.44267,0.03687 0.70088,0.09222 0.77468,0.16602c0.14753,0.62711 0.36887,1.47555 0.66401,2.54537c0.2951,1.03288 0.57179,2.08425 0.83003,3.15406c0.2951,1.06978 0.57179,2.12115 0.83003,3.15406c0.2951,0.99601 0.55334,1.78914 0.77468,2.37938c0.2582,-0.62714 0.51644,-1.43869 0.77468,-2.4347c0.2951,-0.99601 0.59021,-2.04734 0.88535,-3.15403c0.2951,-1.10668 0.55334,-2.1765 0.77468,-3.20938c0.2582,-1.03292 0.49802,-1.88136 0.71936,-2.54537c0.40577,-0.0369 1.01446,-0.05532 1.82604,-0.05532c0.81154,-0.0369 1.71538,-0.05532 2.71139,-0.05532c0.99601,-0.0369 2.01048,-0.05532 3.04339,-0.05532c1.06978,0 2.04738,0 2.93273,0h0.05535c0,0.03687 -0.01845,0.05535 -0.05532,0.05535c-0.88535,2.7298 -1.89981,5.49651 -3.04336,8.30012z" data-paper-data="{&quot;index&quot;:null}"/></g></g></svg>