<svg version="1.1" xmlns="http://www.w3.org/2000/svg" xmlns:xlink="http://www.w3.org/1999/xlink" width="29.08894" height="47.03421" viewBox="0,0,29.08894,47.03421"><g transform="translate(-225.45553,-156.4829)"><g data-paper-data="{&quot;isPaintingLayer&quot;:true}" fill="#ff0000" fill-rule="nonzero" stroke="#000000" stroke-width="0" stroke-linecap="square" stroke-linejoin="miter" stroke-miterlimit="10" stroke-dasharray="" stroke-dashoffset="0" style="mix-blend-mode: normal"><path d="M225.89804,188.63175l9.4068,-0.332v0.05535c0,0.07377 0,0.12912 0,0.16602c0.0369,0.0369 0.05535,0.07377 0.05535,0.11067c0.18447,1.62312 0.66401,2.7298 1.43869,3.32005c0.81158,0.55334 1.71538,0.71936 2.71139,0.49802c1.54936,-0.25824 2.67449,-0.97756 3.3754,-2.15801c0.73778,-1.21735 1.10668,-2.52692 1.10668,-3.9287c0,-1.43869 -0.35046,-2.78516 -1.05133,-4.03937c-0.66401,-1.29112 -1.64157,-2.1396 -2.93273,-2.54537c-1.14355,-0.18444 -2.34248,-0.25824 -3.5967,-0.22134c-1.25422,0.0369 -2.52692,0.09222 -3.81804,0.16602c-1.29112,0.0369 -2.52692,0.07377 -3.70737,0.11067c-1.18045,0.0369 -2.23182,0.01845 -3.15403,-0.05532c-0.11067,0 -0.16598,-0.01845 -0.16598,-0.05532c0,-2.21336 0,-4.24229 0,-6.08675c0,-1.88136 -0.01845,-3.70737 -0.05532,-5.47806c0,-1.80759 -0.01845,-3.61515 -0.05532,-5.42274c0,-1.80759 0,-3.74427 0,-5.81006h0.05535c0.14757,0 0.9038,-0.01845 2.26872,-0.05532c1.36492,-0.0369 3.04339,-0.07377 5.03542,-0.11067c1.99203,-0.07377 4.15008,-0.12912 6.47411,-0.16598c2.32403,-0.0369 4.50053,-0.05532 6.52943,-0.05532c2.02889,-0.0369 3.76272,-0.05532 5.20141,-0.05532c1.43869,0 2.32403,0.01845 2.65604,0.05535c0.03687,0.0369 0.05535,0.2951 0.05535,0.77468c0,0.47957 0,1.06978 0,1.77069c0,0.70091 -0.01845,1.47559 -0.05532,2.32403c-0.0369,0.84844 -0.0738,1.62312 -0.11067,2.32403c-0.0369,0.70091 -0.0738,1.30957 -0.11067,1.82604c0,0.51644 0,0.77468 0,0.77468c-0.29514,0.0369 -0.92225,0.07377 -1.88136,0.11067c-0.92225,0.0369 -2.02893,0.07377 -3.32005,0.11067c-1.25425,0 -2.58227,0.0369 -3.98406,0.11067c-1.36492,0.0369 -2.67449,0.07377 -3.92874,0.11067c-1.21735,0 -2.28713,0 -3.20938,0c-0.88535,0 -1.45714,0 -1.71534,0h-0.05532v0.11067v0.05535c0,0.07377 0,0.12912 0,0.16602c0.0369,0 0.05535,0.01845 0.05535,0.05535c0.11067,0.36891 0.16602,0.77468 0.16602,1.21735c0,0.40577 0.0738,0.75623 0.22134,1.05137l0.11067,0.05535l0.05535,0.05535h0.05535c2.4716,-0.47957 4.77718,-0.51644 6.91678,-0.11067c2.65604,0.36891 4.7956,1.38337 6.41876,3.04339c1.62312,1.66002 2.85892,3.6705 3.7074,6.03144c0.84844,2.32403 1.32802,4.85095 1.43869,7.58079c0.11067,2.7298 -0.01845,5.38584 -0.38732,7.96811c-0.44267,2.02893 -1.45714,3.76272 -3.04336,5.20141c-1.58626,1.43869 -3.44917,2.50847 -5.58873,3.20938c-2.1396,0.70091 -4.38986,1.05137 -6.75076,1.05137c-2.3609,0 -4.5374,-0.38732 -6.52943,-1.162c-1.95513,-0.81158 -3.57825,-2.01048 -4.8694,-3.5967c-1.25422,-1.62312 -1.86291,-3.6705 -1.82601,-6.14207c0,-1.14358 0.12912,-2.4347 0.38736,-3.87339z"/></g></g></svg>