<svg version="1.1" xmlns="http://www.w3.org/2000/svg" xmlns:xlink="http://www.w3.org/1999/xlink" width="25.40553" height="33.45876" viewBox="0,0,25.40553,33.45876"><g transform="translate(-227.29724,-170.47062)"><g data-paper-data="{&quot;isPaintingLayer&quot;:true}" fill="#ff0000" fill-rule="nonzero" stroke="#000000" stroke-width="0" stroke-linecap="square" stroke-linejoin="miter" stroke-miterlimit="10" stroke-dasharray="" stroke-dashoffset="0" style="mix-blend-mode: normal"><path d="M243.01208,200.64584c-0.332,0.18447 -0.60866,0.35046 -0.82999,0.49802c-0.92225,0.66401 -1.95516,1.1989 -3.09871,1.60471c-1.14358,0.40581 -2.32403,0.62714 -3.54138,0.66401c-1.21735,0.0369 -2.39784,-0.09222 -3.54138,-0.38732c-1.14358,-0.2951 -2.1765,-0.84844 -3.09871,-1.66002c-0.44267,-0.40577 -0.79313,-1.2358 -1.05133,-2.49002c-0.22134,-1.25422 -0.36891,-2.74826 -0.44267,-4.48205c-0.0738,-1.77069 -0.11067,-3.70737 -0.11067,-5.81006c0.03687,-2.1027 0.07377,-4.22384 0.11067,-6.36341c0.07377,-2.13956 0.12912,-4.18694 0.16602,-6.14207c0.03687,-1.99203 0.01845,-3.74427 -0.05532,-5.25672c1.51245,-0.22134 2.87737,-0.31355 4.09472,-0.27665c1.21735,0.0369 2.60072,0.05535 4.15008,0.05535c0.07377,0.99601 0.11067,2.1396 0.11067,3.43072c0,1.25425 -0.01845,2.56382 -0.05532,3.92874c0,1.36492 0,2.72984 0,4.09472c0.03687,1.36492 0.11067,2.65604 0.22134,3.87339c0.03687,0.51648 0.07377,1.10668 0.11067,1.77069c0.03687,0.62714 0.11067,1.25425 0.22134,1.88136c0.11067,0.59024 0.2582,1.12513 0.44267,1.60471c0.22134,0.47957 0.49802,0.84848 0.83003,1.10668c0.07377,0.0738 0.12912,0.11067 0.16602,0.11067c0.03687,0 0.07377,0.01845 0.11067,0.05535c0.36887,0.18447 0.88535,0.332 1.54936,0.44267c0.70088,0.11067 1.38337,0.0738 2.04738,-0.11067c0.66401,-0.22134 1.25422,-0.62711 1.77069,-1.21735c0.51644,-0.59021 0.83003,-1.494 0.9407,-2.71135c0.07377,-1.47555 0.09222,-2.95114 0.05535,-4.42673c-0.0369,-1.51245 -0.09222,-3.00649 -0.16598,-4.48205c-0.0738,-1.47555 -0.12912,-2.93269 -0.16598,-4.37138c0,-1.47555 0.11067,-2.95114 0.332,-4.42673v-0.22134c0.73778,-0.22134 1.38337,-0.35046 1.93671,-0.38732c0.55334,-0.07377 1.10668,-0.09222 1.66002,-0.05532c0.59021,0 1.2358,0.0369 1.93671,0.11067c0.70088,0.0369 1.58622,0 2.65604,-0.11067c0,5.42274 0.05535,10.84549 0.16602,16.26823c0.11067,5.42274 0.07377,11.04837 -0.11067,16.87692c-0.51648,-0.07377 -0.95915,-0.11067 -1.32802,-0.11067c-0.332,-0.03687 -0.66401,-0.05532 -0.99601,-0.05532c-0.29514,0 -0.62714,0.01845 -0.99601,0.05535c-0.332,0 -0.75623,0.0369 -1.27267,0.11067c-0.18447,0 -0.49799,0.0369 -0.94066,0.11067c-0.44267,0.0369 -0.88535,0.0738 -1.32802,0.11067c-0.44267,0.0738 -0.84848,0.09222 -1.21735,0.05535c-0.332,-0.03687 -0.49799,-0.11067 -0.49799,-0.22134c-0.0738,-0.73778 -0.11067,-1.34647 -0.11067,-1.82601c0.03687,-0.51644 0.03687,-1.06978 0,-1.66002c-0.22134,0.11067 -0.49799,0.25824 -0.82999,0.44267z"/></g></g></svg>