<svg version="1.1" xmlns="http://www.w3.org/2000/svg" xmlns:xlink="http://www.w3.org/1999/xlink" width="33.19727" height="33.24728" viewBox="0,0,33.19727,33.24728"><g transform="translate(-223.40137,-170.37636)"><g data-paper-data="{&quot;isPaintingLayer&quot;:true}" fill="#ff0000" fill-rule="nonzero" stroke="#000000" stroke-width="0" stroke-linecap="square" stroke-linejoin="miter" stroke-miterlimit="10" stroke-dasharray="" stroke-dashoffset="0" style="mix-blend-mode: normal"><path d="M239.99995,203.62353c-3.19973,0 -6.04948,-0.71661 -8.54927,-2.1498c-2.49979,-1.43322 -4.46628,-3.39972 -5.89951,-5.89951c-1.43322,-2.49979 -2.1498,-5.34954 -2.1498,-8.54927c0,-3.23307 0.71661,-6.09949 2.14984,-8.59928c1.43322,-2.49979 3.39972,-4.46628 5.89951,-5.89951c2.49979,-1.43322 5.34957,-2.1498 8.5493,-2.1498c3.16639,0 5.9995,0.71661 8.49929,2.14984c2.49979,1.43322 4.46628,3.39972 5.89951,5.89951c1.43322,2.49979 2.16647,5.36621 2.19982,8.59928c0,3.19973 -0.73328,6.04951 -2.19982,8.5493c-1.43322,2.49979 -3.39972,4.46628 -5.89951,5.89951c-2.49979,1.43322 -5.3329,2.14984 -8.49929,2.14984zM239.99995,199.42388c2.29981,0 4.36629,-0.5333 6.19948,-1.59987c1.83319,-1.06657 3.26638,-2.53313 4.29964,-4.39963c1.03326,-1.8665 1.54989,-3.99966 1.54989,-6.39946c0,-2.3998 -0.51663,-4.53296 -1.54985,-6.39946c-1.03326,-1.89984 -2.46645,-3.38304 -4.29964,-4.44961c-1.83319,-1.09991 -3.89967,-1.64985 -6.19948,-1.64985c-2.29981,0 -4.36629,0.54997 -6.19948,1.64988c-1.83319,1.06657 -3.28305,2.5498 -4.34962,4.44964c-1.06657,1.8665 -1.59987,3.99966 -1.59987,6.39946c0,2.3998 0.5333,4.53296 1.59987,6.39946c1.06657,1.8665 2.51646,3.33306 4.34965,4.39963c1.83319,1.06657 3.89967,1.59987 6.19948,1.59987z"/></g></g></svg>