<svg version="1.1" xmlns="http://www.w3.org/2000/svg" xmlns:xlink="http://www.w3.org/1999/xlink" width="45.95213" height="46.54787" viewBox="0,0,45.95213,46.54787"><g transform="translate(-217.02393,-156.72607)"><g data-paper-data="{&quot;isPaintingLayer&quot;:true}" fill="#ff0000" fill-rule="nonzero" stroke="#000000" stroke-width="0" stroke-linecap="square" stroke-linejoin="miter" stroke-miterlimit="10" stroke-dasharray="" stroke-dashoffset="0" style="mix-blend-mode: normal"><path d="M251.01438,156.72607h9.63429c0.79381,0 1.37116,0.19846 1.732,0.5954c0.39691,0.36084 0.5954,0.93819 0.5954,1.732v25.11413c0,1.37119 -0.05411,2.65215 -0.16236,3.84291c-0.10825,1.15469 -0.45105,2.54391 -1.02836,4.16766l-3.24752,8.7683c-0.2165,0.64951 -0.52321,1.20881 -0.92011,1.6779c-0.39694,0.433 -0.93819,0.64951 -1.62376,0.64951h-8.6059c-0.6856,0 -1.31705,-0.14431 -1.89437,-0.433c-0.54125,-0.32475 -0.9021,-0.82991 -1.08251,-1.51551l-2.97687,-10.5003c-0.14434,-0.433 -0.3067,-0.72165 -0.48711,-0.86601c-0.18044,-0.1804 -0.41495,-0.27061 -0.70361,-0.27061h-0.54125c-0.2526,0 -0.48711,0.0902 -0.70361,0.27064c-0.18044,0.14434 -0.3428,0.433 -0.48711,0.86601l-3.03102,10.5003c-0.18044,0.64951 -0.50519,1.13665 -0.97425,1.4614c-0.4691,0.32475 -1.04645,0.48714 -1.732,0.48714h-8.5518c-0.6856,0 -1.28096,-0.2165 -1.78612,-0.64951c-0.4691,-0.433 -0.81187,-0.99231 -1.02836,-1.67786l-3.24752,-8.93065c-0.54125,-1.58766 -0.86601,-2.97687 -0.97425,-4.16763c-0.10825,-1.19075 -0.16236,-2.47171 -0.16236,-3.84288v-24.95173c0,-0.79381 0.1804,-1.37116 0.54125,-1.732c0.36081,-0.39691 0.95621,-0.59536 1.78615,-0.59536h9.95905c0.79381,0 1.37116,0.19846 1.732,0.5954c0.36081,0.36084 0.54125,0.93819 0.54125,1.732v23.81512l3.78877,-8.1729c0.32475,-0.72165 0.75775,-1.22682 1.29901,-1.51551c0.57731,-0.32475 1.28096,-0.48711 2.1109,-0.48711h2.70627c0.82991,0 1.51551,0.1624 2.05676,0.48714c0.57731,0.2887 1.02839,0.79385 1.35315,1.51551l3.78877,8.17293v-23.81512c0,-0.79381 0.1804,-1.37116 0.54125,-1.732c0.36081,-0.39691 0.95621,-0.59536 1.78615,-0.59536z"/></g></g></svg>