<svg version="1.1" xmlns="http://www.w3.org/2000/svg" xmlns:xlink="http://www.w3.org/1999/xlink" width="53.45824" height="46.64623" viewBox="0,0,53.45824,46.64623"><g transform="translate(-213.27088,-156.67688)"><g data-paper-data="{&quot;isPaintingLayer&quot;:true}" fill="#ff0000" fill-rule="nonzero" stroke="#000000" stroke-width="0" stroke-linecap="square" stroke-linejoin="miter" stroke-miterlimit="10" stroke-dasharray="" stroke-dashoffset="0" style="mix-blend-mode: normal"><path d="M228.03802,203.32297c-0.56661,0 -1.06657,-0.16664 -1.49987,-0.49996c-0.39997,-0.36663 -0.68327,-0.83327 -0.84991,-1.39988l-12.24896,-41.39653c-0.26663,-0.93327 -0.21665,-1.71653 0.15,-2.34979c0.39997,-0.6666 1.01659,-0.99992 1.84986,-0.99992c0.46662,0 0.89992,0.13333 1.29989,0.39997c0.43331,0.26663 0.74995,0.73328 0.94994,1.39988l11.04909,38.44679h-1.34987l10.44914,-37.39687c0.09999,-0.46662 0.34999,-0.83327 0.74995,-1.09991c0.43331,-0.26663 0.9166,-0.39997 1.44989,-0.39997c0.46662,0 0.9166,0.13333 1.3499,0.39997c0.43331,0.23332 0.71661,0.61662 0.84994,1.14992l10.49912,37.34689h-1.34987l11.09907,-38.64675c0.26663,-1.06657 1.01659,-1.59987 2.24983,-1.59987c0.83327,0 1.39988,0.33332 1.69986,0.99992c0.33332,0.6666 0.3833,1.44989 0.15,2.34982l-12.14897,41.34655c-0.19998,0.63329 -0.51663,1.11658 -0.9499,1.44989c-0.39997,0.33332 -0.88325,0.49996 -1.44986,0.49996c-0.56661,0 -1.06657,-0.16664 -1.49987,-0.49996c-0.39997,-0.36663 -0.68327,-0.83327 -0.84991,-1.39988l-10.39913,-37.89682h1.44989l-10.29914,37.84685c-0.19998,0.59995 -0.51663,1.08324 -0.9499,1.44989c-0.39997,0.33332 -0.88325,0.49996 -1.44986,0.49996z"/></g></g></svg>