<svg version="1.1" xmlns="http://www.w3.org/2000/svg" xmlns:xlink="http://www.w3.org/1999/xlink" width="29.10587" height="46.25912" viewBox="0,0,29.10587,46.25912"><g transform="translate(-225.44706,-156.87044)"><g data-paper-data="{&quot;isPaintingLayer&quot;:true}" fill="#ff0000" fill-rule="nonzero" stroke="#000000" stroke-width="0" stroke-linecap="square" stroke-linejoin="miter" stroke-miterlimit="10" stroke-dasharray="" stroke-dashoffset="0" style="mix-blend-mode: normal"><path d="M252.50519,162.7908c-0.70088,1.91823 -1.38334,3.85494 -2.04734,5.8101c-0.66401,1.95513 -1.27267,3.94716 -1.82601,5.97608c-0.51648,1.99203 -0.94066,4.00251 -1.27267,6.03144c0.332,1.84446 0.75623,3.72582 1.2727,5.64408c0.51648,1.88136 1.05137,3.76272 1.60471,5.64408c0.59021,1.84446 1.16203,3.7074 1.71538,5.58876c0.59021,1.88136 1.10668,3.72582 1.54936,5.53341c-0.29514,-0.0738 -0.57179,-0.11067 -0.82999,-0.11067c-0.2582,0 -0.55334,0 -0.88535,0c-0.70088,0 -1.40182,0.03687 -2.1027,0.11067c-0.66401,0.03687 -1.36488,0.05535 -2.1027,0.05535c-1.10668,0 -2.08425,-0.09222 -2.93269,-0.27665l-0.05532,-0.05532c-0.47954,-1.06982 -0.9038,-2.23182 -1.27267,-3.48603c-0.332,-1.29115 -0.66401,-2.60069 -0.99601,-3.9287c-0.29514,-1.32802 -0.60866,-2.61917 -0.94066,-3.87339c-0.332,-1.29115 -0.75623,-2.4716 -1.27267,-3.54138l-0.05532,-0.05532c-0.59021,1.29112 -1.06982,2.58224 -1.43869,3.87339c-0.36887,1.29112 -0.73781,2.60072 -1.10668,3.92874c-0.332,1.29112 -0.70088,2.56382 -1.10668,3.81807c-0.36887,1.25422 -0.81154,2.4347 -1.32802,3.54138c-0.47954,0.03687 -0.99601,0.07377 -1.54936,0.11067c-0.51648,0 -1.03288,0 -1.54936,0c-0.99601,0 -2.02889,-0.01845 -3.09871,-0.05532c-1.03288,-0.0369 -1.95516,-0.22134 -2.76671,-0.55334c0.44267,-1.62316 0.95915,-3.35695 1.54936,-5.20141c0.62714,-1.84449 1.25422,-3.72585 1.88136,-5.64408c0.66401,-1.91826 1.29115,-3.83652 1.88136,-5.75475c0.62714,-1.95516 1.14355,-3.85494 1.54936,-5.6994c-0.73781,-3.87339 -1.82601,-7.67301 -3.2647,-11.39883c-1.40182,-3.72585 -2.82202,-7.47009 -4.26071,-11.23281c1.40182,-0.0738 2.65604,-0.12912 3.76272,-0.16598c1.10668,-0.0369 2.04738,-0.05532 2.82206,-0.05532c1.18048,0 2.01048,0 2.49005,0c0.51648,0 0.83003,0.11067 0.9407,0.332c0.2582,0.92221 0.59021,2.04738 0.99601,3.3754c0.40581,1.29112 0.79313,2.61914 1.16203,3.98406c0.40581,1.36488 0.79313,2.71139 1.16203,4.03941c0.40581,1.29112 0.75623,2.34248 1.05137,3.15406c0.40581,-0.84848 0.81154,-1.93668 1.21735,-3.2647c0.44267,-1.32802 0.84848,-2.69294 1.21735,-4.09472c0.40581,-1.43869 0.77468,-2.84051 1.10668,-4.20539c0.36887,-1.36492 0.70088,-2.52692 0.99601,-3.48603v-0.05532c1.18048,-0.0738 2.52692,-0.12912 4.03941,-0.16598c1.54936,-0.0738 3.57825,-0.11067 6.08675,-0.11067h0.05535c0,0.03687 -0.01845,0.05535 -0.05532,0.05535c0,0 0,0.03687 0,0.11067c-0.62714,1.91823 -1.29115,3.83649 -1.99203,5.75475z"/></g></g></svg>