<svg version="1.1" xmlns="http://www.w3.org/2000/svg" xmlns:xlink="http://www.w3.org/1999/xlink" width="120.63826" height="106.53434" viewBox="0,0,120.63826,106.53434"><defs><linearGradient x1="438.71453" y1="-69.22706" x2="142.80109" y2="339.82762" gradientUnits="userSpaceOnUse" id="color-1"><stop offset="0" stop-color="#000000"/><stop offset="1" stop-color="#000000" stop-opacity="0"/></linearGradient></defs><g transform="translate(-179.68087,-126.73283)"><g data-paper-data="{&quot;isPaintingLayer&quot;:true}" fill-rule="nonzero" stroke-linejoin="miter" stroke-miterlimit="10" stroke-dasharray="" stroke-dashoffset="0" style="mix-blend-mode: normal"><path d="M266.59276,127.63588l33.06127,38.81106l-4.27432,4.60421c-2.45764,-1.64012 -4.91528,-3.28024 -7.37291,-4.92035c-2.91101,-1.94268 -5.78821,-3.92698 -8.657,-5.93142c-2.74179,-1.91571 -5.93231,-4.27581 -9.18613,-5.16116c-2.42994,-0.66118 -5.40518,-1.97032 -7.99447,-2.21444c0.0082,-0.00985 0.0164,-0.01969 0.02461,-0.02955c0,0 0.16005,-0.19206 -0.03201,-0.3521c-0.19206,-0.16005 -0.3521,0.03201 -0.3521,0.03201c-0.08688,0.10426 -0.17313,0.20833 -0.25876,0.31226c-0.04991,-0.00121 -0.09964,-0.00195 -0.14918,-0.00221c0,0 -0.25,0 -0.25,0.25c0,0.07837 0.02457,0.13217 0.0583,0.16911c-1.71631,2.11569 -3.19203,4.19202 -4.6349,6.55612c-1.82654,2.99273 -3.63276,5.98339 -5.34594,9.04264c-1.7096,3.05286 -3.2864,6.19463 -4.85168,9.32404c-1.57028,3.13942 -3.16167,6.25166 -4.53556,9.48246c-1.35133,3.17775 -2.72426,6.48572 -3.46247,9.87259c-0.20863,0.6593 -1.07275,2.21209 -0.98333,2.86289c0.24179,1.75965 3.33686,4.92136 4.57902,6.11164c2.50836,2.4036 4.92392,5.07454 7.66943,7.20245c1.19819,0.92866 2.39639,1.85733 3.59458,2.78599l-14.77932,15.92001l-58.11391,-67.35464l31.62382,-37.16826z" fill="#79d481" stroke="#79d481" stroke-width="0.5" stroke-linecap="butt"/><path d="M266.75673,127.15019l33.06127,38.81106l-61.19415,65.91719l-58.11391,-67.35464l31.62382,-37.16826z" fill="#79d481" stroke="#79d481" stroke-width="0.5" stroke-linecap="round"/><path d="M253.3447,215.59053c-1.20994,-0.93777 -2.41988,-1.87553 -3.62982,-2.8133c-2.7314,-2.11698 -5.13426,-4.77695 -7.62979,-7.16826c-1.18585,-1.13632 -4.17604,-4.17242 -4.43002,-5.82165c-0.07903,-0.51317 0.79533,-2.11351 0.97142,-2.66265c0.73209,-3.36423 2.09738,-6.64985 3.43958,-9.80614c1.36985,-3.2213 2.95694,-6.32424 4.52262,-9.45446c1.5618,-3.12245 3.13495,-6.25733 4.84075,-9.30341c1.71013,-3.0538 3.51318,-6.03905 5.33647,-9.02646c1.48388,-2.43129 2.99826,-4.5496 4.7808,-6.72793c2.60954,0.11911 5.76836,1.55356 8.24965,2.22871c3.19607,0.86964 6.33711,3.20631 9.03103,5.08856c2.87171,2.00648 5.75186,3.9928 8.66583,5.93745c2.4353,1.62521 4.87059,3.25042 7.30589,4.87563z" fill="#11e324" stroke="#11e324" stroke-width="0.5" stroke-linecap="butt"/><path d="M210.76628,159.02957l0.47889,0.39407l1.63839,0.98298l4.62832,2.9891l9.26475,4.96495l9.49924,4.22107l7.01322,2.67155l2.14814,1.4949l2.10935,10.23113c0,0 1.1096,6.90537 1.68388,10.35329c0.14669,1.41016 0.40904,2.85706 0.50295,4.27884h-0.05045c-0.84083,0.0373 -1.244,1.34036 -1.41664,2.13782c-0.50957,2.35378 -1.87095,6.87365 -1.87095,6.87365l-1.95329,4.00494l-1.49388,5.62766l-3.37751,5.99325l-1.55142,2.02936l-2.96684,-0.72953l-0.49124,-2.65367l-1.14488,-1.9565l-1.58718,-2.11312l-3.13607,-1.47396l-0.8151,-2.64632l-2.4922,-5.48974l-2.12291,-2.72848l-3.29234,-5.51084l-2.73746,-1.12235l-5.0041,-2.79025l-1.07072,-4.10526l-2.28695,-9.03212l-2.54304,-9.37849l1.24262,-9.31556l3.32646,-7.74185l-0.08575,-0.343l-0.06197,-0.02895z" fill="#40d74d" stroke="#40d74d" stroke-width="0.5" stroke-linecap="butt"/><path d="M238.45718,232.0451l-3.17697,-3.68214c-0.04403,-1.17448 -0.09282,-2.34911 -0.13956,-3.52461c-0.13906,-3.49723 -0.27812,-6.99447 -0.41718,-10.49171c-0.13944,-3.50678 -0.44945,-6.9865 -0.76069,-10.48189c-0.31042,-3.48621 -0.62084,-6.97242 -0.93126,-10.45862c-0.27766,-3.11825 -0.7269,-6.22479 -1.13804,-9.32996c2.48624,0.2272 4.97025,0.39055 7.47428,0.52469c3.49499,0.18723 6.98998,0.37446 10.48497,0.56169c3.49499,0.18723 6.98997,0.37447 10.48496,0.5617c3.49014,0.18697 7.01667,0.05385 10.51194,0.05385c3.5,0 7,0 10.5,0c0.01982,0 0.03964,-0.00001 0.05946,-0.00001z" fill="#0f9b1b" stroke="#0f9b1b" stroke-width="0.5" stroke-linecap="butt"/><path d="M220.47038,127.54497c1.51735,0.00118 3.03471,0.00234 4.55205,0.00352c3.4704,0.00268 6.93868,-0.02108 10.40879,-0.06578c3.49971,-0.04509 6.99942,-0.09017 10.49913,-0.13526c3.49971,-0.04509 6.99942,-0.09016 10.49913,-0.13525c0.83712,-0.01078 5.00523,-0.19668 5.83868,-0.22317c0.80643,3.05849 -1.679,6.27972 -1.00373,9.36823c0.74757,3.41923 1.49515,6.83846 2.24272,10.25769c0.7478,3.42026 1.49259,6.82507 2.07179,10.2782c0.57897,3.45178 13.82461,-1.59644 14.40358,1.85534c0.16,0.9539 10.65465,16.74038 10.81355,17.69364z" fill="#89ea8f" stroke="#89ea8f" stroke-width="0.5" stroke-linecap="butt"/><path d="M266.92337,127.31683l33.06127,38.81106l-9.50673,10.24048c-6.05317,-5.15823 -31.83809,-21.35368 -37.09777,-26.01651c-0.08214,-0.07282 5.87641,-21.49856 6.42485,-23.00826z" fill="#5bb260" stroke="#5bb260" stroke-width="0.5" stroke-linecap="butt"/><path d="M237.62385,231.43399l-57.61391,-66.91019l31.62382,-37.16826l7.4889,-0.02815c-0.66995,4.32072 -10.98965,48.14121 -10.98965,48.14121z" fill="#bbffc2" stroke="#bbffc2" stroke-width="0.5" stroke-linecap="butt"/><path d="M239.70649,143.81146c1.18768,1.86734 19.86747,12.20653 19.86747,12.20653l-31.73076,63.96343l-25.42682,-29.74782c0,0 13.66931,-35.63775 17.86263,-41.43436c7.50856,-10.37941 19.42749,-4.98777 19.42749,-4.98777z" fill="url(#color-1)" stroke="none" stroke-width="0" stroke-linecap="butt"/><path d="M257.00464,199.30521h-19.53125c-6.66666,0 -11.61458,-1.33334 -14.84375,-4c-3.21875,-2.66666 -4.82812,-6.77084 -4.82812,-12.3125v-24.89062c0,-5.54166 1.60938,-9.65625 4.82813,-12.34375c3.22917,-2.69791 8.17709,-4.04687 14.84375,-4.04687h19.53125c1.01042,0 1.73959,0.22916 2.1875,0.6875c0.45834,0.44791 0.6875,1.17709 0.6875,2.1875v9.67188c0,1.02084 -0.22916,1.76041 -0.6875,2.21875c-0.44791,0.44791 -1.17708,0.67188 -2.1875,0.67188h-16.07812c-1.65625,0 -2.88542,0.33334 -3.6875,1c-0.80208,0.66666 -1.20312,1.66666 -1.20312,3v19.03125c0,1.33334 0.40104,2.30729 1.20313,2.92188c0.80209,0.61459 2.03125,0.92188 3.6875,0.92188h16.07812c1.01042,0 1.73959,0.22916 2.1875,0.6875c0.45834,0.44791 0.6875,1.17709 0.6875,2.1875v9.53125c0,1.01041 -0.22916,1.74479 -0.6875,2.20313c-0.44791,0.44791 -1.17708,0.67188 -2.1875,0.67188z" fill="#ffffff" stroke="none" stroke-width="1" stroke-linecap="square"/><path d="M247.45027,182.9267h-8.875c-0.23959,0 -0.41146,-0.05209 -0.51562,-0.15625c-0.10416,-0.10416 -0.15625,-0.27604 -0.15625,-0.51562v-3.20312c0,-0.72916 0.06771,-1.32291 0.20313,-1.78125c0.14584,-0.46875 0.34896,-0.84896 0.60938,-1.14062c0.26041,-0.30209 0.57291,-0.54166 0.9375,-0.71875c0.36459,-0.17709 0.75521,-0.32812 1.17188,-0.45312l2.5,-0.78125c0.19791,-0.05209 0.32813,-0.125 0.39063,-0.21875c0.07291,-0.10416 0.10938,-0.25521 0.10938,-0.45312c0,-0.1875 -0.03646,-0.3125 -0.10937,-0.375c-0.07291,-0.07291 -0.20312,-0.10937 -0.39062,-0.10937h-4.04687c-0.23959,0 -0.41146,-0.05209 -0.51562,-0.15625c-0.10416,-0.10416 -0.15625,-0.27604 -0.15625,-0.51562v-2.1875c0,-0.22916 0.05209,-0.39584 0.15625,-0.5c0.10416,-0.11459 0.27604,-0.17187 0.51563,-0.17187h5.5c1.0625,0 1.875,0.26563 2.4375,0.79688c0.5625,0.53125 0.84375,1.30209 0.84375,2.3125v1.75c0,0.92709 -0.26041,1.64063 -0.78125,2.14063c-0.52084,0.5 -1.22916,0.88541 -2.125,1.15625l-2.53125,0.79688c-0.1875,0.05209 -0.31771,0.10938 -0.39062,0.17188c-0.0625,0.0625 -0.09375,0.19271 -0.09375,0.39063v0.39063h5.3125c0.23959,0 0.41146,0.05729 0.51563,0.17188c0.10416,0.10416 0.15625,0.27084 0.15625,0.5v2.1875c0,0.23959 -0.05209,0.41146 -0.15625,0.51563c-0.10416,0.10416 -0.27604,0.15625 -0.51562,0.15625zM256.69975,182.9267h-5.92187c-0.23959,0 -0.41146,-0.05209 -0.51562,-0.15625c-0.10416,-0.10416 -0.15625,-0.27604 -0.15625,-0.51562v-2.1875c0,-0.22916 0.05209,-0.39584 0.15625,-0.5c0.10416,-0.11459 0.27604,-0.17187 0.51563,-0.17187h4.8125c0.14584,0 0.26563,-0.03125 0.35938,-0.09375c0.09375,-0.07291 0.14063,-0.18229 0.14063,-0.32812v-0.73437c0,-0.14584 -0.04687,-0.25 -0.14062,-0.3125c-0.09375,-0.07291 -0.21354,-0.10937 -0.35937,-0.10937h-4.625c-0.23959,0 -0.41146,-0.05209 -0.51562,-0.15625c-0.10416,-0.10416 -0.15625,-0.27604 -0.15625,-0.51562v-6.98437c0,-0.22916 0.05209,-0.39584 0.15625,-0.5c0.10416,-0.11459 0.27604,-0.17187 0.51563,-0.17187h8.03125c0.23959,0 0.41146,0.05729 0.51563,0.17188c0.10416,0.10416 0.15625,0.27084 0.15625,0.5v2.21875c0,0.23959 -0.05209,0.41146 -0.15625,0.51563c-0.10416,0.10416 -0.27604,0.15625 -0.51562,0.15625h-4.46875v1.21875h2.54688c1.01041,0 1.80729,0.25 2.39063,0.75c0.58334,0.5 0.875,1.23959 0.875,2.21875v2.59375c0,0.94791 -0.32812,1.70313 -0.98437,2.26563c-0.64584,0.55209 -1.53125,0.82813 -2.65625,0.82813z" fill="#ffffff" stroke="none" stroke-width="1" stroke-linecap="square"/></g></g></svg>