<svg version="1.1" xmlns="http://www.w3.org/2000/svg" xmlns:xlink="http://www.w3.org/1999/xlink" width="677.43027" height="659.67061" viewBox="0,0,677.43027,659.67061"><defs><linearGradient x1="227.00001" y1="-9.6875" x2="227.00001" y2="330.3125" gradientUnits="userSpaceOnUse" id="color-1"><stop offset="0" stop-color="#5362ff"/><stop offset="1" stop-color="#5362ff" stop-opacity="0"/></linearGradient><linearGradient x1="229.56973" y1="318.0625" x2="229.56973" y2="336.0625" gradientUnits="userSpaceOnUse" id="color-2"><stop offset="0" stop-color="#2e7487"/><stop offset="1" stop-color="#2e6a86"/></linearGradient><linearGradient x1="229.56973" y1="318.0625" x2="229.56973" y2="336.0625" gradientUnits="userSpaceOnUse" id="color-3"><stop offset="0" stop-color="#2e7487"/><stop offset="1" stop-color="#2e6a86"/></linearGradient><radialGradient cx="481.00003" cy="2" r="144.5" gradientUnits="userSpaceOnUse" id="color-4"><stop offset="0" stop-color="#ff996f"/><stop offset="1" stop-color="#ff996f" stop-opacity="0"/></radialGradient><linearGradient x1="333.71242" y1="240.08621" x2="333.71242" y2="336.56702" gradientUnits="userSpaceOnUse" id="color-5"><stop offset="0" stop-color="#49a1ab"/><stop offset="1" stop-color="#0f4e6a"/></linearGradient></defs><g transform="translate(51.93026,142.5)"><g data-paper-data="{&quot;isPaintingLayer&quot;:true}" fill-rule="nonzero" stroke-linejoin="miter" stroke-miterlimit="10" stroke-dasharray="" stroke-dashoffset="0" style="mix-blend-mode: normal"><path d="M-6.5,367.80001v-377h507v377z" fill="#66c6ff" stroke="none" stroke-width="2.5" stroke-linecap="butt"/><path d="M-26.99999,330.3125v-340h508v340z" fill="url(#color-1)" stroke="none" stroke-width="15" stroke-linecap="butt"/><g fill="none" stroke="#ffffff" stroke-width="25" stroke-linecap="round"><path d="M365.50001,35h-55"/><path d="M285.50001,55h127"/></g><path d="M-35.93025,364.0625v-29h531v29z" fill="#2e6a86" stroke="none" stroke-width="0" stroke-linecap="butt"/><path d="M-35.93025,336.0625v-18h531v18z" fill="url(#color-2)" stroke="none" stroke-width="0" stroke-linecap="butt"/><path d="M-35.93026,364.0625v-29h531v29z" fill="#2e6a86" stroke="none" stroke-width="0" stroke-linecap="butt"/><path d="M285.91898,301.68362l-7.20857,-30.59464c0,0 16.77044,-0.83034 27.54243,-1.8203c15.19034,-1.396 33.67786,-1.51957 38.89808,-1.66947c10.84071,0.56462 36.1922,2.45506 52.29753,1.94919c27.49728,-0.86369 45.45528,-5.60092 55.26682,-5.54587c2.79769,-0.08221 50.81639,1.25937 58.12703,5.7062c2.04453,1.24362 4.43579,0.72884 4.43579,0.72884l-1.92532,23.9127z" data-paper-data="{&quot;index&quot;:null}" fill="#71f1e0" stroke="none" stroke-width="0" stroke-linecap="butt"/><path d="M-12.28946,307.47916l-8.91031,-8.28915l0.71882,-28.04827c0,0 53.73466,-2.25305 65.74587,-2.32938c7.17784,-0.04562 17.85327,5.52874 48.11083,6.12984c27.80835,0.55244 41.10845,-6.14164 51.53944,-5.83511c9.81154,-0.05506 27.61938,5.37317 55.11666,6.23685c16.10533,0.50587 27.94331,-8.34202 38.78402,-8.90663c4.70831,0.1352 34.45597,5.12051 48.74004,6.41944c12.78366,1.1625 34.81827,4.62422 34.81827,4.62422l-10.81285,29.99817z" data-paper-data="{&quot;index&quot;:null}" fill="#71f1e0" stroke="none" stroke-width="0" stroke-linecap="butt"/><path d="M240.53528,302.77161l-6.01158,-25.51438c0,0 13.9857,-0.69247 22.96899,-1.51804c12.66797,-1.1642 28.08563,-1.26724 32.43903,-1.39225c9.0406,0.47086 30.18245,2.04739 43.61348,1.62552c22.93133,-0.72027 24.00824,-8.56265 32.19057,-8.51673c8.69891,-0.25562 33.56446,8.64241 56.75522,8.1817c25.23327,-0.50128 34.13605,-5.15001 40.122,-5.11197c10.01675,0.06366 48.71311,8.05821 48.71311,8.05821l-0.71566,24.18793z" data-paper-data="{&quot;index&quot;:null}" fill="#55cbc7" stroke="none" stroke-width="0" stroke-linecap="butt"/><path d="M-23.00049,304.34198l-0.71566,-24.18794c0,0 38.69636,-7.99455 48.71311,-8.05821c5.98595,-0.03805 14.88871,4.61068 40.12199,5.11197c23.19075,0.46071 34.28237,-5.12181 42.98128,-4.86619c8.18233,-0.04592 23.03317,4.48095 45.96451,5.20122c13.43103,0.42186 23.3033,-6.95682 32.3439,-7.42768c3.92649,0.11274 28.73454,4.27024 40.64673,5.35349c10.66093,0.96947 29.03667,3.85637 29.03667,3.85637l-9.01737,25.01696z" data-paper-data="{&quot;index&quot;:null}" fill="#55cbc7" stroke="none" stroke-width="0" stroke-linecap="butt"/><path d="M-29.33562,307.68998l-0.71567,-24.18792c0,0 38.69636,-7.99456 48.71311,-8.05822c5.98595,-0.03805 14.88873,4.61069 40.122,5.11197c23.19075,0.46071 48.05631,-8.43732 56.75522,-8.1817c8.18233,-0.04592 9.25923,7.79647 32.19057,8.51674c13.43103,0.42186 34.57289,-1.15467 43.61349,-1.62553c4.3534,0.12501 19.77106,0.22806 32.43903,1.39226c8.98329,0.82557 22.96899,1.51803 22.96899,1.51803l-6.01158,25.51438z" fill="#3cafac" stroke="none" stroke-width="0" stroke-linecap="butt"/><path d="M235.20014,307.93645l-9.01737,-25.01695c0,0 18.37574,-2.8869 29.03668,-3.85637c11.91219,-1.08325 36.72024,-5.24075 40.64673,-5.35349c9.0406,0.47086 18.91287,7.84955 32.34391,7.42768c22.93133,-0.72027 37.78217,-5.24714 45.9645,-5.20122c8.69891,-0.25563 19.79052,5.3269 42.98128,4.86619c25.23327,-0.50128 34.13604,-5.15002 40.12199,-5.11198c10.01675,0.06366 48.71311,8.05821 48.71311,8.05821l-0.71567,24.18793z" data-paper-data="{&quot;index&quot;:null}" fill="#3cafac" stroke="none" stroke-width="0" stroke-linecap="butt"/><path d="M231.0304,314.0475l-6.01158,-25.51439c0,0 13.9857,-0.69246 22.96899,-1.51803c12.66797,-1.1642 28.08563,-1.26725 32.43903,-1.39226c9.0406,0.47086 30.18246,2.04739 43.61349,1.62553c22.93133,-0.72027 24.00824,-8.56266 32.19056,-8.51674c8.69891,-0.25562 33.56446,8.64242 56.75522,8.18171c25.23327,-0.50128 34.13605,-5.15002 40.122,-5.11198c10.01675,0.06366 48.7131,8.05821 48.7131,8.05821l-0.71567,24.18793z" data-paper-data="{&quot;index&quot;:null}" fill="#307e8d" stroke="none" stroke-width="0" stroke-linecap="butt"/><path d="M-33.50538,314.29396l-0.71567,-24.18794c0,0 38.69636,-7.99455 48.71311,-8.05821c5.98595,-0.03805 14.88872,4.61068 40.122,5.11197c23.19076,0.46071 34.28237,-5.12181 42.98128,-4.86619c8.18233,-0.04592 23.03317,4.48095 45.9645,5.20122c13.43103,0.42186 23.3033,-6.95682 32.34391,-7.42768c3.92649,0.11274 28.73453,4.27024 40.64673,5.35349c10.66093,0.96947 29.03668,3.85637 29.03668,3.85637l-9.01737,25.01696z" data-paper-data="{&quot;index&quot;:null}" fill="#307e8d" stroke="none" stroke-width="0" stroke-linecap="butt"/><path d="M-36.42295,323.72051l-0.71567,-24.18793c0,0 38.69636,-7.99455 48.71311,-8.05821c5.98595,-0.03805 14.88873,4.61069 40.122,5.11198c23.19075,0.4607 48.05631,-8.43732 56.75522,-8.1817c8.18233,-0.04591 9.25923,7.79647 32.19056,8.51674c13.43103,0.42186 34.57289,-1.15467 43.61349,-1.62553c4.3534,0.125 19.77106,0.22806 32.43903,1.39226c8.98329,0.82557 22.96899,1.51803 22.96899,1.51803l-6.01158,25.51438z" fill="#2e7487" stroke="none" stroke-width="0" stroke-linecap="butt"/><path d="M228.11282,323.96696l-9.01738,-25.01696c0,0 18.37574,-2.8869 29.03668,-3.85636c11.9122,-1.08325 36.72024,-5.24075 40.64674,-5.35349c9.0406,0.47086 18.91287,7.84954 32.3439,7.42767c22.93133,-0.72027 37.78218,-5.24713 45.9645,-5.20122c8.69891,-0.25563 19.79053,5.3269 42.98128,4.86619c25.23327,-0.50128 34.13604,-5.15002 40.12199,-5.11198c10.01675,0.06366 48.7131,8.05821 48.7131,8.05821l-0.71567,24.18793z" data-paper-data="{&quot;index&quot;:null}" fill="#2e7487" stroke="none" stroke-width="0" stroke-linecap="butt"/><path d="M-51.93026,339.0625v-89h593v89z" fill="none" stroke="none" stroke-width="0" stroke-linecap="butt"/><path d="M-35.93026,336.0625v-18h531v18z" fill="url(#color-3)" stroke="none" stroke-width="0" stroke-linecap="butt"/><path d="M-35.50543,346.8804l-0.79424,-26.84353c0,0 42.94485,-8.87228 54.06134,-8.94293c6.64315,-0.04222 16.52336,5.1169 44.52701,5.67322c25.73688,0.51129 43.05495,-12.31517 52.70891,-12.03148c9.08066,-0.05095 20.55329,11.60395 46.00226,12.4033c14.90563,0.46818 38.36866,-4.96096 48.40183,-5.48352c4.83136,0.13873 21.94173,3.93263 36.00053,5.22464c9.96957,0.91621 25.49076,1.6847 25.49076,1.6847l-6.67159,28.31562z" fill="#2e6a86" stroke="none" stroke-width="0" stroke-linecap="butt"/><path d="M258.07383,347.15392l-10.0074,-27.76358c0,0 20.39322,-3.20386 32.22462,-4.27976c13.22004,-1.20218 34.50578,-9.68751 38.86336,-9.81263c10.03317,0.52256 27.23532,12.58273 42.14094,12.11455c25.44898,-0.79935 41.9303,-5.82321 51.01097,-5.77226c9.65397,-0.28369 21.96333,5.91174 47.70021,5.40045c28.00365,-0.55632 37.88385,-5.71544 44.527,-5.67322c11.11648,0.07065 54.06133,8.94293 54.06133,8.94293l-0.79424,26.84353z" data-paper-data="{&quot;index&quot;:null}" fill="#2e6a86" stroke="none" stroke-width="0" stroke-linecap="butt"/><path d="M-31.62785,517.17061v-178.67868h588.58859v178.67868z" fill="#2e6a86" stroke="none" stroke-width="0" stroke-linecap="butt"/><g fill="none" stroke="#ffffff" stroke-width="25" stroke-linecap="round"><path d="M88.50002,55h-55"/><path d="M8.50002,75h127"/></g><g fill="none" stroke="#ffffff" stroke-width="25" stroke-linecap="round"><path d="M454.50001,94h-55"/><path d="M501.50002,114h-127"/></g><g stroke="none" stroke-width="0" stroke-linecap="butt"><path d="M336.50001,2c0,-79.80515 64.69485,-144.5 144.5,-144.5c79.80515,0 144.5,64.69485 144.5,144.5c0,79.80515 -64.69485,144.5 -144.5,144.5c-79.80515,0 -144.5,-64.69485 -144.5,-144.5z" fill="url(#color-4)"/><path d="M431.16234,2c0,-27.52458 22.31309,-49.83768 49.83768,-49.83768c27.52458,0 49.83768,22.31309 49.83768,49.83768c0,27.52458 -22.31309,49.83768 -49.83768,49.83768c-27.52458,0 -49.83768,-22.31309 -49.83768,-49.83768z" fill="#fffc70"/></g><g stroke="none" stroke-width="0" stroke-linecap="butt"><path d="M249.11071,336.56702l-35.09358,-5.15375l8.82672,-19.87439l-8.57308,-12.83561c0,0 6.74769,-8.13855 6.84502,-11.92819c0.08861,-3.45018 -6.28474,-9.88698 -6.28474,-9.88698c0,0 10.37411,-9.34199 11.5799,-13.40481c0.77983,-2.62757 -5.04833,-8.60287 -5.04833,-8.60287c0,0 8.02704,-1.94537 13.21688,-5.84602c3.62659,-2.72571 4.97554,-7.84746 5.01702,-7.81312c8.31079,6.88383 21.95527,-6.01714 29.75672,1.06306c7.20879,6.54233 16.97564,8.43098 24.51807,16.55894c8.56067,9.22524 10.25242,16.33062 19.29009,23.32416c10.56581,8.17604 29.49156,17.54622 31.09093,17.95476c4.35588,1.11264 20.38296,8.4979 20.38296,8.4979z" fill="url(#color-5)"/><path d="M247.44779,337.56702l-35.09357,-5.15375c0,0 7.8194,-14.15559 8.82672,-19.87439c3.27787,-18.60913 142.91129,-3.97534 142.91129,-3.97534c0,0 11.06965,11.64912 16.86371,14.5052c20.60444,10.15659 76.01979,14.49826 76.01979,14.49826z" fill="#2e6a86"/></g><g stroke-width="4"><path d="M361.25218,141.61873c0,0 5.49108,2.94979 14.66208,3.23156c9.47609,0.29115 22.93082,-3.94428 22.32516,-0.94539c-4.06704,20.1375 -39.97066,14.54753 -39.97066,14.54753" fill="#ffffff" stroke="#000000" stroke-linecap="round"/><path d="M314.20845,73.46544c0.03996,13.70926 -16.45072,13.75735 -16.49068,0.04808c-0.03996,-13.70926 8.50887,-29.6647 8.50596,-29.70827c-0.01228,-0.18376 7.94474,15.95093 7.98471,29.66019z" fill="#ffffff" stroke="#000000" stroke-linecap="butt"/><path d="M356.745,102.6293c-11.09662,13.33609 -29.56637,-1.95088 -18.46975,-15.28697c11.09663,-13.3361 33.61792,-20.86495 33.65007,-20.90991c0.13562,-0.18967 -4.08369,22.86079 -15.18032,36.19689z" fill="#ffffff" stroke="#000000" stroke-linecap="butt"/><path d="M357.95427,98.1188c7.87801,-4.97661 10.41905,6.00933 10.41905,6.00933c0,0 5.85667,-6.42573 9.47005,2.72902c3.69356,9.35787 -5.58079,10.03793 -5.58079,10.03793c0,0 4.20754,6.76073 -3.36635,10.42006c-6.09266,2.94369 -6.67274,-9.01201 -6.67274,-9.01201c0,0 -6.57908,5.90318 -8.95098,-1.9891c-2.25972,-7.519 6.11337,-8.21482 6.11337,-8.21482c0,0 -6.41259,-7.52554 -1.43162,-9.98043z" fill="#ffffff" stroke="#000000" stroke-linecap="butt"/><path d="M344.06038,205.64703c-28.72854,5.4703 -27.07648,-0.4012 -27.07648,-0.4012c0,0 4.09119,-9.38093 23.9764,-13.18528c25.85132,-4.94577 33.72196,0.18103 33.72196,0.18103c0,0 1.13324,7.35886 -30.62188,13.40545z" fill="#afb0ae" stroke="#000000" stroke-linecap="butt"/><path d="M271.77965,190.96479c-28.81214,-5.01134 -28.47611,-10.03675 -28.47611,-10.03675c0,0 10.73617,-8.51325 30.68556,-5.06132c25.93478,4.48761 29.17464,15.34493 29.17464,15.34493c0,0 0.46344,5.29242 -31.38409,-0.24687z" fill="#afb0ae" stroke="#000000" stroke-linecap="butt"/><path d="M259.2249,182.23749c0.34828,-2.18746 1.78158,-18.05006 1.78158,-18.05006l14.50206,11.8143c0,0 -3.87088,7.31688 -5.00128,10.68057c-1.1007,3.27539 -1.69437,9.24372 -1.69437,9.24372c0,0 11.19984,10.75722 -7.73092,7.42909c-30.00239,-5.27459 -6.54419,-10.54179 -6.54419,-10.54179c0,0 4.2675,-7.94027 4.68712,-10.57582z" data-paper-data="{&quot;index&quot;:null}" fill="#ffffff" stroke="#000000" stroke-linecap="butt"/><path d="M333.85038,210.64458c0,0 22.19523,9.24134 -8.26728,9.25245c-19.22109,0.007 -6.33095,-8.65318 -6.33095,-8.65318l0.19674,-10.19226l14.63655,-5.31159c0,0 -0.45548,4.15243 -0.49041,6.36718c-0.04208,2.66842 0.25537,8.5374 0.25537,8.5374z" fill="#ffffff" stroke="#000000" stroke-linecap="butt"/><path d="M365.54663,109.97475c2.21212,15.90301 -4.57372,53.04036 -4.57372,53.04036l-111.51986,-22.43284c0,0 1.2253,-22.39354 8.78205,-40.40816c6.56616,-15.65314 35.48337,-36.92928 61.57169,-32.84731c26.08832,4.08197 43.37248,25.62898 45.73983,42.64796z" fill="#ffffff" stroke="#000000" stroke-linecap="butt"/><path d="M364.51329,172.18431c0,0 2.99562,4.07667 4.36551,6.82579c1.81809,3.64853 5.58414,13.1411 5.58414,13.1411c0,0 -20.09678,-0.1112 -30.01099,1.95063c-9.31169,1.93653 -27.78016,10.06804 -27.78016,10.06804c0,0 -1.85028,-5.3287 -2.62786,-8.18526c-0.82931,-3.04655 -2.20282,-9.5608 -2.20282,-9.5608l13.82756,-3.76424l-13.91021,3.74151c0,0 -3.69191,-0.91904 -5.28839,-1.65527c-1.46125,-0.67387 -3.92078,-2.59161 -3.92078,-2.59161l-2.26796,-7.92504l2.32974,7.88669c0,0 0.35142,2.13988 0.22543,3.38915c-0.10319,1.02314 -0.92672,3.56446 -0.92672,3.56446c0,0 -2.79029,-4.91707 -9.1253,-6.37321c-5.33899,-1.22719 -19.82447,-3.24787 -30.60727,-3.68478c-11.33126,-0.45913 -18.84439,0.69716 -18.84439,0.69716c0,0 0.01243,-11.91346 1.51716,-19.5484c1.07667,-5.46289 3.67187,-10.93923 4.04866,-13.89034c0.47271,-3.7024 -0.55604,-10.28837 -0.55604,-10.28837c0,0 21.98455,-12.40139 60.96032,-5.40305c35.93849,6.45298 57.90251,35.36013 57.90251,35.36013z" fill="#ffffff" stroke="#000000" stroke-linecap="butt"/><path d="M360.08246,158.96987c0,0 -0.4685,1.73132 -0.99391,2.61642c-0.57712,0.97222 -2.3283,2.9801 -2.3283,2.9801" fill="none" stroke="#000000" stroke-linecap="round"/><path d="M346.69395,148.4869c0,0 -0.50543,2.63646 -0.99622,3.86996c-0.46816,1.17665 -1.88387,3.36851 -1.88387,3.36851" fill="none" stroke="#000000" stroke-linecap="round"/><path d="M312.53808,133.35647c0,0 -0.35453,3.90693 -0.77424,5.9707c-0.27814,1.36765 -1.49901,5.20729 -1.49901,5.20729" fill="none" stroke="#000000" stroke-linecap="round"/><path d="M297.43683,130.46932c0,0 -0.64239,5.22246 -0.97708,7.36149c-0.26025,1.66329 -0.86451,4.40831 -0.86451,4.40831" fill="none" stroke="#000000" stroke-linecap="round"/><path d="M279.34753,141.09489c0,0 -0.63416,-2.21082 -0.54684,-3.78131c0.10279,-1.84881 1.12476,-6.61342 1.12476,-6.61342" fill="none" stroke="#000000" stroke-linecap="round"/><path d="M261.9429,140.64344c0,0 -0.57887,-3.07402 -0.68312,-4.39882c-0.08786,-1.11638 0.09832,-3.03229 0.09832,-3.03229" fill="none" stroke="#000000" stroke-linecap="round"/><path d="M358.69748,101.1282c0.02067,-0.00678 -2.17323,-1.15366 -3.72994,0.09709c-3.99988,3.21375 -10.91897,10.72251 -18.08151,8.56701c-3.25148,-0.97849 -9.81513,-3.77648 -11.80634,-8.90582c-1.30815,-3.36977 0.14166,-6.9782 0.64445,-9.84299c0.35034,-1.99613 -0.32826,-3.92533 -0.32826,-3.92533c0,0 -3.89758,-2.21657 -5.82082,-2.97941c-2.30286,-0.91341 -6.02634,-1.96886 -6.02634,-1.96886c0,0 -0.04959,-9.47362 -16.82747,-11.59635c-8.53988,-1.08046 -14.69401,1.28747 -14.69948,1.35163c-0.00809,0.09514 3.05636,-2.08074 1.16864,15.92731c-0.12823,1.22332 3.75005,3.66438 9.1173,4.54506c5.19264,0.85203 11.85883,0.22203 12.96168,-3.12489c2.96202,-8.98902 7.92674,-6.82184 7.92674,-6.82184c0,0 4.13481,0.52347 6.31863,1.37411c2.03886,0.79416 5.88088,3.3611 5.88088,3.3611c0,0 1.09761,-5.97654 21.66474,0.89203c7.57299,2.52906 11.3687,13.13824 11.63709,13.05016z" fill="#000000" stroke="#000000" stroke-linecap="butt"/><path d="M327.21817,99.39113c0,0 6.91739,-3.2989 13.30089,-3.82743c6.77587,-0.56101 12.70352,0.39481 12.6432,0.27126" fill="none" stroke="#ffffff" stroke-linecap="round"/><path d="M285.52106,85.693c0,0 5.26246,-3.61727 10.83556,-5.00036c5.85841,-1.45389 12.04185,-0.67901 12.04723,-0.7596" fill="none" stroke="#ffffff" stroke-linecap="round"/><path d="M313.23468,106.40266c0,0 -1.00511,2.40214 -3.13616,4.14954c-1.89458,1.5535 -4.88804,2.5011 -5.67078,2.13073c-0.77511,-0.36676 -1.52293,-3.05024 -1.53869,-5.68017c-0.01564,-2.60858 0.92877,-5.79334 0.92877,-5.79334" fill="none" stroke="#000000" stroke-linecap="round"/><path d="M324.2253,104.934c0,0 -3.94948,3.78523 -8.38783,2.48892c-4.39488,-1.28361 -3.17848,-8.46168 -4.38042,-8.94235c-0.7255,-0.29013 -7.90538,3.09371 -9.49941,2.13304c-5.20981,-3.13977 -0.01879,-6.0749 -0.01879,-6.0749" fill="none" stroke="#000000" stroke-linecap="round"/><path d="M317.47167,96.30479c0,0 -3.71913,2.35554 -5.54869,1.4223c-2.09779,-1.07006 -1.52609,-5.45196 -1.52609,-5.45196" fill="none" stroke="#000000" stroke-linecap="round"/><path d="M286.288,71.78785c0,0 6.73999,-0.06742 9.71063,0.68686c7.31625,1.8577 12.76401,7.0597 12.74778,7.30316" fill="none" stroke="#ffffff" stroke-linecap="round"/><path d="M330.64692,86.87953c0,0 5.94633,-0.27141 11.64422,1.82411c5.65195,2.07862 11.05566,6.52396 11.09586,6.60629" fill="none" stroke="#ffffff" stroke-linecap="round"/><path d="M252.9784,123.86372c0,0 -9.52259,-8.36205 -9.97767,-24.11916c-0.49785,-17.23762 5.57757,-29.51493 6.80831,-29.0664c6.17341,2.24981 2.72828,9.92327 4.76049,17.31121c2.33103,8.47432 5.90597,14.90936 5.90597,14.90936" fill="#ffffff" stroke="#000000" stroke-linecap="round"/><path d="M280.88728,90.50277c-0.30675,8.62537 -9.46856,4.99766 -9.46856,4.99766c0,0 1.73409,7.79999 -6.63901,5.93373c-8.55887,-1.90766 -4.47028,-9.42552 -4.47028,-9.42552c0,0 -6.94322,-0.18808 -5.83844,-7.90767c0.88871,-6.20988 9.78055,-0.57214 9.78055,-0.57214c0,0 -1.00136,-8.09261 5.85019,-5.90902c6.5275,2.08031 2.89513,8.90927 2.89513,8.90927c0,0 8.58219,-1.12769 7.89041,3.9737z" fill="#ffffff" stroke="#000000" stroke-linecap="butt"/><path d="M293.77715,109.27702c-1.22747,8.55127 -10.50642,3.73615 -10.50642,3.73615c0,0 1.01069,7.99682 -7.62137,5.03968c-8.82356,-3.02274 -3.72503,-9.97485 -3.72503,-9.97485c0,0 -7.30045,-1.09802 -5.32657,-8.64241c1.58783,-6.06894 10.37149,0.71292 10.37149,0.71292c0,0 -0.20749,-8.19219 6.78715,-5.11851c6.66381,2.9283 2.11849,9.25402 2.11849,9.25402c0,0 9.16629,0.00236 7.90228,4.99301z" fill="#afb0ae" stroke="#000000" stroke-linecap="butt"/><path d="M287.49777,150.60976c0.45142,-2.88509 2.85768,-4.90467 5.74277,-4.45324c0.5661,0.08858 1.38894,0.31545 1.86269,0.56967c1.94069,1.04138 3.0326,3.32523 2.66975,5.64422c-0.45142,2.88509 -2.98358,4.73206 -5.86867,4.28064c-2.88509,-0.45142 -4.85796,-3.15619 -4.40654,-6.04128z" fill="#93948f" stroke="none" stroke-linecap="butt"/><path d="M323.57565,177.05033c-0.43852,2.80265 -3.97484,4.88278 -6.73628,4.4507c-2.76144,-0.43207 -3.7023,-3.21273 -3.26378,-6.01538c0.43852,-2.80265 4.25,-4.68681 7.01143,-4.25474c2.76144,0.43207 3.42714,3.01677 2.98862,5.81942z" fill="#93948f" stroke="none" stroke-linecap="butt"/><path d="M308.98939,158.86557c0.43852,-2.80265 3.36453,-4.67245 6.16718,-4.23393c2.80265,0.43852 4.42065,3.01931 3.98213,5.82196c-0.43852,2.80265 -3.06602,4.71916 -5.86867,4.28064c-2.80265,-0.43852 -4.71916,-3.06602 -4.28064,-5.86867z" fill="#93948f" stroke="none" stroke-linecap="butt"/><path d="M332.85231,169.55668c0.43207,-2.76144 3.02093,-4.64976 5.78237,-4.21769c0.33566,0.05252 0.95693,0.18361 1.26419,0.2963c2.22054,0.81439 3.33305,3.06029 2.9535,5.48607c-0.43207,2.76144 -3.91646,4.50964 -6.6779,4.07757c-2.76144,-0.43207 -3.75423,-2.88081 -3.32216,-5.64225z" fill="#93948f" stroke="none" stroke-linecap="butt"/><path d="M347.79038,189.40203c-0.39983,2.55537 -2.92914,4.28185 -5.64936,3.85623c-2.72022,-0.42563 -4.60127,-2.84219 -4.20144,-5.39755c0.39983,-2.55537 2.84995,-4.75297 5.57016,-4.32734c0.12044,0.01885 0.83626,0.13501 0.95328,0.1615c2.52606,0.57181 3.70948,3.26495 3.32735,5.70717z" fill="#93948f" stroke="none" stroke-linecap="butt"/><path d="M363.81402,171.03718c-0.41918,2.679 -3.27827,4.45659 -5.83364,4.05675c-2.55537,-0.39983 -3.83932,-2.82567 -3.42014,-5.50467c0.41918,-2.679 3.42753,-4.43323 5.9829,-4.0334c2.55537,0.39983 3.69006,2.80232 3.27088,5.48132z" fill="#93948f" stroke="none" stroke-linecap="butt"/><path d="M323.94411,199.12682c-0.42563,2.72023 -6.11591,4.39486 -6.11591,4.39486c0,0 -3.41425,-3.09919 -2.98862,-5.81942c0.42563,-2.72023 2.80878,-4.6065 5.32293,-4.21312c2.51415,0.39338 4.20723,2.91745 3.7816,5.63768z" fill="#93948f" stroke="none" stroke-linecap="butt"/><path d="M272.08595,154.31465c-0.45142,2.88509 -2.49235,4.96183 -5.29501,4.5233c-2.80265,-0.43852 -5.30572,-3.22625 -4.8543,-6.11134c0.45142,-2.88509 2.19384,-5.00854 4.9965,-4.57001c2.80265,0.43852 5.60423,3.27296 5.15281,6.15805z" fill="#93948f" stroke="none" stroke-linecap="butt"/><path d="M255.82172,163.46734c-0.41918,2.679 -3.20592,4.315 -5.88492,3.89582c-2.04695,-0.32028 -4.21976,-1.80627 -4.65137,-3.71099c-0.13328,-0.58813 0.39571,-2.80596 0.49461,-3.43803c0.41918,-2.679 3.6953,-2.55643 6.3743,-2.13726c2.679,0.41918 4.08655,2.71145 3.66737,5.39044z" fill="#93948f" stroke="none" stroke-linecap="butt"/><path d="M276.04565,177.8705c-0.44654,2.85388 -9.2159,0.22136 -9.18881,0.09134c0.13418,-4.41404 1.89872,-6.09839 4.21695,-6.02559c0.22976,0.00722 0.88521,0.24884 1.11563,0.2849c2.55537,0.39983 4.25606,3.09399 3.85623,5.64936z" fill="#93948f" stroke="none" stroke-linecap="butt"/><path d="M297.79115,176.68571c-0.32244,2.06078 -1.55936,3.57873 -3.86744,3.21759c-2.30807,-0.36114 -4.81326,-2.46461 -4.49082,-4.52538c0.32244,-2.06078 1.85787,-3.53202 4.16595,-3.17088c2.30807,0.36114 4.51475,2.4179 4.19231,4.47867z" fill="#93948f" stroke="none" stroke-linecap="butt"/><path d="M285.13908,165.68446c-0.15612,0.99776 -1.56414,1.40706 -2.36386,2.00294c-0.98416,0.73331 -1.48378,1.52356 -2.89357,1.30297c-2.55537,-0.39983 -4.34459,-2.52819 -3.99635,-4.75383c0.34824,-2.22564 2.70207,-3.70575 5.25743,-3.30592c2.55537,0.39983 4.34459,2.52819 3.99635,4.75383z" fill="#93948f" stroke="none" stroke-linecap="butt"/><path d="M366.70154,191.67292c-0.38048,2.43171 -7.24619,1.35746 -6.86571,-1.07426c0.38048,-2.43171 3.71841,-3.92899 5.61433,-3.63234c1.89591,0.29665 1.63187,2.27489 1.25138,4.7066z" fill="#93948f" stroke="none" stroke-linecap="butt"/><path d="M277.68003,136.15282c-0.41918,2.679 -3.0644,4.49005 -5.90827,4.04508c-2.84387,-0.44497 -4.80947,-2.97747 -4.39029,-5.65647c0.41918,-2.679 3.0644,-4.49005 5.90827,-4.04508c2.84387,0.44497 4.80947,2.97747 4.39029,5.65647z" fill="#93948f" stroke="none" stroke-linecap="butt"/><path d="M255.4835,140.22029c-0.44092,2.81799 -2.43554,4.84626 -4.4551,4.53027c-2.01956,-0.31599 -3.2993,-2.85659 -2.85837,-5.67459c0.44092,-2.81799 2.43554,-4.84626 4.4551,-4.53027c2.01956,0.31599 3.2993,2.85659 2.85837,5.67459z" fill="#93948f" stroke="none" stroke-linecap="butt"/><path d="M340.91875,150.2526c-0.39983,2.55537 -2.86231,4.29231 -5.5001,3.87958c-2.63779,-0.41273 -4.45202,-2.81883 -4.05219,-5.3742c0.39983,-2.55537 2.86231,-4.29231 5.5001,-3.87958c2.63779,0.41273 4.45202,2.81883 4.05219,5.3742z" fill="#93948f" stroke="none" stroke-linecap="butt"/><path d="M256.72346,143.8461c0,0 25.95274,-4.61754 52.81754,1.79042c38.00017,9.06406 48.92964,22.51781 48.92964,22.51781" fill="none" stroke="#000000" stroke-linecap="round"/><path d="M254.59648,144.03751c0,0 -1.8225,2.11379 -2.13492,1.24824c-0.36894,-1.02217 0.0625,-6.98984 0.0625,-6.98984" fill="none" stroke="#000000" stroke-linecap="round"/><path d="M364.66254,172.20766c0,0 2.99562,4.07667 4.36551,6.82579c1.81809,3.64853 5.58414,13.1411 5.58414,13.1411c0,0 -20.09678,-0.1112 -30.01099,1.95063c-9.31169,1.93653 -27.78016,10.06804 -27.78016,10.06804c0,0 -1.85028,-5.3287 -2.62786,-8.18526c-0.82931,-3.04655 -2.20282,-9.5608 -2.20282,-9.5608l13.82756,-3.76424l-13.91021,3.74151c0,0 -3.69191,-0.91904 -5.28839,-1.65527c-1.46125,-0.67387 -3.92078,-2.59161 -3.92078,-2.59161l-2.26796,-7.92504l2.32974,7.88669c0,0 0.35142,2.13988 0.22543,3.38915c-0.10319,1.02314 -0.92672,3.56446 -0.92672,3.56446c0,0 -2.79029,-4.91707 -9.1253,-6.37321c-5.33899,-1.22719 -19.82447,-3.24787 -30.60727,-3.68478c-11.33126,-0.45913 -18.84439,0.69716 -18.84439,0.69716c0,0 0.01243,-11.91346 1.51716,-19.5484c1.07667,-5.46289 3.67187,-10.93923 4.04866,-13.89034c0.47271,-3.7024 -0.55604,-10.28837 -0.55604,-10.28837c0,0 21.98455,-12.40139 60.96032,-5.40305c35.93849,6.45298 57.90251,35.36013 57.90251,35.36013z" fill="none" stroke="#000000" stroke-linecap="butt"/><path d="M333.12791,125.68534c6.39982,5.80286 -2.78351,10.79796 -2.78351,10.79796c0,0 7.19288,3.63773 -0.08864,9.1365c-7.44308,5.62078 -10.3512,-2.49523 -10.3512,-2.49523c0,0 -4.99557,5.43566 -10.14324,-0.42229c-4.14095,-4.71231 6.3951,-8.19626 6.3951,-8.19626c0,0 -6.9053,-4.41269 -0.44356,-8.48927c6.15611,-3.88378 8.85474,3.42323 8.85474,3.42323c0,0 5.13178,-7.59513 8.5603,-3.75464z" fill="#ffffff" stroke="#000000" stroke-linecap="butt"/><path d="M311.44457,131.53669c-6.61629,6.98261 -10.96978,2.00188 -10.96978,2.00188c0,0 -2.31311,7.5601 -10.35882,3.25617c-8.22421,-4.39942 -0.04867,-9.94803 -0.04867,-9.94803c0,0 -6.08364,-3.15647 -2.9248,-10.28638c2.54108,-5.73552 9.1767,3.26913 9.1767,3.26913c0,0 1.40261,-7.71389 7.81343,-3.55768c6.10759,3.95962 0.31322,9.0686 0.31322,9.0686c0,0 10.96207,2.01351 6.99872,6.1963z" fill="#ffffff" stroke="#000000" stroke-linecap="butt"/><path d="M395.37194,118.72254c3.16521,9.1508 -6.83554,9.57876 -6.83554,9.57876c0,0 4.73932,7.34923 -3.82064,9.25407c-8.74985,1.94711 -7.94297,-7.78767 -7.94297,-7.78767c0,0 -6.55416,2.99956 -8.61228,-5.57245c-1.65562,-6.89558 8.89754,-5.0997 8.89754,-5.0997c0,0 -4.17266,-7.99218 3.09448,-8.86515c6.92342,-0.83168 6.26659,7.97347 6.26659,7.97347c0,0 7.55701,-5.12838 8.95284,0.51868z" fill="#afb0ae" stroke="#000000" stroke-linecap="butt"/><path d="M383.4817,128.05072c1.99831,8.3963 -7.79834,7.33594 -7.79834,7.33594c0,0 3.74614,7.05785 -4.82174,7.48574c-8.75798,0.4374 -6.8161,-7.89712 -6.8161,-7.89712c0,0 -6.74317,1.66533 -7.73131,-6.07005c-0.7949,-6.22258 9.27612,-3.1528 9.27612,-3.1528c0,0 -3.11763,-7.53481 4.06791,-7.25213c6.84568,0.26932 5.16038,7.81839 5.16038,7.81839c0,0 7.97316,-3.36962 8.66308,1.73202z" fill="#ffffff" stroke="#000000" stroke-linecap="butt"/><path d="M362.70079,148.86107c-3.93892,8.43945 -11.25213,0.94681 -11.25213,0.94681c0,0 -1.61998,8.48557 -8.91566,3.07774c-7.45754,-5.5278 -0.33516,-11.26186 -0.33516,-11.26186c0,0 -6.62392,-3.13366 -2.29709,-10.3345c3.48062,-5.79259 9.6843,3.58253 9.6843,3.58253c0,0 2.45101,-8.46533 8.14367,-3.38795c5.4234,4.83722 -0.96753,10.08044 -0.96753,10.08044c0,0 8.76196,2.52197 5.93962,7.29681z" fill="#afb0ae" stroke="#000000" stroke-linecap="butt"/><path d="M376.84565,246.42082c0,0 -81.69198,1.13949 -141.53769,-24.48855c-27.62479,-11.82991 -56.02153,-58.50026 -55.57152,-58.18829c0.5263,0.36486 32.67141,3.80181 62.04367,12.30509c99.37097,28.76791 135.06556,70.37175 135.06556,70.37175z" fill="#ffffff" stroke="#000000" stroke-linecap="butt"/><path d="M363.6469,243.42858c0,0 -42.19742,-9.70832 -82.81339,-28.63581c-30.35685,-14.14664 -62.09619,-37.74598 -62.09619,-37.74598c0,0 42.22391,7.54878 72.64062,22.48765c16.45307,8.08077 31.93263,15.84883 43.62287,23.14519c18.33991,11.44668 28.64609,20.74894 28.64609,20.74894z" fill="#bebebe" stroke="none" stroke-linecap="butt"/><path d="M202.16893,194.4403c0,0 23.12455,1.43158 63.74052,20.35908c30.35685,14.14664 59.53904,28.29434 59.53904,28.29434c0,0 -63.89092,-8.75624 -94.30764,-23.6951c-16.45307,-8.08077 -28.97191,-24.95831 -28.97191,-24.95831z" data-paper-data="{&quot;index&quot;:null}" fill="#bebebe" stroke="none" stroke-linecap="butt"/><path d="M377.53187,246.6102c0,0 -81.69198,1.1395 -141.53769,-24.48855c-27.62479,-11.8299 -56.02151,-58.50025 -55.57152,-58.18828c0.5263,0.36486 32.6714,3.80181 62.04367,12.30509c99.37097,28.76791 135.06556,70.37174 135.06556,70.37174z" fill="none" stroke="#000000" stroke-linecap="butt"/><path d="M183.83398,170.73105c0,0 7.15796,0.19823 22.03281,3.06673c25.49212,4.91597 66.33127,15.61692 102.21576,33.8091c38.54725,19.54211 55.01026,34.8082 55.01026,34.8082" fill="none" stroke="#000000" stroke-linecap="round"/></g></g></g></svg>