<svg version="1.1" xmlns="http://www.w3.org/2000/svg" xmlns:xlink="http://www.w3.org/1999/xlink" width="27.05395" height="48.38953" viewBox="0,0,27.05395,48.38953"><g transform="translate(-226.47303,-155.20523)"><g data-paper-data="{&quot;isPaintingLayer&quot;:true}" fill="#ff0000" fill-rule="nonzero" stroke="#000000" stroke-width="0" stroke-linecap="square" stroke-linejoin="miter" stroke-miterlimit="10" stroke-dasharray="" stroke-dashoffset="0" style="mix-blend-mode: normal"><path d="M235.76466,169.81309c0,1.43869 -0.0369,2.96959 -0.11067,4.59275c-0.0738,1.62316 -0.0369,2.95118 0.11067,3.98406c0.73778,-0.66401 1.38337,-1.38334 1.93671,-2.15801c0.55334,-0.81154 1.06978,-1.62312 1.54936,-2.4347c0.47954,-0.81154 0.97756,-1.64157 1.49404,-2.49002c0.51644,-0.84844 1.10668,-1.64157 1.77069,-2.37935c0.55334,0.22134 1.29112,0.35046 2.21336,0.38736c0.92221,0 1.88136,0 2.87737,0c0.99601,-0.03687 1.97358,-0.07377 2.93273,-0.11067c0.95911,-0.07377 1.75224,-0.09222 2.37938,-0.05532c-1.62316,2.5085 -3.39385,4.98007 -5.31208,7.41477c-1.88136,2.4347 -3.74427,4.88785 -5.58873,7.35946c1.99203,3.20938 3.98406,6.40031 5.97608,9.57282c2.02889,3.13561 3.87339,6.40031 5.53341,9.79416c-0.62714,0 -1.42024,0.0369 -2.37935,0.11067c-0.92225,0.0738 -1.89981,0.12912 -2.93269,0.16602c-0.99601,0.0369 -1.97358,0.0369 -2.93269,0c-0.92225,-0.03687 -1.71534,-0.12912 -2.37935,-0.27665c-0.66401,-1.06978 -1.27267,-2.13956 -1.82601,-3.20938c-0.55334,-1.10668 -1.10668,-2.19491 -1.66002,-3.2647c-0.51648,-1.10668 -1.06982,-2.17646 -1.66002,-3.20938c-0.59024,-1.06978 -1.25425,-2.08425 -1.99203,-3.04336c0,0.77468 0.01845,1.69692 0.05535,2.76671c0.03687,1.03292 0.05535,2.12115 0.05535,3.26473c0,1.14358 -0.01845,2.30558 -0.05532,3.48607c-0.0369,1.18048 -0.14757,2.25027 -0.332,3.20938c-0.47957,-0.03687 -1.08823,-0.03687 -1.82601,0c-0.73781,0 -1.51249,0.01845 -2.32403,0.05535c-0.77468,0.0369 -1.56781,0.05535 -2.37935,0.05535c-0.81158,0 -1.54936,-0.03687 -2.21336,-0.11067c-0.29514,-8.18945 -0.35046,-16.23133 -0.16598,-24.12568c0.18444,-7.89431 0.23979,-15.84401 0.16602,-23.84899c0.66401,0 1.40179,0 2.21336,0c0.81154,-0.03687 1.62312,-0.05532 2.4347,-0.05532c0.84844,-0.03687 1.64157,-0.05532 2.37938,-0.05532c0.73778,0 1.40179,0.0369 1.99203,0.11067z"/></g></g></svg>