<svg version="1.1" xmlns="http://www.w3.org/2000/svg" xmlns:xlink="http://www.w3.org/1999/xlink" width="32.64731" height="46.64622" viewBox="0,0,32.64731,46.64622"><g transform="translate(-223.67635,-156.67689)"><g data-paper-data="{&quot;isPaintingLayer&quot;:true}" fill="#ff0000" fill-rule="nonzero" stroke="#000000" stroke-width="0" stroke-linecap="square" stroke-linejoin="miter" stroke-miterlimit="10" stroke-dasharray="" stroke-dashoffset="0" style="mix-blend-mode: normal"><path d="M226.02614,203.32294c-0.63329,0 -1.18323,-0.21665 -1.64985,-0.64993c-0.46662,-0.46662 -0.69994,-1.03326 -0.69994,-1.69986v-41.94647c0,-0.6666 0.21665,-1.21657 0.64996,-1.64985c0.46662,-0.46662 1.03326,-0.69994 1.69986,-0.69994h27.99765c0.6666,0 1.21657,0.21665 1.64988,0.64996c0.43331,0.43331 0.64996,0.98325 0.64996,1.64988c0,0.59995 -0.21665,1.11658 -0.64993,1.54989c-0.43331,0.43331 -0.98325,0.64996 -1.64985,0.64996h-25.64784v16.49862h18.64845c0.69994,0 1.26655,0.21665 1.69986,0.64996c0.43331,0.43331 0.64996,0.96658 0.64996,1.59987c0,0.63329 -0.21665,1.16656 -0.64993,1.59987c-0.43331,0.43331 -0.99992,0.64996 -1.69986,0.64996h-18.64842v18.79843c0,0.6666 -0.23332,1.23324 -0.69994,1.69986c-0.43331,0.43331 -0.98325,0.64996 -1.64985,0.64996z"/></g></g></svg>