<svg version="1.1" xmlns="http://www.w3.org/2000/svg" xmlns:xlink="http://www.w3.org/1999/xlink" width="637.78611" height="586.02644" viewBox="0,0,637.78611,586.02644"><defs><linearGradient x1="240.00005" y1="-18.29337" x2="240.00005" y2="126.29346" gradientUnits="userSpaceOnUse" id="color-1"><stop offset="0" stop-color="#3cafac"/><stop offset="1" stop-color="#3cafac" stop-opacity="0"/></linearGradient><linearGradient x1="152.71247" y1="191.63235" x2="152.71247" y2="298.45983" gradientUnits="userSpaceOnUse" id="color-2"><stop offset="0" stop-color="#49a1ab"/><stop offset="1" stop-color="#0f4e6a"/></linearGradient><linearGradient x1="229.56974" y1="284.0625" x2="229.56974" y2="302.0625" gradientUnits="userSpaceOnUse" id="color-3"><stop offset="0" stop-color="#2e7487"/><stop offset="1" stop-color="#2e6a86"/></linearGradient><linearGradient x1="229.56974" y1="284.0625" x2="229.56974" y2="302.0625" gradientUnits="userSpaceOnUse" id="color-4"><stop offset="0" stop-color="#2e7487"/><stop offset="1" stop-color="#2e6a86"/></linearGradient><radialGradient cx="480.00005" cy="3.00002" r="105.85586" gradientUnits="userSpaceOnUse" id="color-5"><stop offset="0" stop-color="#e5ffff"/><stop offset="1" stop-color="#e5ffff" stop-opacity="0"/></radialGradient><linearGradient x1="482.25228" y1="-72.82582" x2="482.25228" y2="83.33034" gradientUnits="userSpaceOnUse" id="color-6"><stop offset="0" stop-color="#f9ffff"/><stop offset="1" stop-color="#e5ffff"/></linearGradient><linearGradient x1="277.75843" y1="161.65827" x2="117.37042" y2="418.5833" gradientUnits="userSpaceOnUse" id="color-7"><stop offset="0" stop-color="#000000"/><stop offset="1" stop-color="#000000" stop-opacity="0"/></linearGradient></defs><g transform="translate(51.93023,102.85584)"><g data-paper-data="{&quot;isPaintingLayer&quot;:true}" fill-rule="nonzero" stroke-linejoin="miter" stroke-miterlimit="10" stroke-dasharray="" stroke-dashoffset="0" style="mix-blend-mode: normal"><path d="M-40.03001,378.29347v-396.58681h560.06006v396.58681z" fill="#64efea" stroke="none" stroke-width="0" stroke-linecap="butt"/><g><path d="M441.33344,59.1167h-93.5" fill="none" stroke="#ffffff" stroke-width="25" stroke-linecap="round"/><path d="M406.50005,108.37569h-88.25" fill="none" stroke="#ffffff" stroke-width="25" stroke-linecap="round"/><path d="M354.61582,96.7234c0,0 5.59834,-0.3093 9.57098,-3.92195c1.20887,-1.09932 3.61769,-4.97674 3.62774,-9.07716c0.00899,-3.66824 -2.23459,-7.58151 -3.58742,-8.76652c-3.65508,-3.20166 -9.61129,-3.56771 -9.61129,-3.56771h46c0,0 -5.1703,0.18813 -8.70061,3.49721c-1.18349,1.10932 -3.76482,4.92398 -3.719,8.82735c0.04799,4.08823 2.78395,8.27378 4.2366,9.55036c3.2933,2.89412 8.18301,3.45841 8.18301,3.45841z" fill="#ffffff" stroke="none" stroke-width="0" stroke-linecap="butt"/></g><g><path d="M172.83337,79.16666h55" fill="none" stroke="#ffffff" stroke-width="25" stroke-linecap="round"/><path d="M147.50003,128.83336h127" fill="none" stroke="#ffffff" stroke-width="25" stroke-linecap="round"/><path d="M179.61578,116.72342c0,0 5.59834,-0.3093 9.57098,-3.92195c1.20887,-1.09932 3.61769,-4.97674 3.62774,-9.07716c0.00899,-3.66824 -2.23459,-7.58151 -3.58742,-8.76652c-3.65508,-3.20166 -9.61129,-3.56771 -9.61129,-3.56771h46c0,0 -5.1703,0.18813 -8.70061,3.49721c-1.18349,1.10932 -3.76482,4.92398 -3.719,8.82735c0.04799,4.08823 2.78395,8.27378 4.2366,9.55036c3.2933,2.89412 8.18301,3.45841 8.18301,3.45841z" fill="#ffffff" stroke="none" stroke-width="0" stroke-linecap="butt"/></g><g><path d="M63.83337,43.1167h93.5" fill="none" stroke="#ffffff" stroke-width="25" stroke-linecap="round"/><path d="M122.50004,92.37569h-88.25" fill="none" stroke="#ffffff" stroke-width="25" stroke-linecap="round"/><path d="M70.61575,80.72342c0,0 5.59834,-0.3093 9.57098,-3.92195c1.20887,-1.09932 3.61769,-4.97674 3.62774,-9.07716c0.00899,-3.66824 -2.23459,-7.58151 -3.58742,-8.76652c-3.65508,-3.20166 -9.61129,-3.56771 -9.61129,-3.56771h46c0,0 -5.1703,0.18813 -8.70061,3.49721c-1.18349,1.10932 -3.76482,4.92398 -3.719,8.82735c0.04799,4.08823 2.78395,8.27378 4.2366,9.55036c3.2933,2.89412 8.18301,3.45841 8.18301,3.45841z" fill="#ffffff" stroke="none" stroke-width="0" stroke-linecap="butt"/></g><g stroke="none" stroke-width="0" stroke-linecap="butt"><path d="M289.91899,273.68361l-7.20857,-30.59464c0,0 16.77044,-0.83034 27.54243,-1.8203c15.19034,-1.396 33.67786,-1.51957 38.89808,-1.66947c10.84071,0.56462 36.1922,2.45506 52.29753,1.94919c27.49728,-0.86369 45.45528,-5.60092 55.26682,-5.54587c2.79769,-0.08221 50.81639,1.25937 58.12703,5.7062c2.04453,1.24362 4.43579,0.72884 4.43579,0.72884l-1.92532,23.9127z" data-paper-data="{&quot;index&quot;:null}" fill="#71f1e0"/><path d="M-8.28946,279.47916l-8.91031,-8.28915l0.71882,-28.04827c0,0 53.73466,-2.25305 65.74587,-2.32938c7.17784,-0.04562 17.85327,5.52874 48.11083,6.12984c27.80835,0.55244 41.10845,-6.14164 51.53944,-5.83511c9.81154,-0.05506 27.61938,5.37317 55.11666,6.23685c16.10533,0.50587 27.94331,-8.34202 38.78402,-8.90663c4.70831,0.1352 34.45597,5.12051 48.74004,6.41944c12.78366,1.1625 34.81827,4.62422 34.81827,4.62422l-10.81285,29.99817z" data-paper-data="{&quot;index&quot;:null}" fill="#71f1e0"/><path d="M244.53529,274.77161l-6.01158,-25.51438c0,0 13.9857,-0.69247 22.96899,-1.51804c12.66797,-1.1642 28.08563,-1.26724 32.43903,-1.39225c9.0406,0.47086 30.18245,2.04739 43.61348,1.62552c22.93133,-0.72027 24.00824,-8.56265 32.19057,-8.51673c8.69891,-0.25562 33.56446,8.64241 56.75522,8.1817c25.23327,-0.50128 34.13605,-5.15001 40.122,-5.11197c10.01675,0.06366 48.71311,8.05821 48.71311,8.05821l-0.71566,24.18793z" data-paper-data="{&quot;index&quot;:null}" fill="#55cbc7"/><path d="M-19.00049,276.34198l-0.71566,-24.18794c0,0 38.69636,-7.99455 48.71311,-8.05821c5.98595,-0.03805 14.88871,4.61068 40.12199,5.11197c23.19075,0.46071 34.28237,-5.12181 42.98128,-4.86619c8.18233,-0.04592 23.03317,4.48095 45.96451,5.20122c13.43103,0.42186 23.3033,-6.95682 32.3439,-7.42768c3.92649,0.11274 28.73454,4.27024 40.64673,5.35349c10.66093,0.96947 29.03667,3.85637 29.03667,3.85637l-9.01737,25.01696z" data-paper-data="{&quot;index&quot;:null}" fill="#55cbc7"/><path d="M-25.33562,279.68998l-0.71567,-24.18792c0,0 38.69636,-7.99456 48.71311,-8.05822c5.98595,-0.03805 14.88873,4.61069 40.122,5.11197c23.19075,0.46071 48.05631,-8.43732 56.75522,-8.1817c8.18233,-0.04592 9.25923,7.79647 32.19057,8.51674c13.43103,0.42186 34.57289,-1.15467 43.61349,-1.62553c4.3534,0.12501 19.77106,0.22806 32.43903,1.39226c8.98329,0.82557 22.96899,1.51803 22.96899,1.51803l-6.01158,25.51438z" fill="#3cafac"/><path d="M239.20015,279.93645l-9.01737,-25.01695c0,0 18.37574,-2.8869 29.03668,-3.85637c11.91219,-1.08325 36.72024,-5.24075 40.64673,-5.35349c9.0406,0.47086 18.91287,7.84955 32.34391,7.42768c22.93133,-0.72027 37.78217,-5.24714 45.9645,-5.20122c8.69891,-0.25563 19.79052,5.3269 42.98128,4.86619c25.23327,-0.50128 34.13604,-5.15002 40.12199,-5.11198c10.01675,0.06366 48.71311,8.05821 48.71311,8.05821l-0.71567,24.18793z" data-paper-data="{&quot;index&quot;:null}" fill="#3cafac"/><path d="M235.03041,286.0475l-6.01158,-25.51439c0,0 13.9857,-0.69246 22.96899,-1.51803c12.66797,-1.1642 28.08563,-1.26725 32.43903,-1.39226c9.0406,0.47086 30.18246,2.04739 43.61349,1.62553c22.93133,-0.72027 24.00824,-8.56266 32.19056,-8.51674c8.69891,-0.25562 33.56446,8.64242 56.75522,8.18171c25.23327,-0.50128 34.13605,-5.15002 40.122,-5.11198c10.01675,0.06366 48.7131,8.05821 48.7131,8.05821l-0.71567,24.18793z" data-paper-data="{&quot;index&quot;:null}" fill="#307e8d"/><path d="M-29.50538,286.29396l-0.71567,-24.18794c0,0 38.69636,-7.99455 48.71311,-8.05821c5.98595,-0.03805 14.88872,4.61068 40.122,5.11197c23.19076,0.46071 34.28237,-5.12181 42.98128,-4.86619c8.18233,-0.04592 23.03317,4.48095 45.9645,5.20122c13.43103,0.42186 23.3033,-6.95682 32.34391,-7.42768c3.92649,0.11274 28.73453,4.27024 40.64673,5.35349c10.66093,0.96947 29.03668,3.85637 29.03668,3.85637l-9.01737,25.01696z" data-paper-data="{&quot;index&quot;:null}" fill="#307e8d"/><path d="M-32.42295,295.72051l-0.71567,-24.18793c0,0 38.69636,-7.99455 48.71311,-8.05821c5.98595,-0.03805 14.88873,4.61069 40.122,5.11198c23.19075,0.4607 48.05631,-8.43732 56.75522,-8.1817c8.18233,-0.04591 9.25923,7.79647 32.19056,8.51674c13.43103,0.42186 34.57289,-1.15467 43.61349,-1.62553c4.3534,0.125 19.77106,0.22806 32.43903,1.39226c8.98329,0.82557 22.96899,1.51803 22.96899,1.51803l-6.01158,25.51438z" fill="#2e7487"/><path d="M232.11283,295.96696l-9.01738,-25.01696c0,0 18.37574,-2.8869 29.03668,-3.85636c11.9122,-1.08325 36.72024,-5.24075 40.64674,-5.35349c9.0406,0.47086 18.91287,7.84954 32.3439,7.42767c22.93133,-0.72027 37.78218,-5.24713 45.9645,-5.20122c8.69891,-0.25563 19.79053,5.3269 42.98128,4.86619c25.23327,-0.50128 34.13604,-5.15002 40.12199,-5.11198c10.01675,0.06366 48.7131,8.05821 48.7131,8.05821l-0.71567,24.18793z" data-paper-data="{&quot;index&quot;:null}" fill="#2e7487"/><path d="M-47.93026,311.0625v-89h593v89z" fill="none"/></g><path d="M-40.03001,126.29346v-144.58681h560.06006v144.58681z" fill="url(#color-1)" stroke="none" stroke-width="0" stroke-linecap="butt"/><path d="M-51.93022,339.06254v-89h593v89z" fill="none" stroke="none" stroke-width="0" stroke-linecap="butt"/><g stroke-width="2.5"><path d="M410.14969,192.61251c0,0 5.90039,2.00964 14.99349,0.78406c9.39561,-1.26634 21.97391,-7.6503 21.86809,-4.5927c-0.71056,20.5318 -37.04485,20.90369 -37.04485,20.90369" fill="#ffffff" stroke="#000000" stroke-linecap="round"/><path d="M352.56901,133.09393c2.28699,13.51722 -13.97269,16.26823 -16.25967,2.75099c-2.28699,-13.51722 3.53036,-30.65831 3.52035,-30.70082c-0.04224,-0.17926 10.45232,14.43261 12.73931,27.94982z" fill="#ffffff" stroke="#000000" stroke-linecap="butt"/><path d="M399.31138,154.88957c-8.76009,14.97488 -29.48616,2.92278 -20.72607,-12.05211c8.7601,-14.97489 29.74235,-26.09413 29.7667,-26.14375c0.10269,-0.20934 -0.28053,23.22097 -9.04062,38.19586z" fill="#ffffff" stroke="#000000" stroke-linecap="butt"/><path d="M399.76473,150.24183c6.95552,-6.20084 11.26328,4.21987 11.26328,4.21987c0,0 4.72396,-7.29896 9.78932,1.13953c5.17776,8.62571 -3.85961,10.81706 -3.85961,10.81706c0,0 5.259,5.97945 -1.61248,10.83097c-5.52762,3.90272 -8.05993,-7.79611 -8.05993,-7.79611c0,0 -5.52227,6.90191 -9.15597,-0.49472c-3.46185,-7.0468 4.68388,-9.10593 4.68388,-9.10593c0,0 -7.55959,-6.3724 -3.0485,-9.61068z" fill="#ffffff" stroke="#000000" stroke-linecap="butt"/><path d="M403.68755,258.59297c-27.443,10.10618 -26.77589,4.04328 -26.77589,4.04328c0,0 2.49788,-9.92473 21.49033,-16.93768c24.69071,-9.11705 33.29536,-5.34997 33.29536,-5.34997c0,0 2.32436,7.0735 -28.00979,18.24438z" fill="#afb0ae" stroke="#000000" stroke-linecap="butt"/><path d="M329.97775,255.95946c-29.24388,-0.21992 -29.73629,-5.23244 -29.73629,-5.23244c0,0 9.1952,-10.15821 29.44059,-10.02359c26.31959,0.17502 31.29562,10.35427 31.29562,10.35427c0,0 1.32484,5.14483 -30.99992,4.90173z" fill="#afb0ae" stroke="#000000" stroke-linecap="butt"/><path d="M316.16204,249.40853c-0.01506,-2.21496 -1.20175,-18.09792 -1.20175,-18.09792l16.24274,9.2769c0,0 -2.61894,7.85249 -3.18258,11.356c-0.54883,3.41152 -0.15598,9.39644 -0.15598,9.39644c0,0 12.81189,8.77551 -6.40835,8.59601c-30.46118,-0.28448 -8.18392,-9.32627 -8.18392,-9.32627c0,0 2.90799,-8.53247 2.88984,-11.20115z" data-paper-data="{&quot;index&quot;:null}" fill="#ffffff" stroke="#000000" stroke-linecap="butt"/><path d="M394.43511,265.19676c0,0 23.40999,5.4775 -6.63852,10.48264c-18.95987,3.15811 -7.66393,-7.49817 -7.66393,-7.49817l-1.4769,-10.08661l13.5677,-7.63931c0,0 0.23145,4.17092 0.56009,6.36143c0.39597,2.63921 1.65158,8.38002 1.65158,8.38002z" fill="#ffffff" stroke="#000000" stroke-linecap="butt"/><path d="M409.19811,160.69263c4.78941,15.32517 4.18387,53.07253 4.18387,53.07253l-113.68869,-3.84618c0,0 -2.46259,-22.29143 2.0385,-41.30119c3.91106,-16.51784 28.94888,-42.24693 55.35343,-42.49724c26.40455,-0.25031 46.98737,18.17151 52.11287,34.57209z" fill="#ffffff" stroke="#000000" stroke-linecap="butt"/><path d="M418.37773,222.22987c0,0 3.62343,3.5304 5.4255,6.01773c2.39165,3.3011 7.663,12.0478 7.663,12.0478c0,0 -19.84309,3.18507 -29.28513,6.84439c-8.86821,3.43694 -25.75367,14.48624 -25.75367,14.48624c0,0 -2.69886,-4.95325 -3.93423,-7.64368c-1.31756,-2.86937 -3.74046,-9.0703 -3.74046,-9.0703l13.02334,-5.98027l-13.1086,5.9714c0,0 -3.79263,-0.30134 -5.48821,-0.76586c-1.55195,-0.42519 -4.29261,-1.91375 -4.29261,-1.91375l-3.53654,-7.44599l3.5912,7.39803c0,0 0.69749,2.05332 0.77801,3.30633c0.06595,1.02621 -0.32981,3.66816 -0.32981,3.66816c0,0 -3.55867,-4.39308 -10.04669,-4.79093c-5.46795,-0.33528 -20.08871,0.0462 -30.79724,1.38299c-11.25322,1.40479 -18.47512,3.77718 -18.47512,3.77718c0,0 -1.9409,-11.7543 -1.70823,-19.53263c0.16649,-5.56549 1.82875,-11.3932 1.71662,-14.36616c-0.14068,-3.7298 -2.23524,-10.05801 -2.23524,-10.05801c0,0 19.65394,-15.83785 59.24969,-15.32409c36.51015,0.47373 62.91618,25.38886 62.91618,25.38886z" fill="#ffffff" stroke="#000000" stroke-linecap="butt"/><path d="M411.84043,209.92064c0,0 -0.17832,1.7847 -0.55152,2.74396c-0.40992,1.05368 -1.80823,3.3215 -1.80823,3.3215" fill="none" stroke="#000000" stroke-linecap="round"/><path d="M396.91445,201.77449c0,0 -0.06636,2.68365 -0.34828,3.98093c-0.26892,1.23748 -1.30613,3.63178 -1.30613,3.63178" fill="none" stroke="#000000" stroke-linecap="round"/><path d="M360.74016,192.44847c0,0 0.29079,3.91219 0.2151,6.01685c-0.05016,1.39474 -0.62502,5.38259 -0.62502,5.38259" fill="none" stroke="#000000" stroke-linecap="round"/><path d="M345.3698,192.07617c0,0 0.2225,5.25711 0.24302,7.42208c0.01596,1.68345 -0.13009,4.49039 -0.13009,4.49039" fill="none" stroke="#000000" stroke-linecap="round"/><path d="M329.26727,205.52362c0,0 -0.98804,-2.07694 -1.15937,-3.64049c-0.20171,-1.84064 0.0253,-6.70833 0.0253,-6.70833" fill="none" stroke="#000000" stroke-linecap="round"/><path d="M312.02416,207.93168c0,0 -1.07501,-2.93753 -1.39504,-4.22731c-0.2697,-1.08687 -0.40014,-3.00738 -0.40014,-3.00738" fill="none" stroke="#000000" stroke-linecap="round"/><path d="M400.99127,153.08864c0.01928,-0.01008 -2.33296,-0.78176 -3.66355,0.70728c-3.41889,3.82603 -9.01333,12.36754 -16.43234,11.41547c-3.3679,-0.43218 -10.30146,-2.11624 -13.10666,-6.84973c-1.8429,-3.10971 -1.0043,-6.907 -0.97797,-9.81546c0.01834,-2.02656 -0.96736,-3.8184 -0.96736,-3.8184c0,0 -4.20824,-1.54759 -6.23052,-1.9848c-2.42145,-0.52351 -6.26758,-0.95423 -6.26758,-0.95423c0,0 -1.60207,-9.33731 -18.50095,-8.68066c-8.60147,0.33423 -14.28412,3.67906 -14.27899,3.74324c0.00762,0.09518 2.67387,-2.55366 3.76403,15.52021c0.07406,1.22779 4.30007,3 9.73908,2.98883c5.26207,-0.01081 11.73478,-1.72517 12.27399,-5.20761c1.44824,-9.353 6.70108,-8.02909 6.70108,-8.02909c0,0 4.16468,-0.1615 6.45842,0.31961c2.14147,0.44915 6.35234,2.35148 6.35234,2.35148c0,0 0.10294,-6.07562 21.51785,-2.67187c7.88515,1.25329 13.36882,11.09663 13.61915,10.96574z" fill="#000000" stroke="#000000" stroke-linecap="butt"/><path d="M369.65316,156.53596c0,0 6.28296,-4.38833 12.49344,-5.95626c6.59221,-1.66429 12.59636,-1.69321 12.5166,-1.8052" fill="none" stroke="#ffffff" stroke-linecap="round"/><path d="M326.27443,149.85922c0,0 4.59822,-4.43108 9.86916,-6.70914c5.54079,-2.39468 11.7676,-2.64402 11.75969,-2.7244" fill="none" stroke="#ffffff" stroke-linecap="round"/><path d="M357.00839,165.74515c0,0 -0.59769,2.53442 -2.41343,4.60755c-1.61426,1.84309 -4.41186,3.26863 -5.24473,3.03159c-0.82475,-0.23472 -2.0024,-2.75929 -2.44911,-5.35105c-0.4431,-2.57072 -0.03358,-5.86722 -0.03358,-5.86722" fill="none" stroke="#000000" stroke-linecap="round"/><path d="M367.60947,162.49453c0,0 -3.27547,4.38151 -7.86629,3.83039c-4.54585,-0.54573 -4.52273,-7.82609 -5.78721,-8.1032c-0.76324,-0.16726 -7.29122,4.3479 -9.02117,3.66156c-5.65407,-2.24316 -1.01449,-5.98962 -1.01449,-5.98962" fill="none" stroke="#000000" stroke-linecap="round"/><path d="M359.53257,155.08926c0,0 -3.28263,2.9334 -5.24043,2.31273c-2.24484,-0.71165 -2.39926,-5.12799 -2.39926,-5.12799" fill="none" stroke="#000000" stroke-linecap="round"/><path d="M324.75133,136.01646c0,0 6.63774,-1.1715 9.69185,-0.91444c7.52182,0.6331 13.74871,4.87158 13.77261,5.11441" fill="none" stroke="#ffffff" stroke-linecap="round"/><path d="M370.98429,143.63153c0,0 5.82137,-1.24261 11.78572,-0.10958c5.91626,1.12389 11.97564,4.62317 12.0288,4.6978" fill="none" stroke="#ffffff" stroke-linecap="round"/><path d="M300.43002,192.84867c0,0 -10.76466,-6.68772 -13.79689,-22.15703c-3.31713,-16.92277 0.66328,-30.03 1.9509,-29.7893c6.45873,1.20727 4.31824,9.34172 7.53417,16.29652c3.68881,7.9775 8.27038,13.73937 8.27038,13.73937" fill="#ffffff" stroke="#000000" stroke-linecap="round"/><path d="M322.49189,155.36359c1.11149,8.55896 -8.5211,6.48237 -8.5211,6.48237c0,0 2.98939,7.41016 -5.57638,6.94188c-8.75581,-0.47867 -5.95507,-8.56511 -5.95507,-8.56511c0,0 -6.88011,0.95277 -7.05587,-6.84349c-0.14139,-6.27155 9.55441,-2.16787 9.55441,-2.16787c0,0 -2.31456,-7.81894 4.80228,-6.78817c6.78024,0.98201 4.31659,8.31408 4.31659,8.31408c0,0 8.28119,-2.51944 8.43512,2.62634z" fill="#ffffff" stroke="#000000" stroke-linecap="butt"/><path d="M338.28528,171.77058c0.19108,8.6368 -9.75174,5.40808 -9.75174,5.40808c0,0 2.30806,7.72292 -6.69201,6.22097c-9.19974,-1.53526 -5.30996,-9.22918 -5.30996,-9.22918c0,0 -7.38168,0.11371 -6.67137,-7.65221c0.57137,-6.24714 10.34804,-0.99708 10.34804,-0.99708c0,0 -1.54775,-8.04732 5.85616,-6.16198c7.05372,1.79618 3.60698,8.7815 3.60698,8.7815c0,0 9.04265,-1.50044 8.61393,3.62992z" fill="#afb0ae" stroke="#000000" stroke-linecap="butt"/><path d="M338.86719,213.57356c-0.02768,-2.92006 2.01492,-5.30681 4.93498,-5.33449c0.57296,-0.00543 1.42187,0.08347 1.93088,0.25658c2.08516,0.70913 3.53672,2.78306 3.55897,5.13016c0.02768,2.92006 -2.16741,5.15717 -5.08747,5.18486c-2.92006,0.02768 -5.30967,-2.31704 -5.33736,-5.23711z" fill="#93948f" stroke="none" stroke-linecap="butt"/><path d="M378.79177,233.74156c0.02689,2.83662 -3.12055,5.46837 -5.91547,5.49486c-2.79492,0.0265 -4.17891,-2.56229 -4.20581,-5.39891c-0.02689,-2.83662 3.42411,-5.32016 6.21902,-5.34666c2.79492,-0.0265 3.87536,2.41409 3.90225,5.25071z" fill="#93948f" stroke="none" stroke-linecap="butt"/><path d="M361.42152,218.19421c-0.02689,-2.83662 2.55299,-5.16083 5.38961,-5.18772c2.83662,-0.02689 4.85584,2.25371 4.88273,5.09033c0.02689,2.83662 -2.25085,5.15796 -5.08747,5.18486c-2.83662,0.02689 -5.15796,-2.25085 -5.18486,-5.08747z" fill="#93948f" stroke="none" stroke-linecap="butt"/><path d="M386.71432,224.82844c-0.0265,-2.79492 2.21775,-5.08211 5.01266,-5.10862c0.33973,-0.00322 0.97408,0.02424 1.29567,0.08503c2.32401,0.43933 3.78967,2.47245 3.81295,4.92763c0.0265,2.79492 -3.12414,5.0907 -5.91905,5.11721c-2.79492,0.0265 -4.17572,-2.22635 -4.20223,-5.02125z" fill="#93948f" stroke="none" stroke-linecap="butt"/><path d="M404.70388,241.95626c0.02452,2.58635 -2.18752,4.70414 -4.94071,4.73024c-2.75319,0.0261 -5.00497,-2.04937 -5.02949,-4.63571c-0.02452,-2.58635 2.03217,-5.15589 4.78534,-5.18199c0.1219,-0.00115 0.84708,-0.00392 0.96685,0.00303c2.58563,0.14994 4.19456,2.61262 4.21799,5.08445z" fill="#93948f" stroke="none" stroke-linecap="butt"/><path d="M417.49987,221.21289c0.0257,2.71147 -2.50328,4.93375 -5.08962,4.95826c-2.58635,0.02452 -4.25063,-2.158 -4.27633,-4.86947c-0.0257,-2.71147 2.65434,-4.93517 5.24069,-4.9597c2.58635,-0.02452 4.09956,2.15944 4.12526,4.87091z" fill="#93948f" stroke="none" stroke-linecap="butt"/><path d="M382.7746,255.45895c0.0261,2.7532 -5.31265,5.33807 -5.31265,5.33807c0,0 -3.87615,-2.49751 -3.90225,-5.25071c-0.0261,-2.7532 2.01557,-5.00466 4.56019,-5.02879c2.54462,-0.02413 4.62861,2.18822 4.6547,4.94142z" fill="#93948f" stroke="none" stroke-linecap="butt"/><path d="M324.27128,219.75498c0.02768,2.92006 -1.64516,5.3033 -4.48179,5.33019c-2.83662,0.02689 -5.76286,-2.31275 -5.79055,-5.23281c-0.02768,-2.92006 1.34303,-5.30044 4.17966,-5.32733c2.83662,-0.02689 6.06498,2.30989 6.09267,5.22996z" fill="#93948f" stroke="none" stroke-linecap="butt"/><path d="M309.72766,231.45029c0.0257,2.71147 -2.45511,4.78221 -5.1666,4.80791c-2.07176,0.01964 -4.4588,-1.09002 -5.19683,-2.89821c-0.2279,-0.55832 -0.06967,-2.83287 -0.07573,-3.47261c-0.0257,-2.71147 3.22619,-3.12767 5.93766,-3.15337c2.71147,-0.0257 4.47578,2.00479 4.50149,4.71626z" fill="#93948f" stroke="none" stroke-linecap="butt"/><path d="M332.03926,242.34292c0.02738,2.88847 -9.05491,1.72926 -9.0495,1.59657c-0.5913,-4.37631 0.87323,-6.32716 3.17203,-6.63541c0.22783,-0.03054 0.91403,0.10035 1.14725,0.09814c2.58635,-0.02452 4.70571,2.35437 4.73024,4.94071z" fill="#93948f" stroke="none" stroke-linecap="butt"/><path d="M353.29629,237.60912c0.01978,2.08576 -0.95155,3.78596 -3.2876,3.80811c-2.33604,0.02214 -5.15219,-1.64216 -5.17197,-3.7279c-0.01978,-2.08576 1.25367,-3.78882 3.58973,-3.81097c2.33604,-0.02214 4.85007,1.64501 4.86984,3.73076z" fill="#93948f" stroke="none" stroke-linecap="butt"/><path d="M339.0118,228.831c0.00957,1.00985 -1.31229,1.64445 -2.0035,2.36338c-0.85063,0.88474 -1.21392,1.74621 -2.6408,1.75972c-2.58635,0.02452 -4.70029,-1.7817 -4.72165,-4.03433c-0.02135,-2.25262 2.05797,-4.0986 4.6443,-4.12312c2.58635,-0.02452 4.70029,1.7817 4.72165,4.03433z" fill="#93948f" stroke="none" stroke-linecap="butt"/><path d="M423.73146,241.09603c0.02334,2.46118 -6.9256,2.52707 -6.94893,0.06588c-0.02334,-2.46118 3.02396,-4.48544 4.94286,-4.50364c1.91889,-0.01819 1.98275,1.97657 2.00607,4.43776z" fill="#93948f" stroke="none" stroke-linecap="butt"/><path d="M326.81212,200.92178c0.0257,2.71147 -2.28681,4.93169 -5.16516,4.95898c-2.87835,0.02729 -5.23254,-2.1487 -5.25824,-4.86017c-0.0257,-2.71147 2.28681,-4.93169 5.16516,-4.95898c2.87835,-0.02729 5.23254,2.1487 5.25824,4.86017z" fill="#93948f" stroke="none" stroke-linecap="butt"/><path d="M305.58279,208.57325c0.02704,2.85215 -1.60806,5.17999 -3.6521,5.19936c-2.04404,0.01938 -3.72298,-2.27704 -3.75001,-5.12919c-0.02704,-2.85215 1.60806,-5.17999 3.6521,-5.19936c2.04404,-0.01938 3.72298,2.27704 3.75001,5.12919z" fill="#93948f" stroke="none" stroke-linecap="butt"/><path d="M391.50685,204.46311c0.02452,2.58635 -2.11988,4.7035 -4.78964,4.7288c-2.66976,0.02531 -4.85392,-2.0508 -4.87844,-4.63715c-0.02452,-2.58635 2.11988,-4.7035 4.78964,-4.7288c2.66976,-0.02531 4.85392,2.0508 4.87844,4.63715z" fill="#93948f" stroke="none" stroke-linecap="butt"/><path d="M307.40039,211.94672c0,0 24.84456,-8.80988 52.39642,-6.89298c38.97201,2.71148 51.95929,14.19136 51.95929,14.19136" fill="none" stroke="#000000" stroke-linecap="round"/><path d="M305.3336,212.48422c0,0 -1.4513,2.38398 -1.90139,1.58136c-0.53153,-0.94785 -1.0843,-6.90551 -1.0843,-6.90551" fill="none" stroke="#000000" stroke-linecap="round"/><path d="M418.52882,222.22843c0,0 3.62343,3.5304 5.4255,6.01773c2.39165,3.3011 7.663,12.0478 7.663,12.0478c0,0 -19.84309,3.18507 -29.28513,6.84439c-8.86821,3.43694 -25.75367,14.48624 -25.75367,14.48624c0,0 -2.69886,-4.95325 -3.93423,-7.64368c-1.31756,-2.86937 -3.74046,-9.0703 -3.74046,-9.0703l13.02334,-5.98027l-13.1086,5.9714c0,0 -3.79263,-0.30134 -5.48821,-0.76586c-1.55195,-0.42519 -4.29261,-1.91375 -4.29261,-1.91375l-3.53654,-7.44599l3.5912,7.39803c0,0 0.69749,2.05332 0.77801,3.30633c0.06595,1.02621 -0.32981,3.66816 -0.32981,3.66816c0,0 -3.55867,-4.39308 -10.04669,-4.79093c-5.46795,-0.33528 -20.08871,0.0462 -30.79724,1.38299c-11.25322,1.40479 -18.47512,3.77718 -18.47512,3.77718c0,0 -1.9409,-11.7543 -1.70823,-19.53263c0.16649,-5.56549 1.82875,-11.3932 1.71662,-14.36616c-0.14068,-3.7298 -2.23524,-10.05801 -2.23524,-10.05801c0,0 19.65394,-15.83785 59.24969,-15.32409c36.51015,0.47373 62.91618,25.38886 62.91618,25.38886z" fill="none" stroke="#000000" stroke-linecap="butt"/><path d="M379.79377,181.50552c7.26457,4.67513 -0.97558,11.1082 -0.97558,11.1082c0,0 7.69195,2.40927 1.41044,9.02741c-6.42087,6.76499 -10.62022,-0.76444 -10.62022,-0.76444c0,0 -4.03683,6.18111 -10.07523,1.24636c-4.85748,-3.96966 4.96483,-9.13381 4.96483,-9.13381c0,0 -7.53531,-3.2209 -1.82933,-8.30169c5.43608,-4.8405 9.29616,1.92522 9.29616,1.92522c0,0 3.81716,-8.3337 7.82892,-5.10725z" fill="#ffffff" stroke="#000000" stroke-linecap="butt"/><path d="M359.36305,190.83261c-5.382,7.97284 -10.49316,3.77323 -10.49316,3.77323c0,0 -1.04237,7.83703 -9.68483,4.91039c-8.83419,-2.99157 -1.67894,-9.80545 -1.67894,-9.80545c0,0 -6.51881,-2.11638 -4.57163,-9.66769c1.56639,-6.07452 9.58849,1.72042 9.58849,1.72042c0,0 0.11898,-7.83947 7.12445,-4.79052c6.67411,2.90473 1.79573,8.89455 1.79573,8.89455c0,0 11.14385,0.18909 7.91988,4.96505z" fill="#ffffff" stroke="#000000" stroke-linecap="butt"/><path d="M440.05404,164.43236c4.62261,8.50807 -5.17266,10.56981 -5.17266,10.56981c0,0 5.88007,6.4728 -2.25179,9.75524c-8.31224,3.35526 -9.11225,-6.38009 -9.11225,-6.38009c0,0 -5.97372,4.03349 -9.40933,-4.08512c-2.76372,-6.53085 7.94108,-6.48941 7.94108,-6.48941c0,0 -5.42648,-7.19995 1.59921,-9.25253c6.69339,-1.95549 7.48901,6.83821 7.48901,6.83821c0,0 6.61399,-6.29793 8.91674,-0.95611z" fill="#afb0ae" stroke="#000000" stroke-linecap="butt"/><path d="M429.854,175.58366c3.3478,7.95508 -6.49013,8.51518 -6.49013,8.51518c0,0 4.85256,6.34819 -3.52925,8.17495c-8.56777,1.86731 -8.01857,-6.6728 -8.01857,-6.6728c0,0 -6.37891,2.74831 -8.62186,-4.72041c-1.80431,-6.00807 8.63372,-4.63091 8.63372,-4.63091c0,0 -4.31074,-6.92174 2.82392,-7.82092c6.79721,-0.85664 6.37234,6.86659 6.37234,6.86659c0,0 7.31285,-4.63118 8.82982,0.28831z" fill="#ffffff" stroke="#000000" stroke-linecap="butt"/><path d="M412.76599,199.51935c-2.50202,8.97103 -10.94466,2.77873 -10.94466,2.77873c0,0 -0.20689,8.63635 -8.29045,4.49778c-8.26289,-4.23038 -2.17695,-11.05453 -2.17695,-11.05453c0,0 -7.04804,-2.0053 -3.9603,-9.81807c2.48386,-6.28484 10.14061,1.94636 10.14061,1.94636c0,0 1.03,-8.75262 7.47805,-4.67722c6.14305,3.88263 0.6982,10.10267 0.6982,10.10267c0,0 9.05687,1.05137 7.05553,6.22431z" fill="#afb0ae" stroke="#000000" stroke-linecap="butt"/><path d="M442.71396,293.44005c0,0 -80.39983,14.51707 -143.63738,-0.9528c-29.19047,-7.1409 -64.85435,-48.52427 -64.35929,-48.2903c0.57899,0.27364 32.85264,-1.60595 63.22155,1.96684c102.74278,12.08729 144.77516,47.27625 144.77516,47.27625z" fill="#ffffff" stroke="#000000" stroke-linecap="butt"/><path d="M429.20322,292.65218c0,0 -43.2181,-2.6589 -86.38758,-14.67151c-32.26538,-8.97837 -67.44426,-27.0549 -67.44426,-27.0549c0,0 42.89018,0.52424 75.34449,10.27431c17.55526,5.27404 34.0989,10.39919 46.82717,15.68026c19.96839,8.28506 31.66018,15.77181 31.66018,15.77181z" fill="#bebebe" stroke="none" stroke-linecap="butt"/><path d="M261.87869,270.80028c0,0 23.04636,-2.37895 66.21585,9.63366c32.26538,8.97837 63.37217,18.15037 63.37217,18.15037c0,0 -64.46198,1.83684 -96.9163,-7.91322c-17.55526,-5.27404 -32.67169,-19.87081 -32.67169,-19.87081z" data-paper-data="{&quot;index&quot;:null}" fill="#bebebe" stroke="none" stroke-linecap="butt"/><path d="M443.42188,293.51437c0,0 -80.39983,14.51708 -143.63738,-0.9528c-29.19046,-7.14089 -64.85434,-48.52426 -64.35929,-48.29029c0.57899,0.27364 32.85263,-1.60595 63.22155,1.96684c102.74278,12.08729 144.77515,47.27624 144.77515,47.27624z" fill="none" stroke="#000000" stroke-linecap="butt"/><path d="M239.90482,250.41775c0,0 7.09361,-0.97797 22.23747,-0.58693c25.95315,0.67014 67.99409,4.53093 106.37556,16.59387c41.22952,12.95807 59.97257,25.31856 59.97257,25.31856" fill="none" stroke="#000000" stroke-linecap="round"/></g><g stroke="none" stroke-width="0" stroke-linecap="butt"><path d="M68.11074,298.45983l-35.09358,-5.70644l8.82672,-22.00573l-8.57308,-14.21211c0,0 6.74769,-9.01133 6.84502,-13.20737c0.08861,-3.82018 -6.28474,-10.94726 -6.28474,-10.94726c0,0 10.37411,-10.34383 11.5799,-14.84235c0.77983,-2.90935 -5.04833,-9.52545 -5.04833,-9.52545c0,0 8.02704,-2.15399 13.21688,-6.47295c3.62659,-3.01802 4.97554,-8.68902 5.01702,-8.651c8.31079,7.62205 21.95527,-6.66242 29.75672,1.17706c7.20879,7.24393 16.97564,9.33512 24.51807,18.33473c8.56067,10.21456 10.25242,18.08192 19.29009,25.82545c10.56581,9.05284 29.49156,19.42788 31.09093,19.88024c4.35588,1.23196 20.38296,9.40922 20.38296,9.40922z" fill="url(#color-2)"/><path d="M66.44781,299.56703l-35.09357,-5.70644c0,0 7.8194,-15.67364 8.82672,-22.00573c3.27787,-20.60478 142.91129,-4.40166 142.91129,-4.40166c0,0 11.06965,12.89838 16.86371,16.06074c20.60444,11.24579 76.01979,16.05306 76.01979,16.05306z" fill="#2e6a86"/></g><g stroke="none" stroke-width="0" stroke-linecap="butt"><path d="M-35.93026,330.0625v-29h531v29z" fill="#2e6a86"/><path d="M-35.93026,302.0625v-18h531v18z" fill="url(#color-3)"/><path d="M-35.93026,330.0625v-29h531v29z" fill="#2e6a86"/><path d="M-35.93026,302.0625v-18h531v18z" fill="url(#color-4)"/><path d="M-35.50543,312.8804l-0.79424,-26.84353c0,0 42.94485,-8.87228 54.06134,-8.94293c6.64315,-0.04222 16.52336,5.1169 44.52701,5.67322c25.73688,0.51129 43.05495,-12.31517 52.70891,-12.03148c9.08066,-0.05095 20.55329,11.60395 46.00226,12.4033c14.90563,0.46818 38.36866,-4.96096 48.40183,-5.48352c4.83136,0.13873 21.94173,3.93263 36.00053,5.22464c9.96957,0.91621 25.49076,1.6847 25.49076,1.6847l-6.67159,28.31562z" fill="#2e6a86"/><path d="M258.07383,313.15392l-10.0074,-27.76358c0,0 20.39322,-3.20386 32.22462,-4.27976c13.22004,-1.20218 34.50578,-9.68751 38.86336,-9.81263c10.03317,0.52256 27.23532,12.58273 42.14094,12.11455c25.44898,-0.79935 41.9303,-5.82321 51.01097,-5.77226c9.65397,-0.28369 21.96333,5.91174 47.70021,5.40045c28.00365,-0.55632 37.88385,-5.71544 44.527,-5.67322c11.11648,0.07065 54.06133,8.94293 54.06133,8.94293l-0.79424,26.84353z" data-paper-data="{&quot;index&quot;:null}" fill="#2e6a86"/><path d="M-31.62785,483.17061v-178.67868h588.58859v178.67868z" fill="#2e6a86"/></g><path d="M585.85588,3.00002c0,58.46257 -47.39328,105.85586 -105.85586,105.85586c-58.46258,0 -105.85585,-47.39328 -105.85585,-105.85586c0,-58.46257 47.39328,-105.85585 105.85585,-105.85585c58.46258,0 105.85586,47.39328 105.85586,105.85586z" fill="url(#color-5)" stroke="none" stroke-width="0" stroke-linecap="butt"/><path d="M560.33039,5.2523c0,43.12133 -34.95675,78.07808 -78.07808,78.07808c-43.12133,0 -78.07807,-34.95674 -78.07807,-78.07808c0,-43.12133 34.95674,-78.07808 78.07807,-78.07808c43.12133,0 78.07808,34.95675 78.07808,78.07808z" fill="url(#color-6)" stroke="none" stroke-width="0" stroke-linecap="butt"/><g fill="none"><g stroke="#ffffff" stroke-width="25" stroke-linecap="round"><path d="M233.38845,71.27688h-41.49876"/><path d="M21.16352,100.07332h47.48603c0,0 10.25124,1.04048 10.21885,-14.89126c-0.02843,-13.98427 -10.96451,-13.90515 -10.96451,-13.90515h-45.10866c0,0 -12.67426,-0.05727 -12.22757,-16.29985c0.43176,-15.69953 13.14025,-13.93639 13.14025,-13.93639h44.00238"/><path d="M136.2483,71.98596v22.13075c0,0 -0.31555,6.24438 -22.61686,6.2111c-25.44374,-0.03797 -24.84274,-6.32757 -24.84274,-6.32757v-22.13075"/><path d="M147.78358,100.24932v-28.49645"/><path d="M147.90991,83.88918c0,0 6.4812,-6.71287 12.58096,-8.76167c6.20285,-2.08343 23.74613,-3.63678 23.74613,-3.63678"/><path d="M212.52791,100.11601v-28.49645l0.20466,-9.02535c0,0 0.4241,-7.00288 9.29282,-6.99565c9.87242,0.00804 10.04257,7.12896 10.04257,7.12896"/><path d="M280.32803,100.95374c0,0 -37.49893,2.05384 -38.37782,-16.93122c-0.79426,-8.73184 16.0193,-14.97637 26.84659,-12.32757c8.51056,2.08204 11.53123,12.46089 11.53123,12.46089h-38.37782"/><path d="M288.99057,100.91592v-28.49646"/><path d="M289.11683,84.5558c0,0 6.4812,-6.71287 12.58096,-8.76168c6.20285,-2.08343 23.74613,-3.63678 23.74613,-3.63678"/></g><g stroke="#4fffdc" stroke-width="17.5" stroke-linecap="round"><path d="M191.88969,71.27688h41.49877"/><path d="M21.16354,100.0733h47.48603c0,0 10.25124,1.04048 10.21884,-14.89126c-0.02843,-13.98426 -10.96451,-13.90514 -10.96451,-13.90514h-45.10866c0,0 -12.67427,-0.05727 -12.22757,-16.29985c0.43176,-15.69954 13.14025,-13.93639 13.14025,-13.93639h44.00237"/><path d="M136.2483,71.98596v22.13075c0,0 -0.31555,6.24438 -22.61686,6.2111c-25.44374,-0.03797 -24.84274,-6.32757 -24.84274,-6.32757v-22.13075"/><path d="M147.78365,100.2493v-28.49645"/><path d="M147.90991,83.88918c0,0 6.4812,-6.71287 12.58096,-8.76167c6.20285,-2.08344 23.74614,-3.63678 23.74614,-3.63678"/><path d="M212.52791,100.11601v-28.49645l0.20466,-9.02535c0,0 0.42411,-7.00288 9.29282,-6.99565c9.87243,0.00805 10.04257,7.12897 10.04257,7.12897"/><path d="M280.32803,100.95373c0,0 -37.49894,2.05384 -38.37782,-16.93122c-0.79426,-8.73183 16.0193,-14.97636 26.84659,-12.32756c8.51056,2.08203 11.53123,12.46088 11.53123,12.46088h-38.37782"/><path d="M288.99057,100.9159v-28.49646"/><path d="M289.11683,84.55577c0,0 6.4812,-6.71287 12.58096,-8.76167c6.20285,-2.08344 23.74613,-3.63678 23.74613,-3.63678"/></g><g stroke="#000000" stroke-width="10" stroke-linecap="round"><path d="M233.38845,71.27688h-41.49876"/><path d="M21.16352,100.07332h47.48603c0,0 10.25123,1.04047 10.21884,-14.89127c-0.02843,-13.98426 -10.96451,-13.90515 -10.96451,-13.90515h-45.10866c0,0 -12.67427,-0.05727 -12.22757,-16.29985c0.43176,-15.69952 13.14025,-13.93638 13.14025,-13.93638h44.00238"/><path d="M136.2483,71.98596v22.13075c0,0 -0.31554,6.24438 -22.61686,6.2111c-25.44374,-0.03797 -24.84274,-6.32757 -24.84274,-6.32757v-22.13075"/><path d="M147.78358,71.75284v28.49645"/><path d="M147.90991,83.88918c0,0 6.4812,-6.71287 12.58096,-8.76167c6.20285,-2.08343 23.74613,-3.63678 23.74613,-3.63678"/><path d="M212.52791,100.11601v-28.49645l0.20466,-9.02535c0,0 0.4241,-7.00288 9.29283,-6.99565c9.87243,0.00804 10.04257,7.12897 10.04257,7.12897"/><path d="M280.32803,100.95374c0,0 -37.49893,2.05384 -38.37782,-16.93122c-0.79426,-8.73184 16.0193,-14.97637 26.84659,-12.32757c8.51056,2.08203 11.53123,12.46088 11.53123,12.46088h-38.37782"/><path d="M288.99057,100.9159v-28.49645"/><path d="M289.11683,84.5558c0,0 6.4812,-6.71287 12.58096,-8.76167c6.20285,-2.08343 23.74613,-3.63678 23.74613,-3.63678"/></g><g stroke="#46e0c2" stroke-width="7.5" stroke-linecap="round"><path d="M233.38845,71.27688h-41.49876"/><path d="M21.16354,100.07332h47.48603c0,0 10.25124,1.04047 10.21884,-14.89127c-0.02843,-13.98426 -10.96451,-13.90514 -10.96451,-13.90514h-45.10866c0,0 -12.67427,-0.05727 -12.22757,-16.29985c0.43176,-15.69954 13.14025,-13.93639 13.14025,-13.93639h44.00237"/><path d="M136.2483,71.98601v22.13075c0,0 -0.31555,6.24438 -22.61686,6.2111c-25.44374,-0.03798 -24.84274,-6.32758 -24.84274,-6.32758v-22.13075"/><path d="M147.78365,100.2493v-28.49645"/><path d="M147.90991,83.88918c0,0 6.4812,-6.71287 12.58096,-8.76167c6.20285,-2.08344 23.74614,-3.63678 23.74614,-3.63678"/><path d="M212.52791,100.11601v-28.49645l0.20466,-9.02535c0,0 0.42411,-7.00288 9.29283,-6.99565c9.87243,0.00805 10.04257,7.12897 10.04257,7.12897"/><path d="M280.32803,100.95373c0,0 -37.49893,2.05383 -38.37782,-16.93123c-0.79426,-8.73183 16.0193,-14.97636 26.84659,-12.32756c8.51056,2.08204 11.53123,12.46089 11.53123,12.46089h-38.37782"/><path d="M288.99057,100.9159v-28.49646"/><path d="M289.11683,84.55577c0,0 6.4812,-6.71287 12.58096,-8.76167c6.20285,-2.08344 23.74613,-3.63678 23.74613,-3.63678"/></g><path d="M-35.30554,141.34032v-140h388v140z" stroke="none" stroke-width="NaN" stroke-linecap="butt"/></g><g stroke="none" stroke-width="1" stroke-linecap="butt"><path d="M91.03906,244.80896c0.67354,3.92133 0.56815,7.93671 -0.31017,11.81743c-0.87837,3.88042 -2.5124,7.54996 -4.80893,10.79907c-2.29658,3.24907 -5.21051,6.0139 -8.57548,8.13677c-3.36521,2.12291 -7.1153,3.56212 -11.03662,4.23566l-5.12887,-29.86006z" fill="#ff9a9a"/><path d="M85.83213,215.20725c3.92128,-0.67353 7.93672,-0.5681 11.81743,0.31017c3.88042,0.87837 7.54996,2.5124 10.79908,4.80898c3.24906,2.29653 6.0139,5.21051 8.13677,8.57548c2.1229,3.36517 3.56212,7.1153 4.23565,11.03657l-29.86006,5.12887z" fill="#fecf99"/><path d="M56.091,220.31568c7.91949,-1.36028 16.05475,0.4811 22.61651,5.11915c6.56176,4.638 11.01215,11.6926 12.37242,19.61205l-29.86006,5.12887z" fill="#ff9a9a"/><path d="M61.33885,250.15531c-0.67353,-3.92128 -0.56815,-7.93671 0.31018,-11.81738c0.87836,-3.88047 2.51239,-7.55001 4.80893,-10.79907c2.29657,-3.24912 5.21055,-6.01391 8.57547,-8.13682c3.36522,-2.12286 7.1153,-3.56212 11.03662,-4.23566l5.12887,29.86006z" fill="#ffb19a"/></g><text transform="translate(105.38909,297.36933) rotate(-4.40392) scale(1.4841,1.4841)" font-size="40" xml:space="preserve" fill="#f0f0f0" fill-rule="nonzero" stroke="#ffffff" stroke-width="3" stroke-linecap="butt" stroke-linejoin="miter" stroke-miterlimit="10" stroke-dasharray="" stroke-dashoffset="0" font-family="Handwriting" font-weight="normal" text-anchor="start" style="mix-blend-mode: normal"><tspan x="0" dy="0">x</tspan></text><g><path d="M182.78781,286.52136l21.37449,21.87767l-2.37005,2.93045c-1.538,-0.88118 -3.076,-1.76235 -4.61399,-2.64352c-1.82172,-1.04373 -3.6249,-2.11375 -5.42388,-3.19618c-1.71933,-1.03451 -3.72541,-2.31665 -5.70908,-2.71353c-1.4814,-0.29639 -3.31566,-0.95831 -4.87539,-0.99857c0.00451,-0.00623 0.00901,-0.01246 0.01352,-0.01869c0,0 0.08794,-0.12149 -0.03355,-0.20943c-0.12149,-0.08794 -0.20943,0.03355 -0.20943,0.03355c-0.04774,0.06595 -0.09511,0.13177 -0.14211,0.19747c-0.02992,0.00132 -0.05972,0.00291 -0.08938,0.00478c0,0 -0.14963,0.01022 -0.13941,0.15985c0.0032,0.04691 0.02011,0.0781 0.04181,0.09883c-0.94076,1.33645 -1.73912,2.63951 -2.50607,4.11345c-0.97088,1.86588 -1.92968,3.7297 -2.82999,5.63076c-0.89843,1.89709 -1.71374,3.84197 -2.52266,5.77898c-0.8115,1.9432 -1.63675,3.871 -2.32698,5.86087c-0.67889,1.95719 -1.36539,3.99321 -1.66876,6.0505c-0.09792,0.40313 -0.55163,1.36784 -0.47151,1.7537c0.21665,1.0433 2.19837,2.80912 2.99049,3.47075c1.59957,1.33606 3.15452,2.83593 4.88476,3.99729c0.75511,0.50684 1.51022,1.01369 2.26533,1.52052l-8.19491,10.13265l-37.53591,-37.93744l17.40806,-23.53879z" fill="#79d481" stroke="#79d481" stroke-width="0.5" stroke-linecap="butt"/><path d="M182.86609,286.22396l21.37449,21.87767l-33.93125,41.95449l-37.53591,-37.93744l17.40806,-23.53879z" fill="#79d481" stroke="#79d481" stroke-width="0.5" stroke-linecap="round"/><path d="M178.45421,339.70567c-0.76251,-0.51181 -1.52502,-1.02362 -2.28753,-1.53543c-1.72134,-1.1554 -3.26825,-2.64921 -4.85963,-3.97844c-0.75621,-0.63163 -2.67002,-2.32656 -2.88945,-3.30328c-0.06828,-0.30391 0.38962,-1.29749 0.47256,-1.63336c0.30064,-2.04349 0.98348,-4.06582 1.65778,-6.00979c0.6882,-1.98402 1.51125,-3.90607 2.32038,-5.84358c0.80712,-1.9327 1.62053,-3.8733 2.51696,-5.76618c0.89871,-1.89768 1.85583,-3.75812 2.82498,-5.62069c0.78874,-1.51584 1.60853,-2.8456 2.58637,-4.22225c1.56673,-0.03539 3.516,0.69402 5.0287,0.99668c1.94847,0.38984 3.92397,1.65998 5.61329,2.67642c1.80081,1.08352 3.60584,2.15464 5.42941,3.19942c1.52402,0.87317 3.04803,1.74633 4.57205,2.6195z" fill="#11e324" stroke="#11e324" stroke-width="0.5" stroke-linecap="butt"/><path d="M150.65786,307.59337l0.30274,0.21628l1.0208,0.52136l2.89234,1.59983l5.74812,2.59288l5.85806,2.13806l4.30678,1.31227l1.34682,0.80691l1.68075,6.03732c0,0 0.94642,4.08765 1.43109,6.12782c0.14545,0.83801 0.36162,1.69329 0.47595,2.54042l-0.0302,0.00206c-0.50173,0.0567 -0.68977,0.85309 -0.76049,1.33744c-0.20876,1.42962 -0.8388,4.19051 -0.8388,4.19051l-1.00536,2.47689l-0.66406,3.42934l-1.7765,3.72516l-0.8456,1.27804l-1.80554,-0.31535l-0.4025,-1.5682l-0.76522,-1.1242l-1.03635,-1.19986l-1.93726,-0.75399l-0.59604,-1.55056l-1.71606,-3.18384l-1.38215,-1.54627l-2.19582,-3.16376l-1.68431,-0.55984l-3.10913,-1.46545l-0.80867,-2.41331l-1.73803,-5.31242l-1.90546,-5.50926l0.36291,-5.62636l1.67446,-4.76965l-0.06535,-0.20179l-0.03827,-0.01479z" fill="#40d74d" stroke="#40d74d" stroke-width="0.5" stroke-linecap="butt"/><path d="M170.21638,350.16269l-2.05201,-2.07396c-0.07437,-0.70115 -0.15159,-1.4022 -0.22762,-2.10385c-0.2262,-2.08748 -0.4524,-4.17497 -0.6786,-6.26246c-0.22682,-2.09318 -0.55462,-4.16319 -0.8838,-6.24254c-0.32831,-2.07388 -0.65662,-4.14776 -0.98493,-6.22163c-0.29366,-1.85499 -0.68954,-3.69595 -1.06256,-5.53765c1.49736,0.03434 2.99077,0.03057 4.49496,0.00848c2.09948,-0.03082 4.19896,-0.06163 6.29844,-0.09245c2.09948,-0.03082 4.19895,-0.06163 6.29843,-0.09244c2.09657,-0.03077 4.20183,-0.25462 6.29382,-0.39751c2.09482,-0.14308 4.18965,-0.28617 6.28447,-0.42925c0.01186,-0.00081 0.02372,-0.00163 0.03559,-0.00244z" fill="#0f9b1b" stroke="#0f9b1b" stroke-width="0.5" stroke-linecap="butt"/><path d="M155.17886,288.35247c0.90821,-0.06132 1.81643,-0.12266 2.72464,-0.18398c2.07722,-0.14027 4.15208,-0.29628 6.22719,-0.46489c2.09281,-0.17006 4.18561,-0.34011 6.27842,-0.51017c2.09281,-0.17006 4.18562,-0.3401 6.27842,-0.51016c0.50059,-0.04067 2.9877,-0.32233 3.48545,-0.37226c0.6077,1.7976 -0.7482,3.82718 -0.21777,5.64812c0.58722,2.01592 1.17444,4.03184 1.76166,6.04776c0.5874,2.01653 1.17236,4.02393 1.66019,6.06702c0.48764,2.04229 8.20906,-1.52066 8.69669,0.52163c0.13476,0.56439 7.06139,9.5839 7.19547,10.14795z" fill="#89ea8f" stroke="#89ea8f" stroke-width="0.5" stroke-linecap="butt"/><path d="M182.97264,286.31689l21.37449,21.87767l-5.27134,6.51779c-3.83382,-2.83985 -19.92872,-11.47906 -23.26737,-14.05485c-0.05214,-0.04023 2.63828,-13.10757 2.90481,-14.03358z" fill="#5bb260" stroke="#5bb260" stroke-width="0.5" stroke-linecap="butt"/><path d="M169.69265,349.831l-37.21848,-37.69186l17.40806,-23.53879l4.48111,-0.323c-0.22435,2.61343 -4.60949,29.2628 -4.60949,29.2628z" fill="#bbffc2" stroke="#bbffc2" stroke-width="0.5" stroke-linecap="butt"/><path d="M167.35707,297.3019c0.78719,1.06909 12.39011,6.49367 12.39011,6.49367l-16.37666,39.58064l-16.4346,-16.76523c0,0 6.72447,-21.88876 8.9973,-25.52958c4.06971,-6.51925 11.42386,-3.7795 11.42386,-3.7795z" fill="url(#color-7)" stroke="none" stroke-width="0" stroke-linecap="butt"/><path d="M179.97901,329.80893l-11.68987,0.79845c-3.99014,0.27254 -7.00608,-0.32322 -9.04782,-1.78726c-2.0355,-1.46447 -3.16653,-3.85511 -3.39308,-7.17191l-1.01755,-14.89756c-0.22655,-3.3168 0.56849,-5.84526 2.38512,-7.58537c1.82243,-1.74677 4.72872,-2.75642 8.71886,-3.02896l11.68987,-0.79845c0.60476,-0.04131 1.05055,0.06604 1.33737,0.32206c0.29264,0.24935 0.4596,0.67641 0.50091,1.28116l0.39539,5.78882c0.04173,0.61099 -0.06519,1.06301 -0.32078,1.35607c-0.24977,0.28639 -0.67704,0.45025 -1.2818,0.49156l-9.62309,0.65729c-0.9913,0.06771 -1.71336,0.31747 -2.16617,0.74927c-0.45281,0.4318 -0.65196,1.04672 -0.59745,1.84475l0.77801,11.39061c0.05451,0.79803 0.33435,1.36457 0.83955,1.69962c0.50519,0.33506 1.25343,0.46873 2.24473,0.40102l9.62309,-0.65729c0.60476,-0.04131 1.05055,0.06604 1.33737,0.32206c0.29264,0.24935 0.4596,0.67641 0.50091,1.28116l0.38964,5.70465c0.04131,0.60475 -0.06583,1.05366 -0.32142,1.34673c-0.24977,0.28639 -0.67704,0.45025 -1.2818,0.49156z" fill="#ffffff" stroke="none" stroke-width="1" stroke-linecap="square"/><path d="M173.59094,320.39664l-5.31188,0.36282c-0.1434,0.00979 -0.2484,-0.01436 -0.315,-0.07244c-0.0666,-0.05808 -0.1048,-0.15883 -0.1146,-0.30222l-0.13095,-1.91714c-0.02981,-0.43642 -0.01356,-0.79456 0.04876,-1.07442c0.06813,-0.28652 0.17415,-0.52239 0.3181,-0.7076c0.14351,-0.19145 0.32076,-0.34762 0.53173,-0.46851c0.21098,-0.1209 0.4386,-0.22726 0.68287,-0.31911l1.46436,-0.5698c0.11632,-0.03927 0.19128,-0.08823 0.22486,-0.1469c0.03938,-0.06532 0.05503,-0.15722 0.04694,-0.27567c-0.00767,-0.11222 -0.0346,-0.18555 -0.08079,-0.21997c-0.04662,-0.04066 -0.12604,-0.05716 -0.23827,-0.04949l-2.42214,0.16544c-0.1434,0.00979 -0.2484,-0.01436 -0.315,-0.07244c-0.0666,-0.05808 -0.1048,-0.15883 -0.1146,-0.30222l-0.08943,-1.30926c-0.00937,-0.13716 0.01499,-0.23905 0.07308,-0.30565c0.05766,-0.07284 0.15819,-0.11415 0.30159,-0.12395l3.29187,-0.22484c0.63593,-0.04344 1.13309,0.08233 1.49147,0.3773c0.35839,0.29497 0.55823,0.74484 0.59954,1.34959l0.07154,1.04741c0.0379,0.55488 -0.08879,0.9926 -0.38008,1.31315c-0.29129,0.32055 -0.69948,0.58019 -1.22459,0.77891l-1.48243,0.58043c-0.11009,0.03884 -0.18568,0.07845 -0.22677,0.11884c-0.03485,0.03996 -0.04823,0.11917 -0.04014,0.23763l0.01597,0.2338l3.17964,-0.21718c0.1434,-0.00979 0.24861,0.01747 0.31564,0.08179c0.0666,0.05808 0.10459,0.15572 0.11396,0.29287l0.08943,1.30926c0.00979,0.1434 -0.01436,0.2484 -0.07244,0.315c-0.05808,0.0666 -0.15883,0.1048 -0.30222,0.1146zM179.12695,320.01851l-3.54436,0.24209c-0.1434,0.00979 -0.2484,-0.01436 -0.315,-0.07244c-0.0666,-0.05808 -0.1048,-0.15883 -0.1146,-0.30222l-0.08943,-1.30926c-0.00937,-0.13716 0.01499,-0.23905 0.07308,-0.30565c0.05766,-0.07284 0.15819,-0.11415 0.30159,-0.12395l2.88038,-0.19674c0.08729,-0.00596 0.15771,-0.02956 0.21126,-0.0708c0.05313,-0.04747 0.07672,-0.11485 0.07076,-0.20214l-0.03002,-0.43954c-0.00596,-0.08729 -0.03827,-0.14771 -0.09694,-0.18129c-0.05909,-0.03981 -0.13228,-0.05673 -0.21956,-0.05077l-2.76816,0.18907c-0.1434,0.00979 -0.2484,-0.01436 -0.315,-0.07244c-0.0666,-0.05808 -0.1048,-0.15883 -0.1146,-0.30222l-0.28553,-4.18029c-0.00937,-0.13716 0.01499,-0.23905 0.07308,-0.30565c0.05766,-0.07284 0.15819,-0.11415 0.30159,-0.12395l4.80687,-0.32832c0.1434,-0.00979 0.24861,0.01747 0.31564,0.08179c0.0666,0.05808 0.10459,0.15572 0.11396,0.29287l0.0907,1.32797c0.00979,0.1434 -0.01436,0.2484 -0.07244,0.315c-0.05808,0.0666 -0.15883,0.1048 -0.30222,0.1146l-2.67464,0.18269l0.04982,0.72945l1.52436,-0.10412c0.60475,-0.04131 1.09192,0.07575 1.4615,0.35116c0.36958,0.27541 0.57438,0.70615 0.61441,1.2922l0.10603,1.55241c0.03875,0.56734 -0.12676,1.03277 -0.49655,1.39627c-0.36398,0.35684 -0.88263,0.55825 -1.55597,0.60424z" fill="#ffffff" stroke="none" stroke-width="1" stroke-linecap="square"/></g><text transform="translate(348.00001,304.86494) scale(0.74077,0.74077)" font-size="40" xml:space="preserve" fill="#ffffff" fill-rule="nonzero" stroke="#ffffff" stroke-width="0.5" stroke-linecap="butt" stroke-linejoin="miter" stroke-miterlimit="10" stroke-dasharray="" stroke-dashoffset="0" font-family="Handwriting" font-weight="normal" text-anchor="start" style="mix-blend-mode: normal"><tspan x="0" dy="0">Surfing </tspan></text><text transform="translate(383.32296,326.44319) scale(0.82163,0.82163)" font-size="40" xml:space="preserve" fill="#ffffff" fill-rule="nonzero" stroke="#ffffff" stroke-width="2" stroke-linecap="butt" stroke-linejoin="miter" stroke-miterlimit="10" stroke-dasharray="" stroke-dashoffset="0" font-family="Handwriting" font-weight="normal" text-anchor="start" style="mix-blend-mode: normal"><tspan x="0" dy="0">x</tspan></text><text transform="translate(341.27529,352.21442) scale(0.66763,0.66763)" font-size="40" xml:space="preserve" fill="#ffffff" fill-rule="nonzero" stroke="#ffffff" stroke-width="0.5" stroke-linecap="butt" stroke-linejoin="miter" stroke-miterlimit="10" stroke-dasharray="" stroke-dashoffset="0" font-family="Handwriting" font-weight="normal" text-anchor="start" style="mix-blend-mode: normal"><tspan x="0" dy="0">BattleCats</tspan></text></g></g></svg>