<svg version="1.1" xmlns="http://www.w3.org/2000/svg" xmlns:xlink="http://www.w3.org/1999/xlink" width="40.08154" height="46.64619" viewBox="0,0,40.08154,46.64619"><g transform="translate(-219.95922,-156.67691)"><g data-paper-data="{&quot;isPaintingLayer&quot;:true}" fill="#ff0000" fill-rule="nonzero" stroke="#000000" stroke-width="0" stroke-linecap="square" stroke-linejoin="miter" stroke-miterlimit="10" stroke-dasharray="" stroke-dashoffset="0" style="mix-blend-mode: normal"><path d="M222.25187,203.32297c-0.89992,0 -1.54985,-0.36663 -1.94982,-1.09991c-0.39997,-0.76659 -0.44995,-1.51654 -0.14997,-2.2498l17.54855,-41.64649c0.43331,-1.09991 1.1999,-1.64985 2.29981,-1.64985c1.03326,0 1.76651,0.54997 2.19982,1.64988l17.59853,41.69651c0.36663,0.76659 0.31665,1.51654 -0.14997,2.24983c-0.46662,0.69994 -1.11658,1.04993 -1.94982,1.04993c-0.46662,0 -0.89992,-0.11666 -1.29989,-0.34995c-0.36663,-0.23332 -0.6666,-0.59995 -0.89992,-1.09991l-16.39863,-39.79667h1.84986l-16.5486,39.79667c-0.19998,0.49996 -0.49996,0.86658 -0.89992,1.09991c-0.36663,0.23332 -0.78326,0.34999 -1.24988,0.34999zM226.20155,192.2239l1.79985,-3.99966h24.19797l1.79985,3.99966z"/></g></g></svg>