<svg version="1.1" xmlns="http://www.w3.org/2000/svg" xmlns:xlink="http://www.w3.org/1999/xlink" width="39.72812" height="46.54789" viewBox="0,0,39.72812,46.54789"><g transform="translate(-220.13594,-156.72606)"><g data-paper-data="{&quot;isPaintingLayer&quot;:true}" fill="#ff0000" fill-rule="nonzero" stroke="#000000" stroke-width="0" stroke-linecap="square" stroke-linejoin="miter" stroke-miterlimit="10" stroke-dasharray="" stroke-dashoffset="0" style="mix-blend-mode: normal"><path d="M245.24999,203.27371h-10.44616c-0.82995,0 -1.4253,-0.1804 -1.78612,-0.54125c-0.36084,-0.36081 -0.54125,-0.95621 -0.54125,-1.78612v-8.28115l-9.9049,-13.26067c-0.97425,-1.33506 -1.62376,-2.48977 -1.94851,-3.46402c-0.32475,-1.01031 -0.48711,-2.48977 -0.48711,-4.43827v-12.44881c0,-0.79381 0.1804,-1.37116 0.54125,-1.732c0.36081,-0.39691 0.95621,-0.59536 1.78615,-0.59536h9.95905c0.79381,0 1.37116,0.19846 1.732,0.5954c0.39691,0.36084 0.5954,0.93819 0.5954,1.732v10.60855c0,0.433 0.01804,0.88405 0.05414,1.35315c0.03606,0.4691 0.19846,0.92015 0.48714,1.35315l2.97691,4.65477c0.2165,0.39694 0.433,0.6856 0.64951,0.86601c0.25256,0.18044 0.5593,0.27064 0.92015,0.27064h0.64951c0.32475,0 0.61341,-0.0902 0.86601,-0.27061c0.25256,-0.1804 0.46907,-0.46907 0.64951,-0.86601l2.97691,-4.65477c0.32475,-0.433 0.50516,-0.88405 0.54125,-1.35312c0.03606,-0.46907 0.05414,-0.92011 0.05414,-1.35312v-10.60855c0,-0.79381 0.1804,-1.37116 0.54125,-1.732c0.36081,-0.39691 0.95621,-0.59536 1.78615,-0.59536h9.63429c0.82991,0 1.4253,0.19846 1.78615,0.5954c0.36081,0.36084 0.54125,0.93819 0.54125,1.732v12.44881c0,1.94851 -0.18044,3.42796 -0.54125,4.43827c-0.32475,0.97425 -0.95621,2.12895 -1.89437,3.46402l-9.8508,13.31482v8.22704c0,0.82995 -0.18044,1.4253 -0.54125,1.78615c-0.36084,0.36084 -0.95621,0.54125 -1.78612,0.54125z"/></g></g></svg>