<svg version="1.1" xmlns="http://www.w3.org/2000/svg" xmlns:xlink="http://www.w3.org/1999/xlink" width="28.1877" height="47.56527" viewBox="0,0,28.1877,47.56527"><g transform="translate(-225.90615,-156.21736)"><g data-paper-data="{&quot;isPaintingLayer&quot;:true}" fill="#ff0000" fill-rule="nonzero" stroke="#000000" stroke-width="0" stroke-linecap="square" stroke-linejoin="miter" stroke-miterlimit="10" stroke-dasharray="" stroke-dashoffset="0" style="mix-blend-mode: normal"><path d="M244.12677,156.32803l9.62814,-0.11067c-0.07377,4.13159 -0.01845,8.31857 0.16602,12.56086c0.18447,4.20539 0.22134,8.44765 0.11067,12.72685c-0.07377,1.80756 -0.14753,3.76272 -0.22134,5.86542c-0.03687,2.1027 -0.2582,4.13159 -0.66401,6.08675c-0.40577,1.91823 -1.12513,3.6705 -2.15801,5.25676c-1.03288,1.58622 -2.56382,2.74826 -4.59271,3.48607c-1.84446,0.92221 -3.87339,1.43869 -6.08675,1.54936c-2.21336,0.11067 -4.31606,-0.05532 -6.30809,-0.49799c-1.80756,-0.51648 -3.2647,-1.47559 -4.37138,-2.87737c-1.06982,-1.43869 -1.89981,-3.06184 -2.49002,-4.8694c-0.55334,-1.84449 -0.92221,-3.76272 -1.10668,-5.75475c-0.14753,-2.02893 -0.16598,-3.87339 -0.05532,-5.53341c0.55334,-0.11067 1.25422,-0.18447 2.1027,-0.22134c0.88535,-0.0738 1.78914,-0.11067 2.71139,-0.11067c0.92221,0 1.84449,0.05535 2.76671,0.16602c0.95915,0.07377 1.84449,0.18444 2.65604,0.332v0.05535v0.332c0.0369,0.66401 0.11067,1.42024 0.22134,2.26872c0.11067,0.84844 0.31355,1.66002 0.60869,2.4347c0.332,0.77468 0.73781,1.43869 1.21735,1.99203c0.47957,0.51644 1.10668,0.79313 1.88136,0.83003c0.66401,0.11067 1.2358,0.05535 1.71538,-0.16598c0.51648,-0.22134 0.9407,-0.55334 1.2727,-0.99601c0.332,-0.47957 0.57179,-1.01446 0.71936,-1.60467c0.18447,-0.59024 0.29514,-1.21735 0.332,-1.88136c-0.07377,-4.9432 -0.14753,-9.99704 -0.22134,-15.16155c-0.07377,-5.20141 -0.01845,-10.42126 0.16602,-15.65954z"/></g></g></svg>