<svg version="1.1" xmlns="http://www.w3.org/2000/svg" xmlns:xlink="http://www.w3.org/1999/xlink" width="24.4207" height="45.51773" viewBox="0,0,24.4207,45.51773"><g transform="translate(-227.78965,-157.64114)"><g data-paper-data="{&quot;isPaintingLayer&quot;:true}" fill="#ff0000" fill-rule="nonzero" stroke="#000000" stroke-width="0" stroke-linecap="square" stroke-linejoin="miter" stroke-miterlimit="10" stroke-dasharray="" stroke-dashoffset="0" style="mix-blend-mode: normal"><path d="M241.29091,166.75993c0,0.59021 0,1.1989 0,1.82604c0.0369,0.59021 0.05535,1.21735 0.05535,1.88136c1.36492,-0.0369 2.80361,-0.09222 4.31606,-0.16598c1.51249,-0.11067 3.39385,-0.22134 5.64408,-0.332c0.332,0.332 0.51648,0.84844 0.55334,1.54936c0.0369,0.66401 0.0369,1.40179 0,2.21336c-0.03687,0.77468 -0.09222,1.56781 -0.16598,2.37938c-0.07377,0.81154 -0.07377,1.51245 0,2.1027h-10.23679c0,2.3609 0,4.68493 0,6.9721c0,2.25023 0.01845,4.37141 0.05535,6.36344c0.44267,0.62711 1.08823,1.12513 1.93671,1.49404c0.84848,0.332 1.75224,0.60869 2.71139,0.83003c0.95915,0.18444 1.93671,0.2951 2.93273,0.332c0.99601,0.03687 1.86291,0.03687 2.60072,0c0.11067,0.62711 0.20289,1.30957 0.27669,2.04738c0.11067,0.73778 0.18447,1.51245 0.22134,2.32403c0.0369,0.77468 0.01845,1.56781 -0.05532,2.37938c-0.07377,0.77468 -0.22134,1.49404 -0.44267,2.15805c-1.73379,0.07377 -3.55983,0.05535 -5.47806,-0.05532c-1.88136,-0.11067 -3.6705,-0.35046 -5.36739,-0.71933c-1.66002,-0.40581 -3.13558,-0.99601 -4.42673,-1.77069c-1.29112,-0.81158 -2.23182,-1.89981 -2.82202,-3.2647c-0.55334,-3.39385 -0.88535,-6.60323 -0.99601,-9.62814c-0.07377,-3.02494 -0.09222,-6.14207 -0.05532,-9.35145c-0.70088,0.03687 -1.43869,0.05535 -2.21336,0.05535c-0.77468,0 -1.62312,0 -2.54537,0l0.22134,-8.02343c0.88535,0.03687 1.69692,0.05535 2.4347,0.05535c0.77468,0 1.51249,0 2.21336,0c0,-0.95915 -0.01845,-1.99203 -0.05532,-3.09871c-0.03687,-1.14358 -0.05532,-2.28717 -0.05532,-3.43072c0,-1.14358 0,-2.25027 0,-3.32005c0.0369,-1.06982 0.11067,-2.01048 0.22134,-2.82202c0.55334,-0.11067 1.16203,-0.12912 1.82604,-0.05532c0.70091,0.03687 1.42024,0.09222 2.15805,0.16602c0.77468,0.03687 1.5309,0.09222 2.26872,0.16602c0.73781,0.03687 1.49404,0 2.26872,-0.11067z"/></g></g></svg>