<svg version="1.1" xmlns="http://www.w3.org/2000/svg" xmlns:xlink="http://www.w3.org/1999/xlink" width="28.99481" height="46.78487" viewBox="0,0,28.99481,46.78487"><g transform="translate(-225.50259,-156.60757)"><g data-paper-data="{&quot;isPaintingLayer&quot;:true}" fill="#ff0000" fill-rule="nonzero" stroke="#000000" stroke-width="0" stroke-linecap="square" stroke-linejoin="miter" stroke-miterlimit="10" stroke-dasharray="" stroke-dashoffset="0" style="mix-blend-mode: normal"><path d="M250.458,181.36935c0.55334,-0.0738 1.21735,-0.0738 1.99203,0c0.81158,0.07377 1.49404,0.11067 2.04738,0.11067l-0.38732,9.57282c-0.73778,0.22134 -1.45714,0.27669 -2.15801,0.16602c-0.66401,-0.11067 -1.29112,-0.09222 -1.88136,0.05535c0,-0.0369 -0.03687,0.20289 -0.11067,0.71936c-0.03687,0.47954 -0.09222,1.14355 -0.16598,1.99203c-0.03687,0.81154 -0.09222,1.69689 -0.16598,2.65604c-0.07377,0.92221 -0.14753,1.82604 -0.22134,2.71139c-0.03687,0.88535 -0.09222,1.66002 -0.16598,2.32403c-0.03687,0.62711 -0.07377,1.03288 -0.11067,1.21735c-0.2582,0.332 -1.162,0.47954 -2.71135,0.44267c-1.51245,-0.0369 -3.78117,-0.01845 -6.80608,0.05535c-0.03687,-0.0738 -0.03687,-0.40581 0,-0.99601c0.0369,-0.62714 0.0738,-1.38334 0.11067,-2.26868c0.0738,-0.92225 0.12912,-1.89981 0.16602,-2.93269c0.0738,-1.06982 0.14757,-2.06583 0.22134,-2.98804c0.0738,-0.92225 0.12912,-1.71534 0.16602,-2.37935c0.0369,-0.66401 0.05535,-1.05133 0.05535,-1.162c-0.18444,-0.0369 -0.64556,-0.0738 -1.38334,-0.11067c-0.73778,-0.0369 -1.62312,-0.05532 -2.65604,-0.05532c-1.03288,0 -2.13956,0.01845 -3.32005,0.05535c-1.18045,0 -2.26868,0 -3.2647,0c-0.95911,0 -1.77069,0 -2.4347,0c-0.66401,-0.0369 -1.01446,-0.11067 -1.05133,-0.22134c-0.11067,-0.29514 -0.27665,-1.29115 -0.49799,-2.98804c-0.22134,-1.73383 -0.27665,-3.9287 -0.16598,-6.58474c0.44267,-0.59024 0.95915,-1.47559 1.54936,-2.65604c0.62714,-1.18048 1.47559,-2.72984 2.54537,-4.64807c1.10668,-1.91826 2.4716,-4.24229 4.09472,-6.9721c1.66002,-2.72984 3.72585,-5.93922 6.19742,-9.62814c0,-0.0369 0.01845,-0.05532 0.05535,-0.05532c0.18447,0 0.77468,0 1.77069,0c0.99601,-0.0369 2.06583,-0.0738 3.20938,-0.11067c1.14358,-0.0369 2.23182,-0.05532 3.26473,-0.05532c1.06982,-0.0369 1.78914,-0.0369 2.15805,0h0.11067c0,0.07377 -0.01845,0.68246 -0.05532,1.82604c-0.03687,1.14355 -0.09222,2.58224 -0.16598,4.31606c-0.03687,1.73379 -0.09222,3.6336 -0.16598,5.69943c-0.03687,2.02889 -0.07377,3.94716 -0.11067,5.75475c-0.03687,1.80756 -0.05532,3.39381 -0.05532,4.75873c0,1.32802 0.0369,2.13956 0.11067,2.4347zM242.32387,167.42515c-0.03687,-0.25824 -0.27665,-0.09222 -0.71933,0.49802c-0.40577,0.59021 -0.94066,1.40179 -1.60467,2.4347c-0.62711,0.99601 -1.30957,2.12115 -2.04734,3.3754c-0.73778,1.25422 -1.43869,2.45315 -2.1027,3.59674c-0.66401,1.10668 -1.2358,2.0658 -1.71534,2.87737c-0.44267,0.77468 -0.68246,1.1989 -0.71933,1.2727c0,0 0.38736,0.01845 1.16203,0.05535c0.81158,0.03687 1.71538,0.07377 2.71139,0.11067c1.03292,0 2.01048,0 2.93273,0c0.95915,0 1.58626,-0.01845 1.88136,-0.05532z"/></g></g></svg>