<svg version="1.1" xmlns="http://www.w3.org/2000/svg" xmlns:xlink="http://www.w3.org/1999/xlink" width="37.996" height="47.52205" viewBox="0,0,37.996,47.52205"><g transform="translate(-221.002,-156.23897)"><g data-paper-data="{&quot;isPaintingLayer&quot;:true}" fill="#ff0000" fill-rule="nonzero" stroke="#000000" stroke-width="0" stroke-linecap="square" stroke-linejoin="miter" stroke-miterlimit="10" stroke-dasharray="" stroke-dashoffset="0" style="mix-blend-mode: normal"><path d="M243.08499,203.76084h-14.83033c-0.82991,0 -1.4253,-0.18044 -1.78612,-0.54125c-0.36084,-0.36084 -0.54125,-0.95621 -0.54125,-1.78612v-7.63165c0,-0.82995 0.1804,-1.4253 0.54125,-1.78612c0.36084,-0.36084 0.95621,-0.54125 1.78615,-0.54125h12.06996c1.58766,0 2.65215,-0.23455 3.19341,-0.70361c0.57735,-0.50519 0.86601,-1.56962 0.86601,-3.19338v-1.40726c-1.01035,0.32475 -2.20111,0.57731 -3.57226,0.75775c-1.37116,0.14431 -2.90472,0.2165 -4.60063,0.2165c-5.80943,0 -9.79666,-0.97425 -11.96166,-2.92277c-2.16501,-1.9846 -3.24752,-4.88932 -3.24752,-8.71415v-6.17028c0,-1.9846 0.27064,-3.77072 0.81189,-5.35838c0.54125,-1.62376 1.51551,-2.99495 2.92277,-4.11352c1.40726,-1.15469 3.30166,-2.03871 5.68317,-2.65212c2.41761,-0.64951 5.48468,-0.97425 9.20129,-0.97425c3.96917,0 7.21669,0.32475 9.74255,0.97425c2.52585,0.61341 4.49241,1.49746 5.89967,2.65215c1.40726,1.11857 2.38151,2.48977 2.92277,4.11352c0.54125,1.58766 0.81189,3.37382 0.81189,5.35842v21.163c0,3.93308 -1.13661,7.12649 -3.40988,9.58019c-2.23717,2.45367 -6.40483,3.68052 -12.50292,3.68052zM244.38399,174.1543v-3.78877c0,-0.6856 -0.2526,-1.24486 -0.75775,-1.67786c-0.50516,-0.4691 -1.69592,-0.70361 -3.57226,-0.70361c-1.91242,0 -3.13926,0.23455 -3.68052,0.70365c-0.50516,0.433 -0.75775,0.99231 -0.75775,1.6779v3.78877c0,0.64951 0.2526,1.20881 0.75775,1.6779c0.54125,0.433 1.7681,0.64951 3.68052,0.64951c1.87636,0 3.06711,-0.2165 3.57226,-0.64951c0.50516,-0.4691 0.75775,-1.02836 0.75775,-1.67786z"/></g></g></svg>