<svg version="1.1" xmlns="http://www.w3.org/2000/svg" xmlns:xlink="http://www.w3.org/1999/xlink" width="14.14883" height="46.69612" viewBox="0,0,14.14883,46.69612"><g transform="translate(-232.92558,-156.65194)"><g data-paper-data="{&quot;isPaintingLayer&quot;:true}" fill="#ff0000" fill-rule="nonzero" stroke="#000000" stroke-width="0" stroke-linecap="square" stroke-linejoin="miter" stroke-miterlimit="10" stroke-dasharray="" stroke-dashoffset="0" style="mix-blend-mode: normal"><path d="M244.72454,203.348c-0.63329,0 -1.18323,-0.21665 -1.64985,-0.64993c-0.43331,-0.43331 -0.64993,-0.99992 -0.64993,-1.69986v-38.79675l-5.9995,2.09982c-0.43331,0.19998 -0.8166,0.29997 -1.14989,0.29997c-0.69994,0 -1.26655,-0.21665 -1.69986,-0.64993c-0.43331,-0.43331 -0.64993,-0.96658 -0.64993,-1.59987c0,-0.49996 0.09999,-0.93327 0.29997,-1.29989c0.23332,-0.39997 0.63329,-0.69994 1.1999,-0.89992l9.19923,-3.19973c0.19998,-0.06665 0.39997,-0.13333 0.59995,-0.19998c0.23332,-0.06665 0.43331,-0.09999 0.59995,-0.09999c0.6666,0 1.1999,0.23332 1.59987,0.69994c0.43331,0.46662 0.64996,1.01659 0.64996,1.64988v41.99648c0,0.69994 -0.21665,1.26655 -0.64993,1.69986c-0.43331,0.43331 -0.99992,0.64996 -1.69986,0.64996z"/></g></g></svg>