<svg version="1.1" xmlns="http://www.w3.org/2000/svg" xmlns:xlink="http://www.w3.org/1999/xlink" width="29.7145" height="46.2776" viewBox="0,0,29.7145,46.2776"><g transform="translate(-225.14275,-156.8612)"><g data-paper-data="{&quot;isPaintingLayer&quot;:true}" fill="#ff0000" fill-rule="nonzero" stroke="#000000" stroke-width="0" stroke-linecap="square" stroke-linejoin="miter" stroke-miterlimit="10" stroke-dasharray="" stroke-dashoffset="0" style="mix-blend-mode: normal"><path d="M241.4662,186.15117c-1.47555,0.11067 -2.85892,0.27669 -4.15004,0.49802h-0.11067c-0.22134,2.76671 -0.35046,5.53341 -0.38732,8.30012c-0.03687,2.76671 -0.07377,5.40429 -0.11067,7.9128c-0.88535,0.07377 -1.93668,0.12912 -3.15403,0.16602c-1.21735,0.07377 -2.41625,0.11067 -3.5967,0.11067c-1.18045,0 -2.23182,-0.0369 -3.15403,-0.11067c-0.88535,-0.0369 -1.42024,-0.09222 -1.60467,-0.16598l-0.05532,-0.05532c0,-2.65604 0,-5.12764 0,-7.41477c0,-2.32403 0,-4.55585 0,-6.69541c0.03687,-2.17646 0.05535,-4.35296 0.05535,-6.52943c0,-2.21336 0,-4.51895 0,-6.91675c0.03687,-2.4347 0.05535,-5.05384 0.05535,-7.85744c0,-2.80361 0,-5.92073 0,-9.35145v-0.05532c0.77468,-0.14757 1.86291,-0.27665 3.26473,-0.38732c1.40179,-0.14757 2.98804,-0.27665 4.75873,-0.38732c1.80759,-0.14757 3.7074,-0.23979 5.69943,-0.27665c1.99203,-0.07377 3.94719,-0.09222 5.86542,-0.05532c1.95516,0 3.79962,0.09222 5.53341,0.27669c1.73383,0.14757 3.20938,0.38736 4.42673,0.71936c0,0.55334 0,1.2727 0,2.15805c0.0369,0.88535 0.05535,1.80759 0.05535,2.76671c0,0.92225 0,1.82604 0,2.71139c0,0.84844 -0.01845,1.54936 -0.05532,2.1027c-1.18045,0.11067 -2.50847,0.22134 -3.98406,0.332c-1.47555,0.07377 -3.00649,0.14757 -4.59271,0.22134c-1.54936,0.0369 -3.11716,0.11067 -4.70338,0.22134c-1.54936,0.07377 -3.00649,0.18444 -4.37138,0.332c-0.47954,1.14358 -0.68246,2.25027 -0.60866,3.32005c0.11067,1.03292 0.36891,1.89981 0.77468,2.60072c0.0369,0.0369 0.0738,0.05535 0.11067,0.05535c0.62714,0.11067 1.32802,0.18444 2.1027,0.22134c0.77468,0 1.5309,0 2.26872,0c0.73781,0 1.45714,-0.01845 2.15805,-0.05532c0.70091,-0.07377 1.29115,-0.12912 1.77069,-0.16598c0.14757,0.332 0.22134,0.9407 0.22134,1.82604c0.0369,0.84844 0.0369,1.82604 0,2.93273c-0.03687,1.06978 -0.07377,2.15805 -0.11067,3.26473c0,1.06978 0.0369,2.01048 0.11067,2.82206c0,0.07377 -0.07377,0.11067 -0.22134,0.11067c-1.36488,0.22134 -2.78516,0.38736 -4.26071,0.49802z"/></g></g></svg>