<svg version="1.1" xmlns="http://www.w3.org/2000/svg" xmlns:xlink="http://www.w3.org/1999/xlink" width="27.61202" height="47.25544" viewBox="0,0,27.61202,47.25544"><g transform="translate(-226.19399,-156.37228)"><g data-paper-data="{&quot;isPaintingLayer&quot;:true}" fill="#ff0000" fill-rule="nonzero" stroke="#000000" stroke-width="0" stroke-linecap="square" stroke-linejoin="miter" stroke-miterlimit="10" stroke-dasharray="" stroke-dashoffset="0" style="mix-blend-mode: normal"><path d="M248.54884,203.46117c-1.14355,-0.11067 -2.15801,-0.16598 -3.04336,-0.16598c-1.43869,-3.24624 -2.87737,-6.40031 -4.31606,-9.46212c-1.43869,-3.06181 -2.65604,-6.01295 -3.65205,-8.85346l-0.66401,-1.99203c-0.18447,-0.47954 -0.35046,-0.92221 -0.49799,-1.32802c-0.14753,-0.40577 -0.27665,-0.60866 -0.38732,-0.60866c-0.03687,0 -0.09222,0.53489 -0.16598,1.60471c-0.03687,1.03292 -0.09222,2.36093 -0.16598,3.98406c-0.03687,1.62316 -0.0738,3.43072 -0.11067,5.42274c0,1.99203 0,3.91029 0,5.75475c0,0.99601 0,1.97358 0,2.93273c0,0.95915 0.01845,1.80759 0.05535,2.54537c-0.47954,0.14757 -0.95915,0.23979 -1.43869,0.27669c-0.47954,0.0369 -0.95915,0.05535 -1.43869,0.05535c-1.06982,0 -2.13956,-0.07377 -3.20938,-0.22134c-1.06982,-0.11067 -2.12115,-0.16598 -3.15403,-0.16598v-4.64807c0,-4.16849 -0.03687,-8.15255 -0.11067,-11.95217c-0.03687,-3.79959 -0.05532,-7.76523 -0.05532,-11.89682c0,-3.02491 0.03687,-6.01295 0.11067,-8.96413c0.0738,-2.98804 0.22134,-5.90228 0.44267,-8.74279c0.44267,-0.07377 0.92221,-0.12912 1.43869,-0.16598c0.51648,-0.07377 1.03288,-0.11067 1.54936,-0.11067c0.2582,0 0.70088,0.01845 1.32802,0.05535c0.62714,0.0369 1.2358,0.09222 1.82604,0.16602c0.62714,0.0369 1.16203,0.11067 1.60471,0.22134c0.47954,0.0738 0.71936,0.14757 0.71936,0.22134c0.332,0.81158 0.62714,1.49404 0.88535,2.04738c0.2582,0.51648 0.49802,1.01446 0.71936,1.49404c0.2582,0.47957 0.51648,1.01446 0.77468,1.60471c0.29514,0.59024 0.64556,1.34647 1.05137,2.26872c0.11067,0.22134 0.31355,0.64556 0.60869,1.2727c0.29514,0.59024 0.64556,1.30957 1.05137,2.15805c0.40581,0.81158 0.83003,1.67847 1.2727,2.60072c0.44267,0.88535 0.84848,1.69692 1.21735,2.4347c0.36887,0.70091 0.68246,1.30957 0.9407,1.82604c0.2582,0.47957 0.42422,0.71936 0.49802,0.71936c0.11067,-0.07377 0.20289,-0.49799 0.27669,-1.27267c0.11067,-0.81154 0.16602,-1.58622 0.16602,-2.32403c0,-1.77069 -0.03687,-3.41226 -0.11067,-4.92472c-0.0738,-1.51245 -0.11067,-3.06181 -0.11067,-4.64807c0,-0.92221 0,-1.86291 0,-2.82202c0.03687,-0.95911 0.09222,-1.99203 0.16602,-3.09871c1.47555,-0.2582 3.06184,-0.38732 4.75873,-0.38732c1.62316,0 3.06184,0.12912 4.31606,0.38736v21.30365c0.0738,1.84449 0.11067,3.72585 0.11067,5.64408c0,1.88136 0,3.76272 0,5.64408c0,1.29115 -0.01845,2.52692 -0.05532,3.7074c-0.03687,1.18048 -0.05532,2.39784 -0.05532,3.65205c0,0.84848 0.01845,1.71538 0.05535,2.60072c0.03687,0.88535 0.05535,1.77069 0.05535,2.65604v1.32802c-0.11067,0.0369 -0.31355,0.09222 -0.60866,0.16602c-0.29514,0.11067 -0.82999,0.16602 -1.60467,0.16602c-0.88535,0 -1.89981,-0.05532 -3.04336,-0.16598z"/></g></g></svg>