<svg version="1.1" xmlns="http://www.w3.org/2000/svg" xmlns:xlink="http://www.w3.org/1999/xlink" width="122.474" height="122.2295" viewBox="0,0,122.474,122.2295"><g transform="translate(-178.763,-118.88523)"><g data-paper-data="{&quot;isPaintingLayer&quot;:true}" fill-rule="nonzero" stroke="none" stroke-width="1" stroke-linecap="butt" stroke-linejoin="miter" stroke-miterlimit="10" stroke-dasharray="" stroke-dashoffset="0" style="mix-blend-mode: normal"><path d="M240.1222,179.75553c0,8.0579 -1.587,16.0365 -4.6706,23.4813c-3.0836,7.4442 -7.6032,14.2084 -13.301,19.9063c-5.6979,5.6978 -12.462,10.2174 -19.9063,13.301c-7.4448,3.0836 -15.4234,4.6706 -23.4813,4.6706v-61.3592z" fill="#ff9a9a"/><path d="M239.8778,118.88523c8.0578,0 16.0365,1.5871 23.4813,4.6706c7.4442,3.0836 14.2084,7.6032 19.9063,13.3011c5.6978,5.6978 10.2174,12.462 13.301,19.9063c3.0836,7.4447 4.6706,15.4234 4.6706,23.4812h-61.3592z" fill="#fecf99"/><path d="M178.763,118.88523c16.2737,0 31.8804,6.4645 43.3876,17.9717c11.5072,11.5071 17.9716,27.1139 17.9716,43.3875h-61.3592z" fill="#ff9a9a"/><path d="M179.0075,180.24443c0,-8.0578 1.587,-16.0365 4.6706,-23.4812c3.0836,-7.4443 7.6032,-14.2085 13.301,-19.9063c5.6979,-5.6979 12.4621,-10.2174 19.9063,-13.3011c7.4448,-3.0835 15.4234,-4.6706 23.4813,-4.6706v61.3592z" fill="#ffb19a"/></g></g></svg>