<svg version="1.1" xmlns="http://www.w3.org/2000/svg" xmlns:xlink="http://www.w3.org/1999/xlink" width="33.1973" height="33.24727" viewBox="0,0,33.1973,33.24727"><g transform="translate(-223.40135,-170.37636)"><g data-paper-data="{&quot;isPaintingLayer&quot;:true}" fill="#ff0000" fill-rule="nonzero" stroke="#000000" stroke-width="0" stroke-linecap="square" stroke-linejoin="miter" stroke-miterlimit="10" stroke-dasharray="" stroke-dashoffset="0" style="mix-blend-mode: normal"><path d="M239.49996,203.62354c-3.0664,0 -5.81618,-0.71661 -8.24929,-2.1498c-2.3998,-1.46653 -4.31631,-3.44969 -5.7495,-5.94949c-1.39988,-2.53313 -2.09982,-5.36621 -2.09982,-8.49929c0,-3.16639 0.71661,-5.9995 2.14984,-8.49929c1.46653,-2.53313 3.44973,-4.51629 5.94952,-5.94949c2.49979,-1.46653 5.3329,-2.19982 8.49929,-2.19982c3.13308,0 5.93285,0.73328 8.3993,2.19982c2.49979,1.43322 4.48295,3.41639 5.94952,5.94952c1.46653,2.49979 2.21649,5.3329 2.24983,8.49929l-1.84983,1.44989c0,2.86642 -0.6666,5.44956 -1.99983,7.74937c-1.33323,2.26647 -3.14972,4.06632 -5.44953,5.39955c-2.29981,1.33323 -4.89959,1.99983 -7.79935,1.99983zM239.99992,199.4239c2.29981,0 4.34965,-0.5333 6.1495,-1.59987c1.83319,-1.06657 3.26638,-2.54977 4.29964,-4.44961c1.06657,-1.89984 1.59987,-4.01634 1.59987,-6.34945c0,-2.3998 -0.5333,-4.53296 -1.59987,-6.39946c-1.03326,-1.8665 -2.46645,-3.3497 -4.29964,-4.44961c-1.79985,-1.09991 -3.84966,-1.64985 -6.14947,-1.64985c-2.26647,0 -4.31631,0.54997 -6.14947,1.64988c-1.83319,1.09991 -3.29972,2.58311 -4.39963,4.44964c-1.06657,1.8665 -1.59987,3.99966 -1.59987,6.39946c0,2.33315 0.5333,4.44964 1.59987,6.34948c1.09991,1.89984 2.56644,3.38304 4.39963,4.44964c1.83319,1.06657 3.883,1.59987 6.1495,1.59987zM254.24871,203.32357c-0.6666,0 -1.21657,-0.19998 -1.64985,-0.59995c-0.43331,-0.43331 -0.64993,-0.98325 -0.64993,-1.64985v-10.24913l1.09991,-4.69961l3.54972,0.89992v14.04884c0,0.6666 -0.23332,1.21657 -0.69994,1.64988c-0.43331,0.39997 -0.98325,0.59995 -1.64985,0.59995z"/></g></g></svg>