<svg version="1.1" xmlns="http://www.w3.org/2000/svg" xmlns:xlink="http://www.w3.org/1999/xlink" width="6.49947" height="45.34618" viewBox="0,0,6.49947,45.34618"><g transform="translate(-236.75027,-158.57691)"><g data-paper-data="{&quot;isPaintingLayer&quot;:true}" fill="#ff0000" fill-rule="nonzero" stroke="#000000" stroke-width="0" stroke-linecap="square" stroke-linejoin="miter" stroke-miterlimit="10" stroke-dasharray="" stroke-dashoffset="0" style="mix-blend-mode: normal"><path d="M240.05,203.923c-0.69994,0 -1.26655,-0.19998 -1.69986,-0.59995c-0.39997,-0.43331 -0.59995,-1.01659 -0.59995,-1.74984v-27.99762c0,-0.69994 0.19998,-1.24988 0.59995,-1.64985c0.43331,-0.43331 0.99992,-0.64993 1.69986,-0.64993c0.6666,0 1.21657,0.21665 1.64988,0.64996c0.43331,0.39997 0.64996,0.94994 0.64996,1.64988v27.99762c0,0.73328 -0.21665,1.31656 -0.64993,1.74987c-0.43331,0.39997 -0.98325,0.59995 -1.64985,0.59995zM239.99998,165.0763c-0.89992,0 -1.66652,-0.31665 -2.29981,-0.9499c-0.63329,-0.6666 -0.9499,-1.44986 -0.9499,-2.34979c0,-0.99992 0.33332,-1.78318 0.99992,-2.34979c0.6666,-0.56661 1.43322,-0.84991 2.29981,-0.84991c0.83327,0 1.56652,0.2833 2.19982,0.84994c0.6666,0.56661 0.99992,1.3499 0.99992,2.34982c0,0.89992 -0.31665,1.68319 -0.9499,2.34982c-0.63329,0.63329 -1.39988,0.94994 -2.29981,0.94994z"/></g></g></svg>