<svg version="1.1" xmlns="http://www.w3.org/2000/svg" xmlns:xlink="http://www.w3.org/1999/xlink" width="29.29963" height="47.00605" viewBox="0,0,29.29963,47.00605"><g transform="translate(-225.35018,-156.49697)"><g data-paper-data="{&quot;isPaintingLayer&quot;:true}" fill="#ff0000" fill-rule="nonzero" stroke="#000000" stroke-width="0" stroke-linecap="square" stroke-linejoin="miter" stroke-miterlimit="10" stroke-dasharray="" stroke-dashoffset="0" style="mix-blend-mode: normal"><path d="M228.39354,203.50303h-2.98804c-0.03687,-0.0369 -0.05532,-0.09222 -0.05532,-0.16598c0.11067,-1.51249 0.14757,-2.98804 0.11067,-4.42673c0,-1.47559 0.0369,-2.89582 0.11067,-4.26071c0.11067,-1.40182 0.31355,-2.74826 0.60869,-4.03937c0.29514,-1.29115 0.79313,-2.52692 1.49404,-3.70737c1.03292,-1.18048 2.1396,-2.19491 3.32005,-3.04336c1.18048,-0.84848 2.36093,-1.64157 3.54138,-2.37935c1.21735,-0.77468 2.4347,-1.51249 3.65205,-2.21336c1.21735,-0.70091 2.39784,-1.51249 3.54138,-2.4347c0.88535,-0.59024 1.51249,-1.38334 1.88136,-2.37935c0.36891,-1.03292 0.49802,-2.04734 0.38736,-3.04336c-0.07377,-1.03292 -0.40577,-1.91826 -0.99601,-2.65604c-0.59021,-0.77468 -1.38334,-1.2358 -2.37935,-1.38334c-1.06978,0 -1.93668,0.27669 -2.60069,0.83003c-0.62711,0.51644 -1.10668,1.18045 -1.43869,1.99203c-0.332,0.81154 -0.55334,1.67847 -0.66401,2.60072c-0.11067,0.92221 -0.18444,1.78914 -0.22134,2.60072v0.11067h-0.05532c-1.99203,0.22134 -3.74427,0.38736 -5.25672,0.49802c-1.51245,0.07377 -3.02491,0.01845 -4.5374,-0.16598h-0.05532v-0.11067c-0.51644,-3.06184 -0.49799,-5.92073 0.05535,-8.57677c0.55334,-2.65604 1.64157,-4.88785 3.26473,-6.69541c0.88535,-1.14358 2.1396,-2.02893 3.76272,-2.65604c1.62316,-0.62714 3.35695,-1.01446 5.20141,-1.162c1.84449,-0.18447 3.65205,-0.18447 5.42274,0c1.80759,0.18444 3.3016,0.53489 4.48208,1.05137c1.99203,0.99601 3.50452,2.49005 4.5374,4.48208c1.06982,1.95513 1.71538,4.13159 1.93671,6.52943c0.0738,0.92221 0.12912,1.93671 0.16602,3.04339c0.0369,1.06978 0.0369,2.02889 0,2.87737c-0.14753,1.66002 -0.57179,3.04339 -1.27267,4.15008c-0.66401,1.10668 -1.494,2.08425 -2.49002,2.93273c-0.99601,0.84844 -2.1027,1.58622 -3.32005,2.21336c-1.18045,0.59021 -2.37935,1.1989 -3.5967,1.82604c-1.21735,0.62711 -2.3978,1.29112 -3.54138,1.99203c-1.10668,0.66401 -2.04734,1.47555 -2.82202,2.4347c-0.11067,0.22134 -0.23979,0.53489 -0.38732,0.9407c-0.14753,0.36887 -0.27665,0.75623 -0.38732,1.16203c-0.11067,0.40577 -0.18444,0.77468 -0.22134,1.10668c0,0.332 0.09222,0.53489 0.27669,0.60869c2.95118,0.11067 5.68098,0.12912 8.18945,0.05535c2.54537,-0.11067 5.23831,-0.16598 8.07878,-0.16598c0.36891,0.88535 0.55334,1.89981 0.55334,3.04339c0,1.10668 -0.01845,2.19491 -0.05532,3.26473c0,0.51644 -0.01845,1.01446 -0.05532,1.49404c0,0.47954 0.05535,0.95911 0.16602,1.43869c0,0.03687 -0.09222,0.05535 -0.27665,0.05535z"/></g></g></svg>