<svg version="1.1" xmlns="http://www.w3.org/2000/svg" xmlns:xlink="http://www.w3.org/1999/xlink" width="37.6713" height="47.52186" viewBox="0,0,37.6713,47.52186"><g transform="translate(-221.16435,-156.23907)"><g data-paper-data="{&quot;isPaintingLayer&quot;:true}" fill="#ff0000" fill-rule="nonzero" stroke="#000000" stroke-width="0" stroke-linecap="square" stroke-linejoin="miter" stroke-miterlimit="10" stroke-dasharray="" stroke-dashoffset="0" style="mix-blend-mode: normal"><path d="M258.83549,190.55435c0,1.98457 -0.2887,3.78877 -0.86601,5.41252c-0.54125,1.62376 -1.51551,3.01297 -2.92277,4.16766c-1.40726,1.11857 -3.33772,2.00266 -5.79139,2.65215c-2.4537,0.64951 -5.57489,0.97425 -9.36365,0.97425c-3.7527,0 -6.85588,-0.32475 -9.30955,-0.97425c-2.41761,-0.64951 -4.33003,-1.53356 -5.73728,-2.65212c-1.37119,-1.15469 -2.32737,-2.54387 -2.86862,-4.16763c-0.54125,-1.62376 -0.81187,-3.42796 -0.81187,-5.41252v-10.44616c0,-0.82995 0.1804,-1.4253 0.54125,-1.78612c0.36081,-0.36084 0.95621,-0.54125 1.78615,-0.54125h9.36369c0.82991,0 1.4253,0.1804 1.78615,0.54125c0.36081,0.36081 0.54125,0.95621 0.54125,1.78615v7.90229c0,0.82991 0.27064,1.55156 0.81189,2.16501c0.54125,0.57731 1.80416,0.86601 3.78877,0.86601c1.84026,0 3.01297,-0.2887 3.51816,-0.86601c0.50516,-0.61344 0.75775,-1.3351 0.75775,-2.16501v-29.44414c0,-0.79385 0.1804,-1.37119 0.54125,-1.732c0.36081,-0.39694 0.95621,-0.59536 1.78615,-0.59536h10.12144c0.82991,0 1.4253,0.19846 1.78615,0.5954c0.36081,0.36081 0.54125,0.93816 0.54125,1.732z"/></g></g></svg>