<svg version="1.1" xmlns="http://www.w3.org/2000/svg" xmlns:xlink="http://www.w3.org/1999/xlink" width="36.94706" height="47.5961" viewBox="0,0,36.94706,47.5961"><g transform="translate(-221.52647,-156.20195)"><g data-paper-data="{&quot;isPaintingLayer&quot;:true}" fill="#ff0000" fill-rule="nonzero" stroke="#000000" stroke-width="0" stroke-linecap="square" stroke-linejoin="miter" stroke-miterlimit="10" stroke-dasharray="" stroke-dashoffset="0" style="mix-blend-mode: normal"><path d="M240.12489,203.79793c-3.63304,0 -6.84941,-0.68327 -9.64918,-2.04981c-2.79977,-1.39988 -4.99958,-3.33306 -6.59945,-5.79951c-1.56652,-2.49979 -2.34979,-5.3329 -2.34979,-8.49929v-28.89758c0,-0.6666 0.21665,-1.21657 0.64996,-1.64985c0.46662,-0.46662 1.03326,-0.69994 1.69986,-0.69994c0.6666,0 1.21657,0.23332 1.64988,0.69994c0.46662,0.43331 0.69994,0.98325 0.69994,1.64988v28.89758c0,2.33315 0.58328,4.39963 1.74987,6.19948c1.16656,1.79985 2.79977,3.2164 4.89959,4.24966c2.13317,0.99992 4.54963,1.49987 7.24941,1.49987c2.66643,0 5.03292,-0.49996 7.09941,-1.49987c2.06648,-1.03326 3.68302,-2.44978 4.84961,-4.24963c1.16656,-1.79985 1.74987,-3.86633 1.74987,-6.19948v-28.89758c0,-0.6666 0.21665,-1.21657 0.64996,-1.64985c0.46662,-0.46662 1.03326,-0.69994 1.69986,-0.69994c0.69994,0 1.24991,0.23332 1.64988,0.69994c0.43331,0.43331 0.64996,0.98325 0.64996,1.64988v28.89758c0,3.16639 -0.78326,5.9995 -2.34979,8.49929c-1.56652,2.46645 -3.73303,4.39963 -6.49946,5.79951c-2.76642,1.36654 -5.93285,2.04984 -9.4992,2.04984z"/></g></g></svg>