<svg version="1.1" xmlns="http://www.w3.org/2000/svg" xmlns:xlink="http://www.w3.org/1999/xlink" width="28.04235" height="33.39408" viewBox="0,0,28.04235,33.39408"><g transform="translate(-225.97883,-170.30297)"><g data-paper-data="{&quot;isPaintingLayer&quot;:true}" fill="#ff0000" fill-rule="nonzero" stroke="#000000" stroke-width="0" stroke-linecap="square" stroke-linejoin="miter" stroke-miterlimit="10" stroke-dasharray="" stroke-dashoffset="0" style="mix-blend-mode: normal"><path d="M253.81167,171.49244c0.03687,0.2582 0.05535,0.51644 0.05535,0.77468v0.66401c-0.14757,4.75873 -0.12912,9.44367 0.05535,14.05487c0.18444,4.57426 0.11067,9.22233 -0.22134,13.9442c0,0.59021 -0.01845,1.18045 -0.05532,1.77069c0,0.55334 -0.25824,0.8669 -0.77468,0.9407h-0.82999c-0.70091,0 -1.42024,-0.01845 -2.15801,-0.05532c-0.70091,-0.0738 -1.40182,-0.11067 -2.1027,-0.11067c-0.47957,0 -0.95915,0.03687 -1.43869,0.11067c-0.47957,0.03687 -0.95915,0.05535 -1.43869,0.05535c-0.29514,-0.0738 -0.49799,-0.23979 -0.60866,-0.49799c-0.11067,-0.29514 -0.16598,-0.60866 -0.16598,-0.94066c0,-0.47957 0.03687,-0.8669 0.11067,-1.162c0.11067,-0.332 0.16602,-0.71933 0.16602,-1.162c-1.06982,1.06978 -2.41625,1.97358 -4.03937,2.71139c-1.58626,0.73778 -3.15403,1.10668 -4.70338,1.10668c-1.69692,0 -3.15403,-0.59024 -4.37138,-1.77069c-1.21735,-1.18048 -2.23182,-2.65604 -3.04336,-4.42673c-0.77468,-1.77069 -1.34647,-3.68895 -1.71534,-5.75475c-0.36891,-2.06583 -0.55334,-3.98406 -0.55334,-5.75475c0,-2.1765 0.27669,-4.18694 0.83003,-6.0314c0.59021,-1.88136 1.36488,-3.48603 2.32403,-4.81405c0.99601,-1.32802 2.17646,-2.37935 3.54138,-3.15403c1.36488,-0.77468 2.82206,-1.18048 4.37141,-1.21735c0.81154,0 1.54936,0.01845 2.21336,0.05535c0.70088,0 1.32802,0.11067 1.88136,0.332c0.59021,0.18444 1.10668,0.47954 1.54936,0.88535c0.44267,0.40577 0.81154,0.99601 1.10668,1.77069c-0.0369,-0.73781 0,-1.34647 0.11067,-1.82601c0.11067,-0.51648 0.16602,-1.03292 0.16602,-1.54936c0,-0.0738 0.12912,-0.11067 0.38736,-0.11067c0.2951,-0.0369 0.60869,-0.0369 0.9407,0c0.36887,0 0.73778,0 1.10668,0c0.36887,0 0.60869,0 0.71936,0c0.73778,0.07377 1.64157,0.12912 2.71139,0.16602c1.10668,0.03687 2.3609,0.09222 3.76272,0.16602c0.03687,0.2951 0.07377,0.57179 0.11067,0.83003zM234.16807,185.60265c-0.0369,0.59021 -0.05532,1.16203 -0.05532,1.71538c0,1.99203 0.51644,3.68892 1.54936,5.09074c1.03288,1.36488 2.47157,2.04738 4.31606,2.04738c1.10668,0 1.93671,-0.18447 2.49005,-0.55334c0.55334,-0.36891 0.9407,-0.88535 1.16203,-1.54936c0.2582,-0.70091 0.38736,-1.54936 0.38736,-2.54537c0.03687,-0.99601 0.05535,-2.1027 0.05535,-3.32005c0,-1.54936 -0.01845,-2.76671 -0.05532,-3.65205c0,-0.92225 -0.11067,-1.62316 -0.332,-2.1027c-0.18447,-0.47957 -0.51648,-0.77468 -0.99601,-0.88535c-0.44267,-0.14757 -1.12513,-0.22134 -2.04734,-0.22134c-1.80759,0 -3.22783,0.42422 -4.26071,1.2727c-1.03292,0.84844 -1.66002,1.82604 -1.88136,2.93273c-0.18447,0.59021 -0.29514,1.18045 -0.332,1.77069z"/></g></g></svg>