<svg version="1.1" xmlns="http://www.w3.org/2000/svg" xmlns:xlink="http://www.w3.org/1999/xlink" width="37.68238" height="7.47009" viewBox="0,0,37.68238,7.47009"><g transform="translate(-221.15881,-195.86495)"><g data-paper-data="{&quot;isPaintingLayer&quot;:true}" fill="#ff0000" fill-rule="nonzero" stroke="#000000" stroke-width="0" stroke-linecap="square" stroke-linejoin="miter" stroke-miterlimit="10" stroke-dasharray="" stroke-dashoffset="0" style="mix-blend-mode: normal"><path d="M223.15067,196.14158c1.14355,0 2.58224,-0.01845 4.31606,-0.05532c1.73379,0 3.6705,-0.01845 5.8101,-0.05532c2.17646,0 4.38986,-0.01845 6.64009,-0.05532c2.28717,-0.03687 4.50053,-0.07377 6.64009,-0.11067c2.1765,0 4.13163,0 5.86542,0c1.73383,0 3.17251,0 4.31606,0c1.18048,0 1.84449,0 1.99203,0h0.11067c-0.14753,0.88535 -0.23979,1.60467 -0.27665,2.15801c-0.03687,0.55334 -0.05532,1.06982 -0.05532,1.54936c0,0.47957 0,0.99601 0,1.54936c0.0369,0.55334 0.05535,1.29115 0.05535,2.21336c-0.55334,0 -1.82601,0 -3.81804,0c-1.99203,0 -4.37138,0 -7.13808,0c-2.7298,0 -5.62563,-0.01845 -8.68744,-0.05532c-3.06184,0 -5.90232,-0.01845 -8.52145,-0.05532c-2.58227,0 -4.74028,0 -6.47407,0c-1.69692,0 -2.58227,0 -2.65604,0c0,-0.14753 -0.01845,-0.49799 -0.05532,-1.05133c0,-0.55334 -0.01845,-1.18045 -0.05532,-1.88136c0,-0.70088 0,-1.43869 0,-2.21336c0,-0.73778 0,-1.36488 0,-1.88136c0.18444,0 0.84844,-0.01845 1.99203,-0.05532z"/></g></g></svg>