<svg version="1.1" xmlns="http://www.w3.org/2000/svg" xmlns:xlink="http://www.w3.org/1999/xlink" width="27.99883" height="46.20399" viewBox="0,0,27.99883,46.20399"><g transform="translate(-226.00058,-156.89801)"><g data-paper-data="{&quot;isPaintingLayer&quot;:true}" fill="#ff0000" fill-rule="nonzero" stroke="#000000" stroke-width="0" stroke-linecap="square" stroke-linejoin="miter" stroke-miterlimit="10" stroke-dasharray="" stroke-dashoffset="0" style="mix-blend-mode: normal"><path d="M253.99942,157.22991c-0.66401,7.63611 -1.42024,15.23535 -2.26868,22.79766c-0.81158,7.56234 -1.51249,15.18 -2.1027,22.85301c-0.332,0.0738 -0.68246,0.11067 -1.05133,0.11067c-0.36891,0 -0.77468,0 -1.21735,0h-2.37935h-0.77468c-0.40581,-0.51644 -0.75623,-1.27267 -1.05133,-2.26868c-0.25824,-0.99601 -0.55334,-2.04734 -0.88535,-3.15403c-0.29514,-1.14355 -0.60866,-2.23182 -0.94066,-3.2647c-0.29514,-1.06978 -0.64556,-1.91823 -1.05133,-2.54537h-0.05532c-0.40581,0.40581 -0.75623,1.10668 -1.05133,2.1027c-0.25824,0.99601 -0.51648,2.06583 -0.77468,3.20938c-0.25824,1.10668 -0.53489,2.19491 -0.82999,3.26473c-0.25824,1.03292 -0.55334,1.84449 -0.88535,2.4347c-0.59024,0.0738 -1.12513,0.14757 -1.60467,0.22134c-0.47957,0.0738 -1.03292,0.11067 -1.66002,0.11067c-0.70091,0 -1.5309,-0.07377 -2.49002,-0.22134h-0.05532c-1.06982,-7.52544 -2.12115,-15.08775 -3.15403,-22.68699c-0.99601,-7.63611 -1.56781,-15.27222 -1.71534,-22.90833v-0.05532c0.66401,-0.07377 1.36488,-0.14753 2.1027,-0.22134c0.73781,-0.07377 1.47555,-0.11067 2.21336,-0.11067c0.88535,0 1.77069,0.01845 2.65604,0.05535c0.88535,0.0369 1.71538,0.09222 2.49005,0.16602c0.18444,1.91826 0.27669,4.09472 0.27669,6.52943c0,2.39784 0,4.83254 0,7.3041c0,2.4716 0.05535,4.9063 0.16602,7.3041c0.14753,2.36093 0.46112,4.48208 0.9407,6.36344c0.59021,-1.95513 1.10668,-3.89184 1.54936,-5.81006c0.47954,-1.91823 0.95911,-3.87339 1.43869,-5.86542c0.03687,-0.07377 0.05535,-0.12912 0.05535,-0.16598c0,-0.07377 0.01845,-0.12912 0.05535,-0.16598c0.18444,0.14757 0.44267,0.79313 0.77468,1.93671c0.332,1.10668 0.66401,2.36093 0.99601,3.76272c0.332,1.40182 0.66401,2.78516 0.99601,4.15008c0.332,1.36492 0.62711,2.37938 0.88535,3.04339c0.18444,-1.88136 0.31355,-4.03937 0.38736,-6.47407c0.11067,-2.47157 0.18444,-4.98007 0.22134,-7.52544c0.07377,-2.54537 0.14753,-5.03539 0.22134,-7.47009c0.07377,-2.47157 0.20289,-4.66652 0.38736,-6.58474v-0.11067c0.73778,-0.14753 1.49404,-0.23979 2.26872,-0.27665c0.81154,-0.07377 1.60471,-0.11067 2.37938,-0.11067c1.51245,0 2.98804,0.0738 4.42673,0.22134z"/></g></g></svg>