<svg version="1.1" xmlns="http://www.w3.org/2000/svg" xmlns:xlink="http://www.w3.org/1999/xlink" width="21.36574" height="33.35718" viewBox="0,0,21.36574,33.35718"><g transform="translate(-229.31713,-170.12142)"><g data-paper-data="{&quot;isPaintingLayer&quot;:true}" fill="#ff0000" fill-rule="nonzero" stroke="#000000" stroke-width="0" stroke-linecap="square" stroke-linejoin="miter" stroke-miterlimit="10" stroke-dasharray="" stroke-dashoffset="0" style="mix-blend-mode: normal"><path d="M239.6713,171.97478c0.66401,-0.25824 1.30957,-0.49799 1.93671,-0.71933c0.81158,-0.25824 1.75224,-0.46112 2.82206,-0.60866c1.06978,-0.14757 2.0658,-0.23979 2.98804,-0.27665c0.92225,-0.07377 1.69692,-0.09222 2.32403,-0.05532c0.62711,0 0.9407,0.0369 0.9407,0.11067c0,1.47559 -0.01845,2.78516 -0.05532,3.92874c0,1.14358 0,2.17646 0,3.09871c0,0.88535 0,1.71538 0,2.49005c0,0.73778 0.01845,1.43869 0.05535,2.1027l-0.55334,-0.22134c-0.22134,-0.07377 -0.46112,-0.14757 -0.71933,-0.22134c-0.22134,-0.07377 -0.44267,-0.14757 -0.66401,-0.22134c-0.55334,-0.14757 -1.10668,-0.25824 -1.66002,-0.332c-0.55334,-0.11067 -0.84844,-0.16598 -0.88535,-0.16598c-1.18045,-0.11067 -2.26868,-0.16598 -3.2647,-0.16598c-0.99601,0 -1.86291,0.16602 -2.60069,0.49802c-0.70091,0.2951 -1.25425,0.77468 -1.66002,1.43869c-0.40577,0.62711 -0.57179,1.56781 -0.49799,2.82206c0.0369,1.54936 0.07377,3.00649 0.11067,4.37141c0.0369,1.36492 0.05535,2.74826 0.05535,4.15008c0,1.36492 0,2.76671 0,4.20539c0.0369,1.40179 0.05535,2.93273 0.05535,4.59275v0.22134c-0.73778,0.22134 -1.42024,0.35046 -2.04734,0.38736c-0.59024,0.07377 -1.21735,0.09222 -1.88136,0.05535c-0.66401,0 -1.38334,-0.0369 -2.15801,-0.11067c-0.77468,-0.0369 -1.69692,0 -2.76671,0.11067c0,-5.42274 -0.05532,-10.84549 -0.16598,-16.26823c-0.11067,-5.42274 -0.0738,-11.04837 0.11067,-16.87689c0.55334,0.07377 0.99601,0.12912 1.32802,0.16602c0.36887,0 0.70088,0 0.99601,0c0.2951,0 0.60869,0 0.9407,0c0.36887,-0.0369 0.83003,-0.09222 1.38337,-0.16598c0.18444,0 0.49802,-0.01845 0.9407,-0.05532c0.47957,-0.0369 0.95911,-0.07377 1.43869,-0.11067c0.51644,-0.0369 0.95911,-0.0369 1.32802,0c0.36891,0 0.55334,0.0369 0.55334,0.11067c0,0.36891 0,0.64556 0,0.83003c0,0.14757 0,0.27669 0,0.38736c0,0.11067 0.01845,0.23979 0.05535,0.38736c0.0369,0.11067 0.05535,0.332 0.05535,0.66401c0.14757,-0.11067 0.53489,-0.2951 1.16203,-0.55334z"/></g></g></svg>