<svg version="1.1" xmlns="http://www.w3.org/2000/svg" xmlns:xlink="http://www.w3.org/1999/xlink" width="33.19731" height="46.94613" viewBox="0,0,33.19731,46.94613"><g transform="translate(-223.40135,-156.77695)"><g data-paper-data="{&quot;isPaintingLayer&quot;:true}" fill="#ff0000" fill-rule="nonzero" stroke="#000000" stroke-width="0" stroke-linecap="square" stroke-linejoin="miter" stroke-miterlimit="10" stroke-dasharray="" stroke-dashoffset="0" style="mix-blend-mode: normal"><path d="M239.99993,203.72292c-3.16639,0 -5.9995,-0.71661 -8.49929,-2.1498c-2.49979,-1.46653 -4.48295,-3.44969 -5.94949,-5.94949c-1.43322,-2.53313 -2.1498,-5.38288 -2.1498,-8.54927c0,-3.13308 0.69994,-5.94949 2.09982,-8.44928c1.43322,-2.53313 3.34974,-4.51629 5.74953,-5.94949c2.43314,-1.46653 5.18289,-2.19982 8.24932,-2.19982c2.66643,0 5.06623,0.56661 7.1994,1.69986c2.16647,1.13325 3.91634,2.63312 5.24958,4.49962v-17.54851c0,-0.69994 0.21665,-1.26655 0.64996,-1.69986c0.43331,-0.43331 0.98325,-0.64993 1.64988,-0.64993c0.6666,0 1.21657,0.21665 1.64988,0.64996c0.46662,0.43331 0.69994,0.99992 0.69994,1.69986v28.19764c-0.09999,3.09974 -0.88325,5.89951 -2.34979,8.3993c-1.43322,2.46645 -3.39972,4.4163 -5.89951,5.84953c-2.46645,1.43322 -5.24954,2.14984 -8.34928,2.14984zM239.99993,199.52327c2.29981,0 4.34965,-0.5333 6.1495,-1.59987c1.83319,-1.09991 3.26638,-2.58311 4.29964,-4.44961c1.06657,-1.89984 1.59987,-4.03301 1.59987,-6.39946c0,-2.36646 -0.5333,-4.48295 -1.59987,-6.34945c-1.03326,-1.89984 -2.46645,-3.38304 -4.29964,-4.44961c-1.79985,-1.09991 -3.84966,-1.64985 -6.14947,-1.64985c-2.26647,0 -4.31631,0.54997 -6.14947,1.64988c-1.83319,1.06657 -3.29972,2.5498 -4.39963,4.44964c-1.06657,1.8665 -1.59987,3.98299 -1.59987,6.34948c0,2.36646 0.5333,4.49962 1.59987,6.39946c1.09991,1.8665 2.56644,3.34974 4.39963,4.44964c1.83319,1.06657 3.883,1.59987 6.1495,1.59987z"/></g></g></svg>