<svg version="1.1" xmlns="http://www.w3.org/2000/svg" xmlns:xlink="http://www.w3.org/1999/xlink" width="25.36815" height="33.45859" viewBox="0,0,25.36815,33.45859"><g transform="translate(-227.31592,-170.0707)"><g data-paper-data="{&quot;isPaintingLayer&quot;:true}" fill="#ff0000" fill-rule="nonzero" stroke="#000000" stroke-width="0" stroke-linecap="square" stroke-linejoin="miter" stroke-miterlimit="10" stroke-dasharray="" stroke-dashoffset="0" style="mix-blend-mode: normal"><path d="M237.06136,173.35346c0.332,-0.18444 0.60869,-0.35046 0.83003,-0.49799c0.92221,-0.66401 1.95513,-1.1989 3.09871,-1.60467c1.14355,-0.40577 2.30558,-0.62711 3.48607,-0.66401c1.21735,-0.03687 2.3978,0.09222 3.54138,0.38736c1.18045,0.29514 2.23182,0.84848 3.15406,1.66002c0.44267,0.40581 0.77468,1.2358 0.99601,2.49005c0.2582,1.25425 0.40577,2.76671 0.44267,4.5374c0.07377,1.73383 0.09222,3.65205 0.05535,5.75475c0,2.1027 -0.01845,4.22384 -0.05532,6.36344c-0.0369,2.1396 -0.09222,4.20539 -0.16598,6.19742c-0.0369,1.95516 0,3.68895 0.11067,5.20141c-1.54936,0.22134 -2.93269,0.31355 -4.15004,0.27669c-1.21735,-0.03687 -2.60069,-0.05532 -4.15004,-0.05532c-0.0738,-0.99601 -0.11067,-2.12115 -0.11067,-3.37536c0,-1.29112 0,-2.61914 0,-3.98406c0.03687,-1.36488 0.03687,-2.7298 0,-4.09472c0,-1.36488 -0.0369,-2.65604 -0.11067,-3.87339c-0.0738,-0.51644 -0.12912,-1.08823 -0.16598,-1.71534c-0.0369,-0.66401 -0.11067,-1.29112 -0.22134,-1.88136c-0.11067,-0.62711 -0.27665,-1.18045 -0.49799,-1.66002c-0.18447,-0.47954 -0.44267,-0.84844 -0.77468,-1.10668c-0.0369,-0.07377 -0.09222,-0.11067 -0.16598,-0.11067c-0.0369,0 -0.0738,-0.01845 -0.11067,-0.05532c-0.332,-0.18444 -0.84848,-0.332 -1.54936,-0.44267c-0.70091,-0.11067 -1.38334,-0.05532 -2.04734,0.16602c-0.62714,0.18447 -1.21735,0.57179 -1.77069,1.16203c-0.51648,0.59024 -0.81158,1.49404 -0.88535,2.71139c-0.11067,1.51249 -0.14757,3.00649 -0.11067,4.48208c0.07377,1.47559 0.12912,2.95118 0.16602,4.42673c0.07377,1.47559 0.11067,2.95118 0.11067,4.42673c0,1.43869 -0.09222,2.89582 -0.27665,4.37141v0.22134c-0.73781,0.22134 -1.38334,0.35046 -1.93668,0.38736c-0.55334,0.0738 -1.12513,0.09222 -1.71534,0.05535c-0.55334,0 -1.18048,-0.03687 -1.88136,-0.11067c-0.70091,-0.03687 -1.58626,0 -2.65604,0.11067c0,-5.42274 -0.05532,-10.84549 -0.16598,-16.26823c-0.11067,-5.42274 -0.0738,-11.04837 0.11067,-16.87689c0.55334,0.0738 0.99601,0.12912 1.32802,0.16602c0.36887,0 0.70088,0 0.99601,0c0.2951,0 0.60869,0 0.9407,0c0.36887,-0.03687 0.83003,-0.09222 1.38337,-0.16598c0.18444,0 0.47954,-0.01845 0.88535,-0.05532c0.44267,-0.07377 0.88535,-0.12912 1.32802,-0.16598c0.44267,-0.07377 0.83003,-0.09222 1.16203,-0.05532c0.36887,0.0369 0.55334,0.11067 0.55334,0.22134c0.11067,0.73781 0.14753,1.36492 0.11067,1.88136c0,0.47957 0.01845,1.01446 0.05535,1.60471c0.22134,-0.11067 0.49802,-0.2582 0.83003,-0.44267z"/></g></g></svg>