<svg version="1.1" xmlns="http://www.w3.org/2000/svg" xmlns:xlink="http://www.w3.org/1999/xlink" width="27.79307" height="46.101" viewBox="0,0,27.79307,46.101"><g transform="translate(-226.10347,-156.9495)"><g data-paper-data="{&quot;isPaintingLayer&quot;:true}" fill="#ff0000" fill-rule="nonzero" stroke="#000000" stroke-width="0" stroke-linecap="square" stroke-linejoin="miter" stroke-miterlimit="10" stroke-dasharray="" stroke-dashoffset="0" style="mix-blend-mode: normal"><path d="M253.49367,203.04246c-0.62714,-0.07377 -1.34647,-0.11067 -2.15801,-0.11067c-0.77468,0 -1.56781,0 -2.37935,0c-0.77468,0 -1.5309,0.01845 -2.26868,0.05535c-0.73781,0 -1.36488,0 -1.88136,0c-0.11067,-1.88136 -0.18447,-3.9287 -0.22134,-6.14207c0,-2.21336 -0.01845,-4.4636 -0.05532,-6.75076c0,-2.28713 -0.05532,-4.51895 -0.16598,-6.69541c-0.11067,-2.21336 -0.27665,-4.24226 -0.49799,-6.08675c-0.29514,0.47957 -0.64556,1.2358 -1.05133,2.26872c-0.40581,1.03292 -0.81154,2.1027 -1.21735,3.20938c-0.36887,1.06982 -0.73781,2.02893 -1.10668,2.87737c-0.332,0.84848 -0.59021,1.2727 -0.77468,1.2727c-0.22134,0 -0.47954,-0.22134 -0.77468,-0.66401c-0.29514,-0.47954 -0.59021,-1.06978 -0.88535,-1.77069c-0.2582,-0.70088 -0.55334,-1.43869 -0.88535,-2.21336c-0.29514,-0.81154 -0.55334,-1.54936 -0.77468,-2.21336c-0.22134,-0.66401 -0.40581,-1.21735 -0.55334,-1.66002c-0.14753,-0.44267 -0.22134,-0.66401 -0.22134,-0.66401c-0.36887,4.13163 -0.49799,8.31857 -0.38732,12.56086c0.11067,4.20539 0.29514,8.35547 0.55334,12.45019c-1.40182,0.22134 -2.93269,0.31355 -4.59271,0.27669c-1.66002,-0.03687 -3.20938,-0.05532 -4.64807,-0.05532c-0.0738,0 -0.12912,-0.07377 -0.16598,-0.22134c-0.03687,-0.14753 -0.09222,-0.55334 -0.16598,-1.21735c-0.03687,-0.66401 -0.0738,-1.66002 -0.11067,-2.98804c0,-1.36488 0,-3.13558 0,-5.31208c0,-2.21336 0,-4.94317 0,-8.18945c0.03687,-3.28315 0.05535,-7.17498 0.05535,-11.67548c0.03687,-4.5005 0.09222,-9.7388 0.16602,-15.71489c0.55334,-0.18444 1.1989,-0.2951 1.93671,-0.332c0.77468,-0.03687 1.54936,-0.03687 2.32403,0c0.81154,0 1.60471,0.01845 2.37938,0.05535c0.81154,0 1.58622,-0.01845 2.32403,-0.05532h0.05535c0.40581,0.44267 0.79313,1.12513 1.16203,2.04738c0.40581,0.88535 0.77468,1.84449 1.10668,2.87737c0.36887,0.99601 0.71936,1.95516 1.05137,2.87737c0.332,0.92225 0.68246,1.64157 1.05137,2.15805c0.14753,0.14757 0.27669,0.22134 0.38736,0.22134c0.14753,0.0369 0.35046,-0.38732 0.60869,-1.27267c0.29514,-0.88535 0.60869,-1.89981 0.9407,-3.04336c0.332,-1.18045 0.70088,-2.34248 1.10668,-3.48603c0.44267,-1.14355 0.8669,-1.97358 1.2727,-2.49002c0.29514,0.0369 0.84848,0.0369 1.66002,0c0.81154,-0.07377 1.67847,-0.12912 2.60072,-0.16598c0.95915,-0.03687 1.93671,-0.05532 2.93273,-0.05532c0.99601,-0.03687 1.84449,-0.05532 2.54537,-0.05532c-0.18447,4.20539 -0.18447,8.37392 0,12.50551c0.18447,4.13163 0.16602,8.30012 -0.05532,12.50551z"/></g></g></svg>