<svg version="1.1" xmlns="http://www.w3.org/2000/svg" xmlns:xlink="http://www.w3.org/1999/xlink" width="94.06805" height="89.56496" viewBox="0,0,94.06805,89.56496"><g transform="translate(-228.85451,-95.58314)"><g data-paper-data="{&quot;isPaintingLayer&quot;:true}" fill-rule="nonzero" stroke="#000000" stroke-width="2.5" stroke-linejoin="miter" stroke-miterlimit="10" stroke-dasharray="" stroke-dashoffset="0" style="mix-blend-mode: normal"><path d="M282.88283,134.61666c5.80358,-5.07596 9.28603,3.57983 9.28603,3.57983c0,0 3.96581,-6.00204 8.09066,1.01962c4.21638,7.17745 -3.27825,8.91966 -3.27825,8.91966c0,0 4.30435,4.98859 -1.41911,8.9488c-4.60411,3.18572 -6.60756,-6.51365 -6.60756,-6.51365c0,0 -4.62321,5.66727 -7.57169,-0.48114c-2.80903,-5.85761 3.94682,-7.49742 3.94682,-7.49742c0,0 -6.20476,-5.33176 -2.44691,-7.9757z" fill="#ffffff" stroke-linecap="butt"/><path d="M316.10651,146.67378c3.75797,7.07575 -4.36272,8.70479 -4.36272,8.70479c0,0 4.81434,5.40166 -1.93962,8.05373c-6.90379,2.71091 -7.48935,-5.3503 -7.48935,-5.3503c0,0 -4.97424,3.29042 -7.75315,-3.45379c-2.23545,-5.42524 6.62128,-5.30699 6.62128,-5.30699c0,0 -4.43335,-5.99974 1.39575,-7.64291c5.55339,-1.56545 6.1427,5.71661 6.1427,5.71661c0,0 5.52175,-5.15897 7.38513,-0.72114z" fill="#afb0ae" stroke-linecap="butt"/><path d="M291.14286,169.75524c0,0 4.86616,1.70904 12.39933,0.76633c7.78377,-0.97407 18.24102,-6.15744 18.12949,-3.62843c-0.74896,16.98225 -30.81453,17.00496 -30.81453,17.00496" fill="#ffffff" stroke-linecap="round"/><path d="M243.96803,120.05849c1.78621,11.20196 -11.68847,13.35058 -13.47468,2.14861c-1.78621,-11.20196 3.16146,-25.33872 3.15351,-25.37396c-0.03354,-0.14865 8.53495,12.02339 10.32117,23.22535z" fill="#ffffff" stroke-linecap="butt"/><path d="M282.47121,138.4586c-7.36548,12.32137 -24.41951,2.187 -17.05403,-10.13437c7.36548,-12.32138 24.81322,-21.35676 24.83375,-21.39763c0.08661,-0.1724 -0.41424,19.21062 -7.77972,31.532z" fill="#ffffff" stroke-linecap="butt"/></g></g></svg>