<svg version="1.1" xmlns="http://www.w3.org/2000/svg" xmlns:xlink="http://www.w3.org/1999/xlink" width="33.19727" height="46.89619" viewBox="0,0,33.19727,46.89619"><g transform="translate(-223.40137,-170.30191)"><g data-paper-data="{&quot;isPaintingLayer&quot;:true}" fill="#ff0000" fill-rule="nonzero" stroke="#000000" stroke-width="0" stroke-linecap="square" stroke-linejoin="miter" stroke-miterlimit="10" stroke-dasharray="" stroke-dashoffset="0" style="mix-blend-mode: normal"><path d="M225.75116,217.19792c-0.69994,0 -1.26655,-0.21665 -1.69986,-0.64993c-0.43331,-0.39997 -0.64993,-0.9499 -0.64993,-1.64985v-28.19764c0.06665,-3.09974 0.8166,-5.88284 2.24983,-8.34928c1.46653,-2.49979 3.43306,-4.46628 5.89951,-5.89951c2.49979,-1.43322 5.29956,-2.1498 8.3993,-2.1498c3.19973,0 6.04951,0.73328 8.5493,2.19982c2.49979,1.43322 4.46628,3.41639 5.89951,5.94952c1.46653,2.49979 2.19982,5.3329 2.19982,8.49929c0,3.13308 -0.69994,5.96616 -2.09982,8.49929c-1.39988,2.49979 -3.31639,4.48295 -5.7495,5.94952c-2.43314,1.43322 -5.18289,2.14984 -8.24929,2.14984c-2.66643,0 -5.0829,-0.56661 -7.24938,-1.69986c-2.16647,-1.13325 -3.91634,-2.63312 -5.24954,-4.49962v17.54855c0,0.69994 -0.21665,1.24991 -0.64993,1.64988c-0.39997,0.43331 -0.93327,0.64996 -1.59987,0.64996zM239.94996,199.34943c2.29981,0 4.36629,-0.5333 6.19948,-1.59987c1.83319,-1.06657 3.28305,-2.54977 4.34965,-4.44961c1.06657,-1.89984 1.59987,-4.01634 1.59987,-6.34945c0,-2.3998 -0.5333,-4.53296 -1.59987,-6.39946c-1.06657,-1.8665 -2.51646,-3.3497 -4.34962,-4.44961c-1.83319,-1.09991 -3.89967,-1.64985 -6.19948,-1.64985c-2.26647,0 -4.31631,0.54997 -6.14947,1.64988c-1.83319,1.09991 -3.26638,2.58311 -4.29964,4.44964c-1.03326,1.8665 -1.54985,3.99966 -1.54985,6.39946c0,2.33315 0.51663,4.44964 1.54989,6.34948c1.03326,1.89984 2.46645,3.38304 4.29964,4.44964c1.83319,1.06657 3.883,1.59987 6.1495,1.59987z"/></g></g></svg>