<svg version="1.1" xmlns="http://www.w3.org/2000/svg" xmlns:xlink="http://www.w3.org/1999/xlink" width="42.0599" height="32.64739" viewBox="0,0,42.0599,32.64739"><g transform="translate(-218.97005,-170.6763)"><g data-paper-data="{&quot;isPaintingLayer&quot;:true}" fill="#ff0000" fill-rule="nonzero" stroke="#000000" stroke-width="0" stroke-linecap="square" stroke-linejoin="miter" stroke-miterlimit="10" stroke-dasharray="" stroke-dashoffset="0" style="mix-blend-mode: normal"><path d="M230.68238,203.32355c-0.5333,0 -0.99992,-0.13333 -1.39988,-0.39997c-0.39997,-0.29997 -0.68327,-0.6666 -0.84991,-1.09991l-9.29922,-27.94764c-0.23332,-0.96658 -0.21665,-1.7332 0.05001,-2.29981c0.29997,-0.59995 0.86658,-0.89992 1.69986,-0.89992c0.49996,0 0.94994,0.15 1.3499,0.44998c0.39997,0.26663 0.69994,0.69994 0.89992,1.29989l8.2993,25.34789h-1.29989l7.69935,-25.29788c0.16664,-0.5333 0.43331,-0.96658 0.79993,-1.29989c0.36663,-0.33332 0.84994,-0.49996 1.44989,-0.49996c0.59995,0 1.08324,0.16664 1.44989,0.49996c0.39997,0.29997 0.68327,0.73328 0.84994,1.29989l7.29939,24.69793h-0.99992l8.09932,-24.74791c0.39997,-1.16656 1.14992,-1.74984 2.24983,-1.74984c0.86658,0 1.44989,0.33332 1.74987,0.99992c0.33332,0.63329 0.33332,1.36654 0,2.19982l-9.29922,27.94767c-0.16664,0.43331 -0.43331,0.79993 -0.79993,1.09991c-0.36663,0.26663 -0.8166,0.39997 -1.34987,0.39997c-0.49996,0 -0.96658,-0.13333 -1.39988,-0.39997c-0.39997,-0.29997 -0.6666,-0.6666 -0.79993,-1.09991l-7.49937,-24.94789h0.69994l-7.49937,24.94793c-0.16664,0.46662 -0.44995,0.83327 -0.84991,1.09991c-0.39997,0.26663 -0.83327,0.39997 -1.29989,0.39997z"/></g></g></svg>