<svg version="1.1" xmlns="http://www.w3.org/2000/svg" xmlns:xlink="http://www.w3.org/1999/xlink" width="36.94323" height="46.11781" viewBox="0,0,36.94323,46.11781"><g transform="translate(-221.52839,-157.1911)"><g data-paper-data="{&quot;isPaintingLayer&quot;:true}" fill="#ff0000" fill-rule="nonzero" stroke="#000000" stroke-width="0" stroke-linecap="square" stroke-linejoin="miter" stroke-miterlimit="10" stroke-dasharray="" stroke-dashoffset="0" style="mix-blend-mode: normal"><path d="M223.85569,203.30892c-0.65906,0 -1.20279,-0.2142 -1.63117,-0.64258c-0.39544,-0.42838 -0.6261,-0.92268 -0.69201,-1.48289c-0.03295,-0.59315 0.1318,-1.1204 0.49429,-1.58175l30.49806,-38.25851h-28.42201c-0.72496,0 -1.28517,-0.16477 -1.68061,-0.49429c-0.39544,-0.36249 -0.59316,-0.87326 -0.59316,-1.53232c0,-0.5602 0.2142,-1.0545 0.64258,-1.48289c0.46135,-0.42838 1.02155,-0.64258 1.68061,-0.64258h31.98095c0.72496,0 1.28517,0.23066 1.68061,0.69201c0.39544,0.42838 0.60963,0.92268 0.64258,1.48289c0.06591,0.5602 -0.08237,1.03803 -0.44486,1.43346l-30.59692,38.35737h28.71859c0.6261,0 1.16983,0.19772 1.63118,0.59315c0.46135,0.36249 0.69201,0.85679 0.69201,1.48289c0,0.59315 -0.23066,1.08745 -0.69201,1.48289c-0.46135,0.39543 -1.00508,0.59315 -1.63118,0.59315z"/></g></g></svg>