<svg version="1.1" xmlns="http://www.w3.org/2000/svg" xmlns:xlink="http://www.w3.org/1999/xlink" width="28.22581" height="47.17494" viewBox="0,0,28.22581,47.17494"><g transform="translate(-225.8871,-156.41253)"><g data-paper-data="{&quot;isPaintingLayer&quot;:true}" fill="#ff0000" fill-rule="nonzero" stroke="#000000" stroke-width="0" stroke-linecap="square" stroke-linejoin="miter" stroke-miterlimit="10" stroke-dasharray="" stroke-dashoffset="0" style="mix-blend-mode: normal"><path d="M253.58722,165.5839c0.14753,0.66401 0.27669,1.34647 0.38736,2.04738c0.0738,1.10668 0.11067,2.21336 0.11067,3.32005c0.03687,1.06978 0.03687,2.13956 0,3.20938c-0.11067,2.3609 -0.14753,4.64807 -0.11067,6.86143c0.03687,2.17646 -0.03687,4.40828 -0.22134,6.69545l-0.16598,2.21336c-0.11067,1.51245 -0.36887,3.06181 -0.77468,4.64807c-0.36887,1.54936 -0.95915,2.96959 -1.77069,4.26074c-0.73781,1.03288 -1.71534,1.88136 -2.93269,2.54537c-1.21735,0.62711 -2.5085,1.12513 -3.87339,1.49404c-1.21735,0.332 -2.45315,0.53489 -3.70737,0.60869c-1.25422,0.11067 -2.52692,0.12912 -3.81804,0.05535c-0.92221,-0.11067 -1.80756,-0.23979 -2.65604,-0.38732c-0.84848,-0.14757 -1.66002,-0.38732 -2.4347,-0.71933c-0.77468,-0.36891 -1.47555,-0.82999 -2.1027,-1.38334c-0.62714,-0.55334 -1.12513,-1.27267 -1.494,-2.15801c-0.62714,-1.10668 -1.05133,-2.28717 -1.27267,-3.54138c-0.18447,-1.25425 -0.29514,-2.52692 -0.332,-3.81804c-0.14753,-3.43072 -0.29514,-6.86143 -0.44267,-10.29215c-0.14753,-3.46762 -0.11067,-6.95365 0.11067,-10.45813c0.03687,-1.95516 0.27669,-3.9287 0.71936,-5.92073c0.47954,-2.02893 1.40182,-3.81804 2.76671,-5.36739c0.44267,-0.44267 0.95915,-0.82999 1.54936,-1.162c1.43869,-0.70091 3.00649,-1.21735 4.70342,-1.54936c1.69689,-0.332 3.39385,-0.44267 5.09074,-0.332c1.69689,0.07377 3.3385,0.36887 4.92475,0.88535c1.62316,0.47954 3.08026,1.1989 4.37141,2.15805c1.25422,1.14355 2.15805,2.49005 2.71139,4.03941c0.29514,0.66401 0.51648,1.34647 0.66401,2.04738zM245.84045,179.63877l-0.11067,-4.48205c0,-0.0369 -0.03687,-0.47957 -0.11067,-1.32802c-0.0738,-0.84848 -0.12912,-1.66002 -0.16598,-2.4347c-0.11067,-1.21735 -0.46112,-2.32403 -1.05133,-3.32005c-0.59021,-1.03292 -1.38334,-1.78914 -2.37935,-2.26868c-0.88535,-0.36891 -1.78914,-0.44267 -2.71135,-0.22134c-0.92221,0.22134 -1.73383,0.59021 -2.4347,1.10668c-1.54936,1.21735 -2.58224,2.74826 -3.09871,4.59275c-0.36887,1.66002 -0.59021,3.43072 -0.66401,5.31208c-0.0738,1.84446 -0.05532,3.68892 0.05535,5.53341c0.22134,1.51245 0.36887,3.08026 0.44267,4.70342c0.11067,1.62312 0.36887,3.15406 0.77468,4.59275c0.44267,0.88535 1.08823,1.56781 1.93671,2.04738c0.84848,0.47954 1.75224,0.75623 2.71139,0.83003c0.95915,0.07377 1.91823,-0.05532 2.87737,-0.38732c0.99601,-0.332 1.82604,-0.8669 2.49005,-1.60467c0.36887,-0.55334 0.64556,-0.99601 0.83003,-1.32802c0.18447,-0.332 0.29514,-0.68246 0.332,-1.05133c0.03687,-0.40581 0.03687,-0.88535 0,-1.43869c0,-0.55334 0.05535,-1.29115 0.16602,-2.21336c0.03687,-0.88535 0.05535,-1.66002 0.05535,-2.32403c0.03687,-0.66401 0.05535,-1.03292 0.05535,-1.10668z"/></g></g></svg>