<svg version="1.1" xmlns="http://www.w3.org/2000/svg" xmlns:xlink="http://www.w3.org/1999/xlink" width="36.69709" height="46.54778" viewBox="0,0,36.69709,46.54778"><g transform="translate(-221.65146,-156.72611)"><g data-paper-data="{&quot;isPaintingLayer&quot;:true}" fill="#ff0000" fill-rule="nonzero" stroke="#000000" stroke-width="0" stroke-linecap="square" stroke-linejoin="miter" stroke-miterlimit="10" stroke-dasharray="" stroke-dashoffset="0" style="mix-blend-mode: normal"><path d="M256.02099,203.27377h-32.04216c-0.82995,0 -1.4253,-0.18044 -1.78612,-0.54125c-0.36084,-0.36084 -0.54125,-0.95621 -0.54125,-1.78612v-8.66004c0,-0.82995 0.1263,-1.5516 0.3789,-2.16501c0.25256,-0.61344 0.66755,-1.22685 1.2449,-1.84026l15.69633,-19.0521h-13.85606c-0.79385,0 -1.38921,-0.18044 -1.78612,-0.54125c-0.36084,-0.39694 -0.54125,-0.99231 -0.54125,-1.78612v-7.84815c0,-0.79385 0.1804,-1.37119 0.54125,-1.732c0.39691,-0.39694 0.99231,-0.59536 1.78615,-0.59536h29.7689c0.79381,0 1.37116,0.19846 1.732,0.5954c0.39691,0.36081 0.5954,0.93816 0.5954,1.732v9.63429c0,0.86601 -0.14434,1.62376 -0.433,2.27326c-0.2526,0.61341 -0.64951,1.20881 -1.19075,1.78615l-14.99268,18.18609h15.42572c0.82991,0 1.4253,0.1804 1.78615,0.54125c0.36081,0.36081 0.54125,0.95621 0.54125,1.78615v7.68579c0,0.82991 -0.18044,1.4253 -0.54125,1.78615c-0.36084,0.36081 -0.95621,0.54125 -1.78612,0.54125z"/></g></g></svg>