<svg version="1.1" xmlns="http://www.w3.org/2000/svg" xmlns:xlink="http://www.w3.org/1999/xlink" width="30.40169" height="46.64622" viewBox="0,0,30.40169,46.64622"><g transform="translate(-224.79916,-156.67689)"><g data-paper-data="{&quot;isPaintingLayer&quot;:true}" fill="#ff0000" fill-rule="nonzero" stroke="#000000" stroke-width="0" stroke-linecap="square" stroke-linejoin="miter" stroke-miterlimit="10" stroke-dasharray="" stroke-dashoffset="0" style="mix-blend-mode: normal"><path d="M227.14895,203.32294c-0.63329,0 -1.18323,-0.21665 -1.64985,-0.64993c-0.46662,-0.46662 -0.69994,-1.03326 -0.69994,-1.69986v-41.94647c0,-0.63329 0.23332,-1.18323 0.69994,-1.64985c0.46662,-0.46662 1.01659,-0.69994 1.64988,-0.69994c0.63329,0 1.18323,0.23332 1.64988,0.69994c0.46662,0.46662 0.69994,1.01659 0.69994,1.64988v20.2983l21.74819,-21.79817c0.33332,-0.29997 0.63329,-0.51663 0.89992,-0.64993c0.29997,-0.13333 0.61662,-0.19998 0.94994,-0.19998c0.73328,0 1.26655,0.23332 1.59987,0.69994c0.36663,0.43331 0.5333,0.96658 0.49996,1.59987c0,0.59995 -0.23332,1.16656 -0.69994,1.69986l-16.34861,16.39863l16.49862,22.54813c0.36663,0.49996 0.51663,1.04993 0.44998,1.64988c-0.03334,0.56661 -0.24996,1.04993 -0.64993,1.44989c-0.39997,0.39997 -0.88325,0.59995 -1.44986,0.59995c-0.86658,0 -1.51654,-0.33332 -1.94982,-0.99992l-16.24862,-21.99816l-5.29956,5.39955v15.24874c0,0.6666 -0.23332,1.23324 -0.69994,1.69986c-0.46662,0.43331 -1.01659,0.64996 -1.64985,0.64996z"/></g></g></svg>