<svg version="1.1" xmlns="http://www.w3.org/2000/svg" xmlns:xlink="http://www.w3.org/1999/xlink" width="19.64351" height="60.06527" viewBox="0,0,19.64351,60.06527"><g transform="translate(-230.17824,-155.36736)"><g data-paper-data="{&quot;isPaintingLayer&quot;:true}" fill="#ff0000" fill-rule="nonzero" stroke="#000000" stroke-width="0" stroke-linecap="square" stroke-linejoin="miter" stroke-miterlimit="10" stroke-dasharray="" stroke-dashoffset="0" style="mix-blend-mode: normal"><path d="M241.07892,170.19685c0.70091,0.07377 1.43869,0.09222 2.21336,0.05535c0.77468,-0.0369 1.5309,-0.09222 2.26872,-0.16598c0.77468,-0.0738 1.49404,-0.12912 2.15805,-0.16598c0.70091,-0.0369 1.32802,-0.01845 1.88136,0.05535c0.14757,1.06978 0.22134,2.34248 0.22134,3.81807c0,1.47555 -0.01845,2.95114 -0.05532,4.42673c0,1.47555 -0.03687,2.87737 -0.11067,4.20539c-0.03687,1.32802 0,2.3978 0.11067,3.20938c0,2.13956 0,4.20539 0,6.19742c0.0369,1.95513 0.0369,3.89184 0,5.8101c0,1.91823 -0.09222,3.85494 -0.27665,5.8101c-0.14753,1.95513 -0.38732,3.98406 -0.71933,6.08675c-0.59021,1.36492 -1.5309,2.4347 -2.82202,3.20938c-1.29112,0.81158 -2.78516,1.42024 -4.48205,1.82604c-1.66002,0.40581 -3.43072,0.66401 -5.31208,0.77468c-1.91823,0.11067 -3.74427,0.11067 -5.47806,0c-0.22134,-0.66401 -0.36887,-1.40179 -0.44267,-2.21336c-0.07377,-0.77468 -0.07377,-1.56781 0,-2.37935c0.0369,-0.77468 0.09222,-1.5309 0.16602,-2.26868c0.0738,-0.73778 0.16602,-1.42024 0.27669,-2.04734c0.73781,0.0369 1.60471,0.0369 2.60072,0c0.99601,-0.03687 1.97358,-0.16598 2.93273,-0.38732c0.95915,-0.18444 1.86291,-0.46112 2.71139,-0.82999c0.84848,-0.332 1.49404,-0.81158 1.93671,-1.43869c0.0369,-1.84449 0.05535,-3.83652 0.05535,-5.97608c0,-2.1765 0,-4.35296 0,-6.52943c0,-2.21336 0,-4.37138 0,-6.47407c0.0369,-2.1396 0.09222,-4.05786 0.16602,-5.75475zM249.48972,155.58864c0,0.2582 0,0.73778 0,1.43869c0.0369,0.66401 0.05535,1.40179 0.05535,2.21336c0.0369,0.81154 0.0738,1.66002 0.11067,2.54537c0.0369,0.84844 0.05535,1.60471 0.05535,2.26872c-0.18444,0.2582 -0.59021,0.42422 -1.21735,0.49802c-0.62711,0.07377 -1.34647,0.11067 -2.15801,0.11067c-0.81154,-0.0369 -1.69689,-0.0738 -2.65604,-0.11067c-0.95911,-0.0738 -1.86291,-0.09222 -2.71135,-0.05532c0,-1.29115 -0.05532,-2.61917 -0.16598,-3.98406c-0.11067,-1.40182 -0.14753,-3.11716 -0.11067,-5.14606z"/></g></g></svg>