<svg version="1.1" xmlns="http://www.w3.org/2000/svg" xmlns:xlink="http://www.w3.org/1999/xlink" width="25.25055" height="48.29735" viewBox="0,0,25.25055,48.29735"><g transform="translate(-227.37472,-155.25132)"><g data-paper-data="{&quot;isPaintingLayer&quot;:true}" fill="#ff0000" fill-rule="nonzero" stroke="#000000" stroke-width="0" stroke-linecap="square" stroke-linejoin="miter" stroke-miterlimit="10" stroke-dasharray="" stroke-dashoffset="0" style="mix-blend-mode: normal"><path d="M236.94725,173.37284c0.332,-0.18444 0.60869,-0.35046 0.83003,-0.49799c0.92225,-0.66401 1.95513,-1.1989 3.09871,-1.60467c1.14358,-0.40577 2.32403,-0.62711 3.54138,-0.66401c1.21735,-0.0369 2.3978,0.09222 3.54138,0.38736c1.14358,0.2951 2.17646,0.84844 3.09871,1.66002c0.44267,0.40577 0.77468,1.2358 0.99601,2.49005c0.25824,1.25425 0.42422,2.76671 0.49802,4.5374c0.07377,1.73379 0.09222,3.65205 0.05535,5.75475c0,2.1027 -0.0369,4.22384 -0.11067,6.36344c-0.0369,2.1396 -0.07377,4.20539 -0.11067,6.19742c-0.0369,1.95513 -0.01845,3.68895 0.05535,5.20141c-1.51245,0.22134 -2.87737,0.31355 -4.09472,0.27669c-1.21735,-0.0369 -2.60069,-0.05532 -4.15004,-0.05532c-0.07377,-0.99601 -0.11067,-2.12115 -0.11067,-3.37536c0,-1.29112 0,-2.61914 0,-3.98406c0.0369,-1.36492 0.0369,-2.7298 0,-4.09472c0,-1.36492 -0.05532,-2.65604 -0.16598,-3.87339c-0.0369,-0.51644 -0.07377,-1.08823 -0.11067,-1.71534c-0.0369,-0.66401 -0.11067,-1.29112 -0.22134,-1.88136c-0.11067,-0.62711 -0.27665,-1.18045 -0.49799,-1.66002c-0.18444,-0.47957 -0.46112,-0.84844 -0.82999,-1.10668c-0.0369,-0.07377 -0.07377,-0.11067 -0.11067,-0.11067c-0.0369,0 -0.07377,-0.01845 -0.11067,-0.05532c-0.36891,-0.18444 -0.9038,-0.332 -1.60467,-0.44267c-0.66401,-0.11067 -1.32802,-0.05532 -1.99203,0.16602c-0.66401,0.18444 -1.25425,0.57179 -1.77069,1.16203c-0.51644,0.59024 -0.82999,1.49404 -0.94066,2.71139c-0.07377,1.51245 -0.09222,3.00649 -0.05532,4.48208c0.0369,1.47559 0.09222,2.95114 0.16602,4.42673c0.07377,1.47559 0.11067,2.95114 0.11067,4.42673c0,1.43869 -0.09222,2.89582 -0.27665,4.37141v0.22134c-0.73778,0.22134 -1.38334,0.35046 -1.93668,0.38736c-0.55334,0.07377 -1.12513,0.09222 -1.71534,0.05535c-0.55334,0 -1.18048,-0.0369 -1.88136,-0.11067c-0.70091,-0.0369 -1.58626,0 -2.65604,0.11067c0,-1.80759 -0.01845,-3.98406 -0.05532,-6.52943c0,-2.54537 -0.01845,-5.25672 -0.05532,-8.1341c0,-2.91428 0,-5.92073 0,-9.01944c0,-3.13561 0,-6.17897 0,-9.13011c0,-2.95114 0,-5.7363 0,-8.35543c0.03687,-2.61914 0.07377,-4.88785 0.11067,-6.80608c0.51644,0.0369 0.9407,0.07377 1.2727,0.11067c0.36887,0 0.70088,0 0.99601,0c0.332,0 0.66401,0 0.99601,0c0.36887,-0.0369 0.83003,-0.07377 1.38337,-0.11067c0.14757,0 0.44267,-0.0369 0.88535,-0.11067c0.44267,-0.07377 0.88535,-0.12912 1.32802,-0.16598c0.44267,-0.0369 0.83003,-0.0369 1.16203,0c0.36891,0 0.55334,0.07377 0.55334,0.22134c0.0369,0.22134 0.05535,0.81158 0.05535,1.77069c0,0.92225 0,2.02893 0,3.32005c0,1.29112 0,2.67449 0,4.15008c0,1.47559 0,2.85892 0,4.15008c0,1.29112 0,2.3978 0,3.32005c0,0.92225 0,1.45714 0,1.60471c0.22134,-0.11067 0.49802,-0.25824 0.83003,-0.44267z"/></g></g></svg>