<svg version="1.1" xmlns="http://www.w3.org/2000/svg" xmlns:xlink="http://www.w3.org/1999/xlink" width="388" height="140" viewBox="0,0,388,140"><g transform="translate(9.30557,-39.34027)"><g data-paper-data="{&quot;isPaintingLayer&quot;:true}" fill="none" fill-rule="nonzero" stroke-linejoin="miter" stroke-miterlimit="10" stroke-dasharray="" stroke-dashoffset="0" style="mix-blend-mode: normal"><g stroke="#ffffff" stroke-width="25" stroke-linecap="round"><path d="M217.88963,109.27686h41.49876"/><path d="M47.16349,138.07327h47.48603c0,0 10.25124,1.04048 10.21885,-14.89126c-0.02843,-13.98427 -10.96451,-13.90515 -10.96451,-13.90515h-45.10866c0,0 -12.67426,-0.05727 -12.22757,-16.29985c0.43176,-15.69953 13.14025,-13.93639 13.14025,-13.93639h44.00238"/><path d="M162.24828,109.98596v22.13075c0,0 -0.31555,6.24438 -22.61686,6.2111c-25.44374,-0.03797 -24.84274,-6.32757 -24.84274,-6.32757v-22.13075"/><path d="M173.78359,109.75284v28.49645"/><path d="M173.90986,121.88917c0,0 6.4812,-6.71287 12.58096,-8.76167c6.20285,-2.08343 23.74613,-3.63678 23.74613,-3.63678"/><path d="M238.52785,138.11597v-28.49645l0.20466,-9.02535c0,0 0.4241,-7.00288 9.29282,-6.99565c9.87242,0.00804 10.04257,7.12896 10.04257,7.12896"/><path d="M306.32799,138.95371c0,0 -37.49893,2.05384 -38.37782,-16.93122c-0.79426,-8.73184 16.0193,-14.97637 26.84659,-12.32757c8.51056,2.08204 11.53123,12.46089 11.53123,12.46089h-38.37782"/><path d="M314.99054,110.41942v28.49646"/><path d="M315.11681,122.55576c0,0 6.4812,-6.71287 12.58096,-8.76168c6.20285,-2.08343 23.74613,-3.63678 23.74613,-3.63678"/></g><g stroke="#4fffdc" stroke-width="17.5" stroke-linecap="round"><path d="M217.88963,109.27685h41.49877"/><path d="M47.16351,138.07326h47.48603c0,0 10.25124,1.04048 10.21884,-14.89126c-0.02843,-13.98426 -10.96451,-13.90514 -10.96451,-13.90514h-45.10866c0,0 -12.67427,-0.05727 -12.22757,-16.29985c0.43176,-15.69954 13.14025,-13.93639 13.14025,-13.93639h44.00237"/><path d="M162.24828,109.98596v22.13075c0,0 -0.31555,6.24438 -22.61686,6.2111c-25.44374,-0.03797 -24.84274,-6.32757 -24.84274,-6.32757v-22.13075"/><path d="M173.7836,138.24928v-28.49645"/><path d="M173.90987,121.88917c0,0 6.4812,-6.71287 12.58096,-8.76167c6.20285,-2.08344 23.74614,-3.63678 23.74614,-3.63678"/><path d="M238.52786,138.11597v-28.49645l0.20466,-9.02535c0,0 0.42411,-7.00288 9.29282,-6.99565c9.87243,0.00805 10.04257,7.12897 10.04257,7.12897"/><path d="M306.32799,138.9537c0,0 -37.49894,2.05384 -38.37782,-16.93122c-0.79426,-8.73183 16.0193,-14.97636 26.84659,-12.32756c8.51056,2.08203 11.53123,12.46088 11.53123,12.46088h-38.37782"/><path d="M314.99054,110.41941v28.49646"/><path d="M315.11681,122.55575c0,0 6.4812,-6.71287 12.58096,-8.76167c6.20285,-2.08344 23.74613,-3.63678 23.74613,-3.63678"/></g><g stroke="#000000" stroke-width="10" stroke-linecap="round"><path d="M217.88963,109.27685h41.49876"/><path d="M47.1635,138.07327h47.48603c0,0 10.25123,1.04047 10.21884,-14.89127c-0.02843,-13.98426 -10.96451,-13.90515 -10.96451,-13.90515h-45.10866c0,0 -12.67427,-0.05727 -12.22757,-16.29985c0.43176,-15.69952 13.14025,-13.93638 13.14025,-13.93638h44.00238"/><path d="M162.24828,109.98596v22.13075c0,0 -0.31554,6.24438 -22.61686,6.2111c-25.44374,-0.03797 -24.84274,-6.32757 -24.84274,-6.32757v-22.13075"/><path d="M173.78359,109.75283v28.49645"/><path d="M173.90986,121.88917c0,0 6.4812,-6.71287 12.58096,-8.76167c6.20285,-2.08343 23.74613,-3.63678 23.74613,-3.63678"/><path d="M238.52786,138.11597v-28.49645l0.20466,-9.02535c0,0 0.4241,-7.00288 9.29283,-6.99565c9.87243,0.00804 10.04257,7.12897 10.04257,7.12897"/><path d="M306.32799,138.95371c0,0 -37.49893,2.05384 -38.37782,-16.93122c-0.79426,-8.73184 16.0193,-14.97637 26.84659,-12.32757c8.51056,2.08203 11.53123,12.46088 11.53123,12.46088h-38.37782"/><path d="M314.99054,110.41942v28.49645"/><path d="M315.11681,122.55576c0,0 6.4812,-6.71287 12.58096,-8.76167c6.20285,-2.08343 23.74613,-3.63678 23.74613,-3.63678"/></g><g stroke="#46e0c2" stroke-width="7.5" stroke-linecap="round"><path d="M217.88963,109.27685h41.49876"/><path d="M47.16351,138.07327h47.48603c0,0 10.25124,1.04047 10.21884,-14.89127c-0.02843,-13.98426 -10.96451,-13.90514 -10.96451,-13.90514h-45.10866c0,0 -12.67427,-0.05727 -12.22757,-16.29985c0.43176,-15.69954 13.14025,-13.93639 13.14025,-13.93639h44.00237"/><path d="M162.24828,109.98597v22.13075c0,0 -0.31555,6.24438 -22.61686,6.2111c-25.44374,-0.03798 -24.84274,-6.32758 -24.84274,-6.32758v-22.13075"/><path d="M173.7836,138.24928v-28.49645"/><path d="M173.90987,121.88917c0,0 6.4812,-6.71287 12.58096,-8.76167c6.20285,-2.08344 23.74614,-3.63678 23.74614,-3.63678"/><path d="M238.52786,138.11597v-28.49645l0.20466,-9.02535c0,0 0.42411,-7.00288 9.29283,-6.99565c9.87243,0.00805 10.04257,7.12897 10.04257,7.12897"/><path d="M306.32799,138.9537c0,0 -37.49893,2.05383 -38.37782,-16.93123c-0.79426,-8.73183 16.0193,-14.97636 26.84659,-12.32756c8.51056,2.08204 11.53123,12.46089 11.53123,12.46089h-38.37782"/><path d="M314.99054,110.41941v28.49646"/><path d="M315.11681,122.55575c0,0 6.4812,-6.71287 12.58096,-8.76167c6.20285,-2.08344 23.74613,-3.63678 23.74613,-3.63678"/></g><path d="M-9.30557,179.34027v-140h388v140z" stroke="none" stroke-width="NaN" stroke-linecap="butt"/></g></g></svg>