<svg version="1.1" xmlns="http://www.w3.org/2000/svg" xmlns:xlink="http://www.w3.org/1999/xlink" width="35.23556" height="46.54784" viewBox="0,0,35.23556,46.54784"><g transform="translate(-222.38222,-156.72608)"><g data-paper-data="{&quot;isPaintingLayer&quot;:true}" fill="#ff0000" fill-rule="nonzero" stroke="#000000" stroke-width="0" stroke-linecap="square" stroke-linejoin="miter" stroke-miterlimit="10" stroke-dasharray="" stroke-dashoffset="0" style="mix-blend-mode: normal"><path d="M224.65531,191.04134h16.23758c1.04641,0 1.71396,-0.18044 2.00266,-0.54125c0.32475,-0.39694 0.48714,-0.84795 0.48714,-1.35312v-1.78612c0,-0.50519 -0.16236,-0.93819 -0.48711,-1.29901c-0.28866,-0.36084 -0.95621,-0.54125 -2.00262,-0.54125h-10.98741c-0.79385,0 -1.38921,-0.18044 -1.78612,-0.54125c-0.36084,-0.39694 -0.54125,-0.99231 -0.54125,-1.78612v-6.92804c0,-0.82995 0.1804,-1.4253 0.54125,-1.78612c0.39691,-0.36084 0.99231,-0.54125 1.78615,-0.54125h6.81978c1.01035,0 1.65986,-0.19846 1.94851,-0.59536c0.32475,-0.39694 0.48714,-0.84795 0.48714,-1.35312v-0.97425c0,-0.50519 -0.16236,-0.95621 -0.48711,-1.35312c-0.28866,-0.39694 -0.93816,-0.59536 -1.94851,-0.59536h-12.06992c-0.79385,0 -1.37116,-0.18044 -1.732,-0.54125c-0.36084,-0.36084 -0.54125,-0.95621 -0.54125,-1.78612v-7.68579c0,-0.79385 0.1804,-1.37119 0.54125,-1.732c0.36084,-0.39694 0.93816,-0.59536 1.732,-0.59536h18.07783c3.57226,0 6.22443,0.82991 7.95643,2.48977c1.732,1.65982 2.59801,3.91507 2.59801,6.76568v3.73466c0,1.65982 -0.28866,3.10317 -0.86601,4.33003c-0.54125,1.19075 -1.51551,2.07481 -2.92277,2.65215c3.06711,0.36081 5.17798,1.31705 6.33267,2.86865c1.19075,1.51551 1.78615,3.68052 1.78615,6.49503v6.49503c0,3.31968 -1.06446,5.93573 -3.19338,7.84819c-2.09286,1.91242 -5.19602,2.86865 -9.30955,2.86865h-20.45935c-0.79385,0 -1.37116,-0.18044 -1.732,-0.54125c-0.36084,-0.36084 -0.54125,-0.95621 -0.54125,-1.78612v-7.57753c0,-0.79385 0.1804,-1.37119 0.54125,-1.732c0.36084,-0.39694 0.93816,-0.59536 1.732,-0.59536z"/></g></g></svg>