<svg version="1.1" xmlns="http://www.w3.org/2000/svg" xmlns:xlink="http://www.w3.org/1999/xlink" width="30.24752" height="32.99734" viewBox="0,0,30.24752,32.99734"><g transform="translate(-224.87624,-170.75133)"><g data-paper-data="{&quot;isPaintingLayer&quot;:true}" fill="#ff0000" fill-rule="nonzero" stroke="#000000" stroke-width="0" stroke-linecap="square" stroke-linejoin="miter" stroke-miterlimit="10" stroke-dasharray="" stroke-dashoffset="0" style="mix-blend-mode: normal"><path d="M239.675,203.74853c-2.83311,0 -5.36621,-0.58328 -7.59936,-1.74984c-2.23316,-1.16656 -3.99966,-2.88309 -5.29956,-5.14955c-1.26655,-2.26647 -1.89984,-5.03292 -1.89984,-8.2993v-15.54868c0,-0.63329 0.21665,-1.16656 0.64996,-1.59987c0.43331,-0.43331 0.96658,-0.64993 1.59987,-0.64993c0.6666,0 1.21657,0.21665 1.64988,0.64996c0.43331,0.43331 0.64996,0.96658 0.64996,1.59987v15.54871c0,2.46645 0.46662,4.49962 1.39988,6.09949c0.96658,1.56652 2.24983,2.74979 3.84969,3.54972c1.59987,0.79993 3.41639,1.1999 5.44956,1.1999c1.96649,0 3.73303,-0.36663 5.29956,-1.09991c1.56652,-0.76659 2.79977,-1.79985 3.69969,-3.09974c0.93327,-1.33323 1.39988,-2.83311 1.39988,-4.49962h3.29972c-0.13333,2.49979 -0.83327,4.73295 -2.09982,6.69944c-1.23324,1.96649 -2.91643,3.51638 -5.04956,4.64963c-2.09982,1.13325 -4.43297,1.69986 -6.99941,1.69986zM252.77391,203.39855c-0.6666,0 -1.21657,-0.19998 -1.64985,-0.59995c-0.39997,-0.43331 -0.59995,-1.01659 -0.59995,-1.74984v-28.04763c0,-0.6666 0.19998,-1.1999 0.59995,-1.59987c0.43331,-0.43331 0.98325,-0.64993 1.64988,-0.64993c0.69994,0 1.26655,0.21665 1.69986,0.64996c0.43331,0.39997 0.64996,0.93327 0.64996,1.59987v28.04767c0,0.73328 -0.21665,1.31656 -0.64993,1.74987c-0.43331,0.39997 -0.99992,0.59995 -1.69986,0.59995z"/></g></g></svg>