<svg version="1.1" xmlns="http://www.w3.org/2000/svg" xmlns:xlink="http://www.w3.org/1999/xlink" width="26.44956" height="34.66694" viewBox="0,0,26.44956,34.66694"><g transform="translate(-226.77522,-168.66653)"><g data-paper-data="{&quot;isPaintingLayer&quot;:true}" fill="#ff0000" fill-rule="nonzero" stroke="#000000" stroke-width="0" stroke-linecap="square" stroke-linejoin="miter" stroke-miterlimit="10" stroke-dasharray="" stroke-dashoffset="0" style="mix-blend-mode: normal"><path d="M229.59702,170.82455c0.70088,-0.51648 1.49404,-0.94066 2.37938,-1.27267c0.92221,-0.332 1.89981,-0.55334 2.93273,-0.66401c1.03288,-0.14757 2.08425,-0.22134 3.15406,-0.22134c0.88535,0.11067 1.73379,0.12912 2.54537,0.05535c0.81154,-0.0738 1.67847,-0.0738 2.60072,0c1.40179,0.11067 2.7298,0.40577 3.98406,0.88535c1.29112,0.44267 2.3978,1.10668 3.32005,1.99203c0.62711,0.40577 1.10668,1.05137 1.43869,1.93671c0.36887,0.84844 0.64556,1.86291 0.83003,3.04339c0.18444,1.18045 0.2951,2.47157 0.332,3.87339c0.03687,1.36488 0.07377,2.76671 0.11067,4.20539c-0.0369,1.29112 -0.09222,2.74826 -0.16598,4.37141c-0.0369,1.62312 -0.14757,3.19093 -0.332,4.70342c-0.14757,1.47555 -0.35046,2.82206 -0.60866,4.03941c-0.22134,1.18045 -0.55334,1.99203 -0.99601,2.4347c-0.73781,1.03288 -1.71534,1.77069 -2.93269,2.21336c-1.21735,0.44267 -2.52692,0.71936 -3.9287,0.83003c-1.40182,0.11067 -2.85892,0.11067 -4.37138,0c-1.47559,-0.11067 -2.84051,-0.16598 -4.09472,-0.16598c-2.25027,-0.36891 -4.13163,-1.32802 -5.64408,-2.87737c-1.21735,-1.06982 -2.04734,-2.39784 -2.49002,-3.98406c-0.44267,-1.58626 -0.70091,-3.24628 -0.77468,-4.98007c-0.0738,-1.73383 -0.09222,-3.48603 -0.05532,-5.25672c0.07377,-1.77069 0.05535,-3.37536 -0.05532,-4.81405c0,-0.81158 0.01845,-1.58626 0.05535,-2.32403c0.03687,-0.77468 0.12912,-1.58626 0.27669,-2.4347c0.03687,-0.47957 0.18444,-1.12513 0.44267,-1.93668c0.2582,-0.81158 0.46112,-1.45714 0.60869,-1.93668c0.2951,-0.66401 0.77468,-1.2358 1.43869,-1.71534zM235.79444,181.61472c-0.18447,1.43869 -0.27665,2.85892 -0.27665,4.26074c0,1.36488 -0.0369,2.82206 -0.11067,4.37141c-0.0369,0.99601 0.22134,1.77069 0.77468,2.32403c0.59021,0.55334 1.29112,0.9407 2.1027,1.16203c0.81154,0.18444 1.66002,0.22134 2.54537,0.11067c0.88535,-0.11067 1.60471,-0.332 2.15805,-0.66401c0.77468,-0.332 1.29112,-1.05133 1.54936,-2.15801c0.18444,-1.40182 0.332,-2.82202 0.44267,-4.26071c0.11067,-1.43869 0.01845,-2.80361 -0.27665,-4.09472c-0.22134,-1.51249 -0.8669,-2.61917 -1.93668,-3.32005c-1.03292,-0.73781 -2.39784,-0.9038 -4.09472,-0.49799c-0.92225,0.2582 -1.67847,0.73778 -2.26868,1.43869c-0.25824,0.18444 -0.46112,0.62711 -0.60866,1.32802z"/></g></g></svg>