<svg version="1.1" xmlns="http://www.w3.org/2000/svg" xmlns:xlink="http://www.w3.org/1999/xlink" width="29.00916" height="47.66472" viewBox="0,0,29.00916,47.66472"><g transform="translate(-225.49542,-156.16764)"><g data-paper-data="{&quot;isPaintingLayer&quot;:true}" fill="#ff0000" fill-rule="nonzero" stroke="#000000" stroke-width="0" stroke-linecap="square" stroke-linejoin="miter" stroke-miterlimit="10" stroke-dasharray="" stroke-dashoffset="0" style="mix-blend-mode: normal"><path d="M254.5042,168.72836v0.38736v1.21735c0,0.36891 -0.03687,0.73781 -0.11067,1.10668c-0.03687,0.332 -0.09222,0.64556 -0.16598,0.9407c-0.36887,1.58626 -0.92221,3.00649 -1.66002,4.26074c-0.70088,1.21735 -1.75224,2.39784 -3.15403,3.54138v0.05535c1.62316,1.18045 2.82206,2.63755 3.59674,4.37134c0.81158,1.69692 1.25425,3.48607 1.32802,5.36743c0.0738,1.84449 -0.22134,3.65205 -0.88535,5.42274c-0.62711,1.77069 -1.5309,3.32005 -2.71135,4.64807c-0.77468,0.88535 -1.75224,1.62316 -2.93269,2.21336c-1.18045,0.55334 -2.47157,0.95915 -3.87339,1.21735c-1.40179,0.29514 -2.87737,0.40581 -4.42673,0.332c-1.51249,-0.03687 -2.96959,-0.23979 -4.37138,-0.60866c-1.40182,-0.332 -2.67449,-0.82999 -3.81804,-1.494c-1.14358,-0.66401 -2.06583,-1.47555 -2.76671,-2.4347c-1.06982,-1.32802 -1.86291,-2.84047 -2.37935,-4.5374c-0.51648,-1.69689 -0.73781,-3.43072 -0.66401,-5.20141c0.07377,-1.80756 0.44267,-3.54138 1.10668,-5.20141c0.66401,-1.69689 1.67847,-3.20934 3.04339,-4.53733c-1.14358,-1.21735 -2.01048,-2.60069 -2.60069,-4.15004c-0.59024,-1.58622 -0.92225,-3.24624 -0.99601,-4.98007c-0.0369,-1.73379 0.16602,-3.43072 0.60869,-5.09074c0.47954,-1.66002 1.1989,-3.17248 2.15805,-4.5374c0.95911,-1.36488 2.12115,-2.47157 3.48607,-3.32005c1.40179,-0.88535 3.00649,-1.36488 4.81409,-1.43869c1.54936,-0.07377 2.91424,-0.11067 4.09472,-0.11067c1.18048,0 2.23182,0.05535 3.15406,0.16602c0.95915,0.0738 1.80759,0.22134 2.54537,0.44267c0.77468,0.22134 1.5309,0.55334 2.26872,0.99601c0.332,0.22134 0.62714,0.42422 0.88535,0.60869c0.25824,0.18447 0.49802,0.40581 0.71936,0.66401c0.25824,0.22134 0.53489,0.51648 0.83003,0.88535c0.332,0.36891 0.70091,0.8669 1.10668,1.49404c0.11067,0.22134 0.27669,0.59024 0.49802,1.10668c0.22134,0.51648 0.36891,0.97756 0.44267,1.38337c0.18447,0.70091 0.31355,1.29115 0.38736,1.77069c0.11067,0.44267 0.20289,0.97756 0.27669,1.60471c0.0738,0.22134 0.11067,0.42422 0.11067,0.60869c0.0369,0.18447 0.05535,0.38736 0.05535,0.60869zM236.79728,169.61371v0.11067c-0.0369,0.44267 -0.01845,0.92225 0.05535,1.43869c0.07377,0.51648 0.23979,0.99601 0.49802,1.43869c0.2582,0.44267 0.59021,0.81158 0.99601,1.10668c0.40577,0.25824 0.92221,0.40581 1.54936,0.44267c1.06978,0.11067 1.88136,-0.20289 2.4347,-0.94066c0.59024,-0.77468 0.84848,-1.58622 0.77468,-2.4347c-0.03687,-0.88535 -0.40577,-1.64157 -1.10668,-2.26868c-0.66401,-0.62711 -1.69692,-0.77468 -3.09871,-0.44267c-0.0738,0.0738 -0.14757,0.11067 -0.22134,0.11067c-0.0738,0 -0.18447,0.0369 -0.332,0.11067c-0.18447,0.0738 -0.332,0.16602 -0.44267,0.27669c-0.0738,0.0738 -0.18447,0.16602 -0.332,0.27669c-0.0738,0.0738 -0.20289,0.18447 -0.38732,0.332c-0.18447,0.14757 -0.29514,0.27669 -0.332,0.38736c-0.0369,0 -0.05532,0.01845 -0.05532,0.05535zM243.82473,188.8146c0.0369,-0.07377 0.05535,-0.14753 0.05535,-0.22134c0,-0.11067 0,-0.23979 0,-0.38732c0,-0.14753 -0.03687,-0.27665 -0.11067,-0.38732c-0.07377,-0.332 -0.20289,-0.68246 -0.38732,-1.05133c-0.18444,-0.36887 -0.42422,-0.66401 -0.71933,-0.88535c-0.47954,-0.44267 -1.08823,-0.77468 -1.82601,-0.99601c-0.70091,-0.22134 -1.43869,-0.2582 -2.21336,-0.11067c-0.59024,0.22134 -1.10668,0.64556 -1.54936,1.2727c-0.44267,0.59024 -0.71933,1.2358 -0.82999,1.93671c-0.11067,0.66401 -0.05532,1.30957 0.16602,1.93671c0.2582,0.59024 0.75623,1.03292 1.49404,1.32802c0.59021,0.22134 1.21735,0.332 1.88136,0.332c0.70088,0 1.32802,-0.03687 1.88136,-0.11067c0.44267,-0.14753 0.77468,-0.2951 0.99601,-0.44267c0.22134,-0.14753 0.38736,-0.332 0.49802,-0.55334c0.11067,-0.22134 0.23979,-0.44267 0.38736,-0.66401c0.0738,-0.11067 0.11067,-0.2582 0.11067,-0.44267c0.0369,-0.18444 0.0738,-0.31355 0.11067,-0.38732c0,-0.07377 0.01845,-0.12912 0.05535,-0.16598z"/></g></g></svg>