<svg version="1.1" xmlns="http://www.w3.org/2000/svg" xmlns:xlink="http://www.w3.org/1999/xlink" width="20.79831" height="46.64613" viewBox="0,0,20.79831,46.64613"><g transform="translate(-229.60085,-156.67694)"><g data-paper-data="{&quot;isPaintingLayer&quot;:true}" fill="#ff0000" fill-rule="nonzero" stroke="#000000" stroke-width="0" stroke-linecap="square" stroke-linejoin="miter" stroke-miterlimit="10" stroke-dasharray="" stroke-dashoffset="0" style="mix-blend-mode: normal"><path d="M237.75015,203.32299c-0.59995,0 -1.13325,-0.19998 -1.59987,-0.59995c-0.43331,-0.43331 -0.64993,-1.01659 -0.64993,-1.74984v-30.24745c0,-2.79977 0.48329,-5.24954 1.44989,-7.34937c0.96658,-2.09982 2.38313,-3.73303 4.24966,-4.89959c1.8665,-1.1999 4.14967,-1.79985 6.84944,-1.79985c0.69994,0 1.26655,0.19998 1.69986,0.59995c0.43331,0.39997 0.64996,0.89992 0.64996,1.49987c0,0.59995 -0.21665,1.09991 -0.64993,1.49987c-0.43331,0.39997 -0.99992,0.59995 -1.69986,0.59995c-1.79985,0 -3.28305,0.41664 -4.44961,1.24991c-1.16656,0.79993 -2.04981,1.93318 -2.64976,3.39972c-0.56661,1.43322 -0.84991,3.08307 -0.84991,4.9496v30.49744c0,0.73328 -0.21665,1.31656 -0.64993,1.74987c-0.39997,0.39997 -0.96658,0.59995 -1.69986,0.59995zM231.70064,175.8753c-0.63329,0 -1.14989,-0.18331 -1.54985,-0.54994c-0.36663,-0.39997 -0.54994,-0.88325 -0.54994,-1.44986c0,-0.59995 0.18331,-1.08324 0.54997,-1.44986c0.39997,-0.36663 0.9166,-0.54994 1.54989,-0.54994h15.59869c0.63329,0 1.13325,0.18331 1.49987,0.54997c0.36663,0.36663 0.54997,0.84994 0.54997,1.44989c0,0.56661 -0.18331,1.04993 -0.54994,1.44989c-0.36663,0.36663 -0.86658,0.54997 -1.49987,0.54997z"/></g></g></svg>