<svg version="1.1" xmlns="http://www.w3.org/2000/svg" xmlns:xlink="http://www.w3.org/1999/xlink" width="176.49572" height="49.4777" viewBox="0,0,176.49572,49.4777"><g transform="translate(-144.33283,-209.80892)"><g data-paper-data="{&quot;isPaintingLayer&quot;:true}" fill-rule="nonzero" stroke-linejoin="miter" stroke-miterlimit="10" stroke-dasharray="" stroke-dashoffset="0" style="mix-blend-mode: normal"><path d="M317.29539,253.43449c0,0 -66.63596,11.38067 -118.83681,-1.91497c-24.09592,-6.13727 -53.27931,-40.65723 -52.87153,-40.45976c0.47691,0.23095 27.19457,-1.07106 52.29351,2.12323c84.91365,10.80678 119.41484,40.2515 119.41484,40.2515z" fill="#ffffff" stroke="#000000" stroke-width="2.5" stroke-linecap="butt"/><path d="M306.12291,252.67663c0,0 -35.73741,-2.53894 -71.36123,-12.81666c-26.62566,-7.6817 -55.59057,-22.91398 -55.59057,-22.91398c0,0 35.48284,0.77016 62.25877,9.09184c14.48369,4.50138 28.13156,8.87165 38.62139,13.34101c16.45668,7.01161 26.07164,13.29778 26.07164,13.29778z" fill="#bebebe" stroke="none" stroke-width="0" stroke-linecap="butt"/><path d="M167.85155,233.28412c0,0 19.08701,-1.78755 54.71083,8.49018c26.62566,7.6817 52.29119,15.51452 52.29119,15.51452c0,0 -53.34967,1.01417 -80.12561,-7.3075c-14.48369,-4.50138 -26.87641,-16.69719 -26.87641,-16.69719z" data-paper-data="{&quot;index&quot;:null}" fill="#bebebe" stroke="none" stroke-width="0" stroke-linecap="butt"/><path d="M317.88058,253.50153c0,0 -66.63596,11.38068 -118.83681,-1.91497c-24.09592,-6.13726 -53.27929,-40.65723 -52.87153,-40.45975c0.47691,0.23095 27.19456,-1.07106 52.29351,2.12323c84.91365,10.80678 119.41484,40.25149 119.41484,40.25149z" fill="none" stroke="#000000" stroke-width="2.5" stroke-linecap="butt"/><path d="M149.83043,216.24745c0,0 5.87686,-0.75352 18.40369,-0.3112c21.46814,0.75804 56.22216,4.28217 87.88403,14.56399c34.01129,11.04477 49.42218,21.41875 49.42218,21.41875" fill="none" stroke="#000000" stroke-width="1.5" stroke-linecap="round"/></g></g></svg>