<svg version="1.1" xmlns="http://www.w3.org/2000/svg" xmlns:xlink="http://www.w3.org/1999/xlink" width="30.2477" height="46.69619" viewBox="0,0,30.2477,46.69619"><g transform="translate(-224.87615,-156.6519)"><g data-paper-data="{&quot;isPaintingLayer&quot;:true}" fill="#ff0000" fill-rule="nonzero" stroke="#000000" stroke-width="0" stroke-linecap="square" stroke-linejoin="miter" stroke-miterlimit="10" stroke-dasharray="" stroke-dashoffset="0" style="mix-blend-mode: normal"><path d="M239.97488,203.34781c-2.86642,0 -5.43289,-0.6666 -7.69935,-1.99983c-2.26647,-1.33323 -4.06632,-3.13308 -5.39955,-5.39955c-1.33323,-2.29981 -1.99983,-4.88292 -1.99983,-7.74933c0,-0.69994 0.21665,-1.26655 0.64996,-1.69986c0.43331,-0.43331 0.96658,-0.64993 1.59987,-0.64993c0.6666,0 1.23324,0.21665 1.69986,0.64996c0.46662,0.43331 0.69994,0.99992 0.69994,1.69986c0,1.96649 0.44998,3.7497 1.3499,5.34957c0.93327,1.59987 2.18315,2.86642 3.7497,3.79968c1.56652,0.89992 3.34974,1.3499 5.34957,1.3499c1.96649,0 3.7497,-0.44995 5.34957,-1.34987c1.59987,-0.93327 2.84978,-2.19982 3.7497,-3.79968c0.93327,-1.59987 1.39988,-3.38304 1.39988,-5.34954c0,-1.99983 -0.46662,-3.78301 -1.39988,-5.34954c-0.89992,-1.59987 -2.1498,-2.84975 -3.74967,-3.74967c-1.59987,-0.93327 -3.38304,-1.39988 -5.34954,-1.39988h-10.44911c-0.69994,0 -1.26655,-0.23332 -1.69986,-0.69994c-0.43331,-0.46662 -0.64993,-1.01659 -0.64993,-1.64985v-16.34861c0,-0.63329 0.21665,-1.18323 0.64996,-1.64985c0.43331,-0.46662 0.99992,-0.69994 1.69986,-0.69994h20.94826c0.63329,0 1.16656,0.23332 1.59987,0.69994c0.46662,0.46662 0.69994,1.01659 0.69994,1.64988c0,0.63329 -0.21665,1.18323 -0.64993,1.64988c-0.43331,0.43331 -0.98325,0.64996 -1.64985,0.64996h-18.69843v11.69902h8.19931c2.89976,0 5.48287,0.6666 7.74937,1.99983c2.26647,1.33323 4.06632,3.14975 5.39955,5.44956c1.33323,2.29981 1.99983,4.88292 1.99983,7.74937c0,2.86642 -0.6666,5.44956 -1.99983,7.74937c-1.33323,2.26647 -3.13308,4.06632 -5.39955,5.39955c-2.26647,1.33323 -4.84958,1.99983 -7.74933,1.99983z"/></g></g></svg>