<svg version="1.1" xmlns="http://www.w3.org/2000/svg" xmlns:xlink="http://www.w3.org/1999/xlink" width="9.5727" height="48.05763" viewBox="0,0,9.5727,48.05763"><g transform="translate(-235.21365,-155.17118)"><g data-paper-data="{&quot;isPaintingLayer&quot;:true}" fill="#ff0000" fill-rule="nonzero" stroke="#000000" stroke-width="0" stroke-linecap="square" stroke-linejoin="miter" stroke-miterlimit="10" stroke-dasharray="" stroke-dashoffset="0" style="mix-blend-mode: normal"><path d="M244.78635,155.39241c0,1.77069 -0.01845,3.94719 -0.05532,6.52943c-0.0369,2.54537 -0.09222,5.27521 -0.16598,8.18945c-0.0369,2.91428 -0.07377,5.93922 -0.11067,9.0748c0,3.09871 0,6.1052 0,9.01948c0,2.91428 0.01845,5.64408 0.05535,8.18945c0.0369,2.5085 0.11067,4.64807 0.22134,6.41876c-0.22134,0.25824 -0.77468,0.38736 -1.66002,0.38736c-0.88535,0.0369 -1.84446,0.0369 -2.87737,0c-1.03292,0 -2.01048,-0.01845 -2.93269,-0.05532c-0.92225,-0.03687 -1.54936,-0.01845 -1.88136,0.05535c0.332,-3.94716 0.46112,-7.93121 0.38736,-11.95217c-0.0738,-4.02092 -0.18447,-8.02343 -0.332,-12.00749c-0.11067,-4.02092 -0.18447,-8.02343 -0.22134,-12.00749c0,-4.02092 0.20289,-8.04188 0.60869,-12.06284z"/></g></g></svg>