<svg version="1.1" xmlns="http://www.w3.org/2000/svg" xmlns:xlink="http://www.w3.org/1999/xlink" width="40.21512" height="46.5478" viewBox="0,0,40.21512,46.5478"><g transform="translate(-219.89244,-156.7261)"><g data-paper-data="{&quot;isPaintingLayer&quot;:true}" fill="#ff0000" fill-rule="nonzero" stroke="#000000" stroke-width="0" stroke-linecap="square" stroke-linejoin="miter" stroke-miterlimit="10" stroke-dasharray="" stroke-dashoffset="0" style="mix-blend-mode: normal"><path d="M237.75375,170.31145l-3.03102,9.8508h10.12144l-3.03102,-9.8508c-0.18044,-0.39694 -0.36084,-0.66755 -0.54125,-0.81187c-0.18044,-0.18044 -0.39694,-0.27061 -0.64951,-0.27061h-1.62376c-0.2526,0 -0.48711,0.0902 -0.70361,0.27064c-0.18044,0.14431 -0.36084,0.41495 -0.54125,0.81189zM234.07323,200.94635c0,0.82991 -0.18044,1.4253 -0.54125,1.78615c-0.36084,0.36081 -0.95621,0.54125 -1.78612,0.54125h-9.52605c-0.79385,0 -1.38921,-0.18044 -1.78612,-0.54125c-0.36084,-0.36084 -0.54125,-0.95621 -0.54125,-1.78612v-17.04944c0,-1.29901 0.19846,-2.77845 0.5954,-4.43827c0.433,-1.69595 1.08251,-3.66247 1.94851,-5.89963l5.62903,-14.66793c0.25256,-0.75775 0.64951,-1.29901 1.19075,-1.62376c0.54125,-0.36084 1.2449,-0.54125 2.1109,-0.54125h17.37422c0.82991,0 1.51551,0.1804 2.05676,0.54125c0.54125,0.32475 0.93816,0.86601 1.19075,1.62376l5.62903,14.66797c0.82991,2.23717 1.44332,4.20373 1.84026,5.89967c0.433,1.65982 0.64951,3.13926 0.64951,4.43827v17.04948c0,0.82991 -0.18044,1.4253 -0.54125,1.78615c-0.36084,0.36081 -0.95621,0.54125 -1.78612,0.54125h-9.74255c-0.86601,0 -1.51551,-0.18044 -1.94851,-0.54125c-0.39694,-0.36084 -0.59536,-0.95621 -0.59536,-1.78612v-9.0389h-11.42041z"/></g></g></svg>