<svg version="1.1" xmlns="http://www.w3.org/2000/svg" xmlns:xlink="http://www.w3.org/1999/xlink" width="31.14008" height="32.68576" viewBox="0,0,31.14008,32.68576"><g transform="translate(-224.42995,-170.90711)"><g data-paper-data="{&quot;isPaintingLayer&quot;:true}" fill="#ff0000" fill-rule="nonzero" stroke="#000000" stroke-width="0" stroke-linecap="square" stroke-linejoin="miter" stroke-miterlimit="10" stroke-dasharray="" stroke-dashoffset="0" style="mix-blend-mode: normal"><path d="M240.03277,203.59278c-0.96658,0 -1.68319,-0.51663 -2.1498,-1.54985l-13.24887,-28.09765c-0.23332,-0.5333 -0.26663,-1.0499 -0.09999,-1.54985c0.19998,-0.5333 0.59995,-0.93327 1.1999,-1.1999c0.56661,-0.29997 1.09991,-0.34995 1.59987,-0.14997c0.5333,0.19998 0.93327,0.56661 1.1999,1.09991l12.74895,27.4977h-2.44978l12.54896,-27.4977c0.23332,-0.56661 0.63329,-0.93327 1.1999,-1.09991c0.56661,-0.19998 1.13325,-0.18331 1.69986,0.05001c0.56661,0.29997 0.94994,0.71661 1.14992,1.24991c0.19998,0.5333 0.18331,1.03326 -0.04998,1.49987l-13.0989,28.19764c-0.46662,1.03326 -1.21657,1.54989 -2.2498,1.54989z"/></g></g></svg>