<svg version="1.1" xmlns="http://www.w3.org/2000/svg" xmlns:xlink="http://www.w3.org/1999/xlink" width="37.99604" height="47.52211" viewBox="0,0,37.99604,47.52211"><g transform="translate(-221.00198,-156.23894)"><g data-paper-data="{&quot;isPaintingLayer&quot;:true}" fill="#ff0000" fill-rule="nonzero" stroke="#000000" stroke-width="0" stroke-linecap="square" stroke-linejoin="miter" stroke-miterlimit="10" stroke-dasharray="" stroke-dashoffset="0" style="mix-blend-mode: normal"><path d="M240.37881,203.76089c-3.93312,0 -7.16258,-0.32475 -9.68841,-0.97425c-2.52585,-0.61341 -4.51043,-1.47942 -5.95378,-2.59801c-1.40726,-1.15466 -2.38151,-2.52583 -2.92277,-4.11352c-0.54125,-1.58766 -0.81187,-3.37382 -0.81187,-5.35838v-21.21711c0,-3.93308 1.13665,-7.12649 3.40991,-9.58015c2.27326,-2.45367 6.44093,-3.68052 12.50296,-3.68052h14.88447c0.79385,0 1.37116,0.19846 1.732,0.5954c0.39691,0.36084 0.5954,0.93819 0.5954,1.732v7.63168c0,0.82995 -0.19846,1.4253 -0.59536,1.78615c-0.36084,0.36084 -0.93816,0.54125 -1.732,0.54125h-12.12406c-1.58766,0 -2.67017,0.2526 -3.24752,0.75775c-0.54125,0.50519 -0.81187,1.5516 -0.81187,3.13926v1.40726c1.04641,-0.28866 2.23717,-0.52321 3.57226,-0.70361c1.37116,-0.1804 2.92277,-0.27061 4.65477,-0.27061c5.80943,0 9.77865,0.99231 11.90756,2.97691c2.16501,1.94851 3.24752,4.83521 3.24752,8.66004v6.22443c0,1.9846 -0.27061,3.77072 -0.81187,5.35842c-0.54125,1.5877 -1.51551,2.95886 -2.92277,4.11352c-1.37116,1.1186 -3.26556,1.9846 -5.68313,2.59801c-2.41761,0.64951 -5.48468,0.97425 -9.20129,0.97425zM235.61578,185.84541v3.84291c0,0.6856 0.2526,1.26295 0.75775,1.732c0.54125,0.433 1.732,0.64951 3.57226,0.64951c1.94851,0 3.17536,-0.2165 3.68052,-0.64951c0.50516,-0.46907 0.75775,-1.04641 0.75775,-1.732v-3.84288c0,-0.64951 -0.2526,-1.19075 -0.75775,-1.62376c-0.50516,-0.46907 -1.732,-0.70361 -3.68052,-0.70361c-1.84026,0 -3.03102,0.23455 -3.57226,0.70365c-0.50516,0.433 -0.75775,0.97425 -0.75775,1.62376z"/></g></g></svg>