<svg version="1.1" xmlns="http://www.w3.org/2000/svg" xmlns:xlink="http://www.w3.org/1999/xlink" width="29.34759" height="46.64618" viewBox="0,0,29.34759,46.64618"><g transform="translate(-225.3262,-156.67691)"><g data-paper-data="{&quot;isPaintingLayer&quot;:true}" fill="#ff0000" fill-rule="nonzero" stroke="#000000" stroke-width="0" stroke-linecap="square" stroke-linejoin="miter" stroke-miterlimit="10" stroke-dasharray="" stroke-dashoffset="0" style="mix-blend-mode: normal"><path d="M227.676,203.32296c-0.6666,0 -1.23324,-0.21665 -1.69986,-0.64993c-0.43331,-0.43331 -0.64993,-0.99992 -0.64993,-1.69986v-41.94647c0,-0.6666 0.21665,-1.21657 0.64996,-1.64985c0.46662,-0.46662 1.03326,-0.69994 1.69986,-0.69994h11.94901c2.9331,0 5.53288,0.64996 7.79935,1.94985c2.26647,1.29989 4.03301,3.08307 5.29956,5.34957c1.29989,2.26647 1.94985,4.89959 1.94985,7.89934c0,2.89976 -0.64993,5.48287 -1.94982,7.74937c-1.26655,2.23316 -3.03309,3.99966 -5.29956,5.29956c-2.26647,1.26655 -4.86625,1.89984 -7.79935,1.89984h-9.5992v14.14883c0,0.69994 -0.23332,1.26655 -0.69994,1.69986c-0.43331,0.43331 -0.98325,0.64996 -1.64985,0.64996zM230.02582,182.3747h9.5992c2.03317,0 3.83302,-0.44995 5.39955,-1.34987c1.59987,-0.89992 2.84978,-2.13317 3.7497,-3.69969c0.89992,-1.59987 1.3499,-3.41639 1.3499,-5.44953c0,-2.13317 -0.44995,-3.98299 -1.34987,-5.54952c-0.89992,-1.59987 -2.1498,-2.84975 -3.74967,-3.74967c-1.56652,-0.93327 -3.36637,-1.39988 -5.39955,-1.39988h-9.5992z"/></g></g></svg>