<svg version="1.1" xmlns="http://www.w3.org/2000/svg" xmlns:xlink="http://www.w3.org/1999/xlink" width="20.69837" height="43.04647" viewBox="0,0,20.69837,43.04647"><g transform="translate(-229.65082,-160.22677)"><g data-paper-data="{&quot;isPaintingLayer&quot;:true}" fill="#ff0000" fill-rule="nonzero" stroke="#000000" stroke-width="0" stroke-linecap="square" stroke-linejoin="miter" stroke-miterlimit="10" stroke-dasharray="" stroke-dashoffset="0" style="mix-blend-mode: normal"><path d="M246.59942,203.27315c-2.09982,0 -3.98299,-0.49996 -5.64951,-1.49987c-1.63321,-0.99992 -2.9331,-2.36646 -3.89967,-4.09966c-0.96658,-1.7332 -1.44986,-3.69969 -1.44986,-5.89951v-29.19755c0,-0.69994 0.19998,-1.26655 0.59995,-1.69986c0.43331,-0.43331 0.99992,-0.64993 1.69986,-0.64993c0.6666,0 1.21657,0.21665 1.64988,0.64996c0.43331,0.43331 0.64996,0.99992 0.64996,1.69986v29.19755c0,1.99983 0.59995,3.64971 1.79985,4.9496c1.1999,1.29989 2.73312,1.94985 4.59961,1.94985h1.59987c0.63329,0 1.14992,0.21665 1.54989,0.64996c0.39997,0.43331 0.59995,0.99992 0.59995,1.69986c0,0.6666 -0.23332,1.21657 -0.69994,1.64988c-0.46662,0.39997 -1.06657,0.59995 -1.79985,0.59995zM231.75065,175.82546c-0.59995,0 -1.09991,-0.18331 -1.49987,-0.54994c-0.39997,-0.39997 -0.59995,-0.88325 -0.59995,-1.44986c0,-0.59995 0.19998,-1.08324 0.59995,-1.44986c0.39997,-0.36663 0.89992,-0.54994 1.49987,-0.54994h15.19873c0.59995,0 1.09991,0.18331 1.49987,0.54997c0.39997,0.36663 0.59995,0.84994 0.59995,1.44989c0,0.56661 -0.19998,1.04993 -0.59995,1.44989c-0.39997,0.36663 -0.89992,0.54997 -1.49987,0.54997z"/></g></g></svg>