<svg version="1.1" xmlns="http://www.w3.org/2000/svg" xmlns:xlink="http://www.w3.org/1999/xlink" width="156.23951" height="56.82574" viewBox="0,0,156.23951,56.82574"><g transform="translate(-63.41789,-149.69246)"><g data-paper-data="{&quot;isPaintingLayer&quot;:true}" fill="none" fill-rule="nonzero" stroke="#ff0000" stroke-linecap="round" stroke-linejoin="miter" stroke-miterlimit="10" stroke-dasharray="" stroke-dashoffset="0" style="mix-blend-mode: normal"><path d="M126.04851,175.04338c0,0 0.8617,28.762 1.12584,28.41731c0.30014,-0.39165 4.12791,-27.68927 11.01716,-27.65906c8.32009,0.03648 6.8634,26.77364 7.95948,27.13361c0.44904,0.14748 3.94697,-27.38329 10.99874,-27.25098c8.04747,0.15099 6.23425,26.84435 6.23425,26.84435" stroke-width="5"/><g stroke-width="5"><path d="M104.50347,152.19246c0,0 -10.59692,3.02631 -17.02305,3.02631c-6.67822,0 -21.56253,0.75657 -21.56253,0.75657"/><path d="M85.58898,157.86681c0,0 1.13487,7.83911 1.13487,13.24016c0,8.51537 -1.13487,32.91123 -1.13487,32.91123"/></g><path d="M110.95548,176.45983c0,0 0,3.81808 0,6.43092c0,4.8001 -0.75657,20.04938 -0.75657,20.04938" stroke-width="5"/><path d="M196.26688,202.79704c0,0 -9.13572,1.74607 -15.41714,-1.86419c-3.44362,-1.97922 -5.77274,-7.36481 -5.86657,-11.34362c-0.25501,-10.81343 7.44605,-14.45005 13.985,-14.61985c13.14845,-0.34139 11.53967,14.36105 11.32195,14.81909c-0.22207,0.46723 -24.75463,-0.38426 -24.75463,-0.38426" stroke-width="5"/><path d="M110.88817,168.41485v0" stroke-width="5"/><path d="M215.44587,202.10716v0" stroke-width="7.5"/><path d="M215.9074,178.79947v0" stroke-width="7.5"/></g></g></svg>