<svg version="1.1" xmlns="http://www.w3.org/2000/svg" xmlns:xlink="http://www.w3.org/1999/xlink" width="46.39617" height="32.99731" viewBox="0,0,46.39617,32.99731"><g transform="translate(-216.80192,-170.50134)"><g data-paper-data="{&quot;isPaintingLayer&quot;:true}" fill="#ff0000" fill-rule="nonzero" stroke="#000000" stroke-width="0" stroke-linecap="square" stroke-linejoin="miter" stroke-miterlimit="10" stroke-dasharray="" stroke-dashoffset="0" style="mix-blend-mode: normal"><path d="M260.94822,203.49855c-0.6666,0 -1.23324,-0.19998 -1.69986,-0.59995c-0.43331,-0.43331 -0.64993,-0.98325 -0.64993,-1.64985v-17.19856c0,-2.83311 -0.73328,-5.06623 -2.19982,-6.69944c-1.46653,-1.66652 -3.3497,-2.49979 -5.64951,-2.49979c-2.46645,0 -4.49962,0.83327 -6.09949,2.49979c-1.56652,1.63321 -2.33315,3.81635 -2.29981,6.54947h-4.09966c0.03334,-2.66643 0.59995,-4.99958 1.69986,-6.99941c1.13325,-2.03317 2.66643,-3.5997 4.59961,-4.69961c1.96649,-1.13325 4.18298,-1.69986 6.64946,-1.69986c2.36646,0 4.44964,0.56661 6.24949,1.69986c1.79985,1.09991 3.19973,2.66643 4.19965,4.69961c1.03326,1.99983 1.54989,4.38296 1.54989,7.14942v17.19856c0,0.6666 -0.21665,1.21657 -0.64993,1.64988c-0.39997,0.39997 -0.93327,0.59995 -1.59987,0.59995zM219.15172,203.49855c-0.69994,0 -1.26655,-0.19998 -1.69986,-0.59995c-0.43331,-0.43331 -0.64993,-0.98325 -0.64993,-1.64985v-28.09765c0,-0.6666 0.21665,-1.21657 0.64996,-1.64985c0.43331,-0.43331 0.99992,-0.64993 1.69986,-0.64993c0.6666,0 1.1999,0.21665 1.59987,0.64996c0.43331,0.43331 0.64996,0.98325 0.64996,1.64988v28.09765c0,0.6666 -0.21665,1.21657 -0.64993,1.64988c-0.39997,0.39997 -0.93327,0.59995 -1.59987,0.59995zM240.09998,203.49855c-0.6666,0 -1.21657,-0.19998 -1.64985,-0.59995c-0.43331,-0.43331 -0.64993,-0.98325 -0.64993,-1.64985v-17.19856c0,-2.83311 -0.74992,-5.06623 -2.2498,-6.69944c-1.46653,-1.66652 -3.3497,-2.49979 -5.64951,-2.49979c-2.46645,0 -4.49962,0.8166 -6.09949,2.44981c-1.59987,1.59987 -2.3998,3.68302 -2.3998,6.24949h-3.24971c0.06665,-2.53313 0.61662,-4.78293 1.64988,-6.74942c1.06657,-1.96649 2.51646,-3.49971 4.34965,-4.59961c1.83319,-1.13325 3.89967,-1.69986 6.19948,-1.69986c2.36646,0 4.44964,0.56661 6.24949,1.69986c1.83319,1.09991 3.24974,2.66643 4.24966,4.69961c0.99992,1.99983 1.49987,4.38296 1.49987,7.14942v17.19856c0,0.6666 -0.21665,1.21657 -0.64993,1.64988c-0.39997,0.39997 -0.93327,0.59995 -1.59987,0.59995z"/></g></g></svg>