<svg version="1.1" xmlns="http://www.w3.org/2000/svg" xmlns:xlink="http://www.w3.org/1999/xlink" width="31.20055" height="46.93314" viewBox="0,0,31.20055,46.93314"><g transform="translate(-224.39973,-170.78343)"><g data-paper-data="{&quot;isPaintingLayer&quot;:true}" fill="#ff0000" fill-rule="nonzero" stroke="#000000" stroke-width="0" stroke-linecap="square" stroke-linejoin="miter" stroke-miterlimit="10" stroke-dasharray="" stroke-dashoffset="0" style="mix-blend-mode: normal"><path d="M234.27745,217.71651c-0.33332,0 -0.69994,-0.08332 -1.09991,-0.24996c-1.33323,-0.59995 -1.69986,-1.54985 -1.09991,-2.84975l19.2484,-42.49644c0.59995,-1.26655 1.54989,-1.63321 2.84978,-1.09991c1.36654,0.56661 1.74987,1.51654 1.14992,2.84978l-19.34836,42.49644c-0.39997,0.89992 -0.96658,1.3499 -1.69986,1.3499zM240.8769,202.51779c-0.59995,0.26663 -1.16656,0.31665 -1.69986,0.15c-0.49996,-0.19998 -0.89992,-0.59995 -1.1999,-1.1999l-13.34887,-27.54768c-0.26663,-0.59995 -0.29997,-1.14989 -0.09999,-1.64985c0.19998,-0.5333 0.59995,-0.9499 1.1999,-1.24988c0.59995,-0.26663 1.14992,-0.29997 1.64988,-0.09999c0.5333,0.16664 0.93327,0.54997 1.1999,1.14992l13.0989,27.54771c0.29997,0.59995 0.3833,1.16656 0.25,1.69986c-0.09999,0.49996 -0.44995,0.89992 -1.0499,1.1999z"/></g></g></svg>