<svg version="1.1" xmlns="http://www.w3.org/2000/svg" xmlns:xlink="http://www.w3.org/1999/xlink" width="27.94391" height="47.25523" viewBox="0,0,27.94391,47.25523"><g transform="translate(-226.02804,-156.37238)"><g data-paper-data="{&quot;isPaintingLayer&quot;:true}" fill="#ff0000" fill-rule="nonzero" stroke="#000000" stroke-width="0" stroke-linecap="square" stroke-linejoin="miter" stroke-miterlimit="10" stroke-dasharray="" stroke-dashoffset="0" style="mix-blend-mode: normal"><path d="M253.97172,201.02689c0,0.81158 -0.05532,1.40182 -0.16598,1.77069c-0.11067,0.36891 -0.29514,0.57179 -0.55334,0.60869c-0.2582,0 -0.62714,0 -1.10668,0c-0.51648,-0.03687 -1.162,-0.03687 -1.93668,0c-0.73781,0.0369 -2.02889,0.0738 -3.87339,0.11067c-1.80756,0.0738 -4.31606,0.11067 -7.52544,0.11067c-3.20938,0 -7.47009,-0.05532 -12.78216,-0.16598v-1.162c0.14753,-3.32005 0.2582,-6.30809 0.332,-8.96413c0.0738,-2.65604 0.12912,-5.14606 0.16602,-7.47009c0.03687,-2.32403 0.05535,-4.55585 0.05535,-6.69541c0,-2.17646 -0.03687,-4.37138 -0.11067,-6.58474c-0.03687,-2.25023 -0.0738,-4.64807 -0.11067,-7.19344c-0.03687,-2.54537 -0.0738,-5.34894 -0.11067,-8.41079c0.44267,-0.18444 1.12513,-0.332 2.04738,-0.44267c0.92221,-0.11067 1.89981,-0.16598 2.93273,-0.16598c1.06982,0 2.1027,0.0738 3.09871,0.22134c1.03288,0.11067 1.86291,0.29514 2.49005,0.55334c-0.11067,2.87737 -0.16598,5.82855 -0.16598,8.85346c0.03687,2.98804 0.0738,6.01299 0.11067,9.0748c0.0738,3.02494 0.11067,6.04989 0.11067,9.0748c0.03687,3.02494 0.03687,5.93922 0,8.74279v0.05535c0.29514,-0.07377 0.8669,-0.09222 1.71538,-0.05532c0.88535,0 1.89981,0.0369 3.04339,0.11067c1.14355,0.0369 2.3609,0.09222 3.65205,0.16602c1.29115,0.0369 2.52692,0.09222 3.7074,0.16602c1.18048,0.0369 2.21336,0.0738 3.09871,0.11067c0.88535,0 1.51249,-0.01845 1.88136,-0.05532c0,0.47957 -0.01845,0.95915 -0.05532,1.43869c-0.03687,0.44267 -0.0738,0.9038 -0.11067,1.38337c-0.03687,0.44267 -0.01845,0.83003 0.05535,1.16203c0.0738,1.58626 0.11067,2.80361 0.11067,3.65205z"/></g></g></svg>