<svg version="1.1" xmlns="http://www.w3.org/2000/svg" xmlns:xlink="http://www.w3.org/1999/xlink" width="28.10983" height="35.42843" viewBox="0,0,28.10983,35.42843"><g transform="translate(-225.94509,-168.48578)"><g data-paper-data="{&quot;isPaintingLayer&quot;:true}" fill="#ff0000" fill-rule="nonzero" stroke="#000000" stroke-width="0" stroke-linecap="square" stroke-linejoin="miter" stroke-miterlimit="10" stroke-dasharray="" stroke-dashoffset="0" style="mix-blend-mode: normal"><path d="M249.35132,180.38235c-1.69689,0.0369 -3.28315,-0.09222 -4.75873,-0.38732c0.11067,-0.51644 0.0369,-1.03292 -0.22134,-1.54936c-0.22134,-0.55334 -0.57179,-1.03292 -1.05133,-1.43869c-0.44267,-0.40577 -0.95911,-0.70091 -1.54936,-0.88535c-0.59021,-0.18444 -1.18045,-0.25824 -1.77069,-0.22134c-0.99601,0.18444 -1.75224,0.57179 -2.26868,1.16203c-0.47954,0.59024 -0.71933,1.2358 -0.71933,1.93671c0,0.70091 0.25824,1.40179 0.77468,2.1027c0.51648,0.70091 1.29115,1.2358 2.32403,1.60471c2.4716,0.332 4.77718,0.81158 6.91678,1.43869c2.1765,0.59024 3.76272,1.5309 4.75873,2.82206c0.95915,1.58626 1.54936,3.20938 1.77069,4.8694c0.22134,1.66002 -0.0738,3.7074 -0.88535,6.1421c-1.03288,2.1396 -2.63759,3.6705 -4.81405,4.59275c-2.13956,0.92225 -4.48205,1.36492 -7.02742,1.32802c-2.25023,0.07377 -4.27916,-0.12912 -6.08675,-0.60866c-1.80756,-0.47957 -3.35691,-1.1989 -4.64807,-2.15801c-1.29112,-0.95911 -2.30558,-2.1396 -3.04336,-3.54138c-0.73778,-1.43869 -1.10668,-3.02494 -1.10668,-4.75873v-0.22134v-0.11067c1.47559,-0.18444 3.13561,-0.23979 4.98007,-0.16598c1.84449,0.0369 3.44917,0.05535 4.81409,0.05535c0.0369,1.03292 0.49802,1.86291 1.38337,2.49005c0.92225,0.62711 1.88136,0.99601 2.87737,1.10668c1.03292,0.11067 1.95516,-0.07377 2.76671,-0.55334c0.84848,-0.47957 1.25425,-1.34647 1.21735,-2.60069c0.14757,-1.06978 -0.09222,-1.86291 -0.71933,-2.37935c-0.62711,-0.55334 -1.45714,-0.95911 -2.49002,-1.21735c-0.99601,-0.2951 -2.13956,-0.55334 -3.43072,-0.77468c-1.25422,-0.22134 -2.49002,-0.60866 -3.70737,-1.162c-2.47157,-0.81158 -4.27916,-2.1027 -5.42274,-3.87339c-1.10668,-1.80759 -1.64157,-3.6705 -1.60467,-5.58873c0.0738,-1.91826 0.70091,-3.68895 1.88136,-5.31208c1.18048,-1.62312 2.84051,-2.7298 4.98007,-3.32005c0.84848,-0.22134 1.88136,-0.38732 3.09871,-0.49799c1.21735,-0.14757 2.5085,-0.22134 3.87339,-0.22134c1.36492,0 2.72984,0.07377 4.09472,0.22134c1.36492,0.14757 2.61917,0.36891 3.76272,0.66401c2.06583,0.88535 3.54138,2.28713 4.42673,4.20539c0.88535,1.88136 1.32802,4.02096 1.32802,6.41876c-1.43869,0.22134 -3.00649,0.35046 -4.70342,0.38736z"/></g></g></svg>