<svg version="1.1" xmlns="http://www.w3.org/2000/svg" xmlns:xlink="http://www.w3.org/1999/xlink" width="39.72805" height="46.5478" viewBox="0,0,39.72805,46.5478"><g transform="translate(-220.13597,-156.7261)"><g data-paper-data="{&quot;isPaintingLayer&quot;:true}" fill="#ff0000" fill-rule="nonzero" stroke="#000000" stroke-width="0" stroke-linecap="square" stroke-linejoin="miter" stroke-miterlimit="10" stroke-dasharray="" stroke-dashoffset="0" style="mix-blend-mode: normal"><path d="M247.30684,203.27379h-24.84349c-0.79385,0 -1.38921,-0.1804 -1.78612,-0.54125c-0.36084,-0.36081 -0.54125,-0.95621 -0.54125,-1.78612v-41.89296c0,-0.79381 0.1804,-1.37116 0.54125,-1.732c0.39691,-0.39691 0.99231,-0.59536 1.78615,-0.59536h20.62174c4.22177,0 7.34299,0.81189 9.36369,2.43565c2.05676,1.62376 3.08516,4.11352 3.08516,7.46929v3.08516c0,1.8042 -0.32475,3.28361 -0.97425,4.43827c-0.61344,1.15469 -1.56962,2.00266 -2.86862,2.54391c2.74232,0.2526 4.78107,1.20881 6.11617,2.86865c1.37116,1.62376 2.05676,4.00527 2.05676,7.14454v5.95378c0,3.60836 -1.02836,6.27853 -3.08512,8.01054c-2.05676,1.732 -5.21408,2.59801 -9.47191,2.59801zM234.69567,167.71347v6.98218h5.52078c0.79381,0 1.38921,-0.2165 1.78615,-0.64951c0.433,-0.433 0.64951,-1.08251 0.64951,-1.94851v-1.78612c0,-0.86601 -0.2165,-1.51551 -0.64951,-1.94851c-0.39694,-0.433 -0.99231,-0.64951 -1.78612,-0.64951zM234.69567,184.65469v7.63168h8.38943c0.82991,0 1.44332,-0.2165 1.84026,-0.64951c0.433,-0.433 0.64951,-1.08251 0.64951,-1.94851v-2.48977c0,-0.86601 -0.2165,-1.49746 -0.64951,-1.89437c-0.39694,-0.433 -1.01035,-0.64951 -1.84026,-0.64951z"/></g></g></svg>