<svg version="1.1" xmlns="http://www.w3.org/2000/svg" xmlns:xlink="http://www.w3.org/1999/xlink" width="37.29241" height="46.54783" viewBox="0,0,37.29241,46.54783"><g transform="translate(-221.35379,-156.72608)"><g data-paper-data="{&quot;isPaintingLayer&quot;:true}" fill="#ff0000" fill-rule="nonzero" stroke="#000000" stroke-width="0" stroke-linecap="square" stroke-linejoin="miter" stroke-miterlimit="10" stroke-dasharray="" stroke-dashoffset="0" style="mix-blend-mode: normal"><path d="M244.03223,192.50283h-10.87917c-4.18567,0 -7.19864,-0.86601 -9.0389,-2.59801c-1.84026,-1.7681 -2.76037,-4.49238 -2.76037,-8.1729v-22.67847c0,-0.79385 0.1804,-1.37116 0.54125,-1.732c0.39691,-0.39691 0.99231,-0.59536 1.78615,-0.59536h10.01319c0.82991,0 1.4253,0.19846 1.78615,0.5954c0.36084,0.36084 0.54125,0.93816 0.54125,1.732v17.69898c0,0.72165 0.1804,1.28096 0.54125,1.6779c0.39691,0.36084 0.88405,0.54125 1.4614,0.54125h6.00792v-19.9181c0,-0.79385 0.1804,-1.37116 0.54125,-1.732c0.39691,-0.39691 0.99231,-0.59536 1.78615,-0.59536h9.95905c0.82991,0 1.4253,0.19846 1.78615,0.5954c0.36084,0.36084 0.54125,0.93816 0.54125,1.732v41.89296c0,0.82991 -0.1804,1.4253 -0.54125,1.78615c-0.36084,0.36084 -0.95621,0.54125 -1.78612,0.54125h-9.95905c-0.79385,0 -1.38921,-0.1804 -1.78612,-0.54125c-0.36084,-0.36084 -0.54125,-0.95621 -0.54125,-1.78612z"/></g></g></svg>