<svg version="1.1" xmlns="http://www.w3.org/2000/svg" xmlns:xlink="http://www.w3.org/1999/xlink" width="28.01757" height="46.65048" viewBox="0,0,28.01757,46.65048"><g transform="translate(-225.99122,-156.67475)"><g data-paper-data="{&quot;isPaintingLayer&quot;:true}" fill="#ff0000" fill-rule="nonzero" stroke="#000000" stroke-width="0" stroke-linecap="square" stroke-linejoin="miter" stroke-miterlimit="10" stroke-dasharray="" stroke-dashoffset="0" style="mix-blend-mode: normal"><path d="M253.99001,162.37783c0,1.88136 -0.11067,3.61515 -0.332,5.20141c-0.84848,-0.18447 -1.89981,-0.23979 -3.15403,-0.16598c-1.21735,0.03687 -2.85892,0.09222 -4.92472,0.16602h-0.11067h-0.05532c0,0.03687 -0.01845,0.07377 -0.05532,0.11067c0,0.03687 0,0.07377 0,0.11067c-0.0738,0.22134 -0.12912,0.57179 -0.16598,1.05137c0,0.44267 0,1.16203 0,2.15805c0,0.99601 0,2.30558 0,3.92874c0.03687,1.58622 0.0738,3.65205 0.11067,6.19742c0.0738,2.50847 0.12912,5.53341 0.16602,9.0748c0.03687,3.54138 0.11067,7.70988 0.22134,12.50551v0.11067v0.05535c-0.81154,0.11067 -1.69689,0.18444 -2.65604,0.22134c-0.92221,0.03687 -1.86291,0.05535 -2.82202,0.05535c-0.95915,0 -1.89981,0 -2.82202,0c-0.92221,0 -1.77069,0.05535 -2.54537,0.16602c-0.03687,-0.18447 -0.03687,-0.97756 0,-2.37935c0.03687,-1.40182 0.05535,-3.50452 0.05535,-6.30809c0.03687,-2.80361 0.01845,-6.38189 -0.05532,-10.73482c-0.03687,-4.35296 -0.20289,-9.60969 -0.49799,-15.77021l-0.05532,-0.05532c-0.51648,-0.29514 -1.18048,-0.46112 -1.99203,-0.49799c-0.77468,-0.0738 -1.56781,-0.11067 -2.37935,-0.11067c-0.77468,-0.0369 -1.494,-0.05532 -2.15801,-0.05532c-0.66401,0 -1.12513,-0.05532 -1.38334,-0.16598c-0.0738,-0.18447 -0.14753,-0.62714 -0.22134,-1.32802c-0.0738,-0.70091 -0.12912,-1.5309 -0.16598,-2.49002c0,-0.99601 0,-2.06583 0,-3.20938c0,-1.18048 0.03687,-2.28717 0.11067,-3.32005c0,-0.0369 -0.01845,-0.05532 -0.05532,-0.05532c0,0 0,-0.0369 0,-0.11067c4.50053,-0.0369 9.13015,-0.05532 13.88888,-0.05532c4.7956,-0.0369 9.46215,0.18444 13.99955,0.66401c0.0738,1.47555 0.09222,3.15406 0.05535,5.03542z"/></g></g></svg>