<svg version="1.1" xmlns="http://www.w3.org/2000/svg" xmlns:xlink="http://www.w3.org/1999/xlink" width="26.01058" height="33.2474" viewBox="0,0,26.01058,33.2474"><g transform="translate(-226.99472,-170.3763)"><g data-paper-data="{&quot;isPaintingLayer&quot;:true}" fill="#ff0000" fill-rule="nonzero" stroke="#000000" stroke-width="0" stroke-linecap="square" stroke-linejoin="miter" stroke-miterlimit="10" stroke-dasharray="" stroke-dashoffset="0" style="mix-blend-mode: normal"><path d="M240.2061,203.62336c-2.36646,0 -4.69961,-0.39997 -6.99941,-1.1999c-2.29981,-0.79993 -4.16631,-1.99983 -5.59953,-3.5997c-0.46662,-0.46662 -0.6666,-0.99992 -0.59995,-1.59987c0.09999,-0.59995 0.41664,-1.11658 0.94994,-1.54985c0.5333,-0.39997 1.09991,-0.54994 1.69986,-0.44995c0.59995,0.06665 1.09991,0.31665 1.49987,0.74995c0.96658,1.13325 2.23316,1.99983 3.79968,2.59978c1.56652,0.56661 3.31639,0.84994 5.24958,0.84994c2.9331,0 5.04959,-0.49996 6.34948,-1.49987c1.33323,-1.03326 2.0165,-2.2498 2.04984,-3.64968c0,-1.43322 -0.68327,-2.61645 -2.04981,-3.54969c-1.33323,-0.96658 -3.54969,-1.69986 -6.64943,-2.19982c-4.03301,-0.63329 -6.98274,-1.74984 -8.84924,-3.3497c-1.8665,-1.59987 -2.79977,-3.48304 -2.79977,-5.64951c0,-2.03317 0.5333,-3.71636 1.59987,-5.04956c1.06657,-1.36654 2.49979,-2.38313 4.29964,-3.04973c1.79985,-0.69994 3.76634,-1.0499 5.89951,-1.0499c2.66643,0 4.96624,0.46662 6.89942,1.39988c1.93318,0.89992 3.49971,2.11649 4.69961,3.64971c0.39997,0.5333 0.54997,1.08324 0.44998,1.64988c-0.06665,0.5333 -0.3833,0.98325 -0.9499,1.3499c-0.46662,0.26663 -1.01659,0.34999 -1.64985,0.25c-0.59995,-0.09999 -1.11658,-0.3833 -1.54985,-0.84991c-0.99992,-1.13325 -2.16647,-1.96649 -3.49971,-2.49979c-1.29989,-0.56661 -2.79977,-0.84991 -4.49962,-0.84991c-2.19982,0 -3.96632,0.44998 -5.29956,1.3499c-1.29989,0.89992 -1.94982,2.03317 -1.94982,3.39972c0,0.89992 0.25,1.69986 0.74995,2.3998c0.49996,0.6666 1.3499,1.26655 2.5498,1.79985c1.23324,0.49996 2.94977,0.9166 5.14958,1.24991c2.96641,0.49996 5.31623,1.21657 7.04943,2.14984c1.7332,0.93327 2.96641,2.03317 3.69969,3.29972c0.73328,1.23324 1.09991,2.58311 1.09991,4.04968c0,1.8665 -0.54994,3.51638 -1.64985,4.9496c-1.06657,1.39988 -2.56644,2.49979 -4.49962,3.29972c-1.93318,0.79993 -4.14964,1.1999 -6.64943,1.1999z"/></g></g></svg>