<svg version="1.1" xmlns="http://www.w3.org/2000/svg" xmlns:xlink="http://www.w3.org/1999/xlink" width="33.99077" height="46.54785" viewBox="0,0,33.99077,46.54785"><g transform="translate(-223.00461,-156.72607)"><g data-paper-data="{&quot;isPaintingLayer&quot;:true}" fill="#ff0000" fill-rule="nonzero" stroke="#000000" stroke-width="0" stroke-linecap="square" stroke-linejoin="miter" stroke-miterlimit="10" stroke-dasharray="" stroke-dashoffset="0" style="mix-blend-mode: normal"><path d="M254.66789,203.27375h-15.75044c-5.37646,0 -9.38174,-1.06446 -12.01581,-3.19338c-2.59801,-2.16501 -3.89702,-5.50273 -3.89702,-10.01316v-20.08046c0,-4.47437 1.29901,-7.79403 3.89702,-9.95905c2.63407,-2.20111 6.63934,-3.30162 12.01581,-3.30162h15.75047c0.82991,0 1.4253,0.19846 1.78615,0.5954c0.36081,0.36081 0.54125,0.93816 0.54125,1.732v7.84819c0,0.79381 -0.18044,1.38921 -0.54125,1.78615c-0.36084,0.36081 -0.95621,0.54125 -1.78612,0.54125h-12.99007c-1.3351,0 -2.32737,0.27064 -2.97687,0.81189c-0.64951,0.54125 -0.97425,1.33506 -0.97425,2.38151v15.42572c0,1.04641 0.32475,1.82221 0.97425,2.3274c0.64951,0.50516 1.6418,0.75775 2.97691,0.75775h12.99007c0.82991,0 1.4253,0.1804 1.78615,0.54125c0.36081,0.36081 0.54125,0.95621 0.54125,1.78615v7.68579c0,0.82991 -0.18044,1.4253 -0.54125,1.78615c-0.36084,0.36081 -0.95621,0.54125 -1.78612,0.54125z"/></g></g></svg>