<svg version="1.1" xmlns="http://www.w3.org/2000/svg" xmlns:xlink="http://www.w3.org/1999/xlink" width="35.45224" height="46.5478" viewBox="0,0,35.45224,46.5478"><g transform="translate(-222.27388,-156.7261)"><g data-paper-data="{&quot;isPaintingLayer&quot;:true}" fill="#ff0000" fill-rule="nonzero" stroke="#000000" stroke-width="0" stroke-linecap="square" stroke-linejoin="miter" stroke-miterlimit="10" stroke-dasharray="" stroke-dashoffset="0" style="mix-blend-mode: normal"><path d="M245.11471,203.27367h-20.51346c-0.82991,0 -1.4253,-0.1804 -1.78612,-0.54125c-0.36084,-0.36084 -0.54125,-0.95621 -0.54125,-1.78612v-7.57753c0,-0.79385 0.1804,-1.37116 0.54125,-1.732c0.36084,-0.39691 0.95621,-0.59536 1.78615,-0.59536h16.67058c0.50516,0 0.92015,-0.10825 1.2449,-0.32475c0.32475,-0.2526 0.48714,-0.63145 0.48714,-1.13661v-2.54387c0,-0.50516 -0.16236,-0.86601 -0.48711,-1.08251c-0.32475,-0.2526 -0.73971,-0.37886 -1.24486,-0.37886h-16.02108c-0.82991,0 -1.4253,-0.1804 -1.78612,-0.54125c-0.36084,-0.36084 -0.54125,-0.95621 -0.54125,-1.78612v-24.19398c0,-0.79385 0.1804,-1.37116 0.54125,-1.732c0.36084,-0.39691 0.95621,-0.59536 1.78615,-0.59536h27.82039c0.82991,0 1.4253,0.19846 1.78615,0.5954c0.36084,0.36084 0.54125,0.93816 0.54125,1.732v7.68579c0,0.82991 -0.1804,1.4253 -0.54125,1.78615c-0.36084,0.36084 -0.95621,0.54125 -1.78612,0.54125h-15.47982v4.22177h8.82244c3.50012,0 6.26049,0.86601 8.28118,2.59801c2.02066,1.732 3.03102,4.29393 3.03102,7.68579v8.9848c0,3.28361 -1.13661,5.89967 -3.40988,7.84819c-2.23717,1.91242 -5.30428,2.86865 -9.20129,2.86865z"/></g></g></svg>