<svg version="1.1" xmlns="http://www.w3.org/2000/svg" xmlns:xlink="http://www.w3.org/1999/xlink" width="29.54834" height="46.91422" viewBox="0,0,29.54834,46.91422"><g transform="translate(-225.22583,-156.54289)"><g data-paper-data="{&quot;isPaintingLayer&quot;:true}" fill="#ff0000" fill-rule="nonzero" stroke="#000000" stroke-width="0" stroke-linecap="square" stroke-linejoin="miter" stroke-miterlimit="10" stroke-dasharray="" stroke-dashoffset="0" style="mix-blend-mode: normal"><path d="M225.613,165.91275c0.18444,-1.43869 0.27669,-2.95114 0.27669,-4.5374c0,-1.62312 0.01845,-3.09871 0.05535,-4.42673v-0.05532c2.28713,-0.0369 4.66652,-0.09222 7.13812,-0.16598c2.47157,-0.11067 4.94317,-0.16598 7.41477,-0.16598c2.5085,-0.0369 4.96162,-0.01845 7.35946,0.05535c2.39784,0.0369 4.68497,0.16602 6.86143,0.38736v0.05535c-0.11067,1.73379 -0.12912,3.28315 -0.05532,4.64807c0.0738,1.32802 0.11067,2.84047 0.11067,4.5374c-1.32802,3.06181 -2.80357,6.12365 -4.42673,9.18546c-1.58622,3.06181 -3.24624,6.12365 -4.98007,9.18546c-1.69689,3.06181 -3.41226,6.1421 -5.14606,9.24082c-1.69692,3.06181 -3.3385,6.16052 -4.92472,9.29613c-0.66401,0 -1.43869,0.0369 -2.32403,0.11067c-0.88535,0.0369 -1.78914,0.09222 -2.71135,0.16602c-0.92225,0.0369 -1.82601,0.0369 -2.71135,0c-0.88535,-0.0369 -1.66002,-0.12912 -2.32403,-0.27665c2.98804,-6.45566 5.95763,-12.6715 8.90881,-18.64758c2.98804,-5.97608 5.8101,-11.97062 8.46614,-17.98357c-1.25425,-0.07377 -2.63759,-0.14757 -4.15004,-0.22134c-1.51249,-0.11067 -3.02494,-0.20289 -4.5374,-0.27665c-1.47559,-0.07377 -2.93269,-0.11067 -4.37138,-0.11067c-1.40182,-0.0369 -2.65604,-0.0369 -3.76272,0z"/></g></g></svg>