<svg version="1.1" xmlns="http://www.w3.org/2000/svg" xmlns:xlink="http://www.w3.org/1999/xlink" width="28.04507" height="46.15646" viewBox="0,0,28.04507,46.15646"><g transform="translate(-225.97747,-156.92177)"><g data-paper-data="{&quot;isPaintingLayer&quot;:true}" fill="#ff0000" fill-rule="nonzero" stroke="#000000" stroke-width="0" stroke-linecap="square" stroke-linejoin="miter" stroke-miterlimit="10" stroke-dasharray="" stroke-dashoffset="0" style="mix-blend-mode: normal"><path d="M253.94875,194.16155c0.0738,1.40179 0.09222,2.87737 0.05535,4.42673c-0.03687,1.51245 -0.23979,2.91424 -0.60866,4.20539c-4.5005,-0.0369 -9.0748,0.03687 -13.72286,0.22134c-4.61116,0.14753 -9.05634,0.03687 -13.3355,-0.332c0,-3.83652 -0.05532,-7.63611 -0.16598,-11.39883c-0.0738,-3.76272 -0.12912,-7.50699 -0.16598,-11.23281c-0.03687,-3.76272 -0.03687,-7.50699 0,-11.23281c0.03687,-3.76272 0.16602,-7.54389 0.38736,-11.34348c1.69689,-0.0738 3.54138,-0.14757 5.53341,-0.22134c2.02893,-0.0738 4.05786,-0.12912 6.08675,-0.16598c2.02893,-0.0369 3.98406,-0.0738 5.86542,-0.11067c1.91826,-0.0369 3.59674,-0.05532 5.03542,-0.05532c1.43869,0 2.60072,0.01845 3.48607,0.05535c0.88535,0.03687 1.32802,0.07377 1.32802,0.11067c0.22134,1.54936 0.27669,3.11716 0.16602,4.70342c-0.11067,1.58622 -0.16598,3.15406 -0.16598,4.70342v0.05535c-1.40179,0.2951 -2.82202,0.47954 -4.26071,0.55334c-1.43869,0.07377 -2.87737,0.11067 -4.31606,0.11067c-1.43869,-0.0369 -2.89582,-0.05532 -4.37138,-0.05532c-1.43869,0 -2.89582,0.05535 -4.37138,0.16602h-0.16598l-0.05532,0.05535c0.0369,1.29112 -0.03687,2.61914 -0.22134,3.98406c-0.14753,1.32802 -0.05532,2.58224 0.27669,3.76272l0.05535,0.05535c1.32802,0.11067 2.67449,0.16602 4.03941,0.16602c1.36492,0 2.72984,0.01845 4.09472,0.05535v0.05535c0.22134,1.51245 0.27669,3.02491 0.16602,4.5374c-0.07377,1.47555 -0.09222,3.02491 -0.05532,4.64807c-0.66401,0.18444 -1.42024,0.2951 -2.26868,0.332c-0.81154,0 -1.60467,0 -2.37935,0c-0.77468,0 -1.47555,0.01845 -2.1027,0.05535c-0.59021,0.03687 -0.99601,0.14753 -1.21735,0.332c-0.22134,1.29112 -0.31355,2.7298 -0.27665,4.31606c0.0738,1.58622 0.16602,2.89582 0.27669,3.92874l0.05535,0.11067c2.91428,0 5.7732,0.07377 8.57681,0.22134c2.84051,0.14753 5.75475,0.18444 8.74279,0.11067z"/></g></g></svg>