<svg version="1.1" xmlns="http://www.w3.org/2000/svg" xmlns:xlink="http://www.w3.org/1999/xlink" width="28.07637" height="46.33309" viewBox="0,0,28.07637,46.33309"><g transform="translate(-225.96182,-156.83346)"><g data-paper-data="{&quot;isPaintingLayer&quot;:true}" fill="#ff0000" fill-rule="nonzero" stroke="#000000" stroke-width="0" stroke-linecap="square" stroke-linejoin="miter" stroke-miterlimit="10" stroke-dasharray="" stroke-dashoffset="0" style="mix-blend-mode: normal"><path d="M254.03818,202.77908c-1.40179,0.332 -2.93269,0.44267 -4.59271,0.332c-1.66002,-0.0738 -3.19093,-0.12912 -4.59271,-0.16598c-0.92221,-1.06982 -1.78914,-2.34248 -2.60069,-3.81804c-0.77468,-1.47559 -1.5309,-3.00649 -2.26868,-4.59271c-0.73778,-1.58626 -1.45714,-3.15403 -2.15801,-4.70338c-0.70088,-1.54936 -1.40179,-2.93269 -2.1027,-4.15004c-0.03687,1.29112 -0.05532,2.67449 -0.05532,4.15008c0.0369,1.47555 0.0738,2.96959 0.11067,4.48208c0.0369,1.47555 0.0738,2.95114 0.11067,4.42673c0.0369,1.43869 0.05535,2.76671 0.05535,3.98406c-0.62711,0.18444 -1.36488,0.2951 -2.21336,0.332c-0.81154,0.07377 -1.69689,0.11067 -2.65604,0.11067c-0.92221,0 -1.80756,-0.0369 -2.65604,-0.11067c-0.84848,-0.0738 -1.56781,-0.18447 -2.15801,-0.332c-0.332,-7.56234 -0.38732,-15.16155 -0.16598,-22.79766c0.2582,-7.67301 0.36887,-15.36443 0.332,-23.07431c1.43869,-0.0369 2.91428,-0.01845 4.42673,0.05535c1.54936,0.07377 3.02494,0.11067 4.42673,0.11067c0.0738,2.50847 0.09222,5.14609 0.05535,7.9128c-0.03687,2.76671 -0.01845,5.40429 0.05535,7.9128c0,0.07377 0.0369,0.05535 0.11067,-0.05532c0.0738,-0.11067 0.14757,-0.22134 0.22134,-0.332c0.92225,-1.18048 1.75224,-2.39784 2.49005,-3.65205c0.77468,-1.29115 1.49404,-2.60069 2.15805,-3.9287c0.70091,-1.32802 1.40182,-2.65604 2.1027,-3.98406c0.73781,-1.32802 1.56781,-2.63759 2.49005,-3.9287c1.40182,0.07377 2.89582,0.07377 4.48208,0c1.58626,-0.11067 3.09871,-0.05532 4.5374,0.16602c-0.55334,1.84446 -1.30957,3.7074 -2.26868,5.58876c-0.92221,1.84446 -1.93668,3.68892 -3.04336,5.53341c-1.06978,1.84446 -2.13956,3.68892 -3.20938,5.53341c-1.03288,1.84446 -1.93668,3.68892 -2.71135,5.53341z"/></g></g></svg>