<svg version="1.1" xmlns="http://www.w3.org/2000/svg" xmlns:xlink="http://www.w3.org/1999/xlink" width="29.0836" height="46.237" viewBox="0,0,29.0836,46.237"><g transform="translate(-225.4582,-156.8815)"><g data-paper-data="{&quot;isPaintingLayer&quot;:true}" fill="#ff0000" fill-rule="nonzero" stroke="#000000" stroke-width="0" stroke-linecap="square" stroke-linejoin="miter" stroke-miterlimit="10" stroke-dasharray="" stroke-dashoffset="0" style="mix-blend-mode: normal"><path d="M254.34246,167.70458c-2.54537,4.31606 -5.31208,8.55836 -8.30012,12.72685c-2.98804,4.13163 -5.86542,8.33702 -8.63212,12.61618l-0.11067,0.05535c1.77069,-0.22134 3.28318,-0.36887 4.5374,-0.44267c1.25422,-0.11067 2.47157,-0.16598 3.65205,-0.16598c1.18048,-0.03687 2.41625,-0.05532 3.7074,-0.05532c1.29115,-0.03687 2.87737,-0.11067 4.75873,-0.22134v0.22134c0.22134,1.66002 0.29514,3.44917 0.22134,5.36743c-0.0738,1.88136 -0.18447,3.61519 -0.332,5.20141v0.11067c-4.16853,-0.22134 -8.5399,-0.35046 -13.11417,-0.38732c-4.57426,-0.03687 -9.20391,0.0738 -13.88885,0.332c-0.29514,-0.77468 -0.46112,-1.58622 -0.49799,-2.4347c-0.03687,-0.88535 -0.05532,-1.77069 -0.05532,-2.65604c0,-0.92221 0,-1.82601 0,-2.71135c0.03687,-0.92221 0.01845,-1.84446 -0.05532,-2.76671c0.95915,-2.13956 2.1027,-4.27916 3.43072,-6.41876c1.32802,-2.17646 2.72984,-4.31606 4.20539,-6.41876c1.47555,-2.13956 2.95118,-4.22384 4.42673,-6.25274c1.47555,-2.02889 2.84051,-3.94716 4.09472,-5.75475c-0.99601,-0.11067 -2.23182,-0.20289 -3.70737,-0.27665c-1.47555,-0.11067 -2.98804,-0.20289 -4.5374,-0.27665c-1.54936,-0.07377 -3.02491,-0.12912 -4.42673,-0.16598c-1.36488,-0.07377 -2.4347,-0.11067 -3.20938,-0.11067c-0.29514,-0.44267 -0.46112,-1.03288 -0.49799,-1.77069c-0.03687,-0.77468 -0.05532,-1.56781 -0.05532,-2.37935c0,-0.84844 -0.01845,-1.69689 -0.05532,-2.54537c0,-0.88535 -0.11067,-1.67847 -0.332,-2.37935v-0.05532c0,-0.07377 -0.03687,-0.16598 -0.11067,-0.27665c4.5374,-0.44267 9.22233,-0.60866 14.05487,-0.49799c4.83254,0.11067 9.77567,0.18447 14.82954,0.22134c0.22134,1.73383 0.2582,3.50452 0.11067,5.31208c-0.11067,1.80759 -0.14753,3.54138 -0.11067,5.20141z"/></g></g></svg>