<svg version="1.1" xmlns="http://www.w3.org/2000/svg" xmlns:xlink="http://www.w3.org/1999/xlink" width="28.60757" height="46.8923" viewBox="0,0,28.60757,46.8923"><g transform="translate(-225.69622,-156.55385)"><g data-paper-data="{&quot;isPaintingLayer&quot;:true}" fill="#ff0000" fill-rule="nonzero" stroke="#000000" stroke-width="0" stroke-linecap="square" stroke-linejoin="miter" stroke-miterlimit="10" stroke-dasharray="" stroke-dashoffset="0" style="mix-blend-mode: normal"><path d="M254.30379,203.08953v0.05535c-1.32802,0.2582 -2.78516,0.35046 -4.37138,0.27669c-1.58622,-0.0369 -3.08026,-0.22134 -4.48205,-0.55334h-0.05532c-0.29514,-0.70091 -0.57179,-1.5309 -0.82999,-2.49002c-0.22134,-0.95915 -0.46112,-1.93668 -0.71933,-2.93269c-0.22134,-1.03292 -0.46112,-2.01048 -0.71933,-2.93269c-0.2582,-0.92225 -0.55334,-1.71534 -0.88535,-2.37935c-0.55334,-0.11067 -0.99601,-0.16598 -1.32802,-0.16598c-0.29514,0 -0.57179,0 -0.82999,0c-0.22134,0 -0.47954,0.01845 -0.77468,0.05535c-0.2582,0 -0.64556,0 -1.162,0c-0.29514,0.73778 -0.55334,1.58622 -0.77468,2.54537c-0.18447,0.92221 -0.36887,1.89981 -0.55334,2.93273c-0.18447,1.03288 -0.38732,2.04738 -0.60866,3.04339c-0.22134,0.95911 -0.53489,1.80756 -0.94066,2.54537c-0.03687,0 -0.0738,0.01845 -0.11067,0.05535c0,0 -0.03687,0 -0.11067,0c-0.332,0.07377 -1.21735,0.07377 -2.65604,0c-1.40182,-0.0738 -3.5967,-0.09222 -6.58474,-0.05532c-0.03687,0 -0.0738,-0.01845 -0.11067,-0.05532c0.0738,-0.332 0.22134,-1.1989 0.44267,-2.60069c0.22134,-1.40182 0.53489,-3.22783 0.9407,-5.47806c0.40581,-2.25027 0.8669,-4.83254 1.38337,-7.74678c0.55334,-2.95118 1.1989,-6.0683 1.93671,-9.35145c0.77468,-3.32005 1.60471,-6.75076 2.49005,-10.29215c0.88535,-3.57828 1.84449,-7.13808 2.87737,-10.67947c0.332,-0.0369 0.66401,-0.05532 0.99601,-0.05532c0.36887,0 0.83003,0 1.38337,0c0.59021,0 1.32802,0 2.21336,0c0.92221,-0.0369 2.1027,-0.12912 3.54138,-0.27665c0.14753,0.59021 0.35046,1.47555 0.60869,2.65604c0.29514,1.14355 0.60869,2.45315 0.9407,3.92874c0.332,1.47555 0.68246,3.06181 1.05137,4.75873c0.40581,1.66002 0.77468,3.26473 1.10668,4.81409c0.36887,1.51245 0.70088,2.91424 0.99601,4.20539c0.29514,1.29112 0.53489,2.30558 0.71936,3.04339zM241.46629,175.42247c-0.332,-2.1396 -0.62714,-3.57828 -0.88535,-4.31606c-0.2582,-0.73781 -0.51648,-0.9038 -0.77468,-0.49799c-0.22134,0.40577 -0.42422,1.25422 -0.60866,2.54537c-0.18447,1.29112 -0.40581,2.91424 -0.66401,4.8694c-0.2582,1.91823 -0.53489,4.00251 -0.82999,6.25277c0.73781,0.03687 1.5309,0.05535 2.37938,0.05535c0.84848,-0.0369 1.67847,-0.05532 2.49005,-0.05532c-0.40581,-3.79962 -0.77468,-6.75076 -1.10668,-8.85346z"/></g></g></svg>