<svg version="1.1" xmlns="http://www.w3.org/2000/svg" xmlns:xlink="http://www.w3.org/1999/xlink" width="33.19731" height="46.9462" viewBox="0,0,33.19731,46.9462"><g transform="translate(-223.40134,-156.5269)"><g data-paper-data="{&quot;isPaintingLayer&quot;:true}" fill="#ff0000" fill-rule="nonzero" stroke="#000000" stroke-width="0" stroke-linecap="square" stroke-linejoin="miter" stroke-miterlimit="10" stroke-dasharray="" stroke-dashoffset="0" style="mix-blend-mode: normal"><path d="M239.94995,203.47292c-3.09974,0 -5.89951,-0.71661 -8.3993,-2.1498c-2.46645,-1.43322 -4.43297,-3.38304 -5.89951,-5.84949c-1.43322,-2.49979 -2.18315,-5.29956 -2.2498,-8.3993v-28.19764c0,-0.69994 0.21665,-1.26655 0.64996,-1.69986c0.43331,-0.43331 0.99992,-0.64993 1.69986,-0.64993c0.6666,0 1.1999,0.21665 1.59987,0.64996c0.43331,0.43331 0.64996,0.99992 0.64996,1.69986v17.54855c1.33323,-1.8665 3.08307,-3.36637 5.24958,-4.49962c2.16647,-1.13325 4.58294,-1.69986 7.24941,-1.69986c3.0664,0 5.81618,0.73328 8.24932,2.19982c2.43314,1.43322 4.34965,3.41639 5.74953,5.94952c1.39988,2.49979 2.09982,5.31623 2.09982,8.44931c0,3.16639 -0.73328,6.01617 -2.19982,8.5493c-1.43322,2.49979 -3.39972,4.48295 -5.89951,5.94952c-2.49979,1.43322 -5.34954,2.14984 -8.54927,2.14984zM239.94995,199.27328c2.29981,0 4.36629,-0.5333 6.19948,-1.59987c1.83319,-1.09991 3.28305,-2.58311 4.34965,-4.44961c1.06657,-1.89984 1.59987,-4.03301 1.59987,-6.39946c0,-2.36646 -0.5333,-4.48295 -1.59987,-6.34945c-1.06657,-1.89984 -2.51646,-3.38304 -4.34962,-4.44961c-1.83319,-1.09991 -3.89967,-1.64985 -6.19948,-1.64985c-2.26647,0 -4.31631,0.54997 -6.14947,1.64988c-1.83319,1.06657 -3.26638,2.5498 -4.29964,4.44964c-1.03326,1.8665 -1.54985,3.98299 -1.54985,6.34948c0,2.36646 0.51663,4.49962 1.54989,6.39946c1.03326,1.8665 2.46645,3.34974 4.29964,4.44964c1.83319,1.06657 3.883,1.59987 6.1495,1.59987z"/></g></g></svg>