<svg version="1.1" xmlns="http://www.w3.org/2000/svg" xmlns:xlink="http://www.w3.org/1999/xlink" width="492" height="109.35879" viewBox="0,0,492,109.35879"><defs><linearGradient x1="229.71242" y1="218.63232" x2="229.71242" y2="325.45976" gradientUnits="userSpaceOnUse" id="color-1"><stop offset="0" stop-color="#49a1ab"/><stop offset="1" stop-color="#0f4e6a"/></linearGradient></defs><g transform="translate(4.5,-217.20821)"><g data-paper-data="{&quot;isPaintingLayer&quot;:true}" fill-rule="nonzero" stroke="none" stroke-width="0" stroke-linecap="butt" stroke-linejoin="miter" stroke-miterlimit="10" stroke-dasharray="" stroke-dashoffset="0" style="mix-blend-mode: normal"><path d="M-4.5,314.64537v-97.43716h492v97.43716z" fill="none"/><path d="M145.11071,325.45976l-35.09358,-5.70644l8.82672,-22.00573l-8.57308,-14.21211c0,0 6.74769,-9.01133 6.84502,-13.20737c0.08861,-3.82018 -6.28474,-10.94726 -6.28474,-10.94726c0,0 10.37411,-10.34383 11.5799,-14.84235c0.77983,-2.90935 -5.04833,-9.52545 -5.04833,-9.52545c0,0 8.02704,-2.15399 13.21688,-6.47295c3.62659,-3.01802 4.97554,-8.68902 5.01702,-8.651c8.31079,7.62205 21.95527,-6.66242 29.75672,1.17706c7.20879,7.24393 16.97564,9.33512 24.51807,18.33473c8.56067,10.21456 10.25242,18.08192 19.29009,25.82545c10.56581,9.05284 29.49156,19.42788 31.09093,19.88024c4.35588,1.23196 20.38296,9.40922 20.38296,9.40922z" fill="url(#color-1)"/><path d="M143.44779,326.56701l-35.09357,-5.70644c0,0 7.8194,-15.67364 8.82672,-22.00573c3.27787,-20.60478 142.91129,-4.40166 142.91129,-4.40166c0,0 11.06965,12.89838 16.86371,16.06074c20.60444,11.24579 76.01979,16.05306 76.01979,16.05306z" fill="#2e6a86"/></g></g></svg>