<svg version="1.1" xmlns="http://www.w3.org/2000/svg" xmlns:xlink="http://www.w3.org/1999/xlink" width="47.64608" height="47.79602" viewBox="0,0,47.64608,47.79602"><g transform="translate(-216.17696,-156.10199)"><g data-paper-data="{&quot;isPaintingLayer&quot;:true}" fill="#ff0000" fill-rule="nonzero" stroke="#000000" stroke-width="0" stroke-linecap="square" stroke-linejoin="miter" stroke-miterlimit="10" stroke-dasharray="" stroke-dashoffset="0" style="mix-blend-mode: normal"><path d="M239.9749,203.89794c-3.43306,0 -6.61612,-0.59995 -9.54918,-1.79985c-2.89976,-1.1999 -5.41622,-2.86642 -7.54935,-4.99958c-2.13317,-2.16647 -3.78301,-4.69961 -4.94957,-7.59936c-1.16656,-2.89976 -1.74984,-6.08282 -1.74984,-9.54918c0,-3.43306 0.58328,-6.59945 1.74987,-9.4992c1.16656,-2.89976 2.81644,-5.41622 4.9496,-7.54935c2.13317,-2.16647 4.64963,-3.83302 7.54938,-4.99958c2.9331,-1.1999 6.11616,-1.79985 9.54922,-1.79985c3.43306,0 6.59945,0.59995 9.4992,1.79985c2.89976,1.16656 5.41622,2.83311 7.54938,4.99958c2.16647,2.13317 3.83302,4.64963 4.99958,7.54938c1.1999,2.89976 1.79985,6.06615 1.79985,9.4992c0,3.46637 -0.59995,6.64946 -1.79985,9.54922c-1.16656,2.89976 -2.83311,5.43289 -4.99958,7.59936c-2.13317,2.13317 -4.64959,3.79968 -7.54935,4.99958c-2.89976,1.1999 -6.06615,1.79985 -9.4992,1.79985zM239.9749,199.49831c2.76642,0 5.31623,-0.48329 7.64938,-1.44986c2.36646,-0.99992 4.4163,-2.38313 6.1495,-4.14964c1.7332,-1.76651 3.0664,-3.83302 3.99966,-6.19948c0.96658,-2.36646 1.44989,-4.94957 1.44989,-7.74933c0,-2.73312 -0.48329,-5.28289 -1.44986,-7.64934c-0.93327,-2.36646 -2.26647,-4.43297 -3.99966,-6.19948c-1.7332,-1.79985 -3.78301,-3.18306 -6.14947,-4.14964c-2.33315,-0.96658 -4.88292,-1.44986 -7.64934,-1.44986c-2.76642,0 -5.3329,0.48329 -7.69935,1.44989c-2.33315,0.96658 -4.36629,2.34982 -6.09949,4.14967c-1.7332,1.76651 -3.08307,3.83302 -4.04964,6.19948c-0.93327,2.36646 -1.39988,4.91626 -1.39988,7.64938c0,2.79977 0.46662,5.38288 1.39988,7.74937c0.96658,2.36646 2.31648,4.43297 4.04968,6.19948c1.7332,1.76651 3.76634,3.14975 6.09949,4.14967c2.36646,0.96658 4.93293,1.44989 7.69935,1.44989z"/></g></g></svg>