<svg version="1.1" xmlns="http://www.w3.org/2000/svg" xmlns:xlink="http://www.w3.org/1999/xlink" width="9.40675" height="47.67025" viewBox="0,0,9.40675,47.67025"><g transform="translate(-235.29663,-155.56487)"><g data-paper-data="{&quot;isPaintingLayer&quot;:true}" fill="#ff0000" fill-rule="nonzero" stroke="#000000" stroke-width="0" stroke-linecap="square" stroke-linejoin="miter" stroke-miterlimit="10" stroke-dasharray="" stroke-dashoffset="0" style="mix-blend-mode: normal"><path d="M244.70339,169.95168v0.22134c-0.03687,5.31208 -0.14753,10.75323 -0.332,16.32351c-0.14753,5.53341 -0.05532,10.97461 0.27669,16.32358c-0.22134,0.2582 -0.77468,0.38736 -1.66002,0.38736c-0.88535,0.03687 -1.84446,0.03687 -2.87737,0c-1.03288,0 -2.01048,-0.01845 -2.93269,-0.05532c-0.92221,-0.0369 -1.54936,-0.01845 -1.88136,0.05535c0.22134,-2.76671 0.31355,-5.57031 0.27669,-8.41079c0,-2.87737 -0.05532,-5.71788 -0.16598,-8.52145c-0.07377,-2.84051 -0.11067,-5.64408 -0.11067,-8.41075c0,-2.76671 0.14757,-5.44119 0.44267,-8.02343v-0.05532c0.14757,-0.03687 0.42422,-0.03687 0.83003,0c0.44267,0.0369 0.77468,0.05535 0.99601,0.05535c0.59024,0.0369 1.38337,0.09222 2.37938,0.16602c0.99601,0.0369 2.21336,0.01845 3.65205,-0.05532zM244.42672,155.78615c0,0.25824 0,0.73781 0,1.43869c0.0369,0.66401 0.0738,1.40182 0.11067,2.21336c0.0369,0.81158 0.05535,1.66002 0.05535,2.54537c0.0369,0.84848 0.05535,1.60471 0.05535,2.26872c-0.18444,0.25824 -0.60866,0.42422 -1.27267,0.49802c-0.62711,0.0738 -1.36488,0.11067 -2.21336,0.11067c-0.84844,-0.03687 -1.77069,-0.07377 -2.76671,-0.11067c-0.95911,-0.07377 -1.84446,-0.09222 -2.65604,-0.05532c0,-1.29112 -0.05532,-2.61914 -0.16598,-3.98406c-0.11067,-1.40179 -0.14753,-3.11716 -0.11067,-5.14606z"/></g></g></svg>