<svg version="1.1" xmlns="http://www.w3.org/2000/svg" xmlns:xlink="http://www.w3.org/1999/xlink" width="112.88686" height="55.81035" viewBox="0,0,112.88686,55.81035"><g transform="translate(-196.49412,-127.75898)"><g data-paper-data="{&quot;isPaintingLayer&quot;:true}" fill-rule="nonzero" stroke="#000000" stroke-linejoin="miter" stroke-miterlimit="10" stroke-dasharray="" stroke-dashoffset="0" style="mix-blend-mode: normal"><path d="M250.26314,169.23196c0,0 0.20991,3.23919 0.13078,4.97997c-0.05244,1.15361 -0.55935,4.4486 -0.55935,4.4486" fill="none" stroke-width="1" stroke-linecap="round"/><path d="M218.9078,138.24826c0.8525,7.09032 -7.10113,5.29661 -7.10113,5.29661c0,0 2.41528,6.15454 -4.66829,5.69991c-7.24073,-0.46472 -4.85998,-7.1334 -4.85998,-7.1334c0,0 -5.70001,0.73435 -5.78428,-5.71759c-0.0678,-5.19014 7.92224,-1.71874 7.92224,-1.71874c0,0 -1.85371,-6.48748 4.02661,-5.57881c5.6022,0.86569 3.50629,6.91285 3.50629,6.91285c0,0 6.87154,-2.01961 6.95854,2.23917z" fill="#ffffff" stroke-width="2.5" stroke-linecap="butt"/><path d="M231.84644,151.94714c0.09035,7.14751 -8.11092,4.3981 -8.11092,4.3981c0,0 1.84909,6.40798 -5.58571,5.09469c-7.59974,-1.34242 -4.32102,-7.67779 -4.32102,-7.67779c0,0 -6.10843,0.03618 -5.45982,-6.3837c0.52175,-5.16435 8.56969,-0.74381 8.56969,-0.74381c0,0 -1.21748,-6.67043 4.89367,-5.05243c5.8221,1.54147 2.9155,7.29402 2.9155,7.29402c0,0 7.49358,-1.17052 7.09862,3.07092z" fill="#afb0ae" stroke-width="2.5" stroke-linecap="butt"/><path d="M266.11375,160.32732c5.97398,3.92514 -0.89431,9.18317 -0.89431,9.18317c0,0 6.34535,2.05374 1.09618,7.48026c-5.36563,5.54692 -8.78108,-0.71579 -8.78108,-0.71579c0,0 -3.38852,5.08253 -8.34593,0.9522c-3.9879,-3.32256 4.1795,-7.51829 4.1795,-7.51829c0,0 -6.20938,-2.72404 -1.44846,-6.88309c4.53574,-3.96234 7.67645,1.66583 7.67645,1.66583c0,0 3.22365,-6.86528 6.51764,-4.16429z" fill="#ffffff" stroke-width="2.5" stroke-linecap="butt"/><path d="M249.13645,167.88419c-4.51556,6.55444 -8.71154,3.03964 -8.71154,3.03964c0,0 -0.92392,6.47611 -8.05165,3.98685c-7.28587,-2.54449 -1.31223,-8.12611 -1.31223,-8.12611c0,0 -5.37701,-1.8022 -3.70669,-8.03482c1.34366,-5.01371 7.91994,1.49867 7.91994,1.49867c0,0 0.15993,-6.48537 5.93228,-3.90775c5.49932,2.4557 1.41601,7.37335 1.41601,7.37335c0,0 9.21884,0.24386 6.51389,4.17016z" fill="#ffffff" stroke-width="2.5" stroke-linecap="butt"/><path d="M307.57961,155.82026c2.70755,6.60822 -5.43667,6.99448 -5.43667,6.99448c0,0 3.96517,5.2905 -2.98419,6.7362c-7.10354,1.47779 -6.58215,-5.58391 -6.58215,-5.58391c0,0 -5.29941,2.22389 -7.09662,-3.97325c-1.44574,-4.98517 7.17979,-3.76386 7.17979,-3.76386c0,0 -3.51238,-5.7608 2.39783,-6.44881c5.63067,-0.65546 5.21856,5.73133 5.21856,5.73133c0,0 6.08691,-3.77444 7.30345,0.30781z" fill="#ffffff" stroke-width="2.5" stroke-linecap="butt"/><path d="M293.25343,175.4904c-2.14051,7.40292 -9.07731,2.21325 -9.07731,2.21325c0,0 -0.23892,7.14401 -6.89472,3.65639c-6.80346,-3.56499 -1.71448,-9.1635 -1.71448,-9.1635c0,0 -5.81576,-1.71445 -3.19971,-8.15445c2.10442,-5.18054 8.37498,1.68994 8.37498,1.68994c0,0 0.92086,-7.23376 6.22395,-3.81124c5.05226,3.26064 0.49844,8.36433 0.49844,8.36433c0,0 7.48533,0.94093 5.78886,5.20528z" fill="#afb0ae" stroke-width="2.5" stroke-linecap="butt"/></g></g></svg>