<svg version="1.1" xmlns="http://www.w3.org/2000/svg" xmlns:xlink="http://www.w3.org/1999/xlink" width="36.65547" height="46.64615" viewBox="0,0,36.65547,46.64615"><g transform="translate(-221.67227,-156.67692)"><g data-paper-data="{&quot;isPaintingLayer&quot;:true}" fill="#ff0000" fill-rule="nonzero" stroke="#000000" stroke-width="0" stroke-linecap="square" stroke-linejoin="miter" stroke-miterlimit="10" stroke-dasharray="" stroke-dashoffset="0" style="mix-blend-mode: normal"><path d="M223.87593,203.32296c-0.6666,0 -1.1999,-0.19998 -1.59987,-0.59995c-0.36663,-0.39997 -0.56661,-0.89992 -0.59995,-1.49987c-0.03334,-0.59995 0.15,-1.14989 0.54997,-1.64985l15.54871,-21.2482l2.14984,-1.74984l13.99883,-19.04839c0.43331,-0.56661 1.03326,-0.84991 1.79985,-0.84991c0.63329,0 1.13325,0.21665 1.49987,0.64996c0.36663,0.43331 0.56661,0.93327 0.59995,1.49987c0.06665,0.56661 -0.06665,1.06657 -0.39997,1.49987l-14.64876,19.94834l-2.04981,1.69986l-15.14871,20.64829c-0.43331,0.46662 -0.99992,0.69994 -1.69986,0.69994zM256.17323,203.32296c-0.29997,0 -0.61662,-0.06665 -0.9499,-0.19998c-0.29997,-0.13333 -0.58328,-0.34995 -0.84991,-0.64993l-14.84874,-20.59827l-1.84983,-1.34987l-14.49879,-20.19831c-0.36663,-0.46662 -0.5333,-0.98325 -0.49996,-1.54985c0.06665,-0.59995 0.2833,-1.09991 0.64996,-1.49987c0.36663,-0.39997 0.86658,-0.59995 1.49987,-0.59995c0.76659,0 1.36654,0.2833 1.79985,0.84994l14.04884,19.39837l1.64988,1.14992l15.54871,21.4982c0.33332,0.46662 0.48329,0.99992 0.44998,1.59987c0,0.59995 -0.18331,1.11658 -0.54994,1.54989c-0.36663,0.39997 -0.89992,0.59995 -1.59987,0.59995z"/></g></g></svg>