<svg version="1.1" xmlns="http://www.w3.org/2000/svg" xmlns:xlink="http://www.w3.org/1999/xlink" width="29.72774" height="46.98053" viewBox="0,0,29.72774,46.98053"><g transform="translate(-225.13613,-156.50973)"><g data-paper-data="{&quot;isPaintingLayer&quot;:true}" fill="#ff0000" fill-rule="nonzero" stroke="#000000" stroke-width="0" stroke-linecap="square" stroke-linejoin="miter" stroke-miterlimit="10" stroke-dasharray="" stroke-dashoffset="0" style="mix-blend-mode: normal"><path d="M254.78412,189.88455c0.25824,2.61917 -0.11067,4.85095 -1.10668,6.69545c-0.99601,1.80759 -2.3978,3.26473 -4.20539,4.37141c-1.80756,1.06982 -3.89184,1.80759 -6.25274,2.21336c-2.3609,0.36891 -4.75873,0.42422 -7.19344,0.16602c-1.99203,-0.332 -3.65205,-1.05133 -4.98007,-2.15801c-1.29112,-1.14355 -2.3609,-2.54537 -3.20938,-4.20539c-0.84844,-1.69689 -1.47555,-3.57825 -1.88136,-5.64408c-0.36887,-2.1027 -0.60866,-4.29761 -0.71933,-6.58474c-0.11067,-2.32403 -0.12912,-4.64807 -0.05532,-6.9721c0.11067,-2.3609 0.22134,-4.62962 0.332,-6.80608c0.11067,-0.92221 0.16602,-1.82601 0.16602,-2.71135c0,-0.92221 0.12912,-1.82601 0.38736,-2.71135c0.0369,-0.18444 0.0738,-0.332 0.11067,-0.44267c0.0738,-0.14753 0.14757,-0.2951 0.22134,-0.44267c0.55334,-1.32802 1.38337,-2.49002 2.49005,-3.48603c1.14358,-1.03288 2.4347,-1.88136 3.87339,-2.54537c1.43869,-0.70088 2.95118,-1.21735 4.5374,-1.54936c1.62316,-0.36887 3.22783,-0.55334 4.81409,-0.55334c2.06583,-0.07377 3.91029,0.332 5.53341,1.21735c1.66002,0.84848 2.98804,1.99203 3.98406,3.43072c0.99601,1.43869 1.66002,3.04339 1.99203,4.81409c0.332,1.73383 0.25824,3.48607 -0.22134,5.25676c-1.25422,0.22134 -2.63759,0.332 -4.15004,0.332c-1.51245,0 -3.02491,0.0369 -4.5374,0.11067h-0.16598v-0.05532c-0.03687,-0.73778 -0.16598,-1.5309 -0.38732,-2.37935c-0.22134,-0.88535 -0.59021,-1.60467 -1.10668,-2.15801c-0.62711,-0.70088 -1.43869,-1.01446 -2.4347,-0.94066c-0.99601,0.0369 -1.78914,0.36891 -2.37935,0.99601c-0.84844,0.70091 -1.40179,1.62316 -1.66002,2.76671c-0.2582,1.14358 -0.38732,2.39784 -0.38732,3.76272c0.0369,1.32802 0.11067,2.69294 0.22134,4.09472c0.11067,1.40182 0.14757,2.72984 0.11067,3.98406v0.05535c1.03292,-0.62711 2.1396,-1.10668 3.32005,-1.43869c1.21735,-0.332 2.52692,-0.57179 3.92874,-0.71933c1.43869,-0.18444 2.80361,-0.11067 4.09472,0.22134c1.88136,0.62714 3.39385,1.58626 4.5374,2.87737c0.66401,0.59024 1.16203,1.40182 1.49404,2.4347c0.36891,1.03292 0.62714,2.06583 0.77468,3.09871zM246.92669,189.9399v-0.16598c0,-0.36887 -0.01845,-0.64556 -0.05532,-0.82999c-0.14753,-0.51644 -0.40577,-0.97756 -0.77468,-1.38334c-0.332,-0.40577 -0.77468,-0.64556 -1.32802,-0.71933c-0.88535,-0.14753 -1.77069,-0.05532 -2.65604,0.27669c-0.88535,0.29514 -1.64157,0.8669 -2.26868,1.71538c-0.55334,0.77468 -0.66401,1.58626 -0.332,2.4347c0.332,0.81158 0.83003,1.40182 1.49404,1.77069c0.47957,0.22134 1.10668,0.332 1.88136,0.332c0.77468,0 1.49404,-0.18444 2.15805,-0.55334c0.47957,-0.22134 0.88535,-0.51644 1.21735,-0.88535c0.36891,-0.36887 0.59024,-0.79313 0.66401,-1.27267v-0.60866z"/></g></g></svg>