<svg version="1.1" xmlns="http://www.w3.org/2000/svg" xmlns:xlink="http://www.w3.org/1999/xlink" width="29.54849" height="47.02138" viewBox="0,0,29.54849,47.02138"><g transform="translate(-225.22575,-156.48931)"><g data-paper-data="{&quot;isPaintingLayer&quot;:true}" fill="#ff0000" fill-rule="nonzero" stroke="#000000" stroke-width="0" stroke-linecap="square" stroke-linejoin="miter" stroke-miterlimit="10" stroke-dasharray="" stroke-dashoffset="0" style="mix-blend-mode: normal"><path d="M254.77405,171.27843c0,0.2951 0,0.59021 0,0.88535c0,0.2951 -0.01845,0.57179 -0.05532,0.83003c-0.2582,2.1027 -0.95915,4.03941 -2.1027,5.8101c-1.10668,1.77069 -2.5085,3.28315 -4.20539,4.5374c-1.66002,1.21735 -3.50452,2.1027 -5.53341,2.65604c-2.02889,0.55334 -4.09472,0.64556 -6.19742,0.27669c0.03687,0.62711 0.05535,1.2358 0.05535,1.82604c0,0.59021 0,1.45714 0,2.60072c0,1.10668 0,2.61914 0,4.5374c0.03687,1.88136 0.11067,4.42673 0.22134,7.63611v0.05535c-0.0738,0 -0.12912,0.01845 -0.16598,0.05535c0,0 -0.01845,0 -0.05532,0c-0.62714,0.18444 -1.42024,0.31355 -2.37935,0.38736c-0.92221,0.03687 -1.89981,0.07377 -2.93269,0.11067c-1.03288,0.03687 -2.06583,0.03687 -3.09871,0c-0.99601,-0.0738 -1.86291,-0.14757 -2.60069,-0.22134c-0.14753,-3.20938 -0.22134,-6.69541 -0.22134,-10.45813c0,-3.79962 0,-7.67301 0,-11.62016c0,-3.94719 -0.01845,-7.93125 -0.05532,-11.95217c0,-4.02096 -0.0738,-7.85744 -0.22134,-11.5095c1.80756,-0.47957 3.78117,-0.82999 5.92077,-1.05133c2.13956,-0.22134 4.2792,-0.23979 6.41876,-0.05532c2.13956,0.18444 4.22384,0.57179 6.25277,1.16203c2.02889,0.59021 3.81807,1.47555 5.36743,2.65604c1.54936,1.14355 2.82206,2.60072 3.81807,4.37141c1.03288,1.77069 1.62316,3.91025 1.77069,6.41876zM239.33584,166.79638c-1.43869,-0.25824 -2.85892,-0.22134 -4.26071,0.11067c-0.0738,0 -0.12912,0.01845 -0.16598,0.05535c0.03687,0.81154 0.03687,1.66002 0,2.54537c0,0.88535 0,1.77069 0,2.65604c0.03687,0.84844 0.0738,1.69689 0.11067,2.54537c0.0738,0.81154 0.22134,1.5309 0.44267,2.15805h0.22134c0.70088,-0.0369 1.43869,-0.05532 2.21336,-0.05532c0.81154,-0.0369 1.60471,-0.09222 2.37938,-0.16598c0.77468,-0.11067 1.51249,-0.27665 2.21336,-0.49799c0.73781,-0.25824 1.36488,-0.64556 1.88136,-1.162c0.36887,-0.47957 0.62714,-1.03292 0.77468,-1.66002c0.14753,-0.62714 0.16602,-1.2358 0.05535,-1.82601c-0.11067,-0.62714 -0.332,-1.1989 -0.66401,-1.71534c-0.332,-0.55334 -0.77468,-0.99601 -1.32802,-1.32802c-1.10668,-0.88535 -2.39784,-1.43869 -3.87339,-1.66002z"/></g></g></svg>