<svg version="1.1" xmlns="http://www.w3.org/2000/svg" xmlns:xlink="http://www.w3.org/1999/xlink" width="27.55629" height="33.33885" viewBox="0,0,27.55629,33.33885"><g transform="translate(-226.22186,-169.93057)"><g data-paper-data="{&quot;isPaintingLayer&quot;:true}" fill="#ff0000" fill-rule="nonzero" stroke="#000000" stroke-width="0" stroke-linecap="square" stroke-linejoin="miter" stroke-miterlimit="10" stroke-dasharray="" stroke-dashoffset="0" style="mix-blend-mode: normal"><path d="M236.29251,175.62987c0.332,2.02893 0.66401,4.09472 0.99601,6.19742c0.36891,2.1027 0.75623,4.11318 1.16203,6.03144c0.40577,1.91826 0.84844,3.54138 1.32802,4.8694c0.47957,-1.32802 0.92225,-2.98804 1.32802,-4.98007c0.40577,-2.02889 0.79313,-4.11318 1.16203,-6.25274c0.36891,-2.17646 0.77468,-4.26071 1.21735,-6.25274c0.44267,-2.02889 0.92225,-3.70737 1.43869,-5.03539c0.73778,0 1.43869,-0.01845 2.1027,-0.05532c0.66401,-0.07377 1.34647,-0.12912 2.04738,-0.16598c0.70091,-0.03687 1.42024,-0.05532 2.15805,-0.05532c0.77468,0 1.62312,0.01845 2.54537,0.05535c-0.92225,2.5085 -1.73379,5.12764 -2.4347,7.85744c-0.66401,2.69294 -1.30957,5.45964 -1.93668,8.30012c-0.59024,2.80361 -1.1989,5.62563 -1.82601,8.46614c-0.62711,2.84051 -1.30957,5.64408 -2.04734,8.41079c-0.88535,0.14757 -1.88136,0.22134 -2.98804,0.22134c-1.06978,0.0369 -2.15801,0.0369 -3.2647,0c-1.10668,0 -2.21336,-0.01845 -3.32005,-0.05532c-1.06978,0 -2.02893,0 -2.87737,0c-0.88535,-5.53341 -1.89981,-11.15904 -3.04336,-16.87689c-1.14358,-5.71785 -2.41625,-11.17749 -3.81804,-16.3789c1.58622,0.18447 3.15406,0.22134 4.70342,0.11067c1.58622,-0.11067 3.08026,-0.07377 4.48208,0.11067c0.2951,1.58626 0.59024,3.41226 0.88535,5.4781z" data-paper-data="{&quot;index&quot;:null}"/></g></g></svg>