<svg version="1.1" xmlns="http://www.w3.org/2000/svg" xmlns:xlink="http://www.w3.org/1999/xlink" width="26.7633" height="34.8927" viewBox="0,0,26.7633,34.8927"><g transform="translate(-226.61835,-168.35366)"><g data-paper-data="{&quot;isPaintingLayer&quot;:true}" fill="#ff0000" fill-rule="nonzero" stroke="#000000" stroke-width="0" stroke-linecap="square" stroke-linejoin="miter" stroke-miterlimit="10" stroke-dasharray="" stroke-dashoffset="0" style="mix-blend-mode: normal"><path d="M235.56384,187.00561c0.03687,1.32802 0.09222,2.41625 0.16602,3.26473c0.07377,0.81154 0.35046,1.60471 0.83003,2.37938c0.55334,1.03288 1.30957,1.78914 2.26872,2.26872c0.95911,0.47954 1.89981,0.64556 2.82206,0.49802c0.92221,-0.18447 1.69689,-0.71933 2.32403,-1.60467c0.66401,-0.92225 0.9407,-2.28717 0.83003,-4.09472c0.44267,0.03687 1.03288,0.05535 1.77069,0.05535c0.77468,-0.0369 1.56781,-0.0738 2.37938,-0.11067c0.81154,-0.0738 1.58622,-0.09222 2.32403,-0.05532c0.77468,0.03687 1.40179,0.11067 1.88136,0.22134c-0.11067,1.14355 -0.20289,2.26872 -0.27665,3.3754c-0.0738,1.10668 -0.18447,2.13956 -0.332,3.09871c-0.11067,0.92221 -0.27665,1.73379 -0.49799,2.4347c-0.18447,0.66401 -0.44267,1.12513 -0.77468,1.38337c-0.73781,1.06978 -1.69692,1.82604 -2.87737,2.26872c-1.18048,0.44267 -2.49002,0.70091 -3.9287,0.77468c-1.40182,0.11067 -2.84051,0.11067 -4.31606,0c-1.47559,-0.07377 -2.82202,-0.11067 -4.03937,-0.11067c-1.25425,-0.18447 -2.39784,-0.59024 -3.43072,-1.21735c-1.21735,-0.81158 -2.21336,-1.88136 -2.98804,-3.20938c-0.77468,-1.36492 -1.42024,-2.84051 -1.93668,-4.42673c-0.47957,-1.62316 -0.81158,-3.3385 -0.99601,-5.14606c-0.14757,-1.80759 -0.18447,-3.61519 -0.11067,-5.42274c0.14753,-1.62316 0.2951,-3.19093 0.44267,-4.70338c0.14753,-1.54936 0.47954,-3.04336 0.99601,-4.48205c0.59021,-1.29115 1.47555,-2.37935 2.65604,-3.2647c1.18045,-0.92225 2.52692,-1.60467 4.03941,-2.04734c1.51245,-0.47957 3.09871,-0.73781 4.75873,-0.77468c1.66002,-0.0369 3.28315,0.14753 4.8694,0.55334c2.02889,0.332 3.65205,1.03288 4.8694,2.1027c1.25422,1.06978 2.19491,2.3609 2.82206,3.87339c0.66401,1.47555 1.05137,3.11716 1.16203,4.92475c0.14753,1.80756 0.14753,3.6336 0,5.4781c-0.29514,0.07377 -0.88535,0.16602 -1.77069,0.27669c-0.84848,0.07377 -1.86291,0.16602 -3.04336,0.27669c-1.14358,0.07377 -2.37935,0.12912 -3.70737,0.16602c-1.32802,0.03687 -2.60069,0.05535 -3.81804,0.05535c-1.18048,0 -2.26868,-0.01845 -3.2647,-0.05532c-0.95915,-0.0369 -1.66002,-0.11067 -2.1027,-0.22134zM242.48061,175.05344c-0.332,-0.11067 -0.73781,-0.16598 -1.21735,-0.16598c-1.06982,0 -1.93668,0.11067 -2.60069,0.332c-0.66401,0.22134 -1.1989,0.53489 -1.60467,0.9407c-0.36891,0.40577 -0.66401,0.8669 -0.88535,1.38337c-0.18447,0.51644 -0.31355,1.06978 -0.38732,1.66002c-0.11067,0.47954 -0.14757,0.83003 -0.11067,1.05137c0.03687,0.18444 0.23979,0.31355 0.60869,0.38736c0.40577,0.03687 1.03288,0.05535 1.88136,0.05535c0.88535,-0.0369 2.15805,-0.05532 3.81807,-0.05532c1.14355,0 1.99203,0.03687 2.54537,0.11067c0.59021,0.03687 0.99601,0.03687 1.21735,0c0.2582,-0.0369 0.38736,-0.11067 0.38736,-0.22134c0,-0.11067 0,-0.332 0,-0.66401c0,-0.88535 -0.23979,-1.71534 -0.71933,-2.49002c-0.44267,-0.81158 -1.05133,-1.42024 -1.82601,-1.82601c-0.36891,-0.22134 -0.73781,-0.38732 -1.10668,-0.49799z"/></g></g></svg>