<svg version="1.1" xmlns="http://www.w3.org/2000/svg" xmlns:xlink="http://www.w3.org/1999/xlink" width="164.15869" height="56.74136" viewBox="0,0,164.15869,56.74136"><g transform="translate(-58.31867,-146.88565)"><g data-paper-data="{&quot;isPaintingLayer&quot;:true}" fill-rule="nonzero" stroke-linejoin="miter" stroke-miterlimit="10" stroke-dasharray="" stroke-dashoffset="0" style="mix-blend-mode: normal"><g><path d="M202.06431,198.76172c0,0 -7.62405,1.45715 -12.86609,-1.55573c-2.87381,-1.65172 -4.81754,-6.14617 -4.89584,-9.46662c-0.21281,-9.02415 6.21396,-12.05903 11.67093,-12.20073c10.9728,-0.2849 9.63022,11.98475 9.44853,12.367c-0.18533,0.38992 -20.65853,-0.32068 -20.65853,-0.32068" fill="none" stroke="#ff0000" stroke-width="5" stroke-linecap="round"/><g fill="#ff0000" stroke="none" stroke-width="0.5" stroke-linecap="butt"><path d="M215.04528,176.78894c0,-2.05231 1.66373,-3.71604 3.71604,-3.71604c2.05231,0 3.71604,1.66373 3.71604,3.71604c0,2.05231 -1.66373,3.71604 -3.71604,3.71604c-2.05231,0 -3.71604,-1.66373 -3.71604,-3.71604z"/><path d="M215.04528,199.91097c0,-2.05231 1.66373,-3.71604 3.71604,-3.71604c2.05231,0 3.71604,1.66373 3.71604,3.71604c0,2.05231 -1.66373,3.71604 -3.71604,3.71604c-2.05231,0 -3.71604,-1.66373 -3.71604,-3.71604z"/></g><path d="M178.5422,175.37022c0,0 -9.76293,0.73384 -13.59041,6.32494c-4.49458,6.56561 -3.17705,18.14067 -3.42571,18.06127c-0.584,-0.18647 1.28871,-25.53903 1.28871,-25.53903" fill="none" stroke="#ff0000" stroke-width="5" stroke-linecap="round"/><path d="M150.05585,187.359c0,7.38832 -5.89089,13.21259 -11.40933,13.21259c-5.51844,0 -8.57472,-5.82427 -8.57472,-13.21259c0,-7.38832 5.60743,-13.21259 11.12587,-13.21259c5.51844,0 8.85818,5.82427 8.85818,13.21259z" fill="none" stroke="#ff0000" stroke-width="5" stroke-linecap="butt"/><path d="M119.1277,195.90071c0,0 -6.32332,5.05291 -11.89691,4.97226c-5.17074,-0.07483 -9.62409,-4.90443 -9.57383,-13.93591c0.0587,-10.54725 7.49667,-13.83403 12.95648,-13.14395c5.33057,0.67373 8.68677,5.20284 8.68677,5.20284" fill="none" stroke="#ff0000" stroke-width="5" stroke-linecap="round"/><g fill="none" stroke="#ff0000" stroke-width="5" stroke-linecap="round"><path d="M75.94034,175.71805c-1.69993,-0.86524 -15.44119,-4.29956 -14.63444,-15.26588c0.79583,-10.81783 9.45434,-12.35894 15.75483,-10.26482c6.87888,2.28636 10.23532,12.04205 10.23532,12.04205"/><path d="M72.17437,174.45604c1.69993,0.86524 15.44121,4.29956 14.63444,15.26588c-0.79583,10.81784 -9.45434,12.35896 -15.75483,10.26484c-6.87888,-2.28638 -10.23532,-12.04207 -10.23532,-12.04207" data-paper-data="{&quot;index&quot;:null}"/></g></g></g></g></svg>