<svg version="1.1" xmlns="http://www.w3.org/2000/svg" xmlns:xlink="http://www.w3.org/1999/xlink" width="27.27984" height="32.88208" viewBox="0,0,27.27984,32.88208"><g transform="translate(-226.36008,-170.15896)"><g data-paper-data="{&quot;isPaintingLayer&quot;:true}" fill="#ff0000" fill-rule="nonzero" stroke="#000000" stroke-width="0" stroke-linecap="square" stroke-linejoin="miter" stroke-miterlimit="10" stroke-dasharray="" stroke-dashoffset="0" style="mix-blend-mode: normal"><path d="M253.47366,174.87589c-0.0738,1.36488 -0.01845,2.78516 0.16602,4.26074c-2.25027,2.3978 -4.70338,4.8325 -7.35942,7.3041c-2.61917,2.4347 -5.05387,4.90627 -7.3041,7.41477c2.21336,-0.18447 4.55585,-0.20289 7.02745,-0.05532c2.50847,0.11067 4.94317,0 7.3041,-0.332c0,1.40179 0.01845,2.89582 0.05535,4.48208c0.07377,1.58622 0.11067,3.15406 0.11067,4.70342c-2.02893,0.03687 -4.18694,0.07377 -6.47407,0.11067c-2.25027,0.03687 -4.55585,0.09222 -6.91675,0.16602c-2.32403,0.03687 -4.62962,0.07377 -6.91675,0.11067c-2.28717,0 -4.48205,0 -6.58474,0c0.03687,-1.29115 0.03687,-2.32403 0,-3.09871c0,-0.81158 -0.0369,-1.494 -0.11067,-2.04734c-0.0369,-0.59024 -0.0738,-1.12513 -0.11067,-1.60467c0,-0.47957 0.01845,-1.05133 0.05535,-1.71534c1.06978,-1.36492 2.23182,-2.69294 3.48607,-3.98406c1.29112,-1.29115 2.61914,-2.56382 3.98406,-3.81804c1.36488,-1.29115 2.71139,-2.56382 4.03941,-3.81804c1.32802,-1.25425 2.54537,-2.52692 3.65205,-3.81804c-1.14358,0.03687 -2.37935,0.07377 -3.70737,0.11067c-1.32802,0.03687 -2.65604,0.11067 -3.98406,0.22134c-1.32802,0.07377 -2.60069,0.18444 -3.81804,0.332c-1.18048,0.11067 -2.26868,0.23979 -3.2647,0.38736c-0.0738,-1.21735 -0.11067,-2.23182 -0.11067,-3.04336c0,-0.84848 0,-1.60467 0,-2.26868c0.03687,-0.70091 0.07377,-1.40182 0.11067,-2.1027c0.07377,-0.70091 0.07377,-1.5309 0,-2.49002c3.57825,0 6.9352,-0.01845 10.07081,-0.05532c3.17248,-0.0369 5.93918,-0.05532 8.30012,-0.05532c0.36887,0.11067 0.97756,0.16602 1.82604,0.16602c0.84844,-0.0369 1.73379,-0.0738 2.65604,-0.11067c0.95911,-0.0369 1.80756,-0.05532 2.54537,-0.05532c0.77468,-0.0369 1.25422,0 1.43869,0.11067c0,1.66002 -0.05532,3.19093 -0.16598,4.59275z" data-paper-data="{&quot;index&quot;:null}"/></g></g></svg>