<svg version="1.1" xmlns="http://www.w3.org/2000/svg" xmlns:xlink="http://www.w3.org/1999/xlink" width="33.1973" height="46.89615" viewBox="0,0,33.1973,46.89615"><g transform="translate(-223.40135,-170.30192)"><g data-paper-data="{&quot;isPaintingLayer&quot;:true}" fill="#ff0000" fill-rule="nonzero" stroke="#000000" stroke-width="0" stroke-linecap="square" stroke-linejoin="miter" stroke-miterlimit="10" stroke-dasharray="" stroke-dashoffset="0" style="mix-blend-mode: normal"><path d="M254.24868,217.19792c-0.6666,0 -1.21657,-0.21665 -1.64985,-0.64993c-0.43331,-0.39997 -0.64993,-0.9499 -0.64993,-1.64985v-17.54851c-1.33323,1.8665 -3.08307,3.36637 -5.24954,4.49962c-2.13317,1.13325 -4.53296,1.69986 -7.1994,1.69986c-3.0664,0 -5.81618,-0.71661 -8.24929,-2.1498c-2.3998,-1.46653 -4.31631,-3.44969 -5.7495,-5.94949c-1.39988,-2.53313 -2.09982,-5.36621 -2.09982,-8.49929c0,-3.16639 0.71661,-5.9995 2.14984,-8.49929c1.46653,-2.53313 3.44973,-4.51629 5.94952,-5.94949c2.49979,-1.46653 5.3329,-2.19982 8.49929,-2.19982c3.09974,0 5.88284,0.71661 8.34932,2.14984c2.49979,1.43322 4.46628,3.39972 5.89951,5.89951c1.46653,2.46645 2.24983,5.24958 2.34982,8.34932v28.19764c0,0.69994 -0.23332,1.24991 -0.69994,1.64988c-0.43331,0.43331 -0.98325,0.64996 -1.64985,0.64996zM239.99989,199.34943c2.29981,0 4.34965,-0.5333 6.1495,-1.59987c1.83319,-1.06657 3.26638,-2.54977 4.29964,-4.44961c1.06657,-1.89984 1.59987,-4.01634 1.59987,-6.34945c0,-2.3998 -0.5333,-4.53296 -1.59987,-6.39946c-1.03326,-1.8665 -2.46645,-3.3497 -4.29964,-4.44961c-1.79985,-1.09991 -3.84966,-1.64985 -6.14947,-1.64985c-2.26647,0 -4.31631,0.54997 -6.14947,1.64988c-1.83319,1.09991 -3.29972,2.58311 -4.39963,4.44964c-1.06657,1.8665 -1.59987,3.99966 -1.59987,6.39946c0,2.33315 0.5333,4.44964 1.59987,6.34948c1.09991,1.89984 2.56644,3.38304 4.39963,4.44964c1.83319,1.06657 3.883,1.59987 6.1495,1.59987z"/></g></g></svg>