<svg version="1.1" xmlns="http://www.w3.org/2000/svg" xmlns:xlink="http://www.w3.org/1999/xlink" width="44.32244" height="33.44963" viewBox="0,0,44.32244,33.44963"><g transform="translate(-217.83878,-170.07518)"><g data-paper-data="{&quot;isPaintingLayer&quot;:true}" fill="#ff0000" fill-rule="nonzero" stroke="#000000" stroke-width="0" stroke-linecap="square" stroke-linejoin="miter" stroke-miterlimit="10" stroke-dasharray="" stroke-dashoffset="0" style="mix-blend-mode: normal"><path d="M228.01978,175.88508c0.2951,2.02889 0.60869,4.09472 0.9407,6.19742c0.332,2.1027 0.70088,4.11318 1.10668,6.03144c0.40577,1.91823 0.84844,3.54138 1.32802,4.8694c0.47954,-1.32802 0.8669,-2.56382 1.16203,-3.70737c0.332,-1.14358 0.64556,-2.37935 0.9407,-3.70737c0.2951,-1.36492 0.60869,-2.89582 0.9407,-4.59271c0.332,-1.69692 0.77468,-3.74427 1.32802,-6.14207c0,0 0.05535,-0.23979 0.16602,-0.71933c0.11067,-0.51648 0.20289,-1.05133 0.27669,-1.60467c0.07377,-0.59024 0.14753,-1.12513 0.22134,-1.60467c0.11067,-0.47957 0.16602,-0.71933 0.16602,-0.71933c0.84844,0.07377 1.56781,0.09222 2.15805,0.05535c0.62711,-0.0369 1.21735,-0.0738 1.77069,-0.11067c0.55334,-0.0369 1.08823,-0.05532 1.60471,-0.05532c0.55334,0 1.16203,0.05535 1.82604,0.16602c0.2951,1.58622 0.59021,3.41226 0.88535,5.4781c0.2951,2.0658 0.60869,4.16849 0.9407,6.30809c0.332,2.1027 0.68246,4.13159 1.05137,6.08675c0.40577,1.91823 0.84844,3.54138 1.32802,4.8694c0.55334,-1.29115 1.06978,-3.00649 1.54936,-5.14606c0.47954,-2.1396 0.9407,-4.31606 1.38337,-6.52943c0.44267,-2.25027 0.8669,-4.37138 1.2727,-6.36341c0.40577,-1.99203 0.81154,-3.48603 1.21735,-4.48205c1.40179,0 2.74826,-0.05532 4.03941,-0.16598c1.29112,-0.14757 2.80361,-0.16598 4.5374,-0.05532c-0.92225,2.50847 -1.73379,5.1276 -2.4347,7.85744c-0.66401,2.6929 -1.30957,5.45961 -1.93668,8.30012c-0.59024,2.80357 -1.1989,5.62563 -1.82601,8.46614c-0.62714,2.84047 -1.30957,5.64408 -2.04734,8.41079c-0.88535,0.14753 -1.82601,0.22134 -2.82202,0.22134c-0.99601,0.03687 -2.01048,0.03687 -3.04336,0c-1.03292,0 -2.04734,-0.01845 -3.04336,-0.05532c-0.95915,0 -1.86291,0 -2.71135,0c-0.40581,-2.39784 -0.82999,-4.9432 -1.27267,-7.63611c-0.40581,-2.69294 -0.84848,-5.25672 -1.32802,-7.69142c-0.51648,2.3978 -0.92225,4.94317 -1.21735,7.63611c-0.29514,2.65604 -0.73781,5.16451 -1.32802,7.52544c-0.88535,0.14753 -1.88136,0.22134 -2.98804,0.22134c-1.06982,0.03687 -2.15801,0.03687 -3.2647,0c-1.10668,0 -2.21336,-0.01845 -3.32005,-0.05532c-1.06982,0 -2.02893,0 -2.87737,0c-0.88535,-5.53341 -1.89981,-11.15904 -3.04336,-16.87689c-1.14358,-5.71788 -2.41625,-11.17749 -3.81804,-16.3789c1.58622,0.18444 3.17248,0.22134 4.75873,0.11067c1.58622,-0.11067 3.08026,-0.0738 4.48208,0.11067c0.332,1.58622 0.64556,3.41226 0.9407,5.4781z" data-paper-data="{&quot;index&quot;:null}"/></g></g></svg>