<svg version="1.1" xmlns="http://www.w3.org/2000/svg" xmlns:xlink="http://www.w3.org/1999/xlink" width="29.68756" height="46.64617" viewBox="0,0,29.68756,46.64617"><g transform="translate(-225.15622,-156.67691)"><g data-paper-data="{&quot;isPaintingLayer&quot;:true}" fill="#ff0000" fill-rule="nonzero" stroke="#000000" stroke-width="0" stroke-linecap="square" stroke-linejoin="miter" stroke-miterlimit="10" stroke-dasharray="" stroke-dashoffset="0" style="mix-blend-mode: normal"><path d="M227.50601,203.32297c-0.6666,0 -1.23324,-0.21665 -1.69986,-0.64993c-0.43331,-0.43331 -0.64993,-0.99992 -0.64993,-1.69986v-41.94647c0,-0.6666 0.21665,-1.21657 0.64996,-1.64985c0.46662,-0.46662 1.03326,-0.69994 1.69986,-0.69994h11.14908c2.89976,0 5.48287,0.61662 7.74937,1.84986c2.29981,1.1999 4.08299,2.88309 5.34957,5.04959c1.29989,2.16647 1.94985,4.66627 1.94985,7.49937c0,2.69977 -0.64993,5.11624 -1.94982,7.24941c-1.26655,2.09982 -3.04973,3.7497 -5.34954,4.9496c-2.26647,1.1999 -4.84958,1.79985 -7.74933,1.79985h-8.79926v15.89867c0,0.69994 -0.23332,1.26655 -0.69994,1.69986c-0.43331,0.43331 -0.98325,0.64996 -1.64985,0.64996zM252.45393,203.32297c-0.49996,0 -0.89992,-0.09999 -1.1999,-0.29997c-0.29997,-0.19998 -0.58328,-0.49996 -0.84991,-0.89992l-11.44902,-18.24846l4.64963,-1.1999l10.6991,17.04859c0.59995,0.96658 0.69994,1.81652 0.29997,2.5498c-0.36663,0.69994 -1.08324,1.04993 -2.1498,1.04993zM229.85583,180.57489h8.79926c2.03317,0 3.83302,-0.39997 5.39955,-1.1999c1.56652,-0.83327 2.79977,-1.96649 3.69969,-3.39972c0.93327,-1.43322 1.39988,-3.0664 1.39988,-4.89959c0,-1.93318 -0.46662,-3.64968 -1.39988,-5.14955c-0.89992,-1.49987 -2.13317,-2.66643 -3.69969,-3.49971c-1.56652,-0.83327 -3.36637,-1.24988 -5.39955,-1.24988h-8.79926z"/></g></g></svg>