<svg version="1.1" xmlns="http://www.w3.org/2000/svg" xmlns:xlink="http://www.w3.org/1999/xlink" width="28.33121" height="46.17628" viewBox="0,0,28.33121,46.17628"><g transform="translate(-225.83439,-156.91186)"><g data-paper-data="{&quot;isPaintingLayer&quot;:true}" fill="#ff0000" fill-rule="nonzero" stroke="#000000" stroke-width="0" stroke-linecap="square" stroke-linejoin="miter" stroke-miterlimit="10" stroke-dasharray="" stroke-dashoffset="0" style="mix-blend-mode: normal"><path d="M251.73066,169.22358c-0.84848,3.72585 -1.73383,7.43322 -2.65604,11.12218c-0.92225,3.68895 -1.86291,7.39632 -2.82202,11.12218c-0.95915,3.72585 -1.97358,7.50699 -3.04336,11.34351c-0.332,0 -0.88535,0.0369 -1.66002,0.11067c-0.73781,0.11067 -1.56781,0.16602 -2.49002,0.16602c-0.95915,0 -1.93668,-0.03687 -2.93269,-0.11067c-0.99601,-0.07377 -1.84449,-0.22134 -2.54537,-0.44267c-1.99203,-7.11963 -3.6336,-14.44219 -4.92472,-21.96763c-1.25422,-7.52544 -2.19491,-15.08775 -2.82202,-22.68699v-0.05532c0.2582,-0.332 0.83003,-0.55334 1.71538,-0.66401c0.88535,-0.14753 1.82604,-0.22134 2.82206,-0.22134c1.03288,-0.03687 2.01048,-0.03687 2.93273,0c0.92221,0.0369 1.56781,0.11067 1.93671,0.22134c0.14753,0.88535 0.23979,2.32403 0.27669,4.31606c0.07377,1.95516 0.18444,4.33451 0.332,7.13812c0.18444,2.76671 0.47954,5.82855 0.88535,9.18546c0.44267,3.32005 1.10668,6.76921 1.99203,10.3475c0.84844,-3.57825 1.5309,-6.84298 2.04738,-9.79412c0.51644,-2.98804 0.97756,-5.7363 1.38337,-8.24477c0.40577,-2.50847 0.77468,-4.81405 1.10668,-6.91675c0.36887,-2.13956 0.79313,-4.13159 1.2727,-5.97608c0,-0.07377 0.03687,-0.11067 0.11067,-0.11067c0.77468,0.14757 1.54936,0.23979 2.32403,0.27669c0.81154,0.0369 1.62312,0.05535 2.4347,0.05535c0.81154,0 1.62312,0.01845 2.4347,0.05535c0.81154,0 1.58622,0.05535 2.32403,0.16602c-0.73781,3.94719 -1.54936,7.80213 -2.4347,11.56485z"/></g></g></svg>