<svg version="1.1" xmlns="http://www.w3.org/2000/svg" xmlns:xlink="http://www.w3.org/1999/xlink" width="45.95256" height="46.54795" viewBox="0,0,45.95256,46.54795"><g transform="translate(-217.02372,-156.72603)"><g data-paper-data="{&quot;isPaintingLayer&quot;:true}" fill="#ff0000" fill-rule="nonzero" stroke="#000000" stroke-width="0" stroke-linecap="square" stroke-linejoin="miter" stroke-miterlimit="10" stroke-dasharray="" stroke-dashoffset="0" style="mix-blend-mode: normal"><path d="M228.98538,203.27371h-9.63429c-0.79385,0 -1.38921,-0.1804 -1.78612,-0.54125c-0.36084,-0.36081 -0.54125,-0.95621 -0.54125,-1.78612v-41.89296c0,-0.79381 0.1804,-1.37116 0.54125,-1.732c0.39691,-0.39691 0.99231,-0.59536 1.78615,-0.59536h10.4462c0.68557,0 1.2449,0.1624 1.6779,0.48714c0.46907,0.2887 0.90207,0.7758 1.29901,1.4614l5.79142,10.55444c0.2165,0.39694 0.39691,0.6856 0.54125,0.86601c0.14431,0.14434 0.3428,0.2165 0.5954,0.2165h0.5954c0.25256,0 0.45105,-0.07216 0.5954,-0.2165c0.1804,-0.1804 0.3789,-0.46907 0.5954,-0.86601l5.73728,-10.55441c0.39691,-0.68557 0.81189,-1.17271 1.2449,-1.46136c0.46907,-0.32475 1.04641,-0.48711 1.732,-0.48711h10.4462c0.82991,0 1.4253,0.19846 1.78615,0.5954c0.36081,0.36084 0.54125,0.93819 0.54125,1.732v41.89296c0,0.82995 -0.18044,1.4253 -0.54125,1.78615c-0.36084,0.36084 -0.95621,0.54125 -1.78612,0.54125h-9.95905c-0.79385,0 -1.38921,-0.1804 -1.78612,-0.54125c-0.36084,-0.36081 -0.54125,-0.95621 -0.54125,-1.78612v-22.73261l-3.78877,7.03628c-0.39694,0.72169 -0.86601,1.2449 -1.40726,1.56965c-0.54125,0.32475 -1.20881,0.48714 -2.00262,0.48714h-2.59801c-0.82995,0 -1.51551,-0.16236 -2.05676,-0.48711c-0.54125,-0.32475 -0.99231,-0.84795 -1.35312,-1.56962l-3.84288,-7.03628v22.73261c0,0.82995 -0.18044,1.4253 -0.54125,1.78615c-0.36084,0.36084 -0.95621,0.54125 -1.78612,0.54125z"/></g></g></svg>