<svg version="1.1" xmlns="http://www.w3.org/2000/svg" xmlns:xlink="http://www.w3.org/1999/xlink" width="30.22024" height="44.82546" viewBox="0,0,30.22024,44.82546"><g transform="translate(-224.88988,-169.78727)"><g data-paper-data="{&quot;isPaintingLayer&quot;:true}" fill="#ff0000" fill-rule="nonzero" stroke="#000000" stroke-width="0" stroke-linecap="square" stroke-linejoin="miter" stroke-miterlimit="10" stroke-dasharray="" stroke-dashoffset="0" style="mix-blend-mode: normal"><path d="M236.96045,175.69689c0.40577,2.17646 0.83003,4.38983 1.2727,6.64009c0.44267,2.25023 0.9038,4.40828 1.38337,6.47411c0.47954,2.02889 0.95911,3.68892 1.43869,4.98007c0.51644,-1.29115 0.92221,-3.00649 1.21735,-5.14606c0.2951,-2.1765 0.59021,-4.42673 0.88535,-6.75076c0.2951,-2.36093 0.60869,-4.6112 0.9407,-6.75076c0.36887,-2.1765 0.81154,-3.9287 1.32802,-5.25672c1.51245,0.03687 3.02491,0.01845 4.5374,-0.05532c1.54936,-0.0738 3.26473,-0.05532 5.14609,0.05535c-0.73781,2.65604 -1.38334,5.18296 -1.93668,7.58079c-0.51648,2.3978 -1.05133,4.74028 -1.60467,7.02745c-0.55334,2.17646 -1.06982,4.4636 -1.54936,6.86143c-0.44267,2.3609 -1.01446,4.68493 -1.71534,6.9721c-0.66401,2.28713 -1.5309,4.4636 -2.60069,6.52943c-1.06982,2.0658 -2.4716,3.85494 -4.20539,5.36743c-1.73383,1.51245 -3.89184,2.65604 -6.47407,3.43072c-2.58227,0.81154 -5.7363,1.10668 -9.46212,0.88535c-0.44267,-1.29115 -0.66401,-2.76671 -0.66401,-4.42673c-0.0369,-1.66002 0.05535,-3.09871 0.27669,-4.31606c1.03288,0 2.1027,0.03687 3.20938,0.11067c1.14355,0.07377 2.15805,0.01845 3.04339,-0.16598c0.88535,-0.18447 1.54936,-0.60866 1.99203,-1.27267c0.47954,-0.66401 0.60869,-1.73383 0.38736,-3.20938c-0.92225,-5.31208 -2.08425,-10.62415 -3.48603,-15.93623c-1.40182,-5.34898 -2.78516,-10.51348 -4.15004,-15.49355c1.58622,0.18444 3.24624,0.22134 4.98007,0.11067c1.77069,-0.11067 3.35691,-0.0738 4.75873,0.11067c0.332,1.58622 0.68246,3.46758 1.05137,5.64408z" data-paper-data="{&quot;index&quot;:null}"/></g></g></svg>