<svg version="1.1" xmlns="http://www.w3.org/2000/svg" xmlns:xlink="http://www.w3.org/1999/xlink" width="31.98293" height="47.40816" viewBox="0,0,31.98293,47.40816"><g transform="translate(-224.00854,-156.29592)"><g data-paper-data="{&quot;isPaintingLayer&quot;:true}" fill="#ff0000" fill-rule="nonzero" stroke="#000000" stroke-width="0" stroke-linecap="square" stroke-linejoin="miter" stroke-miterlimit="10" stroke-dasharray="" stroke-dashoffset="0" style="mix-blend-mode: normal"><path d="M255.99146,203.45496c-1.51249,0 -3.22783,0.05535 -5.14606,0.16602c-1.88136,0.11067 -3.81804,0.11067 -5.81006,0h-0.05532c-0.44267,-1.03292 -0.99601,-2.25027 -1.66002,-3.65205c-0.66401,-1.40179 -1.40182,-2.87737 -2.21336,-4.42673c-0.77468,-1.54936 -1.62316,-3.06181 -2.54537,-4.5374c-0.92221,-1.51245 -1.84449,-2.84047 -2.76671,-3.98406l-0.11067,-0.16598c-0.14753,0.99601 -0.22134,2.23182 -0.22134,3.7074c0,1.47559 0.03687,3.00649 0.11067,4.59275c0.0738,1.54936 0.14753,3.02494 0.22134,4.42673c0.0738,1.40179 0.14753,2.52692 0.22134,3.3754c-0.77468,0.2951 -1.77069,0.49802 -2.98804,0.60869c-1.18048,0.07377 -2.37935,0.11067 -3.5967,0.11067c-1.18048,0.0369 -2.25023,0.0369 -3.20938,0c-0.92221,-0.0369 -1.494,-0.0369 -1.71534,0c0.0738,0 0.12912,-0.60866 0.16602,-1.82601c0.0738,-1.21735 0.11067,-2.80361 0.11067,-4.75873c0,-1.99203 0,-4.27916 0,-6.86143c0,-2.58227 -0.01845,-5.23831 -0.05532,-7.96811c-0.03687,-2.76671 -0.09222,-5.49651 -0.16598,-8.18945c-0.03687,-2.7298 -0.09222,-5.21986 -0.16598,-7.47009c-0.03687,-2.28713 -0.09222,-4.22384 -0.16598,-5.81006c-0.03687,-1.62312 -0.11067,-2.7298 -0.22134,-3.32005c2.47157,-0.332 5.18296,-0.64556 8.13413,-0.94066c2.95118,-0.332 6.03144,-0.31355 9.24082,0.05535c2.61917,0.11067 4.96162,0.84844 7.02745,2.21336c2.06583,1.36492 3.6705,3.06181 4.81409,5.09074c1.14355,2.02893 1.75224,4.27916 1.82604,6.75076c0.0738,2.4347 -0.57179,4.79564 -1.93668,7.08277c-0.84848,1.58626 -1.97358,2.91428 -3.37536,3.98406c-1.36488,1.03292 -3.09871,1.62312 -5.20141,1.77069h-0.27665h-0.05532v0.05535c0.92221,1.62312 1.91823,3.24628 2.98804,4.8694c1.10668,1.58626 2.19491,3.20938 3.26473,4.8694c1.06982,1.62312 2.08425,3.28315 3.04339,4.98007c0.95915,1.66002 1.77069,3.39381 2.4347,5.20141zM233.74716,168.70513c0.03687,0.70091 0.05535,1.43869 0.05535,2.21336c0,0.73778 0,1.45714 0,2.15805c0.03687,0.70091 0.11067,1.29112 0.22134,1.77069h0.05535c0.99601,0.11067 2.08425,0.18444 3.26473,0.22134c1.21735,0.0369 2.34248,-0.0369 3.3754,-0.22134c0.84848,-0.14757 1.49404,-0.55334 1.93671,-1.21735c0.47954,-0.70091 0.75623,-1.45714 0.83003,-2.26868c0.11067,-0.84844 0.03687,-1.67847 -0.22134,-2.49002c-0.2582,-0.81158 -0.70088,-1.45714 -1.32802,-1.93668c-0.95915,-0.88535 -2.19491,-1.29112 -3.70737,-1.21735c-1.47555,0.07377 -2.98804,0.42422 -4.5374,1.05137c0.03687,0.55334 0.05535,1.1989 0.05535,1.93671z"/></g></g></svg>