<svg version="1.1" xmlns="http://www.w3.org/2000/svg" xmlns:xlink="http://www.w3.org/1999/xlink" width="39.89048" height="46.54796" viewBox="0,0,39.89048,46.54796"><g transform="translate(-220.05476,-156.72602)"><g data-paper-data="{&quot;isPaintingLayer&quot;:true}" fill="#ff0000" fill-rule="nonzero" stroke="#000000" stroke-width="0" stroke-linecap="square" stroke-linejoin="miter" stroke-miterlimit="10" stroke-dasharray="" stroke-dashoffset="0" style="mix-blend-mode: normal"><path d="M232.39529,203.27371h-10.01316c-0.79385,0 -1.38921,-0.1804 -1.78612,-0.54125c-0.36084,-0.36081 -0.54125,-0.95621 -0.54125,-1.78612v-41.89296c0,-0.79381 0.1804,-1.37116 0.54125,-1.732c0.39691,-0.39691 0.99231,-0.59536 1.78615,-0.59536h10.01319c0.82991,0 1.4253,0.19846 1.78615,0.5954c0.36081,0.36084 0.54125,0.93819 0.54125,1.732v14.88447h2.59801l6.65743,-15.04682c0.32475,-0.79381 0.73971,-1.35312 1.2449,-1.67786c0.50516,-0.32475 1.17271,-0.48711 2.00266,-0.48711h9.95905c0.72165,0 1.20881,0.19846 1.4614,0.5954c0.25256,0.36084 0.23455,0.88405 -0.05411,1.56965l-6.60328,15.04682c2.41757,0.14434 4.34807,1.01035 5.79142,2.59801c1.44332,1.5516 2.16501,3.60836 2.16501,6.17028v18.24023c0,0.82995 -0.18044,1.4253 -0.54125,1.78615c-0.36084,0.36084 -0.95621,0.54125 -1.78612,0.54125h-9.95905c-0.79385,0 -1.38921,-0.1804 -1.78612,-0.54125c-0.36084,-0.36081 -0.54125,-0.95621 -0.54125,-1.78612v-12.61117c0,-0.68557 -0.18044,-1.20881 -0.54125,-1.56962c-0.32475,-0.39691 -0.82995,-0.59536 -1.51551,-0.59536h-8.5518v14.77621c0,0.82995 -0.18044,1.4253 -0.54125,1.78615c-0.36084,0.36084 -0.95621,0.54125 -1.78612,0.54125z"/></g></g></svg>