<svg version="1.1" xmlns="http://www.w3.org/2000/svg" xmlns:xlink="http://www.w3.org/1999/xlink" width="34.64034" height="46.5478" viewBox="0,0,34.64034,46.5478"><g transform="translate(-222.67983,-156.7261)"><g data-paper-data="{&quot;isPaintingLayer&quot;:true}" fill="#ff0000" fill-rule="nonzero" stroke="#000000" stroke-width="0" stroke-linecap="square" stroke-linejoin="miter" stroke-miterlimit="10" stroke-dasharray="" stroke-dashoffset="0" style="mix-blend-mode: normal"><path d="M254.9926,203.27379h-29.9854c-0.79385,0 -1.38921,-0.18044 -1.78612,-0.54125c-0.36084,-0.36084 -0.54125,-0.95621 -0.54125,-1.78612v-41.89296c0,-0.79385 0.1804,-1.37119 0.54125,-1.732c0.39691,-0.39694 0.99231,-0.59536 1.78615,-0.59536h29.9854c0.82991,0 1.4253,0.19846 1.78615,0.5954c0.36081,0.36081 0.54125,0.93816 0.54125,1.732v7.57753c0,0.82991 -0.18044,1.4253 -0.54125,1.78615c-0.36084,0.36081 -0.95621,0.54125 -1.78612,0.54125h-17.80719v4.97952h12.6112c0.79381,0 1.37116,0.1804 1.732,0.54125c0.39691,0.36081 0.5954,0.95621 0.5954,1.78615v6.92804c0,0.79381 -0.19846,1.38921 -0.59536,1.78615c-0.36084,0.36081 -0.93819,0.54125 -1.732,0.54125h-12.61117v5.52078h17.80723c0.82991,0 1.4253,0.19846 1.78615,0.5954c0.36081,0.36081 0.54125,0.93816 0.54125,1.732v7.57753c0,0.82991 -0.18044,1.4253 -0.54125,1.78615c-0.36084,0.36081 -0.95621,0.54125 -1.78612,0.54125z"/></g></g></svg>