<svg version="1.1" xmlns="http://www.w3.org/2000/svg" xmlns:xlink="http://www.w3.org/1999/xlink" width="29.84915" height="47.15943" viewBox="0,0,29.84915,47.15943"><g transform="translate(-225.07542,-156.42028)"><g data-paper-data="{&quot;isPaintingLayer&quot;:true}" fill="#ff0000" fill-rule="nonzero" stroke="#000000" stroke-width="0" stroke-linecap="square" stroke-linejoin="miter" stroke-miterlimit="10" stroke-dasharray="" stroke-dashoffset="0" style="mix-blend-mode: normal"><path d="M254.66633,181.92891c0.0738,1.47555 0.14757,2.93273 0.22134,4.37141c0.0738,1.40179 0.0369,2.84047 -0.11067,4.31606c-0.22134,1.62312 -0.60866,3.19093 -1.162,4.70342c-0.51644,1.51245 -1.2358,2.91424 -2.15801,4.20539c-0.92221,1.10668 -2.0658,1.97358 -3.43072,2.60072c-1.36488,0.62711 -2.84047,1.05137 -4.42673,1.2727c-1.54936,0.22134 -3.17248,0.23979 -4.8694,0.05535c-1.66002,-0.18447 -3.24624,-0.53489 -4.75873,-1.05133c-1.51245,-0.55334 -2.89582,-1.2358 -4.15004,-2.04734c-1.25422,-0.84848 -2.26868,-1.82601 -3.04336,-2.93269c-1.47555,-2.25027 -1.99203,-5.07229 -1.54936,-8.4661v-0.332c1.54936,-0.0369 3.24628,-0.11067 5.09074,-0.22134c1.88136,-0.14757 3.6336,-0.11067 5.25676,0.11067c0.22134,0.84844 0.71936,1.60471 1.49404,2.26872c0.77468,0.62711 1.67847,0.9038 2.71139,0.83003c0.77468,-0.11067 1.40182,-0.42422 1.88136,-0.94066c0.51648,-0.51648 0.9038,-1.162 1.16203,-1.93668c0.25824,-0.81158 0.40581,-1.67847 0.44267,-2.60069c0.0369,-0.95915 0.0369,-1.84449 0,-2.65604l-0.05532,-0.05532c-1.47555,0.59021 -3.00649,0.9038 -4.59271,0.9407c-1.54936,0.03687 -3.04336,-0.18447 -4.48205,-0.66401c-1.40179,-0.51648 -2.71135,-1.21735 -3.9287,-2.1027c-1.21735,-0.92225 -2.25023,-2.01048 -3.09871,-3.2647c-0.59021,-0.92225 -1.05133,-2.02893 -1.38334,-3.32005c-0.332,-1.29115 -0.53489,-2.60069 -0.60866,-3.9287c-0.07377,-1.32802 -0.01845,-2.63759 0.16602,-3.9287c0.18447,-1.29115 0.47957,-2.41625 0.88535,-3.37536c0.22134,-0.40581 0.42422,-0.79313 0.60869,-1.162c0.22134,-0.36891 0.49802,-0.73781 0.83003,-1.10668c1.43869,-1.69692 3.28318,-2.93269 5.53341,-3.70737c2.25027,-0.81158 4.59275,-1.27267 7.02745,-1.38334c1.10668,0.07377 2.23182,0.11067 3.3754,0.11067c1.18048,0 2.30558,0.09222 3.3754,0.27669c1.06982,0.18444 2.06583,0.53489 2.98804,1.05137c0.92225,0.51644 1.71538,1.2727 2.37938,2.26872c1.03292,1.54936 1.66002,3.39381 1.88136,5.53341c0.22134,2.1027 0.35046,4.27916 0.38736,6.52943zM244.59552,170.5854c0.0369,-0.66401 -0.12912,-1.25425 -0.49799,-1.77069c-0.332,-0.55334 -0.79313,-0.97756 -1.38334,-1.27267c-0.59021,-0.29514 -1.27267,-0.46112 -2.04734,-0.49799c-0.73778,-0.0369 -1.43869,0.11067 -2.1027,0.44267c-0.59021,0.22134 -1.08823,0.53489 -1.494,0.9407c-0.36887,0.36887 -0.55334,0.88535 -0.55334,1.54936c0.0369,0.44267 0.09222,0.88535 0.16602,1.32802c0.0738,0.40577 0.16602,0.77468 0.27669,1.10668v0.11067c0.332,0.66401 0.81158,1.18045 1.43869,1.54936c0.62714,0.332 1.2727,0.51644 1.93671,0.55334c0.70091,0.03687 1.36492,-0.0738 1.99203,-0.332c0.66401,-0.25824 1.18048,-0.66401 1.54936,-1.21735c0.11067,-0.22134 0.16602,-0.35046 0.16602,-0.38732c0.0369,-0.0738 0.11067,-0.20289 0.22134,-0.38732c0.0738,-0.22134 0.11067,-0.36891 0.11067,-0.44267c0,-0.0738 0.0369,-0.22134 0.11067,-0.44267c0.0738,-0.18447 0.11067,-0.46112 0.11067,-0.82999z"/></g></g></svg>