<svg version="1.1" xmlns="http://www.w3.org/2000/svg" xmlns:xlink="http://www.w3.org/1999/xlink" width="27.99766" height="46.64607" viewBox="0,0,27.99766,46.64607"><g transform="translate(-226.00117,-156.67696)"><g data-paper-data="{&quot;isPaintingLayer&quot;:true}" fill="#ff0000" fill-rule="nonzero" stroke="#000000" stroke-width="0" stroke-linecap="square" stroke-linejoin="miter" stroke-miterlimit="10" stroke-dasharray="" stroke-dashoffset="0" style="mix-blend-mode: normal"><path d="M240,156.67697c2.69977,0 5.09957,0.61662 7.1994,1.84986c2.13317,1.1999 3.79968,2.84978 4.99958,4.9496c1.1999,2.09982 1.79985,4.51629 1.79985,7.24941c0,2.66643 -0.59995,5.06623 -1.79985,7.1994c-1.1999,2.09982 -2.86642,3.76634 -4.99958,4.99958c-2.09982,1.1999 -4.49962,1.79985 -7.1994,1.79985c-2.66643,0 -5.06623,-0.59995 -7.1994,-1.79985c-2.09982,-1.23324 -3.76634,-2.89976 -4.99958,-4.99958c-1.1999,-2.13317 -1.79985,-4.53296 -1.79985,-7.1994c0,-2.73312 0.59995,-5.14955 1.79985,-7.24938c1.23324,-2.09982 2.89976,-3.74967 4.99958,-4.94957c2.13317,-1.23324 4.53296,-1.84983 7.1994,-1.84983zM240.05001,160.9766c-1.83319,0 -3.48304,0.41664 -4.94957,1.24991c-1.43322,0.83327 -2.56644,1.98316 -3.39972,3.44973c-0.83327,1.46653 -1.24988,3.14975 -1.24988,5.04959c0,1.8665 0.41664,3.53305 1.24991,4.99958c0.83327,1.46653 1.96649,2.63312 3.39972,3.49971c1.46653,0.83327 3.11641,1.24991 4.9496,1.24991c1.83319,0 3.46637,-0.41664 4.89959,-1.24988c1.43322,-0.86658 2.56644,-2.03317 3.39972,-3.49971c0.83327,-1.46653 1.24991,-3.13308 1.24991,-4.99958c0,-1.89984 -0.41664,-3.58303 -1.24988,-5.04956c-0.83327,-1.46653 -1.96649,-2.61645 -3.39972,-3.44969c-1.43322,-0.83327 -3.0664,-1.24988 -4.89959,-1.24988zM252.29897,177.82517l-14.74875,24.19797c-0.5333,0.86658 -1.23324,1.29989 -2.09982,1.29989c-0.59995,0 -1.11658,-0.18331 -1.54985,-0.54994c-0.43331,-0.36663 -0.69994,-0.8166 -0.79993,-1.34987c-0.09999,-0.56661 0,-1.11658 0.29997,-1.64985l9.84919,-16.04864z"/></g></g></svg>