<svg version="1.1" xmlns="http://www.w3.org/2000/svg" xmlns:xlink="http://www.w3.org/1999/xlink" width="40.21527" height="46.54791" viewBox="0,0,40.21527,46.54791"><g transform="translate(-219.89237,-156.72605)"><g data-paper-data="{&quot;isPaintingLayer&quot;:true}" fill="#ff0000" fill-rule="nonzero" stroke="#000000" stroke-width="0" stroke-linecap="square" stroke-linejoin="miter" stroke-miterlimit="10" stroke-dasharray="" stroke-dashoffset="0" style="mix-blend-mode: normal"><path d="M248.41633,203.2737h-16.77883c-0.82995,0 -1.51551,-0.14431 -2.05676,-0.433c-0.54125,-0.32475 -0.95621,-0.88405 -1.24486,-1.67786l-6.33264,-15.85869c-0.39694,-0.93816 -0.72169,-1.76807 -0.97425,-2.48977c-0.2526,-0.72165 -0.4691,-1.38921 -0.64951,-2.00262c-0.18044,-0.64951 -0.3067,-1.33506 -0.37886,-2.05676c-0.07219,-0.72165 -0.10825,-1.58766 -0.10825,-2.59801v-17.10358c0,-0.79381 0.1804,-1.37116 0.54125,-1.732c0.39691,-0.39691 0.99231,-0.59536 1.78615,-0.59536h10.2838c0.82991,0 1.4614,0.19846 1.8944,0.5954c0.433,0.36084 0.64951,0.93819 0.64951,1.732v17.86134c0,0.433 0.03606,0.86601 0.10825,1.29901c0.10825,0.433 0.23455,0.88405 0.3789,1.35315l3.08516,9.03894c0.10825,0.433 0.25256,0.72169 0.433,0.86601c0.1804,0.14434 0.433,0.2165 0.75775,0.2165h0.70365c0.36081,0 0.61341,-0.07216 0.75775,-0.2165c0.1804,-0.14431 0.3428,-0.433 0.48714,-0.86601l3.03102,-9.09305c0.1804,-0.50516 0.3067,-0.95621 0.3789,-1.35312c0.10825,-0.433 0.1624,-0.86601 0.1624,-1.29901v-17.80719c0,-0.79381 0.1804,-1.37116 0.54125,-1.732c0.36081,-0.39691 0.95621,-0.59536 1.78615,-0.59536h10.12144c0.82991,0 1.4253,0.19846 1.78615,0.5954c0.36081,0.36084 0.54125,0.93819 0.54125,1.732v17.10358c0,1.01035 -0.0361,1.87636 -0.10825,2.59801c-0.0361,0.72169 -0.14434,1.40726 -0.32475,2.05676c-0.18044,0.61344 -0.39694,1.28096 -0.64951,2.00266c-0.2526,0.72169 -0.57735,1.5516 -0.97425,2.48977l-6.33264,15.85872c-0.2887,0.79385 -0.70361,1.35315 -1.24486,1.6779c-0.54125,0.2887 -1.22685,0.433 -2.05676,0.433z"/></g></g></svg>