<svg version="1.1" xmlns="http://www.w3.org/2000/svg" xmlns:xlink="http://www.w3.org/1999/xlink" width="33.1973" height="45.84625" viewBox="0,0,33.1973,45.84625"><g transform="translate(-223.40135,-169.82688)"><g data-paper-data="{&quot;isPaintingLayer&quot;:true}" fill="#ff0000" fill-rule="nonzero" stroke="#000000" stroke-width="0" stroke-linecap="square" stroke-linejoin="miter" stroke-miterlimit="10" stroke-dasharray="" stroke-dashoffset="0" style="mix-blend-mode: normal"><path d="M239.49996,203.07404c-3.13308,0 -5.91618,-0.69994 -8.34928,-2.09982c-2.43314,-1.43322 -4.33298,-3.39972 -5.69952,-5.89951c-1.36654,-2.49979 -2.04981,-5.36621 -2.04981,-8.59928c0,-3.26638 0.71661,-6.14947 2.14984,-8.64926c1.43322,-2.49979 3.39972,-4.44961 5.89951,-5.84949c2.49979,-1.43322 5.34957,-2.1498 8.5493,-2.1498c3.19973,0 6.04951,0.71661 8.5493,2.14984c2.49979,1.39988 4.44964,3.34974 5.84953,5.84953c1.43322,2.49979 2.16647,5.38288 2.19982,8.64929l-2.69977,1.44989c0,2.9331 -0.61662,5.54955 -1.84983,7.84936c-1.23324,2.26647 -2.9331,4.04968 -5.09957,5.34957c-2.16647,1.29989 -4.64959,1.94985 -7.44936,1.94985zM240.09991,215.67298c-3.13308,0 -5.89951,-0.59995 -8.2993,-1.79985c-2.36646,-1.16656 -4.33298,-2.74975 -5.89951,-4.74959c-0.43331,-0.49996 -0.63329,-1.03326 -0.59995,-1.59987c0.06665,-0.5333 0.36663,-0.98325 0.89992,-1.34987c0.49996,-0.36663 1.06657,-0.49996 1.69986,-0.39997c0.6666,0.13333 1.16656,0.44998 1.49987,0.94994c1.16656,1.43322 2.64979,2.58311 4.44964,3.44973c1.83319,0.86658 3.93301,1.29989 6.29947,1.29989c2.23316,0 4.24966,-0.5333 6.04951,-1.59987c1.79985,-1.06657 3.2164,-2.58311 4.24966,-4.5496c1.06657,-1.93318 1.59987,-4.21632 1.59987,-6.84941v-9.04923l1.74987,-3.49971l2.79977,0.54997v12.19898c0,3.19973 -0.71661,6.08282 -2.1498,8.64929c-1.43322,2.56644 -3.38304,4.59961 -5.84949,6.09949c-2.46645,1.49987 -5.29956,2.24983 -8.49929,2.24983zM239.99992,198.87439c2.33315,0 4.39963,-0.51663 6.19948,-1.54985c1.83319,-1.06657 3.26638,-2.53313 4.29964,-4.39963c1.03326,-1.8665 1.54989,-4.01634 1.54989,-6.44944c0,-2.43314 -0.51663,-4.58294 -1.54985,-6.44944c-1.03326,-1.89984 -2.46645,-3.38304 -4.29964,-4.44961c-1.79985,-1.06657 -3.86633,-1.59987 -6.19948,-1.59987c-2.36646,0 -4.46628,0.5333 -6.29947,1.59987c-1.83319,1.06657 -3.26638,2.5498 -4.29964,4.44964c-1.03326,1.8665 -1.54985,4.01634 -1.54985,6.44948c0,2.43314 0.51663,4.58294 1.54989,6.44948c1.03326,1.8665 2.46645,3.33306 4.29964,4.39963c1.83319,1.03326 3.93301,1.54989 6.29947,1.54989z"/></g></g></svg>